<?xml version="1.0" encoding="utf-8"?>
<!-- Generator: Adobe Illustrator 22.0.1, SVG Export Plug-In . SVG Version: 6.00 Build 0)  -->
<svg version="1.1" id="Layer_1" xmlns="http://www.w3.org/2000/svg" xmlns:xlink="http://www.w3.org/1999/xlink" x="0px" y="0px"
	 viewBox="0 0 253.3 60.2" style="enable-background:new 0 0 253.3 60.2;" xml:space="preserve">
<style type="text/css">
	.st0{enable-background:new    ;}
	.st1{fill:#231F20;}
</style>
<title>Asset 1</title>
<g id="Layer_2_1_">
	<g id="Layer_1-2">
		<g class="st0">
			<path class="st1" d="M18.8,22.6l0.1-0.1l1.6-2l0.1-0.2l0.6-0.7l0,0l0.3-0.5l0.2-0.1l0.9-1.2l1.1-1.5c0,0,0-0.1,0.1-0.1l0.2-0.4
				l0.1-0.4l0.3-0.4l0.4-0.8l0.1-0.2l0.3-0.5l0.1-0.3l0.4-0.5l0.2-0.4l0.2-0.4c0.2-0.4,0.3-0.7,0.4-1l0.1-0.2l0.1-0.1
				c0.1-0.2,0.1-0.4,0.1-0.5l-0.1-0.2l0,0V9.8l-0.1-0.3V9.2c-0.6-0.4-1.6-0.5-2-0.3l-1,0.4l-0.3,0.1h-0.1l-1,0.4l0,0L21.9,10
				l-0.1,0.1l-0.3,0.1l-0.2,0.1c-0.5,0.2-1,0.5-1.5,0.7l0,0c-0.1,0.1-0.2,0.1-0.3,0.1l-0.6,0.5l-0.2,0.2h-0.3L18,12h-0.1l-0.2,0.1
				l-0.1,0.1l-1.4,1.1h-0.1l-0.3,0.3v0.1l0,0l-1.1,0.8l-0.1,0.1h-0.1L14,14.8L13.7,15l0,0l-0.3,0.3l-0.2,0.1l-0.7,0.5h-0.1l-0.6,0.5
				l-0.6,0.4l-1,0.8L10,17.9L9.9,18l-0.1,0.1l-0.5,0.4v0.1l-0.1,0.3L9,18.8L8.7,19l-0.3,0.1l0,0l-0.1,0.1l-0.1,0.1L8,19.4l-1.3,1
				v0.2l-0.1,0.2L6.2,21H5.9l-0.3,0.2v0.1H5.5l-0.1,0.4l-0.1,0.2c0.3,0,0.4,0.4,0.1,0.6l-0.3,0.1L5,22.7v0.1L4.8,23l-0.5,0.3L4,23.5
				l-0.2-0.1l-0.1-0.1c-0.1,0-0.1,0-0.2,0c-0.2-0.1-0.3-0.3-0.3-0.5c0.1-0.3,0.3-0.7,0.7-1.2l0.3-0.3v-0.1v-0.1L4.3,21l0.1-0.1V21
				h0.1l0.2-0.1l0,0v-0.1h0.1L5,20.6l0,0l0.1-0.2l0.2-0.1l0.1-0.2l0.3-0.3L6,19.7l0,0l0.2-0.1l0.2-0.1h0.1l0.1-0.1l0.1-0.1h0.1L7,19
				l0.1-0.1l0.1-0.1l0.1-0.1l0.1-0.1l0.1-0.2l0.1-0.1h0.2l1.1-0.8l0,0l0.3-0.3l0.1-0.1h0.1c0.5-0.4,1-0.7,1.3-1l1.2-0.8l0.1-0.1
				l0.2-0.1l0.2-0.2l0.2-0.1l0.1-0.1l0.1-0.1l0.5-0.2l0.4-0.2l0.4-0.2l0.5-0.3c0.2-0.1,0.4-0.2,0.6-0.3v-0.1l0.2-0.2l0.1-0.1
				l0.3-0.1l0.1-0.1l0.2-0.1l0.2-0.1l0.6-0.4L17,12l0.1-0.1l0.2-0.1l0.1-0.1l0.1-0.2l0.1-0.1h0.2l0.2-0.1l0,0l0.4-0.3l0.1-0.1
				l0.2-0.2h0.1h0.1c0.3-0.1,0.5-0.3,0.8-0.4l0.1-0.1l0.1-0.1h0.2l0.1-0.1l0,0l0.1-0.1l0,0l0.1-0.1c0.7-0.3,1.4-0.7,2.1-1l0.2-0.1
				L23,8.6h0.1l0.2-0.1l0.9-0.4L24.7,8h0.1c0.1,0,0.1,0,0.1,0c0.5-0.1,2.4-0.5,2.9,0.3C27.9,8.5,28,8.8,28,9.1l0.1,0.2V10L28,10.3
				l-0.2,0.4l-0.1,0.5l-0.1,0.2l-0.1,0.3l-0.1,0.2v0.2l-0.2,0.2v0.1l-0.1,0.2l-0.5,0.9v0.1v0.1l-0.2,0.1L25.8,14v0.1l-0.1,0.1l0,0
				l-0.3,0.5c-0.8,1.3-1.6,2.4-2.5,3.6v0.1h-0.1l-0.2,0.3l-0.4,0.6l0,0l-0.3,0.3l-1.1,1.5l-0.3,0.3l-0.9,1.2l-0.8,1l-0.3,0.3
				L18,24.7L17.7,25l-0.8,1l-0.1,0.3h-0.2l-0.4,0.5l-0.1,0.1l0,0L16,27l-0.1,0.3l-0.3,0.5v0.1L15.4,28l-0.5,0.7l-0.3,0.5l-0.1,0.2
				l-0.2,0.2l-0.1,0.3l-0.5,0.7l-0.1,0.3l-0.3,0.3L13,31.4l0.4-0.3l0,0c0.4-0.4,0.8-0.9,1.2-1.3l0,0l0.2-0.3l0.3-0.3l0.2-0.4
				l0.1-0.1l0.2-0.2l0.3-0.2l0.3-0.3l0.6-0.4l0,0l0.1-0.1c0-0.1,0.1-0.1,0.1-0.1l0.1-0.3l0,0l0.1-0.1h0.1l0.3-0.3l0.1-0.1l0.1-0.1
				h0.1c0.7-0.7,1.4-1.3,2.1-1.9l0.3-0.4l0.3-0.2v0.1l1.1-1l0,0l0.3-0.3l0,0l0.4-0.3l0.1-0.2l0.6-0.5l0.7-0.6l0.1-0.1l0.4-0.3
				l0.2-0.1c0.2-0.2,0.4-0.3,0.6-0.4l0,0h0.1l0.1-0.1v-0.1l0.2-0.1l0.2-0.1l0.7-0.5l0.1-0.2h0.2l0,0l0.5-0.3l0.3-0.3l0.1-0.1
				l0.2-0.1l0.1-0.1l0.2-0.2l0.1-0.1l0.8-0.3l0.6-0.3l0.2-0.2l0.1-0.1l0.6-0.3l0.2-0.1l0,0c0.1-0.1,0.2-0.1,0.3-0.2l0.1-0.1l0.4-0.2
				l0.1-0.1h0.1l0.4-0.2l0.1-0.1l0.2-0.1l0.4-0.1l0,0c0.5-0.2,1-0.3,1.4-0.2c0.2,0.1,0.3,0.1,0.4,0.3c0,0.2,0,0.3,0,0.5l0,0l0.1,0.1
				l0.1,0.1v0.1l0,0v0.2l0,0v0.1v0.1v0.2l-0.1,0.2l0,0l0,0l-0.1,0.1v0.1l0.1,0.1h-0.1l-0.1,0.1l0,0h-0.1l-0.1,0.1h-0.1h-0.1L33.9,18
				v0.2l-0.1,0.1l-0.2,0.2L33.3,19v0.1l0,0l0,0v0.1l-0.1,0.1L33,19.6L32.9,20l-0.1,0.2L32.6,20l-0.1,0.2l-0.1,0.2l-0.1,0.1L32,20.7
				v0.1v0.1l0,0h-0.1l-0.3,0.4l-0.1,0.1l-0.2,0.2l-0.1,0.2l-0.4,0.4l-0.1,0.1l-0.3,0.3l-1.2,1.7l-0.1,0.2l0,0l0,0L29,24.6v0.1
				l0.1,0.1H29l-0.1,0.1V25h-0.1l-0.1,0.1h-0.1l-0.1,0.1c0,0,0,0,0,0.1v0.1l-0.1,0.1l-0.1,0.1l-0.1,0.1l-0.4,0.5v0.1l0,0l-0.1,0.1
				l-0.1,0.3l-0.3,0.5v0.1l-0.1,0.1l-0.4,0.8l-0.2,0.5l-0.1,0.2l-0.1,0.2l-0.1,0.3l-0.8,1L25.2,31l-0.3,0.4l-0.2,0.4L24.3,33h0.1
				v-0.1l0.2-0.2l0.3-0.4l0.2-0.1l0.3-0.2l0.1-0.1l0.1-0.1l-0.1-0.1v-0.1l0.1-0.1l0,0l0,0l-0.1,0.1l0.1-0.1l0.2-0.1l0.1-0.1H26
				l0.4-0.3l0.1-0.1l0.2-0.2l0.2-0.2l0.5-0.3l0.1-0.1l1-0.8l0.1-0.1l0.1-0.1V29l0.3-0.2l0.2-0.2l0.3-0.3l0.2-0.1l0.1-0.1l0.2-0.2
				h0.1l0.1-0.1l0.2-0.1l0.1-0.1l0.2-0.1l0.4-0.3l0.1-0.1l0.2-0.1v-0.1l0.2-0.1v-0.1l0,0l0,0h-0.2l0.1-0.2l0.2-0.1h0.1h0.1H32
				l0.1-0.1l0.1-0.1v-0.1l0.1-0.1l0,0l0,0l1.5-1.3l0.1-0.1l0.1-0.1l0.1-0.2l0.1-0.1V24l0.1-0.1h0.2l0.2-0.1l0.1-0.1l0.1-0.1l0.1-0.1
				l0.5-0.4l1.4-1.2l0.2-0.2l0.4-0.2v-0.1L38,21h0.2l0.1-0.1l0.1-0.1l0,0l0,0l1.7-1.5l0.3-0.2l0.1-0.2l0.3-0.2l1.5-1.2l0.2-0.3h0.3
				l1-0.8l0,0l0.5-0.5l0.1-0.1l1.2-0.9l0.1-0.1l0.2-0.1L46,15l0,0h0.1l0.1-0.1c0.8-0.5,0.8-0.5,1.6-1.3l0.2-0.1l0.7-0.6l0.1-0.2h0.1
				l0.2-0.1l0.4-0.3v-0.1l0.1-0.2h0.1l0.3-0.1l0.1-0.1l0.2-0.1h0.1l0.7-0.5l0.1-0.2l0.1-0.1l0.1-0.1l0.1-0.1v-0.2h0.1h0.2l0.2-0.1
				l0.5-0.1l0.4-0.1c0.4-0.1,1-0.3,1.5,0.2h0.1l0.1,0.1l0.1,0.1l0,0l0,0l0,0v0.1v0.1l0.1,0.1V11c0,0.1,0.1,0.2,0.1,0.3l0.1,0.3v0.2
				v0.1l-0.1,0.4l0,0l-0.1,0.5v0.1V13l0,0v0.2l0,0v0.1v0.1v0.2l-0.1,0.2l0,0l0,0l-0.1,0.1V14v0.1l0,0l-0.1,0.1l0,0h-0.1
				c-0.2,0.5-0.4,1-0.6,1.4L53.7,16l-0.1,0.6l-0.5,1l-0.2,0.3l-0.5,1l-0.2,0.3L52,19.5l-0.5,1l-0.2,0.3l0,0c-0.5,1-1.1,2.1-1.6,3.2
				l-0.8,1.6l-0.1,0.1h-0.1l-0.2,0.4v0.3l-0.1,0.1l-0.2,0.1l-0.3,0.5l-0.3,0.6l-0.1,0.1l-0.2,0.3l-0.1,0.3L47,28.7h0.2v0.2L47.1,29
				H47l0,0v-0.1L46.9,29l-0.3,0.2l0.1,0.2l-0.1,0.1h-0.1L46,30.2v0.2l-0.3,0.5V31l-0.5,0.8V32l-1.1,1.7L44,33.9l-0.2,0.3v0.1
				l-0.3,0.5l-0.1,0.1v0.2l-0.5,0.7l-0.1,0.1L42.6,36h-0.1v0.2l-0.1,0.2h-0.1l-0.1,0.3L42,36.9v0.2l-0.2,0.3l-0.3,0.3L41.3,38
				l-0.5,0.9V39h-0.1v0.1l0,0l-0.2,0.4l-0.1,0.3l0,0c-0.6,1-1.1,2-1.5,3v0.1l-0.1,0.2v0.1l-0.1,0.3l-0.1,0.1v0.1l-0.2,0.6l-0.1,0.1
				v0.1l0,0v0.1v0.1l-0.1,0.2L38.1,45v0.1L38,45.4l-0.1,0.2l-0.1,0.1l-0.2,0.8c-0.3,0.7-0.6,1.6-0.8,2.4V49v0.3v0.1v0.1l0,0l0,0l0,0
				l0,0l0.2,0.2l0.2,0.3v0.1v0.2c0.1-0.1,0.2-0.2,0.3-0.4c0.3-0.4,0.9-0.2,0.6,0.3c-0.6,1-2.3,1.3-2.3-0.4c0.1-2.3,1.1-4.5,2-6.5
				c0.3-0.9,0.9-1.8,1.4-2.6l0.1-0.1l0.1-0.2l0.2-0.3l0,0l0.5-1l0.1-0.1l0.7-1.1c0.3-0.5,0.6-1.1,0.9-1.6l0.1-0.3l0.3-0.3l0.8-1.4
				l0.1-0.2l0.1-0.2l0.1-0.2l0.7-1.2l0.1-0.1v-0.1l0.2-0.3l0.5-0.8l0.1-0.1L45,31l0.2-0.3l0,0l0.2-0.5l0.1-0.3l1.5-2.3l0.4-0.6
				l0.1-0.1v-0.1l0.3-0.4l0,0l1.1-1.9l0.1-0.1l0.4-0.9l0.1-0.1l0.1-0.3l0,0l0.1-0.1l0.5-0.9l0.1-0.1l0.1-0.1l0.2-0.3
				c0,0,0-0.1,0.1-0.1c0,0,0,0,0-0.1v-0.1l0.4-1l0.1-0.3l0.1-0.7l0.4-0.5l0.5-1.2l0.5-1.2l0.2-0.3l0.1-0.4l0.1-0.1v-0.1l0.1-0.1
				l0.3-0.7l0.3-0.7l0.5-0.6l0.1-0.5v-0.2l0.1-0.2l-0.1-0.1h-0.1l-0.1-0.1H54l-0.2-0.4l-0.1-0.5v-0.2v-0.1l-0.3,0.2h-0.3h-0.3l0,0
				l0,0l0,0l0,0l-0.2,0.1l-0.4,0.2l-0.1,0.1l-0.3,0.2h-0.1l-1.1,0.7l-0.3,0.2H50l-0.6,0.3l-0.3,0.3l-1.7,1.1L47,14.8l0,0L46.8,15
				h-0.1c-0.6,0.4-1,0.7-1.3,1L45,16.3l-0.1,0.1l-0.5,0.4l-0.1,0.1L44.2,17l0,0l0,0l0,0l0,0l-0.3,0.2l0,0l-0.7,0.6L43,17.9l-0.2,0.2
				l-0.3,0.2L42,18.7l-0.1,0.1l-1.5,1.3l-0.5,0.5l-0.1,0.1l-0.3,0.1L38.1,22v0.1L38,22.2l-0.1,0.1l-0.1,0.1l0,0l0,0l-0.1,0.1
				l-0.1,0.1l-0.2,0.2h-0.1L37,23v0.1l-0.1,0.1l-0.1,0.1l-0.1,0.1l-0.1,0.1l0,0v0.1l-0.2,0.1l-0.1,0.1l-0.6,0.6l-0.2,0.2l-0.1,0.2
				L35,25h-0.2l-2.5,2.2l-0.1,0.1l-0.1,0.1v0.1L32,27.6l-0.2,0.1l-0.7,0.6v0.1H31l0,0l0,0l0,0L30.4,29v0.1l-0.2,0.2l-0.1,0.1
				l-0.2,0.3l-0.3,0.1L29,30.2c-0.1,0.1-0.3,0.2-0.5,0.4L28.3,31l-0.1,0.1l-0.3,0.4l-0.5,0.2l-0.2-0.1L27,31.7l-0.5,0.6l-0.6,0.4
				l-0.5,0.4l-0.1,0.2l-0.1,0.2v0.1h0.1v0.1h-0.1l-0.6,0.4l-0.3,0.4l-0.1,0.2l-0.5,0.6L23,35.5l-0.3,0.1l-0.3-0.2v-0.2l-0.1,0.2
				v-0.5l0.1-0.3h-0.1v-0.2l0.1,0.1l0.1-0.2l0.2-0.2l0.2-0.5l0.5-0.8c0.3-0.5,0.5-1,0.8-1.5l0.4-0.6c0.1-0.1,0.1-0.2,0.2-0.3v-0.2
				l0.5-0.8l0.5-0.8l0.2-0.2l0.1-0.3l0.5-0.7l0.3-0.5l0.2-0.3l0.1-0.1c0.2-0.3,0.4-0.6,0.7-1l0.4-0.6l0.2-0.2l0.4-0.5
				c0.1-0.1,0.1-0.2,0.2-0.3l0.1-0.2v-0.1l0,0v-0.1l0.1-0.1l0.2-0.3l0.1-0.1l1-1.4l0.1-0.1l0.1-0.1l0.8-1.2l0.2-0.3l0,0l0.1-0.2l0,0
				v-0.1l0.1-0.1l0.1-0.1l0.3-0.4l0.1-0.3l0.5-0.8l0.2-0.4v-0.2l0.1-0.2v-0.3l0.1-0.3c-0.1-0.2-0.3-0.3-0.6-0.2
				c-0.5,0.1-0.9,0.3-1.3,0.5l-0.1,0.1h-0.1l-1.2,0.7l0,0l-0.2,0.1l-0.2,0.2L29.4,18h-0.1H29l-0.3,0.2l0,0h-0.1l0,0
				c-0.4,0.2-0.8,0.5-1.1,0.7c-0.1,0.1-0.2,0.1-0.3,0.2h-0.1l-0.2,0.1h-0.1c-0.7,0.4-1.3,0.8-2,1.3c-0.2,0.1-0.4,0.3-0.6,0.5
				L24,21.2l-0.2,0.1l-0.2,0.2l-0.3,0.2l-0.1,0.1h-0.1H23l-1,0.9l-0.5,0.6l-0.2,0.2L20.7,24l-0.3,0.3l-0.5,0.5l-1.7,1.7l0,0l0,0
				l-1.1,1.2L16.8,28c-0.1,0.1-0.2,0.2-0.3,0.3l-0.1,0.1l-0.3,0.3l-0.6,0.6l-0.1,0.2L15,29.8L14.9,30l0.1,0.4l-1,1l-0.6,0.7
				l-0.3,0.5L13,32.7l-0.1,0.4l-0.1,0.3L12.5,34L12,34.5h-0.3c-0.5,0.5-0.9,0.8-1.3,0.8l-0.2,0.1l-0.1-0.1V35
				c-0.1-0.3-0.1-0.3,0.1-0.4l0,0l0.1-0.2l0.2-0.3l0.1-0.5l0.3-0.4l0.2-0.4l0.1-0.2l0.2-0.3l0.2-0.2l0.1-0.2l0.1-0.1l0.5-0.6l0,0
				l0.2-0.2l0.1-0.3v-0.1h0.1h0.2l0.3-0.5l0.1-0.1h0.1v0.1l0.1-0.2l0.1-0.3l0.2-0.2l0.1-0.2H14v-0.1l0.3-0.3l1.4-1.7l0.1-0.1
				l0.2-0.2l0.4-0.5l0,0l0.1-0.1l0.3-0.3l0.1-0.1v-0.1l1.6-1.9L18.8,22.6z"/>
			<path class="st1" d="M60.6,29L60.6,29l0.1-0.1l0.5-0.6l0.1-0.2l0.1-0.1v-0.1l0.1-0.1l0.3-0.4l0.1-0.1v-0.1l0,0L62,27l0,0h-0.1
				h-0.3h-0.3l-0.8,0.3l-0.2,0.1h-0.1l-0.8,0.5l0,0L59.2,28L59,28.1l-0.2,0.1L58,28.6L57.4,29h-0.3l-0.4,0.2l-0.1,0.1l-0.3,0.2
				L56,29.6l-0.5,0.3L55.4,30l-0.2,0.1l-0.3,0.1l-0.3,0.1L54,30.7v0.1L53.7,31h-0.1l0,0h-0.3L53,31.1h-0.2c-0.1,0.1-0.2,0.1-0.3,0.1
				l-0.1,0.1l-0.6,0.2h-0.1l-0.4,0.2h-0.1h-0.1H51h-0.2l0,0c-0.5,0.1-0.8,0-0.9-0.3c-0.1-0.4,0-0.8,0.2-1.2l0.1-0.3h0.1v-0.1
				l0.1-0.2l0.1-0.1h0.1l0,0l0.1-0.1l0.2-0.3l0.3-0.2l0.1-0.1l0.2-0.4l0.1-0.1l0.2-0.2l0.3-0.3l1.3-1.1l0,0l0,0l0.4-0.3l0.1-0.1
				l0.5-0.4l0.2-0.1l0.7-0.5l0,0l0.3-0.4l0.1-0.1l0.1-0.2h0.1h0.2l0.1-0.1l0.2-0.1h0.1h0.1l0.1-0.1v-0.1l0.2-0.1l0.9-0.5l0.2-0.1
				l0.1-0.1l0.2-0.1h0.1h0.1l0.3-0.1h0.1l0.1-0.1h0.2l0.2-0.1l0.2-0.1h0.1L60,23h0.2h0.2h0.1h0.1l0,0h0.1l0.1,0.1v0.1h0.1l0.1,0.1
				v0.3l-0.1,0.1c0,0.1-0.1,0.1-0.3,0.3c-0.1,0.1-0.2,0-0.2,0L60,24.1h-0.2h-0.5L58.9,24l0,0h-0.1l0,0h-0.1h-0.2h-0.2l-0.4,0.2
				l-0.5,0.2l-0.6,0.3l-0.5,0.2c-0.2,0.1-0.3,0.2-0.5,0.3l0,0l-0.3,0.2l0,0h-0.1l-1.3,0.9L54,26.4l-0.3,0.3V27l-0.2,0.1l-0.3,0.1
				l-0.1,0.1l-0.3,0.3l-0.1,0.1l-0.1,0.1l-0.3,0.4l-0.1,0.1l-0.1,0.1L52,28.5l-0.1,0.1l-0.1,0.1H52l0,0l-0.1,0.1L51.8,29l-0.1,0.1
				l-0.1,0.2l-0.3,0.3v0.1v0.2V30v0.1L51.2,30l-0.1,0.1L51,30.2l-0.1,0.2l-0.1,0.2v0.1v0.1V31l0.1,0.1l0.1,0.1l0.1,0.1l0.6-0.2
				L52,31l0.4-0.1l0,0h0.1c0.4-0.1,0.7-0.3,1.1-0.5l0.1-0.1l0.2-0.1l0.1-0.1h0.2c0.3-0.1,0.6-0.3,1-0.5l0.1-0.1l0.2-0.1l0,0h0.1
				l0.1-0.1h0.1l0.4-0.2l0.2-0.1l0.2-0.1l0.8-0.4l0.2-0.1l0.8-0.4l0.2-0.1l0.5-0.3l0.3-0.2l0.5-0.3L60,27l0.2-0.1l0.1-0.1l0.3-0.2
				l0.4-0.2l0.9-0.2h0.3l0.3,0.1l0.2,0.1l0.1,0.1c0.1,0,0.2,0.1,0.2,0.2l0,0h0.1v0.1v0.1H63V27l0,0l-0.1,0.1l-0.1,0.1l-0.1,0.1
				l-0.2,0.1c0,0.1-0.1,0.1-0.1,0.2l-0.2,0.3L62,28h-0.1l-0.3,0.4l-0.1,0.1l0,0h-0.1l-0.2,0.2l-0.1,0.1L61,28.9l0.1,0.1
				c-0.1,0-0.1,0.1-0.2,0.2l-0.1,0.2l0,0c-0.1,0.1-0.1,0.2-0.1,0.3c0,0.1,0,0,0.1,0.1h0.1H61h0.2h0.1h0.2h0.1h0.1
				c0.2,0,0.4-0.1,0.6-0.1l0.2-0.1l0.2-0.1h0.2l1-0.3l0.1-0.1l0.3-0.1l0,0l0.4-0.1l0.2-0.1H65l0.1-0.1l0.9-0.3v-0.1l0.1,0.1l0.3-0.1
				l0.1-0.1l1.4-0.4H68l0.7-0.2h0.1h0.1v0.2L68.7,28h-0.2L68,28.1l-0.3,0.2h-0.1l-0.5,0.1l-0.2,0.1l-0.6,0.3L65.8,29l-0.5,0.2
				l-0.6,0.2l-0.1,0.1l-0.3,0.1l-0.1,0.1L64,29.8l0,0l-0.2,0.1L63.6,30h-0.1h-0.2l-0.7,0.3v0.1l0,0l-0.2,0.1v0.1l-0.5,0.2l-0.4,0.1
				L61.4,31l0,0v-0.1h-0.1H61h-0.1l0,0L60.7,31h-0.3h-0.1h-0.2L60,30.9l-0.1-0.1l-0.1-0.1v-0.1v-0.1c0-0.1,0-0.2,0-0.4l0.1-0.2v-0.1
				l0.2-0.3l0.1-0.1l0.2-0.3L60.6,29z"/>
			<path class="st1" d="M78.3,29.4v0.2l-0.1,0.2l0,0L78.1,30v0.1L78,30.2c0,0.1,0,0.2,0,0.3v0.2l0.1,0.1l0.1,0.1l0.1,0.1l0.1,0.1
				c0.1,0,0.2,0,0.3-0.1l0.2-0.1l0.1-0.1h0.1l1-0.5h0.1l0.1-0.1l1-0.7h0.1l0.6-0.4l0.1-0.1h0.1l0.2-0.1l0.3-0.2l0.4-0.3l0.1-0.1
				l0.3-0.2l0,0l0.5-0.4h0.1l0.1-0.1l0.1-0.1l0.1,0.1v0.1l-0.1,0.1L84,27.9l-0.4,0.3l-0.1,0.1l-0.3,0.3c-0.3,0.3-0.6,0.5-1,0.8
				L82,29.7h-0.1l-0.1,0.1l-0.1,0.1h-0.1L81.5,30l-0.2,0.1l-0.1,0.1L81,30.3v0.2l-0.3,0.2l-0.1,0.1l-0.2,0.1L80.2,31l-0.1,0.1
				l-0.3,0.1l-0.5,0.3l-0.1,0.1L79,31.7l-0.1,0.1H79l-0.1,0.1L78.7,32l-0.2,0.1h-0.3C78.1,32,78,32,77.9,32s-0.2,0-0.2,0h-0.2
				l-0.1-0.1l-0.1-0.1l0,0l-0.2-0.2l0,0L77,31.4v-0.5v-0.5v-0.2V30v-0.1l0.2-0.1l0.1-0.1l0.1-0.1v-0.1l0.2-0.2l0.1-0.1l0.1-0.1
				l0.1-0.3l0.2-0.4c0.1-0.4,0.3-0.9,0.5-1.3l0.1-0.5c0.2-0.3,0.3-0.6,0.3-1v-0.1v-0.2l-0.1-0.1c-0.2,0-0.5,0.1-0.8,0.2l-0.4,0.2
				l-0.2,0.1l-0.3,0.2L77,26.1l-0.1,0.1l-0.2,0.1l-0.2,0.2L76,26.8l-0.1,0.1c-0.1,0.1-0.3,0.1-0.3,0.2L75.3,27l-1.5,0.8L73.6,28
				h-0.1l-0.1,0.1l-0.1,0.1l-0.2,0.2l-0.3,0.1L72.4,29l-0.9,0.8l-0.7,0.6l-0.7,0.5L70,31h-0.3l-0.2,0.2v0.1l-0.2-0.1l-0.5,0.2
				l-0.3,0.2l-0.3,0.1h-0.5l-0.1,0.1h-0.2l-0.1-0.1l-0.1-0.3l0.1-0.4l0.1-0.4l0.1-0.2l0.2-0.4l0.1-0.3l0.2-0.4v-0.1l0.1-0.1l0.1-0.2
				v-0.3l0.1-0.3l0.3-0.4l0.1-0.4l0.1-0.2l0.1-0.2l0.2-0.3l0.1-0.2l0.1-0.2l0.5-0.6l0.2-0.5v-0.1l0,0v-0.1h0.1l0.3-0.5l0.1-0.1
				l0.1-0.1l0,0l0.4-0.6l0.1-0.2l0.1-0.2l0.2-0.3l0.1-0.3l0.1-0.2l0.3-0.3c0.1-0.2,0.3-0.5,0.5-0.7l0.5-0.8l0.2-0.1
				c0.5-0.7,1-1.5,1.6-2.2l0.1-0.1l0.1-0.1L75,18l0.2-0.2l0.2-0.3l0.1-0.2v-0.2l0.1-0.1l0.3-0.2l0.1-0.2l0.1-0.2l0.2-0.5l0.1-0.3
				l0.2-0.2l0.2-0.2l0.3-0.5v-0.1l0.1-0.1l0.1-0.1v-0.1l0.1-0.3l0,0l0,0l0.1-0.1l0.1-0.1h0.1v-0.1l0.2-0.3l0.2-0.3l0.1-0.2h0.1V13
				l0,0l0,0l0.1-0.2v-0.1l0.2-0.2l0.1-0.2l0.1-0.1l0.1-0.1l0.3-0.4l0.1-0.3l0.1-0.3l0.1-0.1l0.1-0.2l0.1-0.1v-0.2v-0.1l0.2-0.1
				l0.3-0.3l0.1-0.2l0.4-0.3L81,9.6l0.1-0.2l0,0l0.1-0.1v0.2l0.2-0.3l0.2-0.1l0.2,0.2L82,9.7l-0.4,1l-0.7,0.9l-0.3,0.3L80,12.5
				l-0.3,0.2l-1.2,1.7l0,0l-0.1,0.2L78.2,15l-0.1,0.3l-0.2,0.2l-0.3,0.2l-1.1,1.5v0.1l-0.3,0.4l-0.1,0.2H76l-0.2,0.2l-0.3,0.4
				l-0.7,0.8v0.2L74.5,20l-0.3,0.3l-0.1,0.2L73.8,21l-0.3,0.5l-0.2,0.2L72,23.6c-0.3,0.4-0.5,0.8-0.8,1.2v0.1L71.1,25L71,25.1
				c-0.3,0.4-0.6,0.8-0.8,1.3v0.1h-0.1L69.8,27v0.2l-0.3,0.6l-0.2,0.5L69.1,29l-0.2,0.5l-0.1,0.3l-0.2,0.4l-0.1,0.4l0.1,0.2l0.1,0.1
				h0.1l0.4-0.2l0.2-0.2h0.1l0.1-0.1l0.2-0.1l0.1-0.1l0.2-0.1l0.1-0.1l0.3-0.2l0.1-0.1l0.2-0.2l0.9-0.5l0.2-0.2l0.1-0.1l0.2-0.2
				l0.1-0.1l0.4-0.2l0.9-0.7l0.1-0.1l0.2-0.2l0.5-0.2l0.3-0.2h0.1c0.3-0.2,0.6-0.4,0.9-0.6l0.4-0.4l0.2-0.1l0.1-0.1h0.1l0.1-0.1
				l0.2-0.2l0.3-0.1l0.6-0.2h0.1c0.5-0.2,1-0.2,1.5,0.1c0.1,0,0.1,0.1,0.1,0.1l0.1,0.1l0.2,0.1l0.1,0.2v0.2l-0.2,0.4l0,0
				c-0.2,0.4-0.4,0.9-0.6,1.3c-0.1,0.3-0.3,0.6-0.4,0.9v0.3l-0.3,0.4L78.3,29.4z"/>
			<path class="st1" d="M96.7,31l-0.1-0.2l-0.1-0.1c-0.1-0.1-0.1-0.3-0.1-0.5v-0.1l0.1-0.3l0.2-0.4l0.1-0.3L97,29l0.3-0.3l0.3-0.4
				l0.2-0.3l0.1-0.1v-0.1l0.3-0.3l0.1-0.2l0.1-0.1V27l-0.1,0.1h-0.1L98,27.2h-0.1l-0.7,0.4L97,27.8L96.7,28l-0.2,0.1l-0.2,0.1
				l-0.6,0.3l-0.1,0.2l-0.3,0.2L95.1,29l-0.5,0.3L94,29.7l-0.1,0.1l-0.1,0.1L93.7,30h-0.1c-0.1,0.1-0.2,0.1-0.3,0.2l-0.1,0.1
				L93,30.4l-0.3,0.2l-0.2,0.1c-0.4,0.3-0.8,0.5-1,0.5l0,0l0,0h-0.1l-0.1-0.1L91.2,31L91,30.8c-0.1-0.1-0.1-0.4,0-0.7l0.1-0.6v-0.2
				l0.1-0.3l0.1-0.1l0.3-0.5l0.1-0.1l0.5-0.6l0.2-0.3l0.1-0.1v-0.1l0.3-0.3l0.1-0.2l0.1-0.1l0.6-1l0.6-0.8l0.4-0.5l0.5-0.7h-0.4H94
				h-0.1h-0.1l0,0l-0.5,0.3L93,24.2l-1,0.5l-0.3,0.2l-1,0.7l-0.6,0.3H90L89.9,26l0,0l-0.1,0.1L89,26.7L88.5,27l-0.3,0.3l-0.6,0.5
				L87.3,28c-0.1,0.1-0.2,0.1-0.3,0.2l-0.2,0.3l-0.1,0.1l-0.2,0.3L86.3,29l-0.1,0.1h-0.1L86,29.2l0,0l-0.1,0.1h-0.1L85.1,30v0.1
				L85,30.2l-0.1,0.1h-0.1l-0.4,0.3l-0.2,0.2l0,0l-0.3,0.3v0.1h-0.1h-0.1l-0.3,0.3L83,31.8V32v0.1l-0.3,0.3l-0.2,0.2l-0.1,0.3
				L82.3,33h-0.2H82l0,0v0.1v0.1l-0.1,0.1v0.1v0.1l-0.1,0.1v0.1l-0.1,0.1l0,0h-0.1h-0.1l-0.1,0.1l0,0l0,0L81.2,34h-0.3h-0.1l0,0
				h-0.2h-0.1h-0.1l-0.1-0.1L80.1,34H80l-0.1-0.2l-0.1-0.1v-0.2l0.1-0.3l0.1-0.1l0,0V33l0.1-0.1l0.1-0.1l0.3-0.5l0.6-0.6l0,0v-0.1
				h0.1l0.3-0.5l0.2-0.2l0.2-0.3l0.1-0.1l0.1-0.1l0.2-0.3V30l0.1-0.1l0.1-0.1l0.2-0.3l0.5-0.7l0.2-0.2l0.1-0.2l0.5-0.7l0.1-0.2
				l0.5-0.6l0.3-0.5l0.1-0.1l0.1-0.3l0.1-0.2l0.1-0.1l0.1-0.1l0.1-0.2l0.1-0.1v-0.1v-0.1l0.1-0.1v-0.1l0.1-0.1l0,0l0,0l0,0l0.1-0.1
				v-0.1H86l0,0l0.2-0.1h0.1l0.2-0.4l0.2-0.2l0.1-0.2h-0.1l0.1-0.2l0.1-0.1l0.1-0.1l0,0l0,0l0,0l0,0V23l0.1-0.3l0.1-0.1l0.2-0.3
				l0.3-0.2l0.1,0.1v-0.1l0.1-0.1H88l0.1-0.1h0.1h0.3h0.2l0.1,0.1l0.1,0.1v0.2l-0.1,0.2v0.1l-0.1,0.1l-0.2,0.6L88,23.6l-0.3,0.2l0,0
				l-0.3,0.5v0.1l-0.1,0.2v0.2H87L86.9,25h-0.1l0,0h-0.1v0.1h-0.1v0.1l-0.1,0.1l-0.2,0.1l-0.2,0.3l-0.2,0.2l-0.1,0.3l-0.1,0.1
				l-0.3,0.2l-0.3,0.4L84.9,27l-0.3,0.4v0.1l-0.2,0.2l-0.3,0.4L84,28.4l-0.1,0.2l-0.2,0.3V29l-0.2,0.2l-0.3,0.3L82.9,30l-0.3,0.5
				l-0.3,0.4l-0.5,0.7L81.6,32l-0.1,0.1l0,0h0.1l0.1-0.1h0.1h0.1l0.1-0.1l0.2-0.1v-0.1l0.1-0.2l0.1-0.1l0.3-0.1l0.3-0.2l0.3-0.3
				l0.1-0.1h0.1l0.2-0.1l0.3-0.3l0.6-0.6l0.2-0.1l0.6-0.5l0.2-0.2l0.1-0.1l0.2-0.1l0.4-0.3l0.2-0.3h0.1l0.4-0.3l0.3-0.3l0.1-0.1
				v-0.1l0.5-0.5L88,27l0.3-0.3l0.1-0.1l0.2-0.1l0.3-0.2l0.2-0.1l0.3-0.3l0.7-0.6l0.2-0.2l0.2-0.2l0.5-0.2l0.4-0.2l0.1-0.2h0.1
				l0.1-0.1h0.1L92,24l0.1-0.1l0.2-0.1l0.3-0.2l0.3-0.1l0.4-0.3l0.1-0.1l0.4-0.2l0.8-0.2l0.6-0.3l0.3-0.1l0.2-0.1l0.1-0.1h0.1H96
				l-0.1,0.1h0.3h0.1l0.2,0.3l-0.1,0.3L96.1,23c-0.2,0.3-0.5,0.7-0.7,1c-0.1,0.1-0.1,0.1-0.1,0.2L95,24.4l-0.2,0.3l-0.5,0.5L94,25.6
				l0,0l-0.2,0.3L93,27.1l-0.4,0.6l-0.3,0.7l0,0l0,0L92,29l-0.1,0.4l-0.1,0.1l-0.1,0.1l-0.1,0.2v0.1v0.2l0.1,0.2v0.1l0.1,0.1v0.1
				l0,0l0.4-0.2h0.1c0.2-0.1,0.3-0.3,0.5-0.4l0.1-0.1l0.1-0.1c0.2-0.2,0.4-0.4,0.6-0.6l0.3-0.3l0.2-0.1l0.7-0.5l1.2-0.9l0.1-0.2
				l0.1-0.1l0.2-0.1h0.1c0.4,0,0.5,0,0.5-0.1l0.1-0.1v-0.1l0,0l0.1-0.1v-0.1l0,0l0.1-0.1l0,0l0,0h0.1h0.1l0.1-0.1h0.1l0.2-0.1H98
				l0.1-0.1h0.1l0,0h0.2l0,0h0.1l0.1,0.1l0.1,0.1v0.1l0,0l0,0l-0.1,0.1L98.4,27v0.1l-0.1,0.3L98,27.7v0.6l-0.1,0.2l-0.2,0.2
				l-0.3,0.4l-0.1,0.2l-0.2,0.3L97,29.9v0.2l0.1,0.3l0.2,0.2c0.2,0.1,0.6,0.2,1,0.1h0.2l0,0h0.1l0,0l0.1-0.1H99l0.3-0.1l0.2-0.1
				l0.1,0.1l0.1-0.1l0,0h0.2l0.6-0.3l0.4-0.2h0.2l0.2-0.1h0.1l0.4-0.2h0.2l0.2-0.1l0.4-0.2l0.4-0.2l0.8-0.4l0.1-0.1l1-0.5L105,28
				l0.4-0.1l0.1-0.1l0.4-0.2l0.2-0.1h0.1l0.1,0.1v0.1l-0.1,0.1h-0.1l-0.1,0.1l-0.1,0.1l-0.1,0.1h-0.2l-0.8,0.5l-0.2,0.2h-0.1
				l-0.3,0.2l-0.3,0.2l-0.1,0.1l-0.1,0.1h-0.1l-0.5,0.3l-0.2,0.1l-0.1,0.1l-0.2,0.1l-0.1,0.1l-0.1,0.1l-0.3,0.1H102l-0.1,0.1
				l-0.1,0.1l-0.3,0.1l-0.4,0.1l-0.5,0.2l-0.2,0.1h-0.1l-0.3,0.1c-0.1,0-0.2,0.1-0.3,0.1h-0.1h-0.1L98.9,31l0,0h-0.1l-0.2,0.1h-0.2
				h-0.1c-0.2,0.1-0.4,0.1-0.6,0.1h-0.3c-0.1,0-0.2,0-0.3-0.1H97L96.7,31z"/>
			<path class="st1" d="M112.3,27l-0.1,0.2c0,0.1,0,0.1,0,0.2l-0.2,0.3l-0.2,0.3l-0.3,0.2l-0.3,0.3l-0.1,0.1l-0.1,0.1l-0.2,0.2h-0.1
				c-0.5,0.4-1.1,0.8-1.7,1.2v0.1l0,0l-0.3,0.2l0,0l-0.1,0.1h-0.1c0,0,0,0-0.1,0v0.1h-0.1l-0.2,0.2l0,0l-0.1,0.1l-0.2,0.1l-0.1,0.1
				l-0.2,0.1h-0.1h-0.3l-0.1,0.1h-0.2h-0.1c-0.5,0.2-0.8,0.3-1.2,0.5l-0.1,0.1h-0.1l-0.1,0.1h-0.1l-0.2-0.1h-0.2h-0.5l-0.5-0.1l0,0
				h-0.1c-0.2,0-0.3-0.1-0.4-0.1c-0.1-0.1-0.7-0.4-0.7-0.6V31h-0.1v-0.2l0.2-0.5l0.2-0.5l0.1-0.2l0.3-0.3l0.2-0.1l0.1-0.1l0.5-0.3
				l0.4-0.4l0.1-0.1l0.1-0.1l0.6-0.5l0.2-0.1h0.1l0.1-0.1l0.2-0.1l0.1-0.1v0.1l0.7-0.5l0.1-0.1h0.1l0.3-0.2l0.2-0.2l0.3-0.2l0.4-0.1
				l0.4-0.3l0.2-0.1l0.3-0.1c0.3-0.2,0.5-0.4,0.8-0.5l-0.4-0.1c-0.2,0-0.4,0.1-0.5,0.1h-0.1l0,0h-0.1h-0.3c-0.3,0-0.6,0.1-0.9,0.1
				l0,0h-0.6l-0.3-0.1l-0.2-0.1l-0.1-0.1v-0.2L106,24l0.2-0.1l0.3-0.1h0.3l0.2,0.1l0.4,0.1c0.4,0,0.9,0,1.4,0.1l0.3-0.1h0.5l0.5-0.1
				h0.1l0.5-0.1c0.1,0,0.2-0.1,0.3-0.1l0.3-0.2l0.2-0.1h0.1l0.1-0.1h0.2h0.3c0.2,0,0.4-0.1,0.6,0h0.2l0.1,0.1c0.1,0,0.2,0.1,0.3,0.2
				l0.8-0.1l0,0l0.3-0.1h0.4l0.5-0.1h0.2h0.3h0.6h0.2h0.3l0,0c0.1,0,0.3,0,0.4,0s0.3,0,0.5,0h0.1h0.1h0.1l0.1,0.1h0.2l0.2-0.1h0.2
				h0.3h0.1h0.2l0.2,0.1h0.1h0.1h0.2h0.1c0.3,0.1,0.6,0.1,0.8,0.2l0.1,0.1h0.1l0.1,0.1c0.2,0.1,0.3,0.2,0.5,0.3h0.1l0.1,0.1l0.1,0.1
				l0.1,0.2l0.1,0.2v0.1l-0.2,0.1l-0.1,0.2l-0.3,0.5l-0.1,0.2l0,0l-0.1,0.1l-0.1,0.2l-0.2,0.1V26l0.1-0.1v-0.1
				c0-0.1,0.1-0.3,0.2-0.4l0.1-0.1l0.2-0.5v-0.1l-0.1-0.1l-0.3-0.1l-0.2-0.2l-0.4-0.1c-0.6-0.1-1.4-0.1-1.9-0.1h-0.4h-0.3
				c-0.3,0-0.5,0.1-0.7,0.1c-1.2,0.1-2.1,0.2-2.9,0.3h-0.1l-0.3,0.1l-0.1,0.1h-0.5c-0.5,0.1-0.9,0.1-1.4,0.2L112,25h-0.2l-0.5,0.1
				l-0.1,0.1c0.3,0.1,0.5,0.2,0.7,0.3h0.1l0.1,0.1h0.1l0.1,0.1l0.2,0.1l0.3,0.4l0.1,0.2l0.1,0.3v0.5C112.4,26.7,112.4,26.8,112.3,27
				z M111.7,26.8v-0.2l0.1-0.3v-0.4l0,0l-0.1-0.3l-0.2-0.2l-0.2-0.1l-0.2-0.1l-0.2-0.1l-0.3-0.1l-0.2-0.1l-0.2-0.1h-0.1
				c-0.4,0.2-0.7,0.5-1.2,0.8l-0.3,0.2l-0.2,0.2l-1,0.6l-0.3,0.2l-0.2,0.1l-0.6,0.4l0,0l-0.1,0.1l-0.4,0.2l-0.3,0.2l-0.3,0.2
				l-0.1,0.1l-0.4,0.3l0,0l-0.3,0.4l-0.3,0.3l-0.1,0.2c0,0,0,0-0.1,0c-0.2,0.2-0.4,0.5-0.5,0.7v0.1v0.1l-0.1,0.1v0.2v0.1v0.1
				c0,0.2,0.1,0.4,0.2,0.5h0.1l0.2,0.1c0.1,0,0.1,0,0.2,0c0.9,0.1,1.1,0,2.1-0.3c0.4-0.1,0.8-0.3,1.2-0.5v-0.1h0.1l0.3-0.2l0.2-0.2
				l0.5-0.3h0.1h0.1l0.9-0.6l0.1-0.1h0.1c0.2-0.2,0.5-0.4,0.7-0.6l0.1-0.1l0.1-0.1l0.2-0.1l0.2-0.2l0.1-0.1h0.1l0.1-0.1l0.1-0.1
				l0.1-0.1h0.1C111.4,27.3,111.5,27,111.7,26.8z M112.8,23.7c-0.2-0.1-0.6,0-0.8,0.1L112.8,23.7z"/>
			<path class="st1" d="M128.4,30.5c0-0.1,0-0.2,0.1-0.3v-0.1V30l0.1-0.3v-0.1l0.1-0.1l0.1-0.1v-0.1c0.2-0.3,0.4-0.6,0.5-1l0.1-0.1
				l0.1-0.1l0.1-0.3v-0.1l0.1-0.3v-0.2l0.1-0.2l0,0l-0.1-0.1l-0.1-0.1l-0.1,0.1h-0.1L129,27l-0.6,0.2l-0.1,0.1l-0.2,0.1l-0.3,0.1
				l-0.7,0.4l-0.5,0.3l-0.2,0.1l-1.7,1l-0.1,0.1h0.4l-0.1,0.1l-0.8,0.5l-0.3,0.1l-0.1,0.1l-1.1,0.6l-0.1,0.1h-0.1l-0.1,0.1h-0.1l0,0
				l-0.3,0.1l-0.1,0.1h-0.1l-0.1,0.1h-0.1l0,0h-0.1h-0.1l-0.1,0.1l-0.2,0.2h-0.1l-0.2,0.1l-0.2,0.1l-0.1,0.1l-0.2,0.1l-0.4,0.1
				l-0.2,0.1l0,0l-0.1,0.1l0,0l0,0l-0.2,0.1h-0.1v0.1l0,0l0,0l0,0h-0.1l-0.8-0.1l0,0h-0.2l-0.2-0.1l-0.3-0.2c-0.1,0-0.1,0-0.1,0l0,0
				l0,0l-0.1-0.1c0-0.1,0-0.3,0-0.4v-0.2l0.1-0.5l0.1-0.2l0.1-0.1l0.1-0.2v-0.1l0.1-0.2L118,30l0.2-0.2l0.3-0.6l0.1-0.2l0.2-0.2
				l0.1-0.2l0.1-0.3l0.2-0.3l0.1-0.1l0.2-0.1v-0.1l0.1-0.1l0.1-0.2v-0.1l0,0l0.1-0.2l0.4-0.4l0.1-0.2l0.1-0.1v-0.1l0.1-0.3v-0.3
				l0.1-0.2l-0.1-0.2V25l0.1-0.2l0.2-0.1l0.3-0.4l0.3-0.2h0.2l0.1,0.1l0,0l0,0c0.1,0.1,0.1,0.3,0.1,0.4l0,0l0.1,0.5l-0.1,0.3
				l-0.1,0.2l-0.3,0.3l-0.2,0.5l-0.2,0.2l-0.1,0.1l-0.2,0.2l-0.2,0.2l-0.1,0.1v0.1l-0.1,0.1l-0.2,0.1v0.1l0,0H120l-0.6,0.8l-0.1,0.1
				l-0.1,0.1l-0.1,0.1c-0.1,0.2-0.3,0.4-0.4,0.6l-0.3,0.4c-0.1,0.1-0.1,0.2-0.2,0.3l-0.1,0.2v0.2l-0.1,0.3l-0.1,0.2v0.2l0,0
				c0,0.1,0,0.2,0,0.2c0.1,0.2,0.9,0.1,1.6-0.2l0.2-0.1h0.3l0.4-0.2l0.2-0.1l0.2-0.1c0.4-0.2,0.8-0.3,1.2-0.5l0.2-0.1l0.2-0.1
				l0.3-0.1l0.2-0.1l0.2-0.2l0.7-0.3l0.1-0.1L124,29l0.2-0.1l0.6-0.4l0,0l0.1-0.1h0.1l0.1-0.1l0.1-0.1l0.1-0.1l0.4-0.1l0.8-0.5
				l0.3-0.2l0.4-0.2l0.3-0.3l0.2-0.1l0.3-0.1l0.3-0.1l0.1-0.1l0.2-0.1l0.7-0.3l0.1-0.1l0.3-0.1l0.2-0.2v-0.1h0.1l0.1,0.1
				c0.1-0.1,0.3-0.2,0.5-0.2l0,0l0.3-0.1h0.1c0.1,0,0.1,0.1,0.2,0.2h0.1l0.2,0.1l0.1,0.1v0.1l-0.1,0.1h0.1V26h-0.1v0.1l-0.1,0.1
				l-0.1,0.2l-0.2,0.3l-0.1,0.2v0.2l-0.3,0.3l-0.1,0.1l-0.1,0.1l-0.1,0.2l-0.1,0.1l-0.1,0.3l-0.1,0.3l-0.2,0.2v0.1l-0.2,0.3v0.1
				l-0.1,0.3v0.2l-0.1,0.3l-0.1,0.1c-0.1,0.4-0.2,0.6-0.1,0.8c0.1,0.1,0.3,0.2,0.6,0.3h0.3h0.2h0.2h0.2c0.3,0,0.6-0.1,1-0.1l0,0h0.2
				l0.4-0.1h0.1l0.6-0.1l0,0l0,0l0.2-0.1h0.4h0.3l0,0h0.1l0,0h0.2l0.1,0.1l0.1,0.1l-0.1,0.1h-0.1h-0.1h-0.5l-0.1,0.1l-0.1,0.1
				l-0.1-0.1l-0.4,0.1l-1,0.3h-0.3h-0.2l-0.4,0.1h-0.3h-0.2h-0.1h-0.1h-0.1l-0.3,0.1l-0.4,0.1h-0.2c-0.3,0-0.6,0.1-0.8,0.1h-0.1
				h-0.1c-0.1,0-0.1,0-0.1,0h-0.1l-0.1-0.1v-0.1v-0.1l0,0l0,0c-0.1-0.1-0.1-0.3,0-0.4L128.4,30.5L128.4,30.5z"/>
			<path class="st1" d="M148.6,32.4l-0.3,0.1l-0.2,0.2l-0.1,0.1l-0.3,0.1l-0.5,0.2l-0.4,0.2h-0.2h-0.1l-0.1,0.1v0.1l0,0l0,0h-0.1
				l-0.3,0.2h-0.3c-0.1,0-0.1,0-0.1,0h-0.2h-0.5l-0.3-0.3v-0.1l-0.2-0.3l-0.2-0.4v-0.1l-0.1-0.3l0.1-0.7c0-0.3,0.1-0.5,0.1-0.8v-0.1
				l0.1-0.2l0,0v-0.5l0.2-0.5v-0.2l0.1-0.2v-0.1l0.1-0.1v-0.1l0,0v-0.2v-0.1l0.1-0.2l0.2-0.6v-0.1v-0.1l0.1-0.1l0,0l0.1-0.3v-0.1
				l0,0v-0.1l0.1-0.1l0.1-0.1v-0.1l-0.1-0.1l0.1-0.1v-0.1l0.1-0.3l-0.1-0.4v-0.1l-0.1-0.3l-0.1-0.1c0,0-0.1,0-0.1-0.1l-0.1-0.2
				l-0.6,0.6l-0.4,0.6l-0.6,0.5l-0.5,0.4l-0.3,0.3l-0.1,0.1h-0.1l-0.8,0.8h-0.1l-0.3,0.3l-0.1,0.1c-0.2,0.2-0.4,0.4-0.6,0.5
				l-0.2,0.3l-0.2,0.3l-0.4,0.2l-0.3,0.3l-0.2,0.1l-0.2,0.2l-0.3,0.2l-0.1,0.1l-0.2,0.1l-0.3,0.1l-0.8,0.5v0.1v0.1h-0.1l-0.2,0.1
				H137c-0.8,0.5-1.6,0.8-2.3,0.8c-0.2,0-0.7-0.3-0.7-0.3c0-0.1-0.1-0.1-0.1-0.2l0,0l-0.2-0.3v-0.5l0.1-0.4l0.1-0.3l0.2-0.3v-0.2
				l0.2-0.2l0.3-0.6V29l0.1-0.2l0.5-0.5l0.2-0.2v-0.3l0.1-0.1l0.1-0.1l1.2-1.1l0,0c0.3-0.3,0.7-0.7,1-1l0,0l0.3-0.2l0.2-0.1l0.4-0.3
				l0.1-0.1l0.2-0.1l0.3-0.1l0.3-0.1l0.3-0.3h0.1h0.1c0.3-0.2,0.6-0.3,1-0.5l0.1-0.1l0.1-0.1h0.1l0.3-0.1l0.3-0.2h0.1h0.2
				c0.2-0.1,0.3-0.1,0.5-0.2c0.4-0.1,0.8-0.1,1.2,0h0.2l0.2,0.1h0.2c0.1,0,0.1,0,0.1,0.1l0.3,0.6l0.1-0.1v-0.2l0.3-0.1l0.6-0.6
				l0.1-0.2l0.2-0.1l0.7-0.6l0.4-0.5l0.5-0.5l0.5-0.5l0.6-0.6l0.8-0.9l0,0l0,0l0.5-0.6l0.3-0.5l0.2-0.3l0.1-0.1l0.1-0.2l0.3-0.3
				v-0.1l0.2-0.1l0.1-0.2l0.3-0.3l0.6-0.7l0.1-0.1v-0.1l0,0l0.6-0.7l0.1-0.2l0.1-0.1l0.1-0.1l0.2-0.3v-0.1l0.1-0.1l0.1-0.1l0.2-0.2
				l0.5-0.6l0.2-0.2l0.1-0.2l0.5-0.6l0.1-0.2L156,11l0.3-0.3l0.1-0.2v-0.1l0.4-0.6l0.1-0.3l0.1-0.2l0.3-0.2l0.1-0.1l0.1-0.1l0,0
				l0.1-0.1l0,0l0.1-0.1l0,0h0.1l0.1-0.1h0.1l0,0l0.2-0.1l0.2-0.1l0.1-0.1h0.1l0.2-0.1l0,0h0.1h0.1h0.2l0.1,0.3l0.1,0.2l-0.3,0.6
				l-0.4,0.5l0,0l0.2,0.1L159,10l-0.2,0.2l-0.3,0.4l-0.1,0.2h-0.1l-0.1,0.1h-0.1l-0.4,0.1l-0.4,0.1h-0.1l-0.4,0.5l-0.2,0.2l-0.2,0.3
				l-0.3,0.1l-0.5,0.5l-0.2,0.3l-0.1,0.1l-0.2,0.2l-0.2,0.2l-0.7,1l-0.4,0.6l-0.4,0.5v0.1l-0.3,0.5l-0.1,0.1l-0.1,0.2l-0.2,0.3l0,0
				l-0.2,0.3l-0.1,0.3l-0.1,0.1l-0.1,0.1l-0.7,0.9v0.1l0,0l-0.2,0.3V19l-1,1.3l-0.1,0.1l-0.5,0.7l0,0l0,0c-0.8,1.1-1.4,2-1.6,2.4
				l0,0l-0.1,0.1l-0.1,0.1l-0.1,0.1l0,0h-0.1c-0.4,0.6-0.8,1.2-1.1,1.9l0,0c0,0.1-0.1,0.1-0.1,0.1l0,0V26l-0.1,0.1v0.1l-0.1,0.3
				l0.1,0.1l-0.1,0.1l0,0l-0.1,0.1v0.1l-0.1,0.4H146v0.1l-0.2,0.2l0,0h-0.1l-0.1,0.1l-0.3,0.7l0,0l-0.1,0.2l-0.1,0.5l-0.2,0.4
				l-0.1,0.5l-0.1,0.5l-0.1,0.2l-0.1,0.1c0,0.1,0,0.2,0,0.3c-0.1,0.9,0.2,1.4,0.6,1.6l0.2,0.1l0,0c0.1,0,0.2,0.1,0.3,0.1l0.2-0.1
				l0.4-0.1l0.1-0.1l0.3-0.2h0.2h0.3h0.1c0.6-0.3,1.2-0.6,1.8-1l0.4-0.3l0.2-0.1h0.1v-0.1l0.1-0.1l0.2-0.1l0.3-0.1l0.3-0.2l0.7-0.6
				l0.3-0.1l0.5-0.4l0.1-0.1l0.4-0.3l0.1-0.1l0.1-0.1l0.4-0.3l0,0l0.1-0.1l0.4-0.4l0.3-0.1l0.3-0.1l0,0l0.7-0.6l0.1-0.1l0.3-0.2
				l0.1-0.1l0,0h0.1l0.1-0.1l0.1-0.1l0.1-0.1h0.1l0,0h0.2l0.1,0.2l-0.1,0.1h-0.1l0,0l0,0l-1.9,1.5l-0.1,0.1l-0.1,0.1l-0.1,0.1
				l-0.1,0.1c-0.5,0.4-1,0.7-1.4,1l-0.5,0.3V30l-0.1,0.1l-0.2,0.2l-0.2,0.1l-1.6,1.1l-0.1,0.1l-0.4,0.3l0,0h-0.1L149,32v0.1h-0.1
				h0.1v0.1l-0.1,0.1h-0.1v-0.1l0,0L148.6,32.4z M136.6,28l-0.3,0.3l-0.3,0.2l-0.1,0.4l-0.2,0.2l-0.2,0.3l-0.1,0.4v0.3l-0.1,0.1v0.1
				l-0.2,0.3l-0.1,0.3v0.5v0.3v0.1l0.1,0.1h0.2h0.1l0.1-0.1c0.1-0.1,0.2-0.1,0.3-0.1l0.2-0.2l0.3-0.2l0.2-0.1l0.4-0.1l0.3-0.2
				c0,0,0.1,0,0.1-0.1c0.5-0.3,0.9-0.6,1.2-0.8v-0.1l0.3-0.2c0.1-0.1,0.2-0.1,0.3-0.2l0.2-0.2l0.1-0.2l0.4-0.4l0.2-0.2l0.1-0.1h0.1
				l0.4-0.2c0.6-0.6,1.3-1.2,2.2-2.1l0.6-0.5v-0.1l0.5-0.5l0.3-0.3v0.1l0.2-0.1l0.2-0.3l0.2-0.3l-0.2-0.4l-0.3-0.3l-0.1-0.1
				l-0.1-0.1c-0.6-0.1-1.5,0.1-2.3,0.4l-0.5,0.3l-0.2,0.1l-0.2,0.1c-0.1,0-0.1,0.1-0.2,0.1c-0.7,0.4-1.2,0.5-2.6,1.6l-0.4,0.4
				l-0.3,0.4l-0.3,0.3V27v0.1l-0.3,0.2l-0.2,0.2l-0.2,0.3l-0.1,0.1l0,0L136.6,28L136.6,28z M145.6,24.7L145.6,24.7l0.1,0.1l0.1,0.1
				l0.1,0.1h0.2l0.1,0.1l0,0l0.2-0.2V25l0,0v-0.1l0,0V25l0,0l0.2-0.3v-0.1l0.1-0.1l0.1-0.1v-0.3l0.1-0.1l0.1-0.1l0.2-0.1l0.1-0.2
				l0,0l0.3-0.5l0,0l0.1-0.2l0.2-0.3l0.1-0.1c0.5-0.7,1-1.4,1.5-2.1c-0.6,0.6-1.5,1.5-2.3,2.3l-0.4,0.5l-0.2,0.2h-0.1l-1.1,1.2
				C145.5,24.6,145.5,24.7,145.6,24.7z"/>
			<path class="st1" d="M212.8,8.7l0.6,0.1c0.3,0.1,0.6,0.1,1,0.2h0.2l0.2,0.1l0.1,0.1c0.6,0.2,1.3,0.5,1.9,0.7h0.2h0.1h0.2h0.1
				l0.2-0.1h0.1l0.1,0.2l0.2,0.1l0.3,0.2h0.1c0.1,0,0.1,0.1,0.1,0.1l0.4,0.3v0.2h-0.2l-0.2-0.2l-0.4-0.2l-2.8-1H215l-0.2-0.1
				c-0.1-0.1-0.3-0.1-0.4-0.1h-0.1l0,0c-0.1,0-0.1,0-0.1,0l0,0H214l0,0l-0.1-0.1l-0.5-0.1c-0.6-0.1-1.3-0.3-2-0.4h-0.2h-0.3h-0.1
				h-0.1l-0.4-0.2c-0.5-0.1-1-0.1-1.5-0.2v0.1l-0.1-0.1l0,0l-1.9-0.2l-0.6,0.1H206l-1-0.1h-0.2l0,0h-0.3H204h-0.1h-0.1L203.2,8
				c-0.2,0-0.4,0-0.6,0h-0.1c-0.1,0-0.2,0-0.3,0h-0.6v0.1h-0.3h-0.1c-0.2,0-0.4,0-0.6,0l0,0L200.5,8h-0.1l-0.1,0.1l-0.1,0.1h-0.1
				H200h-0.2h-0.3h-0.2L199.1,8l-0.2,0.1l0,0v0.1l-0.3,0.1h-0.5h-0.3l-0.2-0.1l-0.3-0.1h-0.8h-0.2h-0.2H194h-0.5h-0.2L193,8.2h-0.5
				l-0.3-0.1h-0.3l-0.2,0.1l-0.3-0.1c-0.2,0-0.4,0-0.5,0h-0.1l-0.3,0.1h-0.2l-0.1,0.1H190l-0.1,0.1l-0.2-0.1h-0.1l-0.8,0.1
				c-0.1,0-0.2,0-0.3,0l-0.3,0.1l-0.5,0.1h-0.5l-1,0.1l-0.3,0.1l-0.5,0.1h-0.1h-0.2c-0.1,0-0.2,0.1-0.3,0.1l-0.1,0.1h-0.3L184,9
				h-0.6L183,9.1l0,0l-0.1,0.1l-0.8,0.1l0,0l-0.3,0.1l-0.7,0.2h-0.5h-0.1H180l0,0l-0.5,0.1h-0.1l0,0h-0.1h-0.1h-0.3l0,0h-0.1
				l-0.4,0.1l-0.2,0.1h-0.1H178h-0.1l-0.4,0.1l-0.1,0.1h-0.2l-0.2,0.1l-0.5,0.1l-0.5,0.2l-0.2,0.1h-0.1h-0.1h-0.1h-0.3l-0.2-0.1
				l-1.4,0.3c-0.5,0.2-1.1,0.4-1.7,0.5l-0.1,0.1l-0.1,0.1h0.3h-0.1l-0.3,0.1l-0.6,0.1l-0.4,0.1l-0.9,0.3c-0.6,0.2-1,0.5-1.6,0.7
				c-0.5,0.3-1,0.6-1.6,0.9l0,0c-0.3,0.1-0.7,0.6-1,0.7c-0.1,0.1-0.2,0-0.3-0.1l-0.1,0.2l-0.1,0.3l-0.1,0.1h-0.2l-0.1,0.1l-0.3,0.1
				l-0.1,0.1l-0.1,0.1l-0.9,0.7l-0.4-0.2v-0.1l-0.1-0.2v-0.1c0,0,0-0.1,0-0.2v-0.1v-0.3l0,0l0.3-0.3h-0.1v-0.1l0.2-0.2l0.3-0.3
				l0.3-0.2h0.1v-0.1l0.2-0.1l0.2-0.1v-0.1l0.1,0.1l0.3-0.2l0.1,0.1h0.2l0.1-0.1l0.2,0.1l0.1,0.1l0.2-0.1h0.3l0.2-0.1l0.1-0.2
				l0.2-0.2l0.3-0.1l0.6-0.1c0.1-0.1,0.2-0.1,0.3-0.1l0.3-0.1l0.5-0.1l0.6-0.2l0.3-0.2h0.2l0.7-0.2l0.2-0.2l0.3-0.1v0.1l0.2-0.1
				l0.3-0.2l0.4-0.1h0.1V11h0.2l0.1-0.1v-0.1h0.1l0,0l0.3-0.1h0.1h0.1l0.2-0.1l0.1,0.1h0.2h0.2h0.1l0.3-0.1l0.1-0.1l0.3-0.1l0.3-0.1
				h0.5c0.8-0.2,1.6-0.3,2.2-0.4l0.4-0.1l0.2-0.1l1.5-0.3h0.4h0.1l1.5-0.3h0.4l0.3-0.1l0,0l0.2-0.1l0.7-0.1l0.8-0.2l0.3-0.1l0.5-0.1
				h0.6l0.4-0.1l0.3-0.1h1.3h0.1c0.2,0,0.4,0,0.5-0.1l0.4-0.1V7.9h0.2l0.2,0.1c0.1,0,0.2,0,0.3,0h0.1l0.5-0.1h0.1h0.3l0.1,0.1
				l1.8-0.1h0.1l0.4-0.1h0.2l0.4,0.1c0.1,0,0.1,0,0.2,0h0.1l2.2-0.1h0.1h0.2l0.3-0.1h0.2l0.2-0.1h0.1l0.3,0.1h0.3h0.1h0.9l0,0h0.3
				h0.4h0.3l0.5,0.1h1.3h0.1V7.7l0,0l0,0h0.1l0,0l1.2,0.1l0.2-0.1l0.3-0.1l0.4,0.1l0.5-0.1h0.2l0.3,0.1l0.3,0.1h0.2h0.2l0.6,0.2
				c0.2,0,0.5,0,0.7,0.1h0.1l0.1-0.1l0.1,0.1l1.2,0.1l1.4,0.2h0.2l0.2,0.1h0.1l0.5,0.1h0.3l0,0h0.2h0.4h0.1l0.1,0.1l0.8,0.1h0.2
				l0.2,0.1l0.4,0.1L212.8,8.7L212.8,8.7z M175.4,30.6L175.4,30.6l-0.2,0.3l-0.1,0.1l-0.1,0.2l-0.1,0.1l-0.4,0.7l-0.3,0.6l-0.3,0.4
				l-0.1,0.1l-0.3,0.5l0,0l0,0c-0.1,0.2-0.2,0.4-0.3,0.6v0.1l-0.5,1.1l0,0h-0.1l-0.2,0.3v0.1l-0.8,1.6l-0.1,0.1l-0.1,0.1
				c-0.1,0.2-0.1,0.3-0.2,0.5l-0.1,0.1v0.2l-0.1,0.1l0,0l-0.2-0.1v-0.1l0.2-0.2l0,0l0.3-1.1l0.4-1l0,0v-0.1l0,0l0.1-0.3
				c0.1-0.1,0.2-0.1,0.3-0.1c0.5-1.2,1-2.4,1.5-3.5l0.4-0.9l0.1-0.1c0.1-0.3,0.3-0.5,0.5-0.7l0.3-0.5l0.2-0.3l0.1-0.3l0.6-1l0.1-0.3
				l0.4-0.6l0.3-0.4l0.5-0.4l0.6-0.9l-0.1-0.1l0.1-0.1l0.2-0.2l0.1-0.1l0.3-0.5l0.1-0.3l0.6-0.8l0.2-0.3l0.6-1l0.4-0.5l0.1-0.2
				l0.1-0.1l0.3-0.5l0,0l0,0l0.2-0.3l0.1-0.5l0.1-0.2l0.2-0.2l0.2-0.1l0.1-0.2l0.1-0.1v-0.1v-0.1l0.1-0.1v-0.1l0.1-0.1l-0.1-0.1h0.1
				l0.2-0.2v0.1l0,0l0.2-0.2l0.2-0.3l1-1.2l0.3-0.9l0.3-0.6l0.3-0.6l0.3-0.3l0.1-0.1l0.1-0.2l0.5-0.6l0.7-0.3l0.1,0.2l0.1,0.1h0.1
				l0.2-0.1h0.1l0,0h0.3l0,0h0.1h0.2l0.1,0.1l0.1,0.2l-0.1,0.2l-0.3,0.4l-0.1,0.2h-0.1v0.1h-0.1h-0.2l-0.2,0.1h-0.3l-0.1,0.1
				l-0.3,0.6l-0.3,0.4l-0.1,0.1l0,0l-0.8,1.2l-0.2,0.1l-0.5,0.7v0.2v0.5l-0.2,0.2l-0.2,0.4l-0.1,0.1l-0.1,0.1h-0.1l-0.1,0.1
				l-0.2,0.1l-0.1,0.1l-0.1,0.2l-0.4,0.5L182,21l-0.2,0.1l-0.1,0.2l-0.1,0.2l-0.1,0.1l-0.5,0.7v0.1l-0.1,0.2l-0.1,0.2l-0.1,0.1
				l-0.1,0.1l-0.1,0.1l0,0l-0.8,1.2l-0.1,0.3l-0.1,0.2l-0.2,0.3l-0.2,0.3l-0.2,0.3h-0.1l-0.3,0.8l-0.3,0.3l-0.2-0.1l-0.6,0.9l0,0
				l-0.1,0.1v0.2h-0.1l-0.1,0.2l-0.1,0.1l-0.1,0.1l-0.1,0.2l-0.2,0.2l-0.2,0.3l-0.2,0.1l-0.6,0.9l0,0l-0.1,0.3l0,0L175.4,30.6z"/>
			<path class="st1" d="M196.3,29L196.3,29l0.1-0.1l0.5-0.6L197,28l0.1-0.1v-0.1l0.1-0.1l0.3-0.4l0.1-0.1v-0.1l0,0l0.1-0.3l0,0h-0.1
				h-0.3L197,27l-0.8,0.3l-0.2,0.1h-0.1l-0.8,0.5l0,0l-0.2,0.1l-0.2,0.1l-0.2,0.1l-0.6,0.3l-0.6,0.4L193,29l-0.4,0.2l-0.1,0.1
				l-0.3,0.2l-0.2,0.1l-0.5,0.3L191,30l-0.2,0.1l-0.3,0.1l-0.3,0.1l-0.7,0.4l-0.1,0.1l-0.3,0.2H189l0,0l0,0l-0.3,0.1h-0.2
				c-0.1,0.1-0.2,0.1-0.3,0.1l-0.1,0.1l-0.6,0.2h-0.1l-0.4,0.2h-0.1h-0.1h-0.1h-0.2l0,0c-0.5,0.1-0.8,0-0.9-0.3
				c-0.1-0.4,0-0.8,0.2-1.2l0.1-0.3h0.1v-0.1l0.1-0.2l0.1-0.1h0.1l0,0l0.1-0.1l0.2-0.3l0.3-0.2l0.1-0.1l0.2-0.4l0.1-0.1l0.2-0.2
				l0.3-0.3l1.3-1.1l0,0l0,0l0.4-0.3l0.1-0.1l0.5-0.4l0.2-0.1l0.7-0.5l0,0l0.3-0.4l0.1-0.1l0.1-0.2h0.1h0.2l0.1-0.1l0.2-0.1h0.1h0.1
				l0.1-0.1v-0.1l0.2-0.1l0.9-0.5l0.2-0.1l0.1-0.1l0.2-0.1h0.1h0.1l0.3-0.1h0.1l0.1-0.1h0.2l0.2-0.1l0.2-0.1h0.1l0.3,0.1h0.2h0.2
				h0.1h0.1l0,0h0.1l0.1,0.1v0.1h0.1l0.1,0.1v0.3l-0.1,0.1c0,0.1-0.1,0.1-0.3,0.3c-0.1,0.1-0.2,0-0.2,0l-0.3,0.1h-0.2H195l-0.5-0.1
				l0,0h-0.1l0,0h-0.1h-0.2H194l-0.4,0.2l-0.5,0.2l-0.6,0.3l-0.5,0.2c-0.2,0.1-0.3,0.2-0.5,0.3l0,0l-0.3,0.2l0,0h-0.1l-1.3,0.9
				l-0.1,0.1l-0.3,0.3l-0.2,0.2L189,27l-0.3,0.1l-0.1,0.1l-0.3,0.3l-0.1,0.1l-0.1,0.1l-0.3,0.4l-0.1,0.1l-0.1,0.1l-0.1,0.1l-0.1,0.1
				l-0.1,0.1h-0.1l-0.1,0.1l-0.1,0.1l-0.1,0.1l-0.1,0.1l-0.1,0.2l-0.3,0.3v0.1v0.2v0.1V30l-0.1,0.1l-0.1,0.1l-0.1,0.1l-0.1,0.2
				l-0.1,0.2v0.1v0.1v0.2l0.1,0.1l0.1,0.1l0.1,0.1l0.6-0.2l0.3-0.1l0.4-0.1l0,0h0.1c0.4-0.1,0.7-0.3,1.1-0.5l0.1-0.1l0.2-0.1
				l0.1-0.1h0.2c0.3-0.1,0.6-0.3,1-0.5l0.1-0.1l0.2-0.1l0,0h0.1l0.1-0.1h0.1l0.4-0.2l0.2-0.1l0.2-0.1l0.8-0.4l0.2-0.1l0.8-0.4
				l0.2-0.1l0.5-0.3l0.3-0.2l0.5-0.3l0.1-0.1l0.2-0.1l0.1-0.1l0.3-0.2l0.4-0.2l0.9-0.2h0.3l0.3,0.1l0.2,0.1l0.1,0.1
				c0.1,0,0.2,0.1,0.2,0.2l0,0h0.1v0.1V27h0.1v0.1l0,0l-0.1,0.1l-0.1,0.1l-0.1,0.1l-0.2,0.1c0,0.1-0.1,0.1-0.1,0.2l-0.2,0.3
				l-0.2,0.1h-0.1l-0.3,0.4l-0.1,0.1l0,0h-0.1l-0.2,0.2L196.3,29L196.3,29l-0.2,0.3c-0.1,0.1-0.1,0.1-0.1,0.2l-0.1,0.2l0,0
				c-0.1,0.1-0.1,0.2-0.1,0.3c0,0.1,0,0,0.1,0.1h0.1h0.1h0.2h0.1h0.2h0.1h0.1c0.2,0,0.4-0.1,0.6-0.1l0.2-0.1l0.2-0.1h0.2l1-0.3
				l0.1-0.1L200,29l0,0l0.4-0.1l0.2-0.1h0.1l0.1-0.1l0.9-0.3v-0.1l0.1,0.1l0.3-0.1l0.1-0.1l1.4-0.4h0.1l0.7-0.2h0.1h0.1v0.2
				l-0.1,0.1h-0.2l-0.5,0.1l-0.3,0.2h-0.1l-0.5,0.1l-0.2,0.1l-0.6,0.3l-0.5,0.2l-0.5,0.2l-0.6,0.2l-0.1,0.1l-0.3,0.1l-0.1,0.1
				l-0.2,0.1l0,0l-0.2,0.1l-0.2,0.1h-0.1L199,30l-0.7,0.3v0.1l0,0l-0.2,0.1v0.1l-0.5,0.2l-0.4,0.1l-0.1,0.1l0,0v-0.1H197l-0.1,0.1
				h-0.1l0,0l-0.2,0.1h-0.3h-0.1H196l-0.1-0.1l-0.1-0.1l-0.1-0.1v-0.1v-0.1c0-0.1,0-0.2,0-0.4l0.1-0.2v-0.1l0.2-0.3l0.1-0.1l0.2-0.3
				L196.3,29z"/>
			<path class="st1" d="M213.9,29.4v0.2l-0.1,0.2l0,0l-0.1,0.2v0.1l-0.1,0.1c0,0.1,0,0.2,0,0.3v0.2l0.1,0.1l0.1,0.1L214,31l0.1,0.1
				c0.1,0,0.2,0,0.3-0.1l0.2-0.1l0.1-0.1h0.1l1-0.5h0.1l0.1-0.1l1-0.7h0.1l0.6-0.4l0.1-0.1h0.1l0.2-0.1l0.3-0.2l0.4-0.3l0.1-0.1
				l0.3-0.2l0,0l0.5-0.4h0.1l0.1-0.1l0.1-0.1l0.1,0.1v0.1l-0.1,0.1l-0.3,0.1l-0.4,0.3l-0.1,0.1l-0.3,0.3c-0.3,0.3-0.6,0.5-1,0.8
				l-0.3,0.2h-0.1l-0.1,0.1l-0.1,0.1h-0.1l-0.1,0.1l-0.2,0.1l-0.1,0.1l-0.2,0.1l-0.1,0.1l-0.3,0.2l-0.1,0.1l-0.2,0.1l-0.2,0.1
				l-0.1,0.1l-0.3,0.1l-0.5,0.3l-0.1,0.1l-0.2,0.1l-0.1,0.1h-0.1l-0.1,0.1l-0.2,0.1l-0.2,0.1h-0.3c-0.2,0.1-0.3,0.1-0.4,0.1
				s-0.2,0-0.2,0h-0.2l-0.1-0.1l-0.1-0.1l0,0l-0.2-0.2l0,0l-0.1-0.2v-0.5v-0.5v-0.2V30v-0.1l0.2-0.1l0.1-0.1l0.1-0.1v-0.1l0.2-0.2
				l0.1-0.1l0.1-0.1l0.1-0.3l0.2-0.4c0.1-0.4,0.3-0.9,0.5-1.3l0.1-0.5c0.2-0.3,0.3-0.6,0.3-1v-0.1v-0.2l-0.1-0.1
				c-0.2,0-0.5,0.1-0.8,0.2l-0.4,0.2l-0.2,0.1l-0.3,0.2l-0.2,0.2l-0.1,0.1l-0.2,0.1l-0.2,0.2l-0.5,0.3l-0.1,0.1
				c-0.1,0.1-0.3,0.1-0.3,0.2L211,27l-1.5,0.8l-0.1,0.2h-0.1l-0.1,0.1l-0.1,0.1l-0.2,0.2l-0.3,0.1l-0.5,0.4l-0.9,0.8l-0.7,0.6
				l-0.7,0.5l-0.1,0.1l-0.2,0.1l-0.2,0.2v0.1l-0.2-0.1l-0.5,0.2l-0.3,0.2l-0.3,0.1h-0.5l-0.1,0.1h-0.2l-0.1-0.1l-0.1-0.3l0.1-0.4
				l0.1-0.4l0.1-0.2l0.2-0.4l0.1-0.3l0.2-0.4v-0.1l0.1-0.1L204,29v-0.3l0.1-0.3l0.3-0.4l0.1-0.4l0.1-0.2l0.1-0.2l0.2-0.3l0.1-0.2
				l0.1-0.2l0.5-0.6l0.2-0.5v-0.1l0,0v-0.1h0.1l0.3-0.5l0.1-0.1l0.1-0.1l0,0l0.4-0.6l0.1-0.2l0.1-0.2l0.2-0.3l0.1-0.3l0.1-0.2
				l0.3-0.3c0.1-0.2,0.3-0.5,0.5-0.7l0.5-0.8l0.2-0.1c0.5-0.7,1-1.5,1.6-2.2l0.1-0.1l0.1-0.1l0.1-0.3L211,18l0.2-0.3l0.1-0.2v-0.2
				l0.1-0.1l0.3-0.2l0.1-0.2l0.1-0.2l0.2-0.5l0.1-0.3l0.2-0.2l0.2-0.2l0.3-0.5v-0.1l0.1-0.1l0.1-0.1v-0.1l0.1-0.3l0,0l0,0l0.1-0.1
				l0.1-0.1h0.1v-0.1l0.2-0.3l0.2-0.3l0.1-0.2h0.1v0.1l0,0l0,0l0.1-0.2v-0.1l0.2-0.2l0.1-0.2l0.1-0.1l0.1-0.1l0.3-0.4l0.1-0.3
				l0.1-0.3l0.1-0.1l0.1-0.2l0.1-0.1v-0.2v-0.1l0.2-0.1l0.3-0.3l0.1-0.2l0.4-0.3l0.2-0.2l0.1-0.2v0.1l0.1-0.1v0.2l0.2-0.3l0.2-0.1
				l0.2,0.2l0.1,0.4l-0.4,1l-0.7,0.9l-0.3,0.3l-0.6,0.6l-0.3,0.2l-1.2,1.7l0,0l-0.1,0.2l-0.2,0.3l-0.1,0.3l-0.2,0.2l-0.3,0.2
				l-1.1,1.5v0.1l-0.3,0.4l-0.1,0.2l-0.1,0.1l-0.2,0.2l-0.3,0.4l-0.7,0.8v0.2l-0.4,0.4l-0.3,0.3l-0.1,0.2l-0.4,0.5l-0.3,0.5
				l-0.2,0.2l-1.3,1.9c-0.3,0.4-0.5,0.8-0.8,1.2v0.1l-0.1,0.1l-0.1,0.1c-0.3,0.4-0.6,0.8-0.8,1.3v0.1h-0.1l-0.3,0.5v0.2l-0.3,0.6
				l-0.2,0.5l-0.3,0.8l-0.2,0.5l-0.1,0.3l-0.2,0.4l-0.1,0.4l0.1,0.2l0.1,0.1h0.1l0.4-0.2l0.2-0.2h0.1l0.1-0.1l0.2-0.1l0.1-0.1
				l0.2-0.1l0.1-0.1l0.3-0.2l0.1-0.1l0.2-0.2L207,29l0.2-0.2l0.1-0.1l0.2-0.2l0.1-0.1l0.4-0.2l0.9-0.7l0.1-0.1l0.2-0.2l0.5-0.2
				l0.3-0.2h0.1c0.3-0.2,0.6-0.4,0.9-0.6l0.4-0.4l0.2-0.1l0.1-0.1h0.1l0.1-0.1l0.2-0.2l0.3-0.1L213,25h0.1c0.5-0.2,1-0.2,1.5,0.1
				c0.1,0,0.1,0.1,0.1,0.1l0.1,0.1l0.2,0.1l0.1,0.2v0.2l-0.2,0.4l0,0c-0.2,0.4-0.4,0.9-0.6,1.3c-0.1,0.3-0.3,0.6-0.4,0.9v0.3
				l-0.3,0.4L213.9,29.4z"/>
			<path class="st1" d="M228.2,29L228.2,29l0.1-0.1l0.5-0.6l0.1-0.2L229,28v-0.1l0.1-0.1l0.3-0.4l0.1-0.1v-0.1l0,0l0.1-0.3l0,0h-0.1
				h-0.3l-0.3,0.1l-0.8,0.3l-0.2,0.1h-0.1l-0.8,0.5l0,0l-0.2,0.1l-0.2,0.1l-0.2,0.1l-0.6,0.3l-0.6,0.4l-0.3,0.1l-0.4,0.2l-0.1,0.1
				l-0.3,0.2l-0.2,0.1l-0.5,0.3L223,30l-0.2,0.1l-0.3,0.1l-0.3,0.1l-0.7,0.4l-0.1,0.1l-0.3,0.2H221l0,0l0,0l-0.3,0.1h-0.2
				c-0.1,0.1-0.2,0.1-0.3,0.1l-0.1,0.1l-0.6,0.2h-0.1l-0.4,0.2h-0.1h-0.1h-0.1h-0.2l0,0c-0.5,0.1-0.8,0-0.9-0.3
				c-0.1-0.4,0-0.8,0.2-1.2l0.1-0.3h0.1v-0.1l0.1-0.2l0.1-0.1h0.1l0,0l0.1-0.1l0.2-0.3l0.3-0.2l0.1-0.1l0.2-0.4l0.1-0.1l0.2-0.2
				l0.3-0.3l1.3-1.1l0,0l0,0l0.4-0.3l0.1-0.1l0.5-0.4l0.2-0.1l0.7-0.5l0,0l0.3-0.4l0.1-0.1l0.1-0.2h0.1h0.2l0.1-0.1l0.2-0.1h0.1h0.1
				l0.1-0.1v-0.1l0.2-0.1l0.9-0.5l0.2-0.1l0.1-0.1l0.2-0.1h0.1h0.1l0.3-0.1h0.1l0.1-0.1h0.2L227,23l0.2-0.1h0.1l0.3,0.1h0.2h0.2h0.1
				h0.1l0,0h0.1l0.1,0.1v0.1h0.1l0.1,0.1v0.3l-0.1,0.1c0,0.1-0.1,0.1-0.3,0.3c-0.1,0.1-0.2,0-0.2,0l-0.3,0.1h-0.2H227l-0.5-0.1l0,0
				h-0.1l0,0h-0.1h-0.2h-0.2l-0.4,0.2l-0.5,0.2l-0.6,0.3l-0.5,0.2c-0.2,0.1-0.3,0.2-0.5,0.3l0,0l-0.3,0.2l0,0H223l-1.3,0.9l-0.1,0.1
				l-0.3,0.3l-0.2,0.2l-0.2,0.1l-0.3,0.1l-0.1,0.1l-0.3,0.3l-0.1,0.1l-0.1,0.1l-0.3,0.4l-0.1,0.1l-0.1,0.1l-0.1,0.1l-0.1,0.1
				l-0.1,0.1h-0.1l-0.1,0.1l-0.1,0.1l-0.1,0.1l-0.1,0.1l-0.1,0.2l-0.3,0.3v0.1v0.2v0.1V30l-0.1,0.1l-0.1,0.1l-0.1,0.1l-0.1,0.2
				l-0.1,0.2v0.1v0.1v0.2l0.1,0.1l0.1,0.1l0.1,0.1l0.6-0.2l0.3-0.1l0.4-0.1l0,0h0.1c0.4-0.1,0.7-0.3,1.1-0.5l0.1-0.1l0.2-0.1
				l0.1-0.1h0.2c0.3-0.1,0.6-0.3,1-0.5l0.1-0.1l0.2-0.1l0,0h0.1l0.1-0.1h0.1l0.4-0.2l0.2-0.1l0.2-0.1l0.8-0.4l0.2-0.1l0.8-0.4
				l0.2-0.1l0.5-0.3l0.3-0.2l0.5-0.3l0.1-0.1l0.2-0.1l0.1-0.1l0.3-0.2l0.4-0.2l0.9-0.2h0.3L230,26l0.2,0.1l0.1,0.1
				c0.1,0,0.2,0.1,0.2,0.2l0,0h0.1v0.1v0.1h0.1v0.1l0,0l-0.1,0.1l-0.1,0.1l-0.1,0.1l-0.2,0.1c0,0.1-0.1,0.1-0.1,0.2l-0.2,0.3
				l-0.2,0.1h-0.1l-0.3,0.4l-0.1,0.1l0,0h-0.1l-0.2,0.2l-0.1,0.1l-0.1,0.1l-0.2,0.3c-0.1,0.1-0.1,0.1-0.1,0.2l-0.1,0.2l0,0
				c-0.1,0.1-0.1,0.2-0.1,0.3c0,0.1,0,0,0.1,0.1h0.1h0.1h0.2h0.1h0.2h0.1h0.1c0.2,0,0.4-0.1,0.6-0.1l0.2-0.1l0.2-0.1h0.2l1-0.3
				l0.1-0.1l0.3-0.1l0,0l0.4-0.1l0.2-0.1h0.1l0.1-0.1l0.9-0.3v-0.1l0.1,0.1l0.3-0.1l0.1-0.1l1.4-0.4h0.1l0.7-0.2h0.1h0.1v0.2
				l-0.1,0.1h-0.2l-0.5,0.1l-0.3,0.2h-0.1l-0.5,0.1l-0.2,0.1l-0.6,0.3l-0.5,0.2l-0.5,0.2l-0.6,0.2l-0.1,0.1l-0.3,0.1l-0.1,0.1
				l-0.2,0.1l0,0l-0.2,0.1l-0.2,0.1h-0.1l-0.1,0.1l-0.7,0.3v0.1l0,0l-0.2,0.1v0.1l-0.5,0.2l-0.4,0.1l-0.1,0.1l0,0v-0.1H229l-0.1,0.1
				h-0.1l0,0l-0.2,0.1H228h-0.1h-0.2l-0.1-0.1l-0.1-0.1l-0.1-0.1v-0.1v-0.1c0-0.1,0-0.2,0-0.4l0.1-0.2v-0.1l0.2-0.3l0.1-0.1l0.2-0.3
				L228.2,29z"/>
			<path class="st1" d="M235.8,28.5l0.1-0.1l0,0l0.2-0.3l0.2-0.3l0.3-0.5l0.1-0.2l0.6-0.8l0.1-0.2l0.1-0.1l0.3-0.6l0.3-0.5l0.3-0.4
				l0.1-0.3V24h-0.1v-0.1l0.1-0.1l-0.1-0.5l0.1-0.5l0.1-0.2l0.2-0.6l0.5-0.3l0.3-0.1l0.3,0.2L240,22v0.2l0.1-0.1l-0.1,0.1l0,0
				l-0.1,0.1l-0.1,0.2v0.1c-0.1,0.3-0.3,0.7-0.4,1l-0.1,0.8l-0.2,0.3l-0.2,0.1l-0.3,0.4l-0.2,0.3l-0.1,0.3l-0.1,0.3l-0.2,0.2
				l-0.1,0.1l-0.1,0.2v0.1l-0.1,0.1l-0.6,0.8l-0.1,0.2l-0.3,0.4l-0.2,0.4l-0.6,0.9l-0.1,0.2l-0.3,0.5l0,0l-0.1,0.1h-0.1l-0.1,0.2
				l-0.1,0.3c0.1-0.1,0.2-0.2,0.3-0.3l0.1-0.1l0,0l0.1-0.2l0.2-0.1l0.1-0.1l0.2-0.2l0.2-0.1l0.3-0.3l0.1-0.1c0.4-0.3,0.7-0.7,1.1-1
				l0.1-0.2L238,28l0.3-0.2l0.2-0.1l0.5-0.3l0.1-0.1l0.6-0.4l0.1-0.1c0.3-0.1,0.5-0.3,0.7-0.4s0.6-0.3,0.9-0.2l0,0h0.5l0.2,0.2
				l0.3,0.3l0.1,0.5v0.2v0.3l-0.1,0.3v0.2v0.2l-0.2,0.7V29l0.2,0.3l0.1,0.3l0.1,0.1l-0.1,0.1l-0.1,0.2v0.2l0.1,0.2l0.1,0.1l0.2,0.2
				c0.4,0,0.9,0,1.4-0.1l0.6-0.2h0.2l0.4-0.1h0.2l0.5-0.2l0.4-0.2h0.3l0.3-0.1l0.5-0.2c0.3-0.1,0.7-0.3,1-0.5l0.3-0.2h0.1l0.7-0.3
				l0.2-0.1l0.2-0.2l0.3-0.2l0.8-0.3l1-0.6l0.1-0.1l0.4-0.2h0.1v-0.1h0.1l0.3-0.2l0.1-0.1h0.2l0.1,0.1v0.1l-0.1,0.1l-0.1,0.1
				c-0.5,0.3-0.9,0.6-1.4,0.9l-0.2,0.2l-0.2,0.1l-0.2,0.1H251l-0.3,0.2l-0.1,0.1h-0.1c0,0-0.1,0-0.1,0.1l-0.1,0.1l-0.1,0.1l0,0
				c-0.3,0.2-0.6,0.3-0.9,0.5l-0.5,0.3l-1.2,0.6h-0.1l0,0l-0.4,0.3l-0.3,0.2l-0.4,0.1L246,31l-0.2,0.1l-0.3,0.1l-0.3,0.1H245
				l-0.1,0.1h-0.1h-0.1c-0.2,0.1-0.5,0.1-0.7,0.1h-0.4l-0.1,0.1h-0.1l-0.2-0.1l-0.2,0.1h-0.2h-0.1c-0.3,0-0.6-0.3-0.9-0.4
				c-0.2-0.1-0.3-0.2-0.4-0.4v-0.1c0-0.1,0-0.3,0-0.5v-0.3l0.1-0.3l0.1-0.5l0,0l0.1-0.1l0.3-1l0,0l-0.1-0.1l0.1-0.2
				c0.1-0.4,0-0.8-0.4-0.8c-0.2,0-0.2-0.1-0.5,0l-0.3,0.1l-0.2,0.2c0,0,0,0-0.1,0l-0.6,0.4l-0.1,0.1l-0.1,0.1l-0.5,0.5l-0.2,0.1
				l-0.1,0.2l-0.9,0.6h-0.1l-0.2,0.1h-0.1l-0.1,0.2l-0.2,0.2l-0.1,0.1l-0.2,0.1l-0.2,0.2l-0.1,0.1l-0.1,0.2l-0.3,0.2l-0.3,0.2
				c-0.4,0.4-0.8,0.8-1.3,1.3l-0.1,0.2l0,0l-0.3,0.2c0,0,0,0-0.1,0v0.1h-0.1v0.1v0.1l-0.1-0.1l-0.1,0.1h-0.1l-0.2-0.1l-0.1-0.3v-0.6
				l0.2-0.5l0.1-0.2l0.3-0.3l0.3-0.2v-0.1l0,0h0.1v-0.1l0.1-0.1l0.1-0.2l0.1-0.4l0.1-0.2l0.1-0.1L235.8,28.5L235.8,28.5z"/>
		</g>
	</g>
</g>
</svg>
