<?xml version="1.0" encoding="utf-8"?>
<!-- Generator: Adobe Illustrator 22.0.1, SVG Export Plug-In . SVG Version: 6.00 Build 0)  -->
<svg version="1.1" id="Capa_1" xmlns="http://www.w3.org/2000/svg" xmlns:xlink="http://www.w3.org/1999/xlink" x="0px" y="0px"
	 viewBox="0 0 60 60" style="enable-background:new 0 0 60 60;" xml:space="preserve">
<style type="text/css">
	.st0{fill:#00A89A;}
</style>
<path class="st0" d="M57,13.5h-2v-3H45v3h-4V7.7c0-1.8-1.4-3.2-3.2-3.2H22.2c-1.8,0-3.2,1.4-3.2,3.2v5.8h-4v-3H5v3H3
	c-1.7,0-3,1.4-3,3v36c0,1.7,1.4,3,3,3h54c1.7,0,3-1.4,3-3v-36C60,14.9,58.6,13.5,57,13.5z M47,12.5h6v1h-6V12.5z M21,7.7
	c0-0.7,0.5-1.2,1.2-1.2h15.6C38.5,6.5,39,7,39,7.7v5.8H21V7.7z M19,15.5h22h4h5v38H10v-38h5H19z M7,12.5h6v1H7V12.5z M2,52.5v-36
	c0-0.6,0.5-1,1-1h2h3v38H3C2.5,53.5,2,53,2,52.5z M58,52.5c0,0.6-0.5,1-1,1h-5v-38h3h2c0.6,0,1,0.5,1,1V52.5z"/>
</svg>
