<svg xmlns="http://www.w3.org/2000/svg" viewBox="0 0 73.87 66.87"><defs><style>.cls-1{fill:#006e96;}</style></defs><title>Age</title><g id="Layer_2" data-name="Layer 2"><g id="Layer_1-2" data-name="Layer 1"><path class="cls-1" d="M57.52,16.33a6.05,6.05,0,1,0,6-6,6.06,6.06,0,0,0-6,6Z"/><path class="cls-1" d="M69.76,24.39l-1.53-.48a1.83,1.83,0,0,0-1.62.29l-3,2.27-3-2.27a1.82,1.82,0,0,0-1.61-.29l-1.54.48a6,6,0,0,0-4.1,5.69v9.14a1.72,1.72,0,0,0,.3,1l3.07,4.67V57.14A1.8,1.8,0,0,0,58.45,59H68.69a1.81,1.81,0,0,0,1.81-1.81V44.88l3.07-4.67a1.83,1.83,0,0,0,.3-1V30.08a6,6,0,0,0-4.11-5.69Z"/><path class="cls-1" d="M10.29,22.38a6.05,6.05,0,1,0-6-6.05A6.05,6.05,0,0,0,10.29,22.38Z"/><path class="cls-1" d="M16.48,24.39,15,23.91a1.83,1.83,0,0,0-1.62.29l-3,2.27-3-2.27a1.82,1.82,0,0,0-1.61-.29l-1.54.48A6,6,0,0,0,0,30.08v9.14a1.72,1.72,0,0,0,.3,1l3.06,4.67V57.14A1.81,1.81,0,0,0,5.17,59H15.41a1.81,1.81,0,0,0,1.81-1.81V44.88l3.07-4.67a1.82,1.82,0,0,0,.29-1V30.08A6,6,0,0,0,16.48,24.39Z"/><path class="cls-1" d="M44.74,7.8a7.81,7.81,0,1,0-7.81,7.81A7.81,7.81,0,0,0,44.74,7.8Z"/><path class="cls-1" d="M45.5,19.39h0l-2.23-.68a.69.69,0,0,0-.85.43L37.73,32a.84.84,0,0,1-1.59,0L31.45,19.13a.69.69,0,0,0-.64-.46c-.07,0-2.43.71-2.43.71A6.92,6.92,0,0,0,23.63,26V39.54a.64.64,0,0,0,.12.38l4.88,7.44V66.18a.69.69,0,0,0,.69.69H44.54a.69.69,0,0,0,.69-.69V47.36l4.89-7.44a.7.7,0,0,0,.11-.38V25.92a6.86,6.86,0,0,0-4.73-6.53Z"/><path class="cls-1" d="M38.76,19.12A1,1,0,0,0,38,18.8H35.87a1.06,1.06,0,0,0-.77.32A1,1,0,0,0,35,20.28L36.11,22l-.53,4.51,1.05,2.8a.32.32,0,0,0,.6,0l1.06-2.8L37.75,22l1.14-1.72A1,1,0,0,0,38.76,19.12Z"/></g></g></svg>