<svg xmlns="http://www.w3.org/2000/svg" viewBox="0 0 194.08 194.08"><defs><style>.cls-1{fill:#006e96;}.cls-2{fill:#e1e1e1;}</style></defs><title>Behavior</title><g id="Layer_2" data-name="Layer 2"><g id="Layer_1-2" data-name="Layer 1"><path class="cls-1" d="M105.22,194.08a26.29,26.29,0,0,1-21.73-11.37,26.47,26.47,0,0,1-30,.91,26,26,0,0,1-7.5,1.11,26.53,26.53,0,0,1-26.5-26.5,26.14,26.14,0,0,1,1.8-9.57,26.5,26.5,0,0,1,14.06-40.79A26.43,26.43,0,0,1,61.58,85a26.14,26.14,0,0,1,7.17,1,21.79,21.79,0,0,1,32.12-.37,32.6,32.6,0,0,1,52.45,22.29,26.5,26.5,0,0,1,11,44.27,26.16,26.16,0,0,1,1.66,9.18,26.53,26.53,0,0,1-26.5,26.5,26.1,26.1,0,0,1-13.58-3.76A26.31,26.31,0,0,1,105.22,194.08Z"/><path class="cls-2" d="M139.52,134.84v6.24a20.28,20.28,0,0,1,20.19,18.7h0c0,.52.08,1,.08,1.56a20.29,20.29,0,0,1-20.26,20.27,20.07,20.07,0,0,1-12.45-4.3l0,0a20.3,20.3,0,0,1-7.86-16H113A26.56,26.56,0,0,0,124,182.89l0-.06a26.17,26.17,0,0,0,15.44,5,26.5,26.5,0,0,0,0-53Z"/><path class="cls-2" d="M81.5,145.11a20.22,20.22,0,0,1-10.32,5,26.43,26.43,0,0,0-12.86-15.38l-2.91,5.52a20.26,20.26,0,0,1-2.52,37,22.19,22.19,0,0,1-3.33.9l-.23,0a19.84,19.84,0,0,1-3.34.3,20.23,20.23,0,0,1-18.3-28.94l-5.63-2.67a26.23,26.23,0,0,0-2.57,11.35A26.53,26.53,0,0,0,46,184.73c.82,0,1.64,0,2.46-.13.43,0,.85-.11,1.28-.17l1.05-.16c.57-.11,1.13-.24,1.69-.38l.55-.14c.63-.17,1.24-.37,1.85-.59l.18-.06h0a26.52,26.52,0,0,0,17.44-24.86c0-.67-.09-1.31-.14-2a26.33,26.33,0,0,0,13.36-6.56Z"/><path class="cls-2" d="M181.61,10.13l7.48,5.61,3.74-5L178.49,0,164.15,10.76l3.74,5,7.48-5.61V32a15.61,15.61,0,0,1-15.59,15.59H147.31a21.85,21.85,0,0,0-20.9,15.58h-4.47l-.11,6.23h3.66v9.72a31.86,31.86,0,0,0-26.64,8.25l-.08-.08a32.74,32.74,0,0,0,22,56.94V138a26.48,26.48,0,0,1-18.25-45.68l0,0A26.25,26.25,0,0,1,120.81,85a26.71,26.71,0,0,1,4.68.43v12A15.6,15.6,0,0,1,109.9,113h-3.12v6.23h3.12a21.85,21.85,0,0,0,21.82-21.82V87.32a26.36,26.36,0,0,1,15.54,23.16l6.23-.22a32.58,32.58,0,0,0-21.77-29.65V69.37a15.61,15.61,0,0,1,15.59-15.59h12.47A21.85,21.85,0,0,0,181.61,32V10.13Z"/><rect class="cls-2" x="144.2" y="122.37" width="9.35" height="6.24"/><path class="cls-2" d="M111.42,66.4,114.56,61A16,16,0,0,1,109,55.61l-5.32,3.24A22.09,22.09,0,0,0,111.42,66.4Z"/><path class="cls-2" d="M193.33,79.28l-6,1.63a15.8,15.8,0,0,1,.53,4V89.4h6.24V85A21.77,21.77,0,0,0,193.33,79.28Z"/><rect class="cls-2" x="100.55" y="20.32" width="6.24" height="9.35"/><path class="cls-2" d="M100.55,47.55c0,.32,0,.64,0,1l6.23-.28,0-9.21h-6.23Z"/><rect class="cls-2" x="159.3" y="63.13" width="9.35" height="6.24"/><rect class="cls-2" x="162.9" y="122.37" width="9.35" height="6.24"/><path class="cls-2" d="M179.72,120.46l3,5.46a22.18,22.18,0,0,0,7.89-7.36l-5.24-3.37A16,16,0,0,1,179.72,120.46Z"/><rect class="cls-2" x="140.59" y="63.13" width="9.35" height="6.24"/><path class="cls-2" d="M188,69.89a21.94,21.94,0,0,0-9.14-5.73L177,70.1a15.73,15.73,0,0,1,6.54,4.1Z"/><path class="cls-2" d="M187.84,106.78c0,.37,0,.74,0,1.1l6.23.44c0-.51.05-1,.05-1.54v-8h-6.24Z"/><polygon class="cls-2" points="100.55 10.13 100.55 10.97 106.78 10.97 106.78 10.13 114.27 15.74 118.01 10.76 103.67 0 89.32 10.76 93.06 15.74 100.55 10.13"/><path class="cls-2" d="M28.84,66.25V60A12.48,12.48,0,0,1,41.31,47.55H60A12.49,12.49,0,0,1,72.49,60v46.76h6.23V60A18.72,18.72,0,0,0,60,41.31H56.9V35.07H50.66v6.24H41.31A18.73,18.73,0,0,0,22.6,60v6.23a6.24,6.24,0,0,1-6.23,6.24H10.13L15.74,65l-5-3.75L0,75.61,10.76,90l5-3.74-5.61-7.49h6.24A12.48,12.48,0,0,0,28.84,66.25Z"/><rect class="cls-2" x="50.66" y="91.19" width="6.24" height="9.35"/><rect class="cls-2" x="50.66" y="109.9" width="6.24" height="9.35"/><rect class="cls-2" x="50.66" y="53.78" width="6.24" height="9.35"/><rect class="cls-2" x="50.66" y="72.49" width="6.24" height="9.35"/><rect class="cls-2" x="50.66" y="16.37" width="6.24" height="9.35"/><polygon class="cls-2" points="53.78 7.79 64.38 15.74 68.12 10.76 53.78 0 39.44 10.76 43.18 15.74 53.78 7.79"/></g></g></svg>