<svg xmlns="http://www.w3.org/2000/svg" viewBox="0 0 132.14 80.15"><defs><style>.cls-1{fill:#00a99d;}</style></defs><title>Asset 3</title><g id="Layer_2" data-name="Layer 2"><g id="OBJECTS"><polygon class="cls-1" points="24 27.85 0 10.23 5.92 2.17 24 15.44 45.03 0 66.07 15.44 87.11 0 108.14 15.44 126.23 2.17 132.14 10.23 108.14 27.85 87.11 12.4 66.07 27.85 45.03 12.4 24 27.85"/><polygon class="cls-1" points="24 54 0 36.38 5.92 28.32 24 41.59 45.03 26.15 66.07 41.59 87.11 26.15 108.14 41.59 126.23 28.32 132.14 36.38 108.14 54 87.11 38.56 66.07 54 45.03 38.56 24 54"/><polygon class="cls-1" points="24 80.15 0 62.54 5.92 54.48 24 67.75 45.03 52.3 66.07 67.75 87.11 52.3 108.14 67.75 126.23 54.48 132.14 62.54 108.14 80.15 87.11 64.71 66.07 80.15 45.03 64.71 24 80.15"/></g></g></svg>