<svg xmlns="http://www.w3.org/2000/svg" viewBox="0 0 176.25 178"><defs><style>.cls-1{fill:#00a99d;}</style></defs><title>Asset 1</title><g id="Layer_2" data-name="Layer 2"><g id="OBJECTS"><circle class="cls-1" cx="169.5" cy="6.75" r="6.75"/><circle class="cls-1" cx="146.25" cy="6.75" r="6.75"/><circle class="cls-1" cx="123" cy="6.75" r="6.75"/><circle class="cls-1" cx="99.75" cy="6.75" r="6.75"/><circle class="cls-1" cx="76.5" cy="6.75" r="6.75"/><circle class="cls-1" cx="53.25" cy="6.75" r="6.75"/><circle class="cls-1" cx="30" cy="6.75" r="6.75"/><circle class="cls-1" cx="6.75" cy="6.75" r="6.75"/><circle class="cls-1" cx="146.25" cy="30.25" r="6.75"/><circle class="cls-1" cx="123" cy="30.25" r="6.75"/><circle class="cls-1" cx="99.75" cy="30.25" r="6.75"/><circle class="cls-1" cx="76.5" cy="30.25" r="6.75"/><circle class="cls-1" cx="53.25" cy="30.25" r="6.75"/><circle class="cls-1" cx="30" cy="30.25" r="6.75"/><circle class="cls-1" cx="6.75" cy="30.25" r="6.75"/><circle class="cls-1" cx="123" cy="53.75" r="6.75"/><circle class="cls-1" cx="99.75" cy="53.75" r="6.75"/><circle class="cls-1" cx="76.5" cy="53.75" r="6.75"/><circle class="cls-1" cx="53.25" cy="53.75" r="6.75"/><circle class="cls-1" cx="30" cy="53.75" r="6.75"/><circle class="cls-1" cx="6.75" cy="53.75" r="6.75"/><circle class="cls-1" cx="99.75" cy="77.25" r="6.75"/><circle class="cls-1" cx="76.5" cy="77.25" r="6.75"/><circle class="cls-1" cx="53.25" cy="77.25" r="6.75"/><circle class="cls-1" cx="30" cy="77.25" r="6.75"/><circle class="cls-1" cx="6.75" cy="77.25" r="6.75"/><circle class="cls-1" cx="76.5" cy="100.75" r="6.75"/><circle class="cls-1" cx="53.25" cy="100.75" r="6.75"/><circle class="cls-1" cx="30" cy="100.75" r="6.75"/><circle class="cls-1" cx="6.75" cy="100.75" r="6.75"/><circle class="cls-1" cx="53.25" cy="124.25" r="6.75"/><circle class="cls-1" cx="30" cy="124.25" r="6.75"/><circle class="cls-1" cx="6.75" cy="124.25" r="6.75"/><circle class="cls-1" cx="30" cy="147.75" r="6.75"/><circle class="cls-1" cx="6.75" cy="147.75" r="6.75"/><circle class="cls-1" cx="7.5" cy="171.25" r="6.75"/></g></g></svg>