<svg xmlns="http://www.w3.org/2000/svg" viewBox="0 0 95.45 74.14"><defs><style>.cls-1{fill:#006e96;}</style></defs><title>Gender</title><g id="Layer_2" data-name="Layer 2"><g id="Layer_1-2" data-name="Layer 1"><path class="cls-1" d="M75.82,25.22v-6.4h3.85v-8.1H75.82V4.94H66.18v5.78H61.94v8.1h4.24v6.33a24.63,24.63,0,1,0,9.64.07Zm-4.88,39a14.95,14.95,0,1,1,15-14.94A15,15,0,0,1,70.94,64.23Z"/><path class="cls-1" d="M49.18,24.58A24.59,24.59,0,1,0,19.92,48.73V59.52L16.76,56.8,11.57,63,24.79,74.14,38.41,63l-5.18-6.27-3.67,3V48.65A24.65,24.65,0,0,0,49.18,24.58Zm-39.46,0a14.95,14.95,0,1,1,14.94,15A15,15,0,0,1,9.72,24.58Z"/></g></g></svg>