<svg id="Layer_1" data-name="Layer 1" xmlns="http://www.w3.org/2000/svg" xmlns:xlink="http://www.w3.org/1999/xlink" viewBox="0 0 456.28 456.28"><defs><style>.cls-1{fill:none;}.cls-2{clip-path:url(#clip-path);}.cls-3{fill:#010101;}</style><clipPath id="clip-path" transform="translate(-593.33 -27.86)"><rect class="cls-1" x="593.33" y="27.86" width="456.28" height="456.28"/></clipPath></defs><title>Instagram Logo (Black_SVG)</title><g class="cls-2"><path class="cls-3" d="M821.47,69c60.92,0,68.13.23,92.19,1.33C935.9,71.31,948,75,956,78.15a75.55,75.55,0,0,1,43.3,43.3c3.12,8,6.84,20.12,7.86,42.36,1.1,24.06,1.33,31.27,1.33,92.19s-0.23,68.13-1.33,92.19c-1,22.24-4.73,34.32-7.86,42.36a75.55,75.55,0,0,1-43.3,43.3c-8,3.12-20.12,6.84-42.36,7.85-24.05,1.1-31.27,1.33-92.19,1.33s-68.13-.23-92.19-1.33c-22.24-1-34.32-4.73-42.36-7.85a75.55,75.55,0,0,1-43.3-43.3c-3.12-8-6.84-20.12-7.86-42.36-1.1-24.06-1.33-31.27-1.33-92.19s0.23-68.13,1.33-92.19c1-22.24,4.73-34.32,7.86-42.36a70.7,70.7,0,0,1,17.07-26.23,70.69,70.69,0,0,1,26.23-17.07c8-3.12,20.12-6.84,42.36-7.86C753.34,69.2,760.56,69,821.47,69m0-41.11c-62,0-69.73.26-94.06,1.37s-40.87,5-55.38,10.6a111.81,111.81,0,0,0-40.41,26.31,111.83,111.83,0,0,0-26.31,40.41c-5.64,14.51-9.5,31.1-10.6,55.38S593.33,194,593.33,256s0.26,69.73,1.37,94.06,5,40.87,10.6,55.38A116.65,116.65,0,0,0,672,472.16c14.51,5.64,31.09,9.5,55.38,10.6s32.1,1.37,94.06,1.37,69.73-.26,94.06-1.37,40.87-5,55.38-10.6a116.65,116.65,0,0,0,66.72-66.72c5.64-14.51,9.5-31.1,10.6-55.38s1.37-32.1,1.37-94.06-0.26-69.73-1.37-94.06-5-40.87-10.6-55.38a111.83,111.83,0,0,0-26.31-40.41,111.81,111.81,0,0,0-40.41-26.31c-14.51-5.64-31.09-9.5-55.38-10.6s-32.1-1.37-94.06-1.37" transform="translate(-593.33 -27.86)"/><path class="cls-3" d="M821.47,138.85A117.15,117.15,0,1,0,938.63,256,117.15,117.15,0,0,0,821.47,138.85m0,193.2a76,76,0,1,1,76-76,76,76,0,0,1-76,76" transform="translate(-593.33 -27.86)"/><path class="cls-3" d="M970.63,134.22a27.38,27.38,0,1,1-27.38-27.38,27.38,27.38,0,0,1,27.38,27.38" transform="translate(-593.33 -27.86)"/></g></svg>