<!-- Generator: Adobe Illustrator 21.0.2, SVG Export Plug-In  -->
<svg version="1.1"
	 xmlns="http://www.w3.org/2000/svg" xmlns:xlink="http://www.w3.org/1999/xlink" xmlns:a="http://ns.adobe.com/AdobeSVGViewerExtensions/3.0/"
	 x="0px" y="0px" width="376.88px" height="37.547px" viewBox="0 0 376.88 37.547"
	 style="enable-background:new 0 0 376.88 37.547;" xml:space="preserve">
<style type="text/css">
	.st0{fill:#999999;}
</style>
<defs>
</defs>
<g>
	<g>
		<path class="st0" d="M0.206,10.088c-0.223-0.457-0.265-0.846-0.125-1.169c0.139-0.323,0.47-0.484,0.994-0.484H5.35
			c0.29,0,0.543,0.078,0.76,0.234c0.217,0.156,0.37,0.379,0.459,0.668c0.189,0.59,0.398,1.25,0.626,1.979
			c0.228,0.729,0.468,1.473,0.718,2.23s0.498,1.509,0.743,2.254c0.245,0.747,0.47,1.434,0.676,2.063
			c0.206,0.629,0.39,1.178,0.551,1.645c0.162,0.468,0.281,0.802,0.359,1.002l3.541-11.174c0.145-0.356,0.309-0.595,0.493-0.718
			c0.184-0.122,0.442-0.184,0.776-0.184h3.958c0.323,0,0.568,0.039,0.735,0.117c0.167,0.078,0.278,0.184,0.334,0.317
			c0.055,0.133,0.066,0.287,0.033,0.459c-0.033,0.173-0.089,0.354-0.167,0.543l-1.837,4.493c0.078,0.189,0.228,0.509,0.451,0.96
			c0.223,0.451,0.476,0.963,0.76,1.537c0.284,0.573,0.573,1.175,0.869,1.804c0.295,0.629,0.543,1.217,0.743,1.762l4.092-11.091
			c0.145-0.356,0.292-0.595,0.442-0.718c0.15-0.122,0.376-0.184,0.677-0.184h3.691c0.535,0,0.902,0.1,1.103,0.301
			c0.201,0.2,0.211,0.579,0.033,1.136l-7.833,19.058c-0.1,0.201-0.253,0.371-0.459,0.509c-0.207,0.14-0.504,0.209-0.894,0.209
			h-1.754c-0.434,0-0.751-0.069-0.952-0.209c-0.2-0.139-0.362-0.32-0.484-0.542l-3.106-7.583l-3.057,7.616
			c-0.123,0.201-0.268,0.371-0.435,0.509c-0.167,0.14-0.417,0.209-0.751,0.209H9.258c-0.445,0-0.76-0.064-0.943-0.192
			c-0.184-0.128-0.32-0.303-0.409-0.526L0.206,10.088z"/>
		<path class="st0" d="M48.627,27.108c-0.98,0.902-2.083,1.606-3.307,2.113c-1.225,0.506-2.522,0.76-3.892,0.76
			c-1.526,0-2.968-0.278-4.326-0.835s-2.55-1.328-3.574-2.313s-1.837-2.146-2.438-3.482c-0.602-1.336-0.902-2.79-0.902-4.359
			c0-0.979,0.119-1.929,0.359-2.848c0.239-0.919,0.579-1.779,1.019-2.581c0.439-0.802,0.974-1.54,1.603-2.213
			c0.629-0.673,1.333-1.25,2.113-1.729c0.779-0.479,1.625-0.852,2.539-1.119s1.876-0.401,2.89-0.401c0.924,0,1.82,0.123,2.689,0.368
			c0.869,0.245,1.684,0.59,2.447,1.035c0.762,0.446,1.461,0.98,2.096,1.604c0.634,0.624,1.18,1.306,1.637,2.046
			c0.457,0.741,0.81,1.531,1.061,2.372s0.376,1.707,0.376,2.597c0,0.579-0.008,1.052-0.025,1.42
			c-0.017,0.367-0.103,0.66-0.259,0.877c-0.156,0.217-0.415,0.367-0.777,0.451s-0.894,0.125-1.595,0.125H36.334
			c0.111,0.712,0.336,1.309,0.676,1.787c0.339,0.479,0.732,0.86,1.178,1.144c0.445,0.284,0.918,0.487,1.419,0.61
			s0.975,0.184,1.42,0.184c0.401,0,0.812-0.042,1.236-0.125s0.833-0.194,1.228-0.334c0.396-0.139,0.757-0.3,1.086-0.484
			c0.328-0.184,0.593-0.375,0.793-0.576c0.178-0.145,0.331-0.253,0.459-0.326c0.128-0.072,0.265-0.108,0.409-0.108
			c0.145,0,0.292,0.05,0.443,0.15c0.15,0.1,0.32,0.245,0.509,0.434l1.771,2.004c0.123,0.145,0.201,0.275,0.234,0.393
			c0.033,0.117,0.05,0.236,0.05,0.359c0,0.223-0.062,0.415-0.184,0.576C48.938,26.844,48.794,26.986,48.627,27.108z M40.593,13.195
			c-0.434,0-0.854,0.086-1.261,0.259c-0.407,0.173-0.788,0.404-1.144,0.693c-0.356,0.29-0.677,0.618-0.96,0.985
			c-0.284,0.368-0.515,0.741-0.693,1.119h8.535c-0.234-0.434-0.487-0.835-0.76-1.203c-0.273-0.367-0.585-0.69-0.936-0.969
			s-0.751-0.495-1.203-0.651C41.72,13.273,41.194,13.195,40.593,13.195z"/>
		<path class="st0" d="M58.765,28.361c-0.1,0.212-0.184,0.398-0.25,0.56c-0.067,0.162-0.142,0.295-0.226,0.401
			s-0.187,0.187-0.309,0.242c-0.123,0.056-0.29,0.083-0.501,0.083h-3.307c-0.891,0-1.336-0.429-1.336-1.286V3.407
			c0-0.189,0.036-0.362,0.108-0.518c0.072-0.156,0.167-0.289,0.284-0.4c0.117-0.111,0.25-0.198,0.401-0.259
			c0.15-0.061,0.298-0.092,0.442-0.092h3.792c0.423,0,0.757,0.123,1.002,0.368c0.245,0.245,0.367,0.545,0.367,0.902v7.616
			c0.312-0.334,0.646-0.673,1.002-1.019c0.356-0.345,0.743-0.66,1.161-0.944c0.417-0.284,0.877-0.515,1.378-0.693
			c0.501-0.178,1.058-0.267,1.67-0.267c1.514,0,2.909,0.281,4.184,0.843c1.274,0.562,2.372,1.336,3.29,2.322
			c0.919,0.985,1.637,2.144,2.155,3.474c0.518,1.331,0.777,2.77,0.777,4.318c0,1.537-0.259,2.973-0.777,4.309
			c-0.518,1.336-1.236,2.497-2.155,3.482c-0.918,0.986-2.016,1.762-3.29,2.33c-1.275,0.568-2.67,0.852-4.184,0.852
			c-0.568,0-1.103-0.098-1.604-0.292s-0.969-0.442-1.403-0.743c-0.434-0.301-0.835-0.624-1.202-0.969
			c-0.368-0.345-0.702-0.668-1.002-0.969L58.765,28.361z M68.836,19.058c0-0.712-0.114-1.392-0.342-2.038
			c-0.229-0.646-0.554-1.214-0.977-1.704c-0.423-0.49-0.93-0.876-1.52-1.161c-0.59-0.284-1.253-0.426-1.988-0.426
			c-0.735,0-1.422,0.142-2.063,0.426c-0.641,0.284-1.194,0.671-1.662,1.161c-0.468,0.49-0.838,1.058-1.111,1.704
			c-0.273,0.646-0.409,1.325-0.409,2.038v0.234c0.034,0.701,0.192,1.358,0.476,1.971c0.284,0.613,0.66,1.144,1.127,1.595
			c0.468,0.451,1.013,0.805,1.637,1.061c0.624,0.256,1.292,0.384,2.004,0.384c0.735,0,1.397-0.136,1.988-0.409
			c0.59-0.273,1.097-0.643,1.52-1.111c0.423-0.468,0.749-1.021,0.977-1.662C68.722,20.48,68.836,19.792,68.836,19.058z"/>
		<path class="st0" d="M79.727,23.049c0.301,0.301,0.626,0.554,0.977,0.76c0.351,0.206,0.688,0.373,1.011,0.501
			c0.323,0.128,0.606,0.22,0.852,0.275c0.245,0.056,0.412,0.083,0.501,0.083c0.211,0,0.481-0.008,0.81-0.025
			c0.328-0.017,0.643-0.067,0.943-0.15c0.301-0.083,0.56-0.22,0.777-0.409c0.217-0.189,0.326-0.457,0.326-0.802
			c0-0.312-0.062-0.56-0.184-0.743c-0.123-0.184-0.301-0.339-0.535-0.468c-0.234-0.128-0.521-0.242-0.86-0.342
			s-0.721-0.217-1.144-0.351c-1.336-0.356-2.438-0.785-3.307-1.286c-0.869-0.501-1.556-1.061-2.062-1.679
			c-0.507-0.618-0.86-1.283-1.061-1.996c-0.201-0.712-0.301-1.464-0.301-2.255c0-0.924,0.184-1.765,0.551-2.522
			c0.367-0.757,0.891-1.406,1.57-1.946s1.492-0.958,2.438-1.253C81.976,8.148,83.028,8,84.186,8c0.702,0,1.358,0.059,1.971,0.175
			c0.612,0.117,1.197,0.301,1.754,0.551c0.557,0.25,1.099,0.574,1.628,0.969c0.529,0.396,1.055,0.866,1.578,1.411
			c0.189,0.223,0.287,0.432,0.292,0.626c0.005,0.195-0.12,0.404-0.376,0.626c-0.434,0.356-0.849,0.707-1.244,1.052
			c-0.396,0.345-0.805,0.729-1.228,1.152c-0.134,0.111-0.268,0.181-0.401,0.209c-0.134,0.028-0.262,0.025-0.384-0.008
			c-0.123-0.034-0.24-0.089-0.351-0.167c-0.112-0.078-0.212-0.173-0.301-0.284c-0.39-0.434-0.835-0.727-1.336-0.877
			s-0.969-0.226-1.403-0.226c-0.546,0-0.98,0.095-1.303,0.284c-0.323,0.189-0.474,0.479-0.451,0.869
			c0.022,0.29,0.131,0.515,0.326,0.676c0.195,0.162,0.435,0.292,0.718,0.393c0.284,0.1,0.584,0.181,0.902,0.242
			s0.61,0.131,0.877,0.208c1.002,0.323,1.921,0.674,2.756,1.053c0.835,0.378,1.559,0.843,2.171,1.395s1.088,1.211,1.428,1.979
			c0.339,0.769,0.509,1.704,0.509,2.806s-0.22,2.088-0.66,2.957c-0.44,0.868-1.044,1.598-1.812,2.188
			c-0.769,0.59-1.679,1.041-2.731,1.353c-1.052,0.312-2.186,0.467-3.399,0.467c-0.691,0-1.392-0.061-2.104-0.184
			c-0.713-0.123-1.403-0.32-2.071-0.593s-1.303-0.624-1.904-1.052c-0.601-0.429-1.136-0.949-1.604-1.562
			c-0.123-0.156-0.214-0.32-0.275-0.493c-0.062-0.172-0.089-0.342-0.083-0.509c0.005-0.167,0.039-0.32,0.1-0.459
			c0.061-0.139,0.159-0.259,0.292-0.359l2.155-2.155c0.267-0.223,0.503-0.301,0.709-0.234S79.403,22.738,79.727,23.049z"/>
		<path class="st0" d="M94.208,1.286c0-0.468,0.1-0.799,0.3-0.994C94.709,0.098,95.02,0,95.443,0h3.875
			c0.39,0,0.704,0.098,0.944,0.292c0.239,0.195,0.359,0.526,0.359,0.994v3.257c0,0.134-0.031,0.278-0.092,0.434
			c-0.062,0.156-0.148,0.307-0.259,0.451c-0.111,0.145-0.248,0.265-0.409,0.359c-0.162,0.095-0.343,0.142-0.543,0.142h-3.875
			c-0.824,0-1.236-0.462-1.236-1.386V1.286z M94.208,9.737c0-0.356,0.1-0.662,0.3-0.918c0.201-0.256,0.512-0.384,0.936-0.384h3.825
			c0.134,0,0.278,0.031,0.435,0.092c0.156,0.062,0.3,0.15,0.434,0.268c0.134,0.117,0.248,0.253,0.342,0.409s0.142,0.334,0.142,0.534
			v18.624c0,0.423-0.117,0.743-0.351,0.96s-0.568,0.326-1.002,0.326h-3.825c-0.824,0-1.236-0.429-1.236-1.286V9.737z"/>
		<path class="st0" d="M104.246,5.127c0-0.345,0.114-0.604,0.342-0.776c0.228-0.173,0.554-0.337,0.977-0.493l3.792-1.319
			c0.056-0.011,0.108-0.017,0.159-0.017s0.097,0,0.142,0c0.412,0,0.688,0.12,0.827,0.359c0.139,0.24,0.209,0.554,0.209,0.944
			l-0.017,5.261h2.79c0.356,0,0.646,0.106,0.869,0.317c0.223,0.212,0.334,0.529,0.334,0.952v3.224c0,0.468-0.111,0.81-0.334,1.027
			c-0.223,0.217-0.512,0.326-0.869,0.326h-2.79l0.017,13.429c0,0.423-0.123,0.743-0.368,0.96c-0.245,0.217-0.584,0.326-1.019,0.326
			h-3.774c-0.858,0-1.286-0.429-1.286-1.286l-0.017-13.429h-1.22c-0.857,0-1.286-0.451-1.286-1.353v-3.224
			c0-0.846,0.428-1.27,1.286-1.27h1.22L104.246,5.127z"/>
		<path class="st0" d="M132.891,27.108c-0.98,0.902-2.083,1.606-3.307,2.113c-1.225,0.506-2.522,0.76-3.892,0.76
			c-1.526,0-2.968-0.278-4.326-0.835s-2.55-1.328-3.574-2.313s-1.837-2.146-2.438-3.482c-0.602-1.336-0.902-2.79-0.902-4.359
			c0-0.979,0.119-1.929,0.359-2.848c0.239-0.919,0.579-1.779,1.019-2.581c0.439-0.802,0.974-1.54,1.603-2.213
			c0.629-0.673,1.333-1.25,2.113-1.729c0.779-0.479,1.625-0.852,2.539-1.119s1.876-0.401,2.89-0.401c0.924,0,1.82,0.123,2.689,0.368
			c0.869,0.245,1.684,0.59,2.447,1.035c0.762,0.446,1.461,0.98,2.096,1.604c0.634,0.624,1.18,1.306,1.637,2.046
			c0.456,0.741,0.81,1.531,1.061,2.372s0.376,1.707,0.376,2.597c0,0.579-0.008,1.052-0.025,1.42
			c-0.017,0.367-0.104,0.66-0.259,0.877c-0.156,0.217-0.415,0.367-0.776,0.451c-0.362,0.083-0.895,0.125-1.596,0.125h-12.025
			c0.111,0.712,0.336,1.309,0.676,1.787c0.339,0.479,0.732,0.86,1.178,1.144c0.445,0.284,0.918,0.487,1.419,0.61
			s0.975,0.184,1.42,0.184c0.401,0,0.812-0.042,1.236-0.125s0.833-0.194,1.228-0.334c0.396-0.139,0.757-0.3,1.086-0.484
			c0.328-0.184,0.593-0.375,0.793-0.576c0.178-0.145,0.331-0.253,0.459-0.326c0.128-0.072,0.265-0.108,0.409-0.108
			c0.145,0,0.292,0.05,0.443,0.15c0.15,0.1,0.32,0.245,0.509,0.434l1.771,2.004c0.123,0.145,0.201,0.275,0.234,0.393
			c0.033,0.117,0.05,0.236,0.05,0.359c0,0.223-0.062,0.415-0.185,0.576C133.202,26.844,133.058,26.986,132.891,27.108z
			 M124.856,13.195c-0.434,0-0.854,0.086-1.261,0.259c-0.407,0.173-0.788,0.404-1.144,0.693c-0.356,0.29-0.677,0.618-0.96,0.985
			c-0.284,0.368-0.515,0.741-0.693,1.119h8.535c-0.234-0.434-0.487-0.835-0.76-1.203c-0.273-0.367-0.585-0.69-0.936-0.969
			s-0.751-0.495-1.203-0.651C125.984,13.273,125.458,13.195,124.856,13.195z"/>
		<path class="st0" d="M159.48,23.116c0.156-0.111,0.303-0.181,0.443-0.209c0.139-0.027,0.247-0.042,0.325-0.042
			c0.188,0,0.361,0.039,0.518,0.117c0.155,0.078,0.317,0.245,0.484,0.501l1.87,2.823c0.057,0.089,0.109,0.189,0.159,0.3
			c0.05,0.112,0.075,0.201,0.075,0.268c0,0.256-0.081,0.465-0.242,0.626c-0.162,0.162-0.337,0.304-0.525,0.426
			c-0.914,0.635-1.913,1.144-2.999,1.528c-1.085,0.384-2.235,0.576-3.448,0.576c-1.003,0-1.969-0.128-2.898-0.384
			s-1.795-0.621-2.598-1.094c-0.801-0.473-1.536-1.041-2.205-1.704c-0.668-0.662-1.235-1.4-1.703-2.213
			c-0.468-0.812-0.832-1.689-1.094-2.631c-0.262-0.94-0.393-1.923-0.393-2.948s0.131-2.01,0.393-2.957
			c0.262-0.946,0.626-1.823,1.094-2.63c0.468-0.808,1.035-1.542,1.703-2.205c0.669-0.662,1.404-1.228,2.205-1.695
			c0.803-0.468,1.668-0.829,2.598-1.085s1.896-0.384,2.898-0.384c1.213,0,2.335,0.162,3.365,0.484
			c1.029,0.323,1.996,0.802,2.897,1.437l-0.05-0.05c0.244,0.145,0.439,0.315,0.584,0.51s0.218,0.437,0.218,0.727
			c0,0.2-0.067,0.406-0.2,0.618l-1.486,2.522c-0.312,0.546-0.691,0.819-1.137,0.819c-0.1,0-0.223-0.025-0.367-0.075
			c-0.145-0.05-0.307-0.136-0.484-0.259c-0.49-0.323-1.016-0.587-1.578-0.793s-1.161-0.309-1.796-0.309
			c-0.701,0-1.347,0.142-1.938,0.426c-0.591,0.284-1.094,0.671-1.511,1.161c-0.418,0.49-0.744,1.058-0.979,1.704
			c-0.232,0.646-0.35,1.325-0.35,2.038c0,0.735,0.117,1.422,0.35,2.062c0.234,0.641,0.561,1.194,0.979,1.662
			c0.417,0.468,0.92,0.838,1.511,1.111s1.236,0.409,1.938,0.409c0.635,0,1.23-0.111,1.787-0.334S158.98,23.461,159.48,23.116z"/>
		<path class="st0" d="M163.506,19.058c0-1.024,0.131-2.01,0.393-2.957c0.262-0.946,0.629-1.823,1.102-2.63
			c0.474-0.808,1.041-1.542,1.704-2.205c0.663-0.662,1.4-1.228,2.214-1.695c0.812-0.468,1.689-0.829,2.63-1.085
			s1.924-0.384,2.948-0.384c1.514,0,2.937,0.281,4.268,0.843c1.33,0.562,2.488,1.336,3.475,2.322
			c0.984,0.985,1.764,2.144,2.338,3.474c0.573,1.331,0.859,2.77,0.859,4.318c0,1.024-0.131,2.007-0.392,2.948
			c-0.262,0.941-0.63,1.818-1.103,2.631c-0.474,0.813-1.041,1.551-1.703,2.213c-0.663,0.663-1.4,1.23-2.214,1.704
			c-0.812,0.474-1.685,0.838-2.614,1.094s-1.9,0.384-2.914,0.384c-1.024,0-2.008-0.128-2.948-0.384s-1.817-0.621-2.63-1.094
			c-0.813-0.473-1.551-1.041-2.214-1.704c-0.663-0.662-1.23-1.4-1.704-2.213c-0.473-0.812-0.84-1.689-1.102-2.631
			C163.637,21.065,163.506,20.082,163.506,19.058z M169.602,19.058c0,0.735,0.115,1.422,0.344,2.062
			c0.228,0.641,0.551,1.194,0.969,1.662c0.417,0.468,0.924,0.838,1.52,1.111s1.266,0.409,2.012,0.409
			c0.725,0,1.379-0.136,1.963-0.409c0.585-0.273,1.08-0.643,1.486-1.111s0.719-1.021,0.936-1.662
			c0.217-0.64,0.326-1.328,0.326-2.062c0-0.712-0.109-1.392-0.326-2.038c-0.217-0.646-0.529-1.214-0.936-1.704
			c-0.406-0.49-0.901-0.876-1.486-1.161c-0.584-0.284-1.238-0.426-1.963-0.426c-0.746,0-1.416,0.142-2.012,0.426
			c-0.596,0.284-1.103,0.671-1.52,1.161c-0.418,0.49-0.741,1.058-0.969,1.704C169.717,17.666,169.602,18.345,169.602,19.058z"/>
		<path class="st0" d="M187.523,8.733c0.145-0.123,0.299-0.2,0.46-0.234c0.161-0.033,0.314-0.05,0.46-0.05h2.521
			c0.2,0,0.373,0.036,0.518,0.108c0.145,0.073,0.268,0.17,0.367,0.292c0.101,0.122,0.182,0.261,0.242,0.417
			c0.062,0.156,0.12,0.316,0.176,0.483l0.518,2.132c0.167-0.344,0.37-0.735,0.609-1.174c0.24-0.438,0.557-0.849,0.953-1.232
			c0.395-0.383,0.891-0.705,1.486-0.966c0.596-0.261,1.338-0.392,2.229-0.392c1.425,0,2.673,0.303,3.741,0.908
			c1.068,0.605,1.949,1.419,2.639,2.44c0.212-0.344,0.502-0.713,0.869-1.108c0.367-0.394,0.807-0.758,1.319-1.091
			s1.1-0.608,1.763-0.824c0.662-0.217,1.395-0.325,2.195-0.325c1.27,0,2.402,0.245,3.399,0.733c0.997,0.489,1.843,1.155,2.539,1.999
			c0.696,0.844,1.225,1.83,1.587,2.958c0.361,1.128,0.543,2.333,0.543,3.613v10.94c0,0.423-0.092,0.743-0.275,0.96
			c-0.185,0.217-0.477,0.326-0.877,0.326h-3.859c-0.479,0-0.807-0.081-0.984-0.242c-0.179-0.161-0.268-0.476-0.268-0.944v-11.04
			c0-0.479-0.076-0.924-0.226-1.336c-0.15-0.412-0.359-0.771-0.626-1.077c-0.268-0.306-0.594-0.545-0.978-0.718
			s-0.81-0.259-1.278-0.259c-0.423,0-0.824,0.083-1.202,0.25c-0.379,0.167-0.713,0.398-1.002,0.693
			c-0.29,0.295-0.521,0.651-0.693,1.069c-0.173,0.418-0.259,0.877-0.259,1.378v10.94c0,0.423-0.092,0.743-0.275,0.96
			s-0.477,0.326-0.877,0.326h-0.352h-0.133h-3.374c-0.479,0-0.808-0.081-0.985-0.242c-0.179-0.161-0.268-0.476-0.268-0.944v-11.04
			c0-0.479-0.07-0.924-0.209-1.336c-0.139-0.412-0.34-0.771-0.602-1.077s-0.578-0.545-0.951-0.718s-0.794-0.259-1.262-0.259
			c-0.4,0-0.793,0.081-1.178,0.242c-0.384,0.161-0.729,0.39-1.035,0.685s-0.562,0.649-0.768,1.061
			c-0.207,0.412-0.326,0.869-0.359,1.37v11.024c0,0.189-0.037,0.378-0.109,0.568s-0.181,0.334-0.325,0.434
			c-0.146,0.089-0.281,0.15-0.409,0.184c-0.129,0.034-0.275,0.05-0.443,0.05h-3.773c-0.479,0-0.824-0.117-1.036-0.351
			s-0.317-0.545-0.317-0.936V9.683c0-0.211,0.047-0.405,0.143-0.583c0.094-0.178,0.225-0.316,0.392-0.417L187.523,8.733z"/>
		<path class="st0" d="M220.996,1.286c0-0.468,0.1-0.799,0.301-0.994c0.2-0.194,0.512-0.292,0.936-0.292h3.875
			c0.389,0,0.703,0.098,0.943,0.292c0.239,0.195,0.359,0.526,0.359,0.994v3.257c0,0.134-0.031,0.278-0.092,0.434
			c-0.062,0.156-0.148,0.307-0.26,0.451c-0.111,0.145-0.248,0.265-0.408,0.359c-0.162,0.095-0.344,0.142-0.543,0.142h-3.875
			c-0.824,0-1.236-0.462-1.236-1.386V1.286z M220.996,9.737c0-0.356,0.1-0.662,0.301-0.918c0.2-0.256,0.512-0.384,0.936-0.384h3.824
			c0.134,0,0.278,0.031,0.435,0.092c0.155,0.062,0.3,0.15,0.435,0.268c0.133,0.117,0.247,0.253,0.342,0.409s0.143,0.334,0.143,0.534
			v18.624c0,0.423-0.117,0.743-0.352,0.96c-0.233,0.217-0.567,0.326-1.002,0.326h-3.824c-0.824,0-1.236-0.429-1.236-1.286V9.737z"/>
		<path class="st0" d="M230.182,8.733c0.145-0.123,0.299-0.2,0.46-0.234c0.161-0.033,0.314-0.05,0.46-0.05h2.521
			c0.2,0,0.373,0.036,0.518,0.108c0.145,0.073,0.268,0.17,0.367,0.292c0.101,0.122,0.182,0.261,0.242,0.417
			c0.062,0.156,0.12,0.316,0.176,0.483l0.518,2.132c0.167-0.344,0.409-0.735,0.727-1.174c0.317-0.438,0.721-0.849,1.211-1.232
			s1.072-0.705,1.746-0.966c0.674-0.261,1.455-0.392,2.346-0.392c1.27,0,2.422,0.245,3.458,0.733
			c1.036,0.489,1.918,1.155,2.647,1.999c0.729,0.844,1.295,1.83,1.695,2.958c0.4,1.128,0.602,2.333,0.602,3.613v10.94
			c0,0.423-0.092,0.743-0.275,0.96s-0.477,0.326-0.877,0.326h-3.859c-0.479,0-0.807-0.081-0.984-0.242
			c-0.179-0.161-0.268-0.476-0.268-0.944V17.588c0-0.479-0.109-0.933-0.326-1.361s-0.504-0.807-0.859-1.136
			c-0.357-0.329-0.761-0.587-1.211-0.777c-0.451-0.189-0.91-0.284-1.379-0.284c-0.4,0-0.81,0.089-1.227,0.267
			c-0.418,0.178-0.803,0.426-1.153,0.743s-0.646,0.69-0.886,1.119c-0.238,0.429-0.375,0.894-0.408,1.395v10.857
			c0,0.189-0.037,0.378-0.109,0.568s-0.181,0.334-0.325,0.434c-0.146,0.089-0.281,0.15-0.409,0.184
			c-0.129,0.034-0.275,0.05-0.443,0.05h-3.773c-0.479,0-0.824-0.117-1.036-0.351s-0.317-0.545-0.317-0.936V9.683
			c0-0.211,0.047-0.405,0.143-0.583c0.094-0.178,0.225-0.316,0.392-0.417L230.182,8.733z"/>
		<path class="st0" d="M267.244,28.912c0.123-0.378,0.182-0.81,0.176-1.294s-0.008-0.977-0.008-1.478
			c-0.323,0.345-0.652,0.709-0.986,1.094s-0.703,0.741-1.11,1.069c-0.406,0.329-0.866,0.599-1.378,0.81
			c-0.512,0.212-1.107,0.317-1.787,0.317c-1.504,0-2.895-0.256-4.176-0.768c-1.28-0.512-2.389-1.228-3.324-2.146
			c-0.935-0.918-1.664-2.018-2.188-3.299c-0.523-1.28-0.785-2.689-0.785-4.226c0-1.525,0.262-2.954,0.785-4.284
			s1.253-2.489,2.188-3.474c0.936-0.985,2.044-1.759,3.324-2.322c1.281-0.562,2.672-0.843,4.176-0.843
			c0.69,0,1.311,0.106,1.862,0.317s1.052,0.484,1.503,0.818s0.863,0.709,1.236,1.127c0.373,0.417,0.727,0.833,1.061,1.244
			l0.635-1.988c0.066-0.189,0.128-0.361,0.184-0.518c0.056-0.156,0.128-0.287,0.217-0.393c0.09-0.105,0.203-0.186,0.343-0.242
			c0.14-0.056,0.32-0.083,0.543-0.083h2.489c0.122,0,0.264,0.017,0.426,0.05c0.16,0.033,0.303,0.111,0.426,0.234
			c0.156,0.123,0.272,0.256,0.351,0.401c0.077,0.145,0.116,0.329,0.116,0.551V26.59c0,1.737-0.283,3.285-0.852,4.644
			c-0.567,1.358-1.344,2.505-2.33,3.44c-0.984,0.936-2.152,1.648-3.499,2.138c-1.347,0.49-2.795,0.735-4.343,0.735
			c-0.602,0-1.247-0.053-1.938-0.159c-0.69-0.106-1.377-0.265-2.062-0.476c-0.685-0.211-1.348-0.482-1.988-0.81
			c-0.64-0.329-1.205-0.71-1.695-1.144c-0.133-0.1-0.25-0.217-0.35-0.351c-0.101-0.133-0.17-0.284-0.209-0.451s-0.039-0.348,0-0.543
			s0.131-0.398,0.275-0.609l1.587-2.188c0.289-0.312,0.562-0.479,0.818-0.501c0.256-0.022,0.579,0.111,0.969,0.401
			c0.278,0.268,0.599,0.481,0.96,0.643s0.735,0.29,1.119,0.384c0.385,0.094,0.763,0.156,1.137,0.184
			c0.372,0.028,0.709,0.042,1.01,0.042c0.501,0,1.024-0.067,1.57-0.201c0.545-0.133,1.055-0.332,1.527-0.593
			c0.475-0.262,0.892-0.582,1.254-0.96C266.863,29.836,267.111,29.402,267.244,28.912z M257.691,18.991
			c0,0.746,0.113,1.439,0.342,2.08s0.554,1.194,0.977,1.662c0.424,0.468,0.934,0.835,1.529,1.103s1.255,0.401,1.979,0.401
			c0.713,0,1.384-0.125,2.014-0.376c0.629-0.25,1.177-0.598,1.645-1.044c0.468-0.445,0.844-0.969,1.127-1.57
			c0.284-0.602,0.443-1.253,0.477-1.954V18.74c-0.033-0.679-0.192-1.322-0.477-1.929c-0.283-0.607-0.659-1.141-1.127-1.604
			c-0.468-0.462-1.016-0.829-1.645-1.103c-0.63-0.272-1.301-0.409-2.014-0.409c-0.724,0-1.383,0.142-1.979,0.426
			c-0.596,0.284-1.105,0.666-1.529,1.144c-0.423,0.479-0.748,1.041-0.977,1.687S257.691,18.278,257.691,18.991z"/>
		<path class="st0" d="M287.855,23.049c0.301,0.301,0.627,0.554,0.977,0.76c0.352,0.206,0.688,0.373,1.012,0.501
			c0.322,0.128,0.605,0.22,0.852,0.275c0.244,0.056,0.412,0.083,0.501,0.083c0.211,0,0.481-0.008,0.81-0.025s0.644-0.067,0.943-0.15
			c0.301-0.083,0.561-0.22,0.777-0.409c0.217-0.189,0.326-0.457,0.326-0.802c0-0.312-0.062-0.56-0.184-0.743
			c-0.123-0.184-0.301-0.339-0.535-0.468c-0.234-0.128-0.521-0.242-0.86-0.342s-0.721-0.217-1.144-0.351
			c-1.336-0.356-2.439-0.785-3.308-1.286c-0.868-0.501-1.556-1.061-2.062-1.679c-0.507-0.618-0.86-1.283-1.061-1.996
			c-0.2-0.712-0.301-1.464-0.301-2.255c0-0.924,0.184-1.765,0.552-2.522c0.367-0.757,0.891-1.406,1.569-1.946
			s1.492-0.958,2.438-1.253C290.104,8.148,291.156,8,292.314,8c0.702,0,1.359,0.059,1.972,0.175s1.196,0.301,1.754,0.551
			c0.557,0.25,1.099,0.574,1.628,0.969c0.529,0.396,1.055,0.866,1.578,1.411c0.189,0.223,0.287,0.432,0.293,0.626
			s-0.119,0.404-0.376,0.626c-0.435,0.356-0.849,0.707-1.244,1.052s-0.805,0.729-1.228,1.152c-0.134,0.111-0.268,0.181-0.4,0.209
			c-0.135,0.028-0.262,0.025-0.385-0.008c-0.123-0.034-0.24-0.089-0.351-0.167c-0.112-0.078-0.212-0.173-0.301-0.284
			c-0.39-0.434-0.835-0.727-1.337-0.877c-0.5-0.15-0.969-0.226-1.402-0.226c-0.546,0-0.98,0.095-1.303,0.284
			c-0.323,0.189-0.474,0.479-0.451,0.869c0.022,0.29,0.131,0.515,0.326,0.676c0.194,0.162,0.434,0.292,0.718,0.393
			s0.585,0.181,0.901,0.242c0.318,0.061,0.61,0.131,0.877,0.208c1.003,0.323,1.922,0.674,2.756,1.053
			c0.836,0.378,1.56,0.843,2.172,1.395s1.088,1.211,1.428,1.979c0.34,0.769,0.51,1.704,0.51,2.806s-0.22,2.088-0.66,2.957
			c-0.439,0.868-1.043,1.598-1.812,2.188s-1.679,1.041-2.731,1.353c-1.052,0.312-2.186,0.467-3.398,0.467
			c-0.691,0-1.393-0.061-2.104-0.184c-0.713-0.123-1.403-0.32-2.071-0.593s-1.303-0.624-1.904-1.052s-1.136-0.949-1.604-1.562
			c-0.123-0.156-0.215-0.32-0.275-0.493c-0.062-0.172-0.09-0.342-0.084-0.509s0.039-0.32,0.101-0.459
			c0.062-0.139,0.159-0.259,0.292-0.359l2.155-2.155c0.267-0.223,0.503-0.301,0.71-0.234
			C287.268,22.548,287.532,22.738,287.855,23.049z"/>
		<path class="st0" d="M301.701,19.058c0-1.024,0.131-2.01,0.393-2.957c0.262-0.946,0.629-1.823,1.103-2.63
			c0.474-0.808,1.041-1.542,1.704-2.205c0.662-0.662,1.4-1.228,2.213-1.695s1.689-0.829,2.631-1.085
			c0.94-0.256,1.924-0.384,2.947-0.384c1.515,0,2.938,0.281,4.268,0.843c1.331,0.562,2.489,1.336,3.475,2.322
			s1.765,2.144,2.338,3.474c0.574,1.331,0.86,2.77,0.86,4.318c0,1.024-0.131,2.007-0.392,2.948c-0.262,0.941-0.63,1.818-1.104,2.631
			c-0.473,0.813-1.041,1.551-1.703,2.213c-0.662,0.663-1.4,1.23-2.213,1.704c-0.812,0.474-1.685,0.838-2.614,1.094
			s-1.901,0.384-2.915,0.384c-1.023,0-2.007-0.128-2.947-0.384c-0.941-0.256-1.818-0.621-2.631-1.094
			c-0.812-0.473-1.551-1.041-2.213-1.704c-0.663-0.662-1.23-1.4-1.704-2.213c-0.474-0.812-0.841-1.689-1.103-2.631
			C301.832,21.065,301.701,20.082,301.701,19.058z M307.798,19.058c0,0.735,0.114,1.422,0.343,2.062
			c0.229,0.641,0.551,1.194,0.969,1.662s0.924,0.838,1.52,1.111s1.267,0.409,2.013,0.409c0.724,0,1.378-0.136,1.963-0.409
			s1.079-0.643,1.486-1.111c0.406-0.468,0.718-1.021,0.936-1.662c0.217-0.64,0.325-1.328,0.325-2.062
			c0-0.712-0.108-1.392-0.325-2.038c-0.218-0.646-0.529-1.214-0.936-1.704c-0.407-0.49-0.901-0.876-1.486-1.161
			c-0.585-0.284-1.239-0.426-1.963-0.426c-0.746,0-1.417,0.142-2.013,0.426c-0.596,0.284-1.102,0.671-1.52,1.161
			c-0.418,0.49-0.74,1.058-0.969,1.704C307.912,17.666,307.798,18.345,307.798,19.058z"/>
		<path class="st0" d="M324.635,19.058c0-1.024,0.131-2.01,0.393-2.957c0.261-0.946,0.629-1.823,1.102-2.63
			c0.473-0.808,1.041-1.542,1.703-2.205c0.663-0.662,1.4-1.228,2.214-1.695c0.812-0.468,1.689-0.829,2.63-1.085
			c0.941-0.256,1.924-0.384,2.949-0.384c1.514,0,2.936,0.281,4.268,0.843c1.33,0.562,2.488,1.336,3.474,2.322
			s1.765,2.144,2.339,3.474c0.572,1.331,0.859,2.77,0.859,4.318c0,1.024-0.131,2.007-0.393,2.948
			c-0.262,0.941-0.629,1.818-1.102,2.631c-0.475,0.813-1.042,1.551-1.704,2.213c-0.663,0.663-1.4,1.23-2.214,1.704
			c-0.812,0.474-1.684,0.838-2.613,1.094s-1.901,0.384-2.914,0.384c-1.025,0-2.008-0.128-2.949-0.384
			c-0.94-0.256-1.817-0.621-2.63-1.094c-0.813-0.473-1.551-1.041-2.214-1.704c-0.662-0.662-1.23-1.4-1.703-2.213
			c-0.473-0.812-0.841-1.689-1.102-2.631C324.766,21.065,324.635,20.082,324.635,19.058z M330.73,19.058
			c0,0.735,0.114,1.422,0.343,2.062c0.228,0.641,0.551,1.194,0.969,1.662c0.417,0.468,0.924,0.838,1.52,1.111
			s1.267,0.409,2.013,0.409c0.724,0,1.378-0.136,1.963-0.409c0.584-0.273,1.08-0.643,1.486-1.111s0.719-1.021,0.936-1.662
			c0.217-0.64,0.326-1.328,0.326-2.062c0-0.712-0.109-1.392-0.326-2.038c-0.217-0.646-0.529-1.214-0.936-1.704
			c-0.406-0.49-0.902-0.876-1.486-1.161c-0.585-0.284-1.239-0.426-1.963-0.426c-0.746,0-1.417,0.142-2.013,0.426
			c-0.596,0.284-1.103,0.671-1.52,1.161c-0.418,0.49-0.741,1.058-0.969,1.704C330.845,17.666,330.73,18.345,330.73,19.058z"/>
		<path class="st0" d="M348.652,8.733c0.145-0.123,0.298-0.2,0.459-0.234c0.162-0.033,0.314-0.05,0.46-0.05h2.522
			c0.199,0,0.373,0.036,0.518,0.108c0.145,0.073,0.268,0.17,0.367,0.292s0.181,0.261,0.242,0.417
			c0.061,0.156,0.119,0.316,0.176,0.483l0.518,2.132c0.166-0.344,0.408-0.735,0.727-1.174c0.316-0.438,0.721-0.849,1.211-1.232
			s1.071-0.705,1.745-0.966c0.674-0.261,1.456-0.392,2.347-0.392c1.27,0,2.422,0.245,3.457,0.733
			c1.036,0.489,1.918,1.155,2.648,1.999c0.729,0.844,1.294,1.83,1.695,2.958c0.4,1.128,0.601,2.333,0.601,3.613v10.94
			c0,0.423-0.092,0.743-0.275,0.96s-0.476,0.326-0.877,0.326h-3.858c-0.479,0-0.808-0.081-0.985-0.242
			c-0.179-0.161-0.267-0.476-0.267-0.944V17.588c0-0.479-0.109-0.933-0.326-1.361s-0.504-0.807-0.86-1.136s-0.761-0.587-1.211-0.777
			c-0.451-0.189-0.91-0.284-1.378-0.284c-0.4,0-0.811,0.089-1.228,0.267c-0.418,0.178-0.802,0.426-1.153,0.743
			c-0.35,0.317-0.646,0.69-0.885,1.119s-0.375,0.894-0.409,1.395v10.857c0,0.189-0.036,0.378-0.108,0.568s-0.182,0.334-0.326,0.434
			c-0.145,0.089-0.281,0.15-0.408,0.184c-0.129,0.034-0.276,0.05-0.443,0.05h-3.774c-0.479,0-0.824-0.117-1.036-0.351
			c-0.211-0.234-0.316-0.545-0.316-0.936V9.683c0-0.211,0.047-0.405,0.142-0.583s0.226-0.316,0.392-0.417L348.652,8.733z"/>
		<path class="st0" d="M370.95,24.836c0-0.223,0.062-0.401,0.185-0.534c0.123-0.134,0.307-0.201,0.553-0.201h4.422
			c0.189,0,0.365,0.067,0.527,0.201c0.162,0.133,0.243,0.312,0.243,0.534v4.042c0,0.201-0.064,0.379-0.192,0.535
			c-0.129,0.156-0.321,0.234-0.578,0.234h-4.422c-0.492,0-0.737-0.256-0.737-0.769V24.836z"/>
	</g>
</g>
</svg>