<!-- Generator: Adobe Illustrator 21.0.2, SVG Export Plug-In  -->
<svg version="1.1"
	 xmlns="http://www.w3.org/2000/svg" xmlns:xlink="http://www.w3.org/1999/xlink" xmlns:a="http://ns.adobe.com/AdobeSVGViewerExtensions/3.0/"
	 x="0px" y="0px" width="1357px" height="904px" viewBox="0 0 1357 904" style="enable-background:new 0 0 1357 904;"
	 xml:space="preserve">
<style type="text/css">
	.st0{fill-rule:evenodd;clip-rule:evenodd;fill:none;}
	.st1{fill-rule:evenodd;clip-rule:evenodd;fill:#E6E6E6;}
	.st2{fill:url(#New_Pattern);}
</style>
<defs>
	
		<pattern  x="-2157" y="676" width="295" height="292.844" patternUnits="userSpaceOnUse" id="New_Pattern" viewBox="1.257 -292.844 295 292.844" style="overflow:visible;">
		<g>
			<rect x="1.257" y="-292.844" class="st0" width="295" height="292.844"/>
			<g>
				<path class="st1" d="M295.2-115.506c1.463,0.614,1.951,1.737,2.062,3.266C295.315-113.029,295.15-113.302,295.2-115.506z"/>
				<path class="st1" d="M297.052-26.966c-1.57-0.543-2.002-1.685-2.033-3.179C296.847-29.425,296.979-29.22,297.052-26.966z"/>
				<path class="st1" d="M297.294-259.349c-0.146,1.894-0.638,3.02-2.173,3.673C294.886-257.332,295.509-258.372,297.294-259.349z"
					/>
				<path class="st1" d="M295.011-42.485c-0.015-2.021,0.551-3.089,2.145-3.799C297.301-44.538,296.552-43.566,295.011-42.485z"/>
				<path class="st1" d="M295.079-85.174c-0.127-1.856,0.443-2.924,2.026-3.727C297.355-87.145,296.592-86.198,295.079-85.174z"/>
				<path class="st1" d="M295.009-127.777c-0.002-1.899,0.544-2.976,2.172-3.664C297.264-129.713,296.614-128.686,295.009-127.777z"
					/>
				<path class="st1" d="M297.259-216.614c-0.091,1.717-0.626,2.761-1.873,3.466C294.982-214.99,295.098-215.223,297.259-216.614z"
					/>
				<path class="st1" d="M297.21-173.965c-0.36,2.187-0.36,2.187-1.872,3.317C295.032-172.488,295.183-172.778,297.21-173.965z"/>
				<path class="st1" d="M295-200.787c1.708,0.763,2.101,1.93,2.341,3.573C295.478-197.824,295.067-198.977,295-200.787z"/>
				<path class="st1" d="M295.199-285.841c1.463,0.617,1.953,1.739,2.065,3.268C295.319-283.359,295.15-283.64,295.199-285.841z"/>
				<path class="st1" d="M297.254-3.557c-0.045,1.575-0.653,2.624-1.99,3.406C295.104-2.311,295.28-2.619,297.254-3.557z"/>
				<path class="st1" d="M295.091-158.068c1.61,0.649,2.13,1.716,2.086,3.421C295.527-155.328,294.982-156.38,295.091-158.068z"/>
				<path class="st1" d="M295.291-72.882c1.371,0.624,1.847,1.696,1.95,3.114C295.367-70.35,295.115-70.757,295.291-72.882z"/>
				<path class="st1" d="M295.171-243.388c1.496,0.979,2.137,1.946,1.938,3.628C295.577-240.566,294.892-241.545,295.171-243.388z"
					/>
			</g>
			<g>
				<path class="st1" d="M297.515-112.988c-0.275-1.243-0.826-2.069-2.152-2.567c0.029,1.632,0.489,2.723,2.152,3.526V-112.988z"/>
				<path class="st1" d="M239.094-115.465c0.253,1.615-0.508,2.58-1.796,3.435C237.015-114.042,237.171-114.329,239.094-115.465z"/>
				<path class="st1" d="M223.817-112.07c-2.034-1.152-2.034-1.152-2.157-3.481C223.142-114.899,223.653-113.81,223.817-112.07z"/>
				<path class="st1" d="M165.246-115.705c0.223,1.869-0.499,2.852-1.985,3.772C162.981-113.845,163.827-114.758,165.246-115.705z"
					/>
				<path class="st1" d="M149.94-112.201c-1.973-0.886-2.139-1.17-2.018-3.317C149.343-114.853,149.866-113.755,149.94-112.201z"/>
				<path class="st1" d="M89.234-112.068c0.062-1.715,0.7-2.707,1.906-3.479C91.471-113.56,91.327-113.283,89.234-112.068z"/>
				<path class="st1" d="M73.977-115.596c1.516,0.774,2.004,1.851,2.129,3.238C74.271-112.857,74.098-113.112,73.977-115.596z"/>
				<path class="st1" d="M15.36-111.908c0.152-1.86,0.63-2.998,2.189-3.637C17.759-113.895,17.173-112.831,15.36-111.908z"/>
				<path class="st1" d="M0.2-115.506c1.463,0.614,1.951,1.737,2.062,3.266C0.315-113.029,0.15-113.302,0.2-115.506z"/>
				<path class="st1" d="M15.369-27.301c0.215-1.339,0.665-2.472,2.062-3.041C17.536-28.062,17.142-27.479,15.369-27.301z"/>
				<path class="st1" d="M2.052-26.966c-1.57-0.543-2.002-1.685-2.033-3.179C1.847-29.425,1.98-29.22,2.052-26.966z"/>
				<path class="st1" d="M297.515-46.277c-1.582,0.709-2.145,1.775-2.13,3.692c1.314-0.79,2.006-1.62,2.13-2.867V-46.277z"/>
				<path class="st1" d="M239.027-42.806c-1.509-0.587-1.974-1.707-2.092-3.182C238.774-45.383,238.957-45.103,239.027-42.806z"/>
				<path class="st1" d="M223.82-46.232c-0.164,1.712-0.675,2.785-1.987,3.446C221.586-44.791,221.722-45.043,223.82-46.232z"/>
				<path class="st1" d="M163.073-46.521c1.699,1.096,2.355,2.108,2.227,3.803C163.682-43.428,163.177-44.533,163.073-46.521z"/>
				<path class="st1" d="M149.679-46.038c0.146,1.521-0.334,2.638-1.953,3.3C147.577-44.469,148.326-45.434,149.679-46.038z"/>
				<path class="st1" d="M91.326-42.793c-1.485-0.612-1.97-1.725-2.079-3.219C91.113-45.343,91.29-45.065,91.326-42.793z"/>
				<path class="st1" d="M76.138-46.503c-0.157,1.983-0.635,3.103-2.257,3.764C73.763-44.453,74.435-45.461,76.138-46.503z"/>
				<path class="st1" d="M15.646-46.341c1.432,0.926,2.09,1.904,1.983,3.381C15.779-43.758,15.608-44.035,15.646-46.341z"/>
				<path class="st1" d="M39.181-260.893c-1.702-1.051-2.414-2.038-2.122-3.717C38.593-263.919,39.104-262.811,39.181-260.893z"/>
				<path class="st1" d="M52.339-260.908c0.028-1.939,0.663-2.98,2.106-3.797C54.718-262.934,54.019-261.932,52.339-260.908z"/>
				<path class="st1" d="M110.962-264.56c1.481,0.609,1.96,1.733,2.05,3.247C111.1-262.086,110.937-262.351,110.962-264.56z"/>
				<path class="st1" d="M126.431-261.307c-0.18-1.514,0.326-2.636,1.865-3.308C128.628-262.899,127.769-261.978,126.431-261.307z"
					/>
				<path class="st1" d="M186.868-260.914c-1.729-1.017-2.358-2.046-2.192-3.727C186.28-263.919,186.79-262.811,186.868-260.914z"/>
				<path class="st1" d="M200.024-260.908c0.029-1.939,0.664-2.98,2.107-3.797C202.405-262.934,201.705-261.932,200.024-260.908z"/>
				<path class="st1" d="M258.605-264.659c1.498,0.803,2.007,1.866,2.09,3.273C258.864-261.971,258.684-262.241,258.605-264.659z"/>
				<path class="st1" d="M275.987-264.558c0.279,1.617-0.439,2.611-1.729,3.416C273.882-263.02,274.017-263.285,275.987-264.558z"/>
				<path class="st1" d="M2.294-259.349c-0.145,1.894-0.638,3.02-2.173,3.673C-0.114-257.332,0.509-258.372,2.294-259.349z"/>
				<path class="st1" d="M15.472-259.317c1.674,0.973,2.244,1.989,2.129,3.601C15.939-256.353,15.481-257.478,15.472-259.317z"/>
				<path class="st1" d="M76.129-258.769c-0.206,1.341-0.665,2.466-2.048,3.057C73.956-257.971,74.366-258.578,76.129-258.769z"/>
				<path class="st1" d="M91.416-255.65c-1.575-0.659-1.965-1.818-2.246-3.143C90.929-258.546,91.179-258.211,91.416-255.65z"/>
				<path class="st1" d="M149.978-259.211c-0.143,1.709-0.639,2.782-1.906,3.472C147.692-257.599,147.834-257.884,149.978-259.211z"
					/>
				<path class="st1" d="M163.258-258.89c1.579,0.434,2.098,1.519,2.042,3.194C163.643-256.271,163.311-257.483,163.258-258.89z"/>
				<path class="st1" d="M223.837-259.144c-0.186,1.689-0.684,2.774-2.002,3.437C221.599-257.727,221.765-258.032,223.837-259.144z"
					/>
				<path class="st1" d="M239.083-255.617c-1.52-0.743-2.013-1.829-2.167-3.194C238.662-258.479,238.893-258.159,239.083-255.617z"
					/>
				<path class="st1" d="M297.515-258.997c-1.854,0.894-2.032,1.247-1.881,3.301c1.087-0.545,1.635-1.337,1.881-2.399V-258.997z"/>
				<path class="st1" d="M0.011-42.485c-0.015-2.021,0.551-3.089,2.145-3.799C2.301-44.538,1.552-43.566,0.011-42.485z"/>
				<path class="st1" d="M276.045-51.87c0.077,1.939-0.506,2.993-2.134,3.723C273.822-49.865,274.487-50.874,276.045-51.87z"/>
				<path class="st1" d="M199.958-48.185c0.172-1.692,0.655-2.779,1.948-3.459C202.23-49.704,202.096-49.447,199.958-48.185z"/>
				<path class="st1" d="M128.167-51.662c0.133,2.136-0.027,2.411-2.016,3.329C126.24-49.878,126.752-50.979,128.167-51.662z"/>
				<path class="st1" d="M52.312-48.329c0.066-1.559,0.656-2.616,2.006-3.394C54.462-49.533,54.3-49.254,52.312-48.329z"/>
				<path class="st1" d="M239.155-73.157c0.043,1.931-0.516,2.997-2.107,3.693C236.879-71.201,237.606-72.182,239.155-73.157z"/>
				<path class="st1" d="M163.182-69.569c-0.144-1.618,0.62-2.577,1.822-3.484C165.311-70.972,165.177-70.719,163.182-69.569z"/>
				<path class="st1" d="M39.199-195.308c-0.126,1.713-0.624,2.786-1.901,3.469C36.92-193.702,37.048-193.959,39.199-195.308z"/>
				<path class="st1" d="M54.335-191.805c-1.416-0.67-1.945-1.765-2.004-3.322C54.306-194.213,54.467-193.936,54.335-191.805z"/>
				<path class="st1" d="M110.794-191.804c-0.049-1.733,0.55-2.738,1.85-3.411C112.961-193.319,112.801-193.02,110.794-191.804z"/>
				<path class="st1" d="M128.247-191.823c-1.5-0.587-1.957-1.719-2.082-3.197C128.05-194.372,128.22-194.107,128.247-191.823z"/>
				<path class="st1" d="M184.64-191.806c0.306-2.235,0.306-2.235,1.863-3.301C186.803-193.319,186.644-193.02,184.64-191.806z"/>
				<path class="st1" d="M200.236-195.211c1.519,0.596,2.016,1.7,2,3.228C200.39-192.776,200.247-193.008,200.236-195.211z"/>
				<path class="st1" d="M258.515-191.764c-0.128-1.697,0.471-2.75,2.039-3.581C260.708-193.545,260.12-192.486,258.515-191.764z"/>
				<path class="st1" d="M275.934-191.823c-1.499-0.587-1.956-1.719-2.082-3.197C275.737-194.372,275.907-194.107,275.934-191.823z"
					/>
				<path class="st1" d="M15.382-239.561c0.106-2.002,0.707-3.041,2.2-3.877C17.761-241.622,17.079-240.625,15.382-239.561z"/>
				<path class="st1" d="M89.288-239.967c-0.021-1.58,0.657-2.588,1.969-3.416C91.392-241.164,91.226-240.878,89.288-239.967z"/>
				<path class="st1" d="M163.134-239.967c-0.03-1.581,0.657-2.584,1.964-3.416C165.234-241.16,165.074-240.884,163.134-239.967z"/>
				<path class="st1" d="M239.119-243.677c0.14,2.08-0.504,3.096-2.022,3.952C236.825-241.525,237.675-242.432,239.119-243.677z"/>
				<path class="st1" d="M273.845-133.482c0.06-1.564,0.648-2.618,1.986-3.402C276.005-134.724,275.843-134.443,273.845-133.482z"/>
				<path class="st1" d="M202.206-137.041c0.07,1.939-0.508,2.998-2.139,3.727C199.979-135.031,200.645-136.04,202.206-137.041z"/>
				<path class="st1" d="M126.108-133.141c0.171-1.924,0.632-3.064,2.188-3.704C128.55-135.154,127.845-134.163,126.108-133.141z"/>
				<path class="st1" d="M52.308-133.501c0.092-1.546,0.606-2.651,2.022-3.332C54.457-134.691,54.292-134.413,52.308-133.501z"/>
				<path class="st1" d="M237.055-154.759c-0.195-1.608,0.548-2.573,1.806-3.375C239.151-156.134,239.008-155.865,237.055-154.759z"
					/>
				<path class="st1" d="M91.442-73.308c0.112,2.06-0.51,3.087-2.036,3.888C89.14-71.204,89.984-72.115,91.442-73.308z"/>
				<path class="st1" d="M17.608-73.173c0.104,1.921-0.518,2.951-2.037,3.748C15.298-71.204,16.089-72.144,17.608-73.173z"/>
				<path class="st1" d="M297.515-88.596c-1.787,0.71-1.979,1.059-1.951,3.218c1.176-0.494,1.72-1.321,1.951-2.411V-88.596z"/>
				<path class="st1" d="M236.903-88.71c1.989,0.904,2.179,1.231,2.028,3.338C237.53-86.054,237.021-87.153,236.903-88.71z"/>
				<path class="st1" d="M223.827-88.834c-0.168,1.686-0.65,2.772-1.956,3.438C221.572-87.341,221.733-87.646,223.827-88.834z"/>
				<path class="st1" d="M165.145-85.388c-1.467-0.606-1.945-1.732-2.066-3.247C164.991-87.899,165.185-87.586,165.145-85.388z"/>
				<path class="st1" d="M149.988-89.002c-0.167,1.883-0.637,3.021-2.204,3.648C147.603-87.008,148.188-88.067,149.988-89.002z"/>
				<path class="st1" d="M91.42-85.306c-1.546-0.689-2.01-1.801-2.202-3.145C90.924-88.217,91.177-87.879,91.42-85.306z"/>
				<path class="st1" d="M73.931-85.337c-0.158-1.682,0.431-2.738,2.01-3.562C76.105-87.104,75.497-86.059,73.931-85.337z"/>
				<path class="st1" d="M15.471-88.983c1.677,0.969,2.245,1.987,2.13,3.598C15.933-86.019,15.482-87.147,15.471-88.983z"/>
				<path class="st1" d="M0.079-85.174c-0.127-1.856,0.443-2.924,2.026-3.727C2.355-87.145,1.592-86.198,0.079-85.174z"/>
				<path class="st1" d="M165.287-158.352c0.126,1.925-0.514,2.941-2.001,3.771C162.952-156.376,163.791-157.289,165.287-158.352z"
					/>
				<path class="st1" d="M89.22-154.396c0.119-2.006,0.71-3.049,2.219-3.874C91.591-156.448,90.919-155.445,89.22-154.396z"/>
				<path class="st1" d="M15.433-154.793c0.012-1.574,0.61-2.629,1.98-3.341C17.551-156.004,17.388-155.719,15.433-154.793z"/>
				<path class="st1" d="M39.07-175.781c-1.574-0.996-2.237-1.974-2.091-3.631C38.636-178.74,39.156-177.644,39.07-175.781z"/>
				<path class="st1" d="M52.276-175.646c0.162-2.021,0.632-3.152,2.226-3.798C54.715-177.708,53.929-176.755,52.276-175.646z"/>
				<path class="st1" d="M297.515-131.37c-2.037,1.316-2.15,1.581-1.756,3.388c0.993-0.562,1.529-1.345,1.756-2.504V-131.37z"/>
				<path class="st1" d="M237.159-131.39c1.464,0.652,2.035,1.71,2.003,3.245C237.324-128.9,237.157-129.167,237.159-131.39z"/>
				<path class="st1" d="M223.791-131.448c-0.094,1.717-0.625,2.764-1.878,3.465C221.514-129.828,221.628-130.058,223.791-131.448z"
					/>
				<path class="st1" d="M165.148-127.957c-1.493-0.61-1.887-1.783-2.139-3.288C164.999-130.449,165.166-130.179,165.148-127.957z"
					/>
				<path class="st1" d="M149.952-131.45c-0.101,1.725-0.639,2.772-1.89,3.477C147.674-129.836,147.788-130.064,149.952-131.45z"/>
				<path class="st1" d="M91.476-127.755c-1.58-0.974-2.288-1.959-2.11-3.693C90.933-130.726,91.515-129.674,91.476-127.755z"/>
				<path class="st1" d="M73.858-127.941c-0.045-1.734,0.608-2.707,1.837-3.453C76.052-129.479,75.904-129.198,73.858-127.941z"/>
				<path class="st1" d="M15.38-131.613c1.69,0.963,2.339,1.975,2.236,3.703C15.999-128.564,15.519-129.673,15.38-131.613z"/>
				<path class="st1" d="M0.009-127.777c-0.002-1.899,0.544-2.976,2.172-3.664C2.264-129.713,1.614-128.686,0.009-127.777z"/>
				<path class="st1" d="M273.838-90.753c0.11-1.708,0.621-2.773,1.897-3.459C276.101-92.336,275.979-92.099,273.838-90.753z"/>
				<path class="st1" d="M258.649-94.229c1.478,0.613,1.961,1.733,2.048,3.249C258.784-91.756,258.622-92.018,258.649-94.229z"/>
				<path class="st1" d="M200.061-90.885c-0.063-1.597,0.626-2.609,1.923-3.443C202.179-92.179,202.038-91.927,200.061-90.885z"/>
				<path class="st1" d="M184.834-94.331c1.441,0.898,2.004,1.923,1.995,3.383C184.898-91.822,184.743-92.083,184.834-94.331z"/>
				<path class="st1" d="M128.385-94.245c0.071,1.744-0.593,2.711-1.837,3.439C126.225-92.74,126.366-93.011,128.385-94.245z"/>
				<path class="st1" d="M112.798-90.799c-1.463-0.659-2.051-1.708-1.998-3.253C112.644-93.277,112.787-93.046,112.798-90.799z"/>
				<path class="st1" d="M54.462-94.224c0.268,1.613-0.437,2.616-1.743,3.416C52.365-92.71,52.502-92.977,54.462-94.224z"/>
				<path class="st1" d="M39.24-90.879c-2.047-0.976-2.199-1.236-2.078-3.353C38.636-93.601,39.026-92.423,39.24-90.879z"/>
				<path class="st1" d="M110.921-179.491c1.496,0.802,2.006,1.865,2.088,3.271C111.175-176.806,110.997-177.076,110.921-179.491z"
					/>
				<path class="st1" d="M128.344-179.62c0.165,1.888-0.509,2.9-1.999,3.768C126.039-177.638,126.827-178.58,128.344-179.62z"/>
				<path class="st1" d="M186.858-176.077c-1.979-0.944-2.131-1.204-2.011-3.329C186.278-178.742,186.797-177.638,186.858-176.077z"
					/>
				<path class="st1" d="M200.1-176.014c-0.147-1.613,0.546-2.623,1.841-3.412C202.217-177.418,202.089-177.178,200.1-176.014z"/>
				<path class="st1" d="M52.347-218.929c0.464-1.965,0.464-1.965,1.977-2.953C54.473-219.755,54.058-219.134,52.347-218.929z"/>
				<path class="st1" d="M258.633-179.39c1.526,0.578,1.881,1.774,2.165,3.246C258.821-176.866,258.652-177.131,258.633-179.39z"/>
				<path class="st1" d="M128.294-221.932c0.272,1.602-0.446,2.588-1.759,3.371C126.225-220.475,126.383-220.77,128.294-221.932z"/>
				<path class="st1" d="M275.88-179.501c0.1,2.234-0.051,2.492-1.994,3.402C273.876-177.674,274.536-178.703,275.88-179.501z"/>
				<path class="st1" d="M202.224-221.991c0.057,1.742-0.58,2.722-1.846,3.427C200.065-220.469,200.223-220.764,202.224-221.991z"/>
				<path class="st1" d="M276.065-221.991c0.061,1.743-0.58,2.721-1.844,3.427C273.909-220.468,274.065-220.763,276.065-221.991z"/>
				<path class="st1" d="M2.259-216.614c-0.091,1.717-0.626,2.761-1.873,3.466C-0.018-214.99,0.098-215.223,2.259-216.614z"/>
				<path class="st1" d="M15.613-216.547c1.49,0.627,2.031,1.701,2.029,3.217C15.811-214.034,15.654-214.277,15.613-216.547z"/>
				<path class="st1" d="M76.136-216.834c-0.155,1.983-0.63,3.104-2.254,3.763C73.761-214.786,74.435-215.792,76.136-216.834z"/>
				<path class="st1" d="M89.209-216.755c1.728,0.911,2.299,1.971,2.303,3.694C89.845-213.719,89.374-214.834,89.209-216.755z"/>
				<path class="st1" d="M149.865-216.466c0.11,1.603-0.633,2.577-1.893,3.453C147.767-215.166,147.914-215.43,149.865-216.466z"/>
				<path class="st1" d="M165.108-213.012c-1.411-0.93-2.004-1.938-1.982-3.407C165.054-215.53,165.212-215.261,165.108-213.012z"/>
				<path class="st1" d="M223.788-216.614c-0.091,1.717-0.622,2.764-1.873,3.466C221.513-214.992,221.628-215.225,223.788-216.614z"
					/>
				<path class="st1" d="M239.166-212.921c-1.583-0.972-2.292-1.958-2.114-3.693C238.62-215.892,239.201-214.839,239.166-212.921z"
					/>
				<path class="st1" d="M297.515-216.445c-1.912,1.018-2.06,1.297-1.855,3.428c1.022-0.701,1.688-1.481,1.855-2.598V-216.445z"/>
				<path class="st1" d="M2.21-173.965c-0.36,2.187-0.36,2.187-1.872,3.317C0.032-172.488,0.183-172.778,2.21-173.965z"/>
				<path class="st1" d="M15.394-173.817c1.921,0.774,2.117,1.099,2.051,3.271C16.002-171.183,15.498-172.289,15.394-173.817z"/>
				<path class="st1" d="M273.816-110.253c1.798,0.918,2.337,1.995,2.257,3.659C274.432-107.248,273.972-108.382,273.816-110.253z"
					/>
				<path class="st1" d="M260.728-110.144c-0.123,1.715-0.624,2.788-1.9,3.471C258.45-108.534,258.578-108.792,260.728-110.144z"/>
				<path class="st1" d="M199.972-110.264c1.783,0.936,2.381,1.982,2.197,3.645C200.589-107.249,200.13-108.384,199.972-110.264z"/>
				<path class="st1" d="M184.671-106.598c-0.125-1.7,0.472-2.753,2.041-3.579C186.864-108.382,186.278-107.321,184.671-106.598z"/>
				<path class="st1" d="M126.26-110.239c1.639,0.965,2.234,1.972,2.108,3.606C126.708-107.296,126.206-108.398,126.26-110.239z"/>
				<path class="st1" d="M113.04-110.144c-0.123,1.715-0.623,2.788-1.898,3.471C110.764-108.534,110.892-108.792,113.04-110.144z"/>
				<path class="st1" d="M52.285-110.264c1.783,0.936,2.381,1.982,2.196,3.645C52.903-107.249,52.443-108.384,52.285-110.264z"/>
				<path class="st1" d="M39.179-110.092c-0.05,1.727-0.695,2.72-1.909,3.492C36.951-108.604,37.089-108.868,39.179-110.092z"/>
				<path class="st1" d="M76.143-174.011c-0.165,1.697-0.659,2.78-1.957,3.454C73.882-172.503,74.035-172.797,76.143-174.011z"/>
				<path class="st1" d="M89.195-174.162c1.806,0.945,2.396,1.993,2.193,3.637C89.836-171.151,89.368-172.282,89.195-174.162z"/>
				<path class="st1" d="M149.974-173.604c-0.209,1.341-0.67,2.464-2.05,3.057C147.801-172.805,148.21-173.409,149.974-173.604z"/>
				<path class="st1" d="M165.098-170.538c-1.403-0.68-1.935-1.765-2.013-3.311C165.033-172.994,165.226-172.667,165.098-170.538z"
					/>
				<path class="st1" d="M223.819-174.045c-0.139,1.711-0.639,2.78-1.904,3.471C221.534-172.435,221.674-172.716,223.819-174.045z"
					/>
				<path class="st1" d="M236.927-173.798c1.906,0.73,2.101,1.048,2.063,3.249C237.532-171.163,237.038-172.281,236.927-173.798z"/>
				<path class="st1" d="M295.46-170.502c-0.16-1.684,0.437-2.738,2.014-3.565C297.631-172.273,297.025-171.226,295.46-170.502z"/>
				<path class="st1" d="M0-200.787c1.708,0.763,2.101,1.93,2.341,3.573C0.478-197.824,0.067-198.977,0-200.787z"/>
				<path class="st1" d="M15.364-197.219c0.154-1.691,0.642-2.773,1.943-3.438C17.626-198.725,17.482-198.448,15.364-197.219z"/>
				<path class="st1" d="M73.956-200.762c1.549,0.726,1.963,1.857,2.209,3.218C74.305-197.975,74.12-198.235,73.956-200.762z"/>
				<path class="st1" d="M91.48-200.691c0.017,1.728-0.529,2.764-1.866,3.4C89.309-199.176,89.465-199.469,91.48-200.691z"/>
				<path class="st1" d="M149.726-197.477c-1.784-1.105-1.784-1.105-1.92-3.21C149.407-200.04,149.798-198.869,149.726-197.477z"/>
				<path class="st1" d="M163.069-197.33c0.094-1.567,0.613-2.67,2.021-3.361C165.237-198.561,165.08-198.286,163.069-197.33z"/>
				<path class="st1" d="M221.645-200.719c1.711,1.227,1.711,1.227,2.061,3.142C221.991-197.975,221.808-198.235,221.645-200.719z"
					/>
				<path class="st1" d="M239.155-200.884c0.031,1.876-0.48,2.979-2.131,3.697C236.883-198.91,237.577-199.907,239.155-200.884z"/>
				<path class="st1" d="M297.515-198.33c-0.3-1.052-0.761-1.896-1.967-2.329c0.014,2.174,0.188,2.512,1.967,3.155V-198.33z"/>
				<path class="st1" d="M0.199-285.841c1.463,0.617,1.953,1.739,2.065,3.268C0.319-283.359,0.15-283.64,0.199-285.841z"/>
				<path class="st1" d="M17.427-285.861c0.109,2.164-0.054,2.441-2.029,3.335C15.476-284.084,16.002-285.189,17.427-285.861z"/>
				<path class="st1" d="M76.151-282.263c-1.799-0.839-2.326-1.923-2.27-3.608C75.506-285.26,75.953-284.124,76.151-282.263z"/>
				<path class="st1" d="M91.469-286.047c0.028,1.872-0.479,2.978-2.131,3.694C89.198-284.074,89.891-285.073,91.469-286.047z"/>
				<path class="st1" d="M147.707-286.001c1.614,0.876,2.208,1.928,2.21,3.613C148.174-283.017,147.724-284.149,147.707-286.001z"/>
				<path class="st1" d="M163.08-282.546c0.097-1.544,0.603-2.662,2.051-3.307C165.205-283.664,165.042-283.391,163.08-282.546z"/>
				<path class="st1" d="M223.584-282.467c-1.574-0.536-2.004-1.68-2.036-3.173C223.376-284.925,223.504-284.727,223.584-282.467z"
					/>
				<path class="st1" d="M236.894-282.368c0.147-1.705,0.649-2.781,1.938-3.457C239.162-283.902,239.025-283.636,236.894-282.368z"
					/>
				<path class="st1" d="M297.515-283.333c-0.274-1.206-0.799-2.026-2.089-2.539c-0.11,1.586,0.43,2.589,2.089,3.589V-283.333z"/>
				<path class="st1" d="M37.048-276.993c-0.267-1.601,0.382-2.619,1.707-3.375C39.163-278.57,39.013-278.27,37.048-276.993z"/>
				<path class="st1" d="M54.546-276.843c-1.675-0.83-2.105-1.969-2.272-3.652C54.063-279.775,54.568-278.678,54.546-276.843z"/>
				<path class="st1" d="M110.8-276.787c-0.045-1.877,0.488-2.969,2.131-3.682C113.058-278.751,112.385-277.738,110.8-276.787z"/>
				<path class="st1" d="M128.409-276.837c-1.646-0.839-2.188-1.918-2.243-3.602C127.923-279.808,128.378-278.685,128.409-276.837z"
					/>
				<path class="st1" d="M186.86-280.337c-0.05,1.578-0.596,2.662-1.982,3.373C184.697-279.059,184.852-279.332,186.86-280.337z"/>
				<path class="st1" d="M202.131-276.891c-1.512-0.765-2.004-1.843-2.122-3.23C201.827-279.637,202.011-279.369,202.131-276.891z"
					/>
				<path class="st1" d="M258.532-277.024c-0.176-1.587,0.436-2.636,1.822-3.373C260.62-278.434,260.464-278.147,258.532-277.024z"
					/>
				<path class="st1" d="M275.892-276.977c-1.446-0.635-1.953-1.745-2.034-3.287C275.808-279.427,275.975-279.147,275.892-276.977z"
					/>
				<path class="st1" d="M74.003-30.328c1.514,0.566,1.955,1.71,2.105,3.174C74.23-27.751,74.06-28.011,74.003-30.328z"/>
				<path class="st1" d="M89.313-26.926c0.314-2.168,0.314-2.168,1.828-3.321C91.49-28.435,91.354-28.166,89.313-26.926z"/>
				<path class="st1" d="M149.95-27.034c-1.979-0.884-2.145-1.169-2.028-3.313C149.353-29.691,149.853-28.582,149.95-27.034z"/>
				<path class="st1" d="M163.089-26.987c0.053-1.579,0.604-2.66,1.983-3.375C165.255-28.261,165.1-27.987,163.089-26.987z"/>
				<path class="st1" d="M223.612-27.163c-1.626-0.472-2.104-1.585-2.062-3.22C223.245-29.775,223.575-28.556,223.612-27.163z"/>
				<path class="st1" d="M236.958-27.307c0.476-1.973,0.476-1.973,2.007-2.952C239.066-28.06,238.67-27.479,236.958-27.307z"/>
				<path class="st1" d="M297.515-27.819c-0.27-1.245-0.812-2.069-2.103-2.554c-0.053,1.625,0.442,2.693,2.103,3.515V-27.819z"/>
				<path class="st1" d="M39.204-24.938c-0.143,1.703-0.645,2.783-1.947,3.449C36.952-23.438,37.091-23.703,39.204-24.938z"/>
				<path class="st1" d="M52.523-24.876c1.548,0.571,2.018,1.686,2.034,3.188C52.735-22.39,52.603-22.593,52.523-24.876z"/>
				<path class="st1" d="M110.802-21.218c-0.04-1.947,0.483-3.042,2.15-3.759C113.043-23.26,112.357-22.256,110.802-21.218z"/>
				<path class="st1" d="M126.144-25.021c2.108,1.414,2.108,1.414,2.086,3.535C126.749-22.09,126.275-23.218,126.144-25.021z"/>
				<path class="st1" d="M184.672-21.431c-0.131-1.699,0.472-2.749,2.035-3.582C186.868-23.211,186.273-22.156,184.672-21.431z"/>
				<path class="st1" d="M199.96-25.074c1.775,0.848,2.303,1.935,2.307,3.651C200.606-22.069,200.149-23.197,199.96-25.074z"/>
				<path class="st1" d="M260.704-24.838c-0.053,1.578-0.598,2.662-1.982,3.373C258.542-23.562,258.694-23.833,260.704-24.838z"/>
				<path class="st1" d="M273.854-24.805c1.984,0.93,2.147,1.21,2.005,3.331C274.445-22.146,273.925-23.243,273.854-24.805z"/>
				<path class="st1" d="M37.075-9.154c1.503,0.804,2.007,1.864,2.091,3.268C37.337-6.472,37.157-6.742,37.075-9.154z"/>
				<path class="st1" d="M54.499-9.283c0.196,1.906-0.564,2.871-2.002,3.807C52.205-7.303,52.98-8.255,54.499-9.283z"/>
				<path class="st1" d="M113.042-5.563c-2.059-1.332-2.059-1.332-2.108-3.495C112.444-8.468,112.896-7.338,113.042-5.563z"/>
				<path class="st1" d="M128.212-8.998c0.066,1.977,0.066,1.977-1.672,3.239C126.207-7.544,126.345-7.808,128.212-8.998z"/>
				<path class="st1" d="M186.63-5.624c-1.439-0.679-2.051-1.719-1.987-3.278C186.498-8.09,186.649-7.842,186.63-5.624z"/>
				<path class="st1" d="M200.116-5.677c-0.18-1.62,0.533-2.613,1.805-3.411C202.235-7.123,202.111-6.889,200.116-5.677z"/>
				<path class="st1" d="M258.633-9.058c1.499,0.596,1.958,1.727,2.071,3.212C258.82-6.535,258.651-6.8,258.633-9.058z"/>
				<path class="st1" d="M273.93-5.674c-0.125-1.617,0.596-2.612,1.847-3.481C276.06-7.087,275.931-6.845,273.93-5.674z"/>
				<path class="st1" d="M2.254-3.557C2.209-1.982,1.601-0.933,0.264-0.15C0.105-2.311,0.28-2.619,2.254-3.557z"/>
				<path class="st1" d="M15.394-3.486c1.924,0.776,2.117,1.098,2.049,3.272C15.996-0.848,15.503-1.961,15.394-3.486z"/>
				<path class="st1" d="M73.882,0c-0.048-1.872,0.471-2.97,2.113-3.716C76.155-1.986,75.446-1.003,73.882,0z"/>
				<path class="st1" d="M91.317-0.234c-1.523-0.557-1.872-1.764-2.176-3.242C91.122-2.773,91.32-2.457,91.317-0.234z"/>
				<path class="st1" d="M149.895-3.633c-0.357,2.186-0.357,2.186-1.871,3.317C147.719-2.157,147.87-2.45,149.895-3.633z"/>
				<path class="st1" d="M163.082-3.468c1.907,0.733,2.103,1.053,2.063,3.254C163.685-0.829,163.196-1.951,163.082-3.468z"/>
				<path class="st1" d="M221.577-0.042c-0.079-1.904,0.556-2.928,2.18-3.768C223.77-1.995,223.158-0.949,221.577-0.042z"/>
				<path class="st1" d="M239.026-0.126c-1.494-0.809-1.989-1.874-2.102-3.273C238.767-2.835,238.97-2.523,239.026-0.126z"/>
				<path class="st1" d="M297.515-3.576c-1.933,1.11-2.092,1.456-1.8,3.346c1.029-0.525,1.544-1.321,1.8-2.461V-3.576z"/>
				<path class="st1" d="M253.799-164.394c-1.373,1.161-2.561,1.019-3.983,0.131C251.179-165.328,252.366-165.23,253.799-164.394z"
					/>
				<path class="st1" d="M284.776-164.439c-1.404,1.199-2.587,1.065-4.005,0.197C282.104-165.39,283.291-165.155,284.776-164.439z"
					/>
				<path class="st1" d="M0.091-158.068c1.61,0.649,2.13,1.716,2.086,3.421C0.527-155.328-0.019-156.38,0.091-158.068z"/>
				<path class="st1" d="M73.907-158.237c1.617,0.924,2.151,1.951,2.145,3.568C74.352-155.303,73.866-156.383,73.907-158.237z"/>
				<path class="st1" d="M149.866-154.645c-1.65-0.682-2.194-1.732-2.093-3.416C149.393-157.422,149.905-156.353,149.866-154.645z"
					/>
				<path class="st1" d="M223.708-154.646c-1.65-0.679-2.189-1.732-2.09-3.415C223.234-157.421,223.749-156.354,223.708-154.646z"/>
				<path class="st1" d="M297.515-155.508c-0.164-1.21-0.726-2.038-2.068-2.555c-0.068,1.66,0.438,2.719,2.068,3.377V-155.508z"/>
				<path class="st1" d="M36.994-149.117c-0.071-1.794,0.41-2.885,1.97-3.468C38.881-150.577,38.881-150.577,36.994-149.117z"/>
				<path class="st1" d="M54.29-149.256c-1.362-0.632-1.838-1.703-1.951-3.122C54.212-151.801,54.473-151.379,54.29-149.256z"/>
				<path class="st1" d="M112.713-152.441c0.197,1.466-0.3,2.522-1.76,3.257C110.548-150.947,111.45-151.795,112.713-152.441z"/>
				<path class="st1" d="M126.435-152.426c1.418,0.634,2.155,1.567,1.838,3.174C126.671-149.862,126.325-151.04,126.435-152.426z"/>
				<path class="st1" d="M184.785-149.178c-0.33-1.753,0.423-2.688,1.88-3.575C186.944-150.923,186.208-149.979,184.785-149.178z"/>
				<path class="st1" d="M202.282-149.061c-1.963-1.495-1.963-1.495-2.067-3.516C201.808-152.024,202.203-150.887,202.282-149.061z"
					/>
				<path class="st1" d="M260.632-152.861c-0.333,2.467-0.333,2.467-2.018,3.567C258.279-150.935,259.065-151.848,260.632-152.861z"
					/>
				<path class="st1" d="M273.915-152.829c1.634,0.937,2.262,1.936,2.119,3.573C274.274-150.371,274.274-150.371,273.915-152.829z"
					/>
				<path class="st1" d="M37.019-136.898c1.479,0.674,1.942,1.721,2.174,2.968C37.638-133.771,37.255-134.258,37.019-136.898z"/>
				<path class="st1" d="M110.811-137.047c1.982,1.67,1.982,1.67,1.922,3.597C111.229-134.122,110.747-135.219,110.811-137.047z"/>
				<path class="st1" d="M186.797-133.274c-1.635-0.908-2.329-1.874-2.046-3.491C186.423-135.704,186.423-135.704,186.797-133.274z"
					/>
				<path class="st1" d="M258.475-136.987c1.629,0.875,2.124,1.928,2.228,3.527C258.892-134.027,258.497-135.162,258.475-136.987z"
					/>
				<path class="st1" d="M28.185-121.721c1.523-0.971,2.703-1.121,3.969-0.039C30.416-120.848,30.416-120.848,28.185-121.721z"/>
				<path class="st1" d="M63.349-121.694c-1.525,0.834-2.679,0.886-3.94,0.172C60.907-122.812,60.907-122.812,63.349-121.694z"/>
				<path class="st1" d="M101.955-121.676c1.596-1.015,2.776-1.167,4.152,0.011C104.753-120.793,103.595-120.873,101.955-121.676z"
					/>
				<path class="st1" d="M132.961-121.661c1.513-1.104,2.696-1.114,4.112-0.021C135.706-120.833,134.553-120.822,132.961-121.661z"
					/>
				<path class="st1" d="M175.799-121.676c1.597-1.016,2.776-1.166,4.15,0.01C178.597-120.79,177.438-120.874,175.799-121.676z"/>
				<path class="st1" d="M206.76-121.709c1.603-1.002,2.774-1.098,4.171,0.074C209.515-120.862,208.362-120.808,206.76-121.709z"/>
				<path class="st1" d="M254.04-121.753c-1.684,0.943-2.836,0.894-4.258,0.11C251.185-122.854,252.36-122.64,254.04-121.753z"/>
				<path class="st1" d="M284.674-121.61c-1.276,0.787-2.435,0.724-3.751,0.185C282.366-122.84,282.747-122.858,284.674-121.61z"/>
				<path class="st1" d="M28.198-79.22c2.326-0.83,2.326-0.83,3.971,0.124C30.882-78.113,29.686-78.153,28.198-79.22z"/>
				<path class="st1" d="M59.444-79.194c1.634-0.854,1.634-0.854,3.488-0.119C61.575-78.081,61.119-78.066,59.444-79.194z"/>
				<path class="st1" d="M101.833-79.102c1.725-0.945,2.888-0.985,4.301-0.135C104.767-78.024,103.579-78.307,101.833-79.102z"/>
				<path class="st1" d="M132.954-79.258c1.625-0.776,2.793-0.858,4.098,0.098C135.661-78.145,134.464-78.121,132.954-79.258z"/>
				<path class="st1" d="M175.97-79.152c1.395-0.963,2.592-0.986,3.978-0.015C178.57-78.111,177.372-78.155,175.97-79.152z"/>
				<path class="st1" d="M210.898-79.131c-1.399,0.954-2.598,1.04-3.98-0.058C208.328-80.111,209.526-80.143,210.898-79.131z"/>
				<path class="st1" d="M249.7-79.096c2.139-0.951,2.139-0.951,4.018-0.077C252.454-78.05,251.27-78.252,249.7-79.096z"/>
				<path class="st1" d="M280.581-79.138c1.582-0.952,2.746-0.909,4.171-0.12C283.394-78.063,282.212-78.236,280.581-79.138z"/>
				<path class="st1" d="M0.291-72.882c1.371,0.624,1.847,1.696,1.95,3.114C0.367-70.35,0.115-70.757,0.291-72.882z"/>
				<path class="st1" d="M75.989-69.324c-1.512-0.919-2.191-1.857-2.092-3.346C75.678-71.998,75.7-71.966,75.989-69.324z"/>
				<path class="st1" d="M147.63-73.058c1.972,1.41,1.972,1.41,2.149,3.488C148.165-70.092,147.796-71.24,147.63-73.058z"/>
				<path class="st1" d="M223.731-69.286c-1.569-0.998-2.354-1.908-2.039-3.543C223.374-71.777,223.374-71.777,223.731-69.286z"/>
				<path class="st1" d="M297.515-70.414c-0.255-1.176-0.751-2.01-2.091-2.509c-0.072,1.622,0.473,2.646,2.091,3.485V-70.414z"/>
				<path class="st1" d="M37.027-63.921c-0.205-1.888,0.534-2.819,2.087-3.767C39.138-65.857,38.585-64.838,37.027-63.921z"/>
				<path class="st1" d="M52.397-67.487c1.686,0.662,2.197,1.734,2.094,3.411C52.889-64.717,52.376-65.788,52.397-67.487z"/>
				<path class="st1" d="M112.721-67.275c0.181,1.465-0.304,2.529-1.773,3.251C110.554-65.785,111.453-66.638,112.721-67.275z"/>
				<path class="st1" d="M126.438-67.255c1.401,0.554,2.056,1.514,1.909,3.153C126.713-64.687,126.298-65.807,126.438-67.255z"/>
				<path class="st1" d="M186.728-67.679c0.16,1.913-0.547,2.883-1.959,3.741C184.444-65.801,185.263-66.707,186.728-67.679z"/>
				<path class="st1" d="M199.983-67.738c1.688,1.015,2.335,1.975,2.219,3.636C200.571-64.676,200.145-65.786,199.983-67.738z"/>
				<path class="st1" d="M258.524-64.005c-0.138-1.742,0.513-2.707,1.759-3.465C260.634-65.618,260.574-65.496,258.524-64.005z"/>
				<path class="st1" d="M275.853-64.1c-1.398-0.592-1.852-1.681-1.989-3.08C275.701-66.693,275.969-66.276,275.853-64.1z"/>
				<path class="st1" d="M39.11-48.114c-1.638-0.906-2.332-1.87-2.044-3.487C38.739-50.535,38.739-50.535,39.11-48.114z"/>
				<path class="st1" d="M112.954-48.267c-1.725-0.633-2.198-1.725-2.123-3.4C112.427-51.02,112.946-49.955,112.954-48.267z"/>
				<path class="st1" d="M186.797-48.114c-1.638-0.906-2.333-1.87-2.044-3.487C186.426-50.535,186.426-50.535,186.797-48.114z"/>
				<path class="st1" d="M260.745-48.054c-1.74-0.969-2.439-1.929-2.135-3.628C260.076-51.042,260.552-49.964,260.745-48.054z"/>
				<path class="st1" d="M28.112-36.51c1.596-1.015,2.775-1.166,4.15,0.01C30.909-35.621,29.752-35.709,28.112-36.51z"/>
				<path class="st1" d="M63.107-36.395c-1.283,0.695-2.437,0.757-3.696,0.038C60.942-37.677,61.335-37.684,63.107-36.395z"/>
				<path class="st1" d="M102.071-36.436c1.435-1.206,2.608-1.119,4.018-0.205C104.763-35.483,103.58-35.754,102.071-36.436z"/>
				<path class="st1" d="M137.17-36.56c-2.24,0.876-2.24,0.876-3.989-0.038C134.451-37.676,135.631-37.519,137.17-36.56z"/>
				<path class="st1" d="M180.158-36.576c-2.331,0.896-2.331,0.896-4.076-0.043C177.369-37.683,178.554-37.49,180.158-36.576z"/>
				<path class="st1" d="M211.074-36.519c-1.644,0.855-2.798,0.817-4.224,0.067C208.295-37.673,209.474-37.522,211.074-36.519z"/>
				<path class="st1" d="M249.666-36.486c1.557-1.065,2.741-1.169,4.13-0.039C252.466-35.612,251.304-35.713,249.666-36.486z"/>
				<path class="st1" d="M284.639-36.395c-1.284,0.698-2.438,0.755-3.698,0.038C282.472-37.677,282.864-37.684,284.639-36.395z"/>
				<path class="st1" d="M32.39-291.988c-1.605,0.859-2.754,0.743-4.205,0.033C29.685-293.107,30.866-293.097,32.39-291.988z"/>
				<path class="st1" d="M59.229-292.043c1.396-1.089,2.581-1.028,4.004-0.009C61.812-291.129,60.628-291.088,59.229-292.043z"/>
				<path class="st1" d="M106.217-291.974c-1.602,0.81-2.759,0.819-4.108-0.059C103.53-293.088,104.712-293.113,106.217-291.974z"/>
				<path class="st1" d="M133.058-291.979c1.397-1.196,2.578-1.043,4.005-0.135C135.688-291.057,134.51-291.165,133.058-291.979z"/>
				<path class="st1" d="M180.117-292.041c-1.603,0.899-2.755,0.851-4.17,0.069C177.344-293.144,178.517-293.04,180.117-292.041z"/>
				<path class="st1" d="M211.023-292.119c-2.165,0.938-2.165,0.938-4.015,0.061C208.268-293.188,209.442-292.979,211.023-292.119z"
					/>
				<path class="st1" d="M249.72-292.022c1.503-1.028,2.687-1.13,3.965-0.094C251.999-291.178,251.999-291.178,249.72-292.022z"/>
				<path class="st1" d="M285.028-292.029c-1.786,0.811-2.951,0.929-4.261-0.006C282.154-293.209,283.339-292.966,285.028-292.029z"
					/>
				<path class="st1" d="M32.257-249.495c-1.379,1.052-2.576,1.009-3.976,0.003C29.68-250.438,30.876-250.482,32.257-249.495z"/>
				<path class="st1" d="M59.068-249.5c1.599-0.953,2.759-0.77,4.265-0.157C61.849-248.409,60.666-248.544,59.068-249.5z"/>
				<path class="st1" d="M102.221-249.595c1.253-0.822,2.418-0.797,3.687-0.131C104.502-248.405,104.084-248.389,102.221-249.595z"
					/>
				<path class="st1" d="M137.066-249.536c-1.401,1.091-2.596,1.048-3.977,0.081C134.435-250.521,135.629-250.393,137.066-249.536z"
					/>
				<path class="st1" d="M180.032-249.523c-1.48,1.037-2.672,1.074-3.959,0.071C177.827-250.382,177.827-250.382,180.032-249.523z"
					/>
				<path class="st1" d="M210.97-249.506c-1.493,1.074-2.676,0.978-4.063,0.095C208.776-250.38,208.776-250.38,210.97-249.506z"/>
				<path class="st1" d="M254.128-249.624c-2.358,1.093-2.358,1.093-4.217,0.158C251.165-250.605,252.357-250.233,254.128-249.624z"
					/>
				<path class="st1" d="M280.575-249.48c1.589-0.93,2.753-0.913,4.179-0.1C283.398-248.406,282.22-248.561,280.575-249.48z"/>
				<path class="st1" d="M0.171-243.388c1.496,0.979,2.137,1.946,1.938,3.628C0.577-240.566-0.108-241.545,0.171-243.388z"/>
				<path class="st1" d="M73.948-243.32c1.558,0.757,2.047,1.816,2.138,3.248C74.253-240.701,74.186-240.799,73.948-243.32z"/>
				<path class="st1" d="M147.668-243.45c1.699,0.97,2.231,1.998,2.227,3.618C148.173-240.456,147.753-241.577,147.668-243.45z"/>
				<path class="st1" d="M221.592-243.411c1.612,0.932,2.157,1.954,2.142,3.573C222.037-240.47,221.553-241.553,221.592-243.411z"/>
				<path class="st1" d="M297.374-240.052c-1.392-0.546-2.062-1.497-1.929-3.143C297.098-242.629,297.495-241.497,297.374-240.052z"
					/>
				<path class="st1" d="M39.049-237.851c0.137,1.744-0.473,2.771-2.001,3.461C36.841-236.085,37.448-237.113,39.049-237.851z"/>
				<path class="st1" d="M52.238-237.884c1.861,0.718,2.307,1.829,2.325,3.486C52.812-235.002,52.514-236.202,52.238-237.884z"/>
				<path class="st1" d="M112.715-237.607c0.195,1.464-0.302,2.521-1.762,3.257C110.548-236.114,111.451-236.962,112.715-237.607z"
					/>
				<path class="st1" d="M128.327-234.4c-1.587-0.655-2.112-1.72-2.084-3.418C127.928-237.151,128.445-236.081,128.327-234.4z"/>
				<path class="st1" d="M186.804-238.141c-0.35,2.579-0.35,2.579-2.044,3.688C184.402-236.119,185.288-236.98,186.804-238.141z"/>
				<path class="st1" d="M202.171-234.401c-1.587-0.655-2.115-1.717-2.083-3.416C201.771-237.15,202.287-236.081,202.171-234.401z"
					/>
				<path class="st1" d="M260.736-238.096c-0.157,1.972-0.64,3.044-2.103,3.722C258.279-236.102,259.067-237.015,260.736-238.096z"
					/>
				<path class="st1" d="M273.898-237.811c1.727,0.642,2.21,1.728,2.136,3.402C274.412-235.039,273.933-236.128,273.898-237.811z"/>
				<path class="st1" d="M37.021-222.011c1.544,0.682,2.124,1.717,2.051,3.417C37.391-219.251,36.882-220.328,37.021-222.011z"/>
				<path class="st1" d="M110.789-222.111c1.882,1.4,1.882,1.4,2.037,3.426C111.203-219.193,110.81-220.328,110.789-222.111z"/>
				<path class="st1" d="M186.677-218.877c-1.804-0.993-1.804-0.993-1.926-3.09C186.327-221.402,186.648-220.224,186.677-218.877z"
					/>
				<path class="st1" d="M260.597-218.444c-1.569-0.868-2.181-1.845-2.101-3.314C260.269-221.081,260.269-221.081,260.597-218.444z"
					/>
				<path class="st1" d="M28.157-206.707c1.503-1.33,2.684-1.092,4.154-0.317C30.92-205.798,29.734-206.159,28.157-206.707z"/>
				<path class="st1" d="M59.492-206.835c1.155-1.072,2.312-1.049,3.692-0.165C61.861-205.794,60.681-206.152,59.492-206.835z"/>
				<path class="st1" d="M102.009-206.915c1.565-0.921,2.738-1.096,4-0.001C104.229-206.018,104.229-206.018,102.009-206.915z"/>
				<path class="st1" d="M137.178-206.865c-1.513,0.883-2.666,0.816-3.982,0.226C134.749-207.979,134.749-207.979,137.178-206.865z"
					/>
				<path class="st1" d="M175.821-206.817c1.559-1.069,2.743-1.167,4.134-0.041C178.624-205.941,177.46-206.047,175.821-206.817z"/>
				<path class="st1" d="M206.846-206.857c1.473-1.074,2.656-1.083,3.944-0.089C209.045-206.011,209.045-206.011,206.846-206.857z"
					/>
				<path class="st1" d="M249.677-206.711c1.514-1.316,2.692-1.102,4.159-0.309C252.449-205.801,251.265-206.159,249.677-206.711z"
					/>
				<path class="st1" d="M280.751-206.848c1.399-1.141,2.585-1.036,3.997-0.069C283.363-205.925,282.181-205.956,280.751-206.848z"
					/>
				<path class="st1" d="M28.288-164.302c1.379-1,2.576-0.98,3.98-0.048C30.885-163.261,29.688-163.337,28.288-164.302z"/>
				<path class="st1" d="M63.354-164.537c-1.51,1.359-2.699,1.081-4.17,0.364C60.57-165.468,61.767-165.031,63.354-164.537z"/>
				<path class="st1" d="M102.217-164.428c1.254-0.822,2.42-0.793,3.69-0.137C104.504-163.24,104.084-163.223,102.217-164.428z"/>
				<path class="st1" d="M132.94-164.387c1.607-0.836,2.773-0.866,4.122,0.022C135.669-163.278,134.476-163.326,132.94-164.387z"/>
				<path class="st1" d="M180.052-164.4c-1.494,1.178-2.684,1.004-4.191,0.112C177.404-165.306,178.595-165.189,180.052-164.4z"/>
				<path class="st1" d="M206.915-164.351c1.406-0.93,2.604-0.953,3.983,0.051C209.497-163.34,208.3-163.261,206.915-164.351z"/>
				<path class="st1" d="M26.282-100.472c-1.5,1.019-2.619,0.941-4.021,0.072C23.662-101.415,24.782-101.342,26.282-100.472z"/>
				<path class="st1" d="M65.541-100.675c1.155-0.669,2.264-0.71,3.415,0.036C67.425-99.319,66.951-99.327,65.541-100.675z"/>
				<path class="st1" d="M100.062-100.451c-1.353,0.964-2.449,0.947-3.6,0.275C97.536-101.462,97.69-101.479,100.062-100.451z"/>
				<path class="st1" d="M143.105-100.458c-1.484,1.005-2.599,0.91-4.066,0.051C140.496-101.368,141.612-101.385,143.105-100.458z"
					/>
				<path class="st1" d="M173.651-100.272c-1.123,0.798-2.234,0.782-3.379,0.057C171.579-101.535,172.141-101.545,173.651-100.272z"
					/>
				<path class="st1" d="M212.893-100.469c1.517-0.876,2.638-0.938,3.986,0.035C215.514-99.47,214.392-99.49,212.893-100.469z"/>
				<path class="st1" d="M247.863-100.522c-1.497,1.034-2.612,1.044-3.999,0.142C245.111-101.438,246.241-101.317,247.863-100.522z"
					/>
				<path class="st1" d="M286.92-100.531c1.257-0.841,2.376-0.851,3.603-0.096C288.931-99.373,288.931-99.373,286.92-100.531z"/>
				<path class="st1" d="M26.374-15.352c-1.592,1.031-2.712,1.037-4.057,0.094C23.661-16.287,24.782-16.118,26.374-15.352z"/>
				<path class="st1" d="M65.541-15.509c1.155-0.67,2.267-0.711,3.414,0.039C67.424-14.152,66.951-14.159,65.541-15.509z"/>
				<path class="st1" d="M100.133-15.32c-1.481,1.032-2.603,0.962-4.023,0.099C97.479-16.243,98.603-16.18,100.133-15.32z"/>
				<path class="st1" d="M143.121-15.299c-1.489,0.989-2.607,0.975-4.005,0.021C140.48-16.205,141.596-16.215,143.121-15.299z"/>
				<path class="st1" d="M173.997-15.338c-1.485,1.019-2.605,1.025-3.992,0.097C171.3-16.26,172.431-16.161,173.997-15.338z"/>
				<path class="st1" d="M216.765-15.185c-1.241,0.874-2.362,0.861-3.572,0.084C214.722-16.32,214.818-16.324,216.765-15.185z"/>
				<path class="st1" d="M247.676-15.217c-1.341,0.903-2.452,0.899-3.587,0.14C245.452-16.313,245.55-16.32,247.676-15.217z"/>
				<path class="st1" d="M290.581-15.168c-1.228,0.861-2.346,0.845-3.556,0.047C288.651-16.328,288.714-16.33,290.581-15.168z"/>
				<path class="st1" d="M142.921-185.516c-1.24,0.872-2.361,0.86-3.571,0.082C140.876-186.65,140.98-186.654,142.921-185.516z"/>
				<path class="st1" d="M96.175-185.686c1.387-0.876,2.488-0.797,3.666-0.154C98.356-184.551,98.321-184.549,96.175-185.686z"/>
				<path class="st1" d="M69.146-185.541c-1.344,0.886-2.455,0.904-3.584,0.123C66.877-186.634,67.044-186.645,69.146-185.541z"/>
				<path class="st1" d="M22.325-185.634c1.887-0.811,1.887-0.811,3.586-0.184C24.655-184.57,24.544-184.561,22.325-185.634z"/>
				<path class="st1" d="M290.571-185.499c-1.221,0.883-2.34,0.793-3.6,0.08C288.666-186.66,288.726-186.661,290.571-185.499z"/>
				<path class="st1" d="M243.837-185.538c1.962-0.991,1.962-0.991,3.823-0.005C246.395-184.666,245.276-184.648,243.837-185.538z"
					/>
				<path class="st1" d="M216.832-185.541c-1.345,0.886-2.454,0.904-3.584,0.123C214.563-186.634,214.731-186.645,216.832-185.541z"
					/>
				<path class="st1" d="M173.86-185.537c-1.924,0.783-1.924,0.783-3.592,0.109C171.61-186.645,171.703-186.651,173.86-185.537z"/>
				<path class="st1" d="M290.968-228.171c-1.757,0.851-2.926,0.97-4.16-0.021C288.136-229.273,289.339-229.054,290.968-228.171z"/>
				<path class="st1" d="M247.795-228.211c-1.372,0.964-2.568,0.986-3.934,0.034C245.21-229.196,246.407-229.138,247.795-228.211z"
					/>
				<path class="st1" d="M216.942-228.203c-2.095,0.902-2.095,0.902-3.941,0.015C214.273-229.216,215.46-229.107,216.942-228.203z"
					/>
				<path class="st1" d="M170.013-228.151c1.342-1.064,2.526-0.954,3.942-0.087C172.579-227.226,171.395-227.258,170.013-228.151z"
					/>
				<path class="st1" d="M143.009-228.232c-1.325,1.057-2.521,0.93-3.934,0.085C140.442-229.194,141.64-229.136,143.009-228.232z"/>
				<path class="st1" d="M100.396-228.23c-1.747,0.915-2.912,1.014-4.205,0.071C97.511-229.301,98.702-228.996,100.396-228.23z"/>
				<path class="st1" d="M65.165-228.208c1.436-0.926,2.594-0.942,3.83-0.161C67.586-227.23,67.453-227.22,65.165-228.208z"/>
				<path class="st1" d="M26.269-228.146c-1.412,0.843-2.608,0.971-3.931-0.084C23.706-229.141,24.9-229.189,26.269-228.146z"/>
				<path class="st1" d="M22.271-143.044c1.408-0.938,2.566-0.931,3.811-0.16C24.618-142.062,24.473-142.054,22.271-143.044z"/>
				<path class="st1" d="M65.128-142.977c2.125-0.961,2.125-0.961,3.975-0.074C67.858-141.989,66.679-142.181,65.128-142.977z"/>
				<path class="st1" d="M96.185-143.046c1.348-0.95,2.551-0.964,3.924,0.042C98.713-142.116,97.509-142.018,96.185-143.046z"/>
				<path class="st1" d="M143.145-142.984c-1.571,0.866-2.736,0.906-4.052-0.01C140.44-144.033,141.632-143.962,143.145-142.984z"/>
				<path class="st1" d="M173.951-143.064c-1.357,0.997-2.549,0.984-3.936,0.073C171.364-144.047,172.559-143.951,173.951-143.064z"
					/>
				<path class="st1" d="M212.77-143.021c1.583-0.934,2.746-0.982,4.062-0.056C215.523-141.993,214.34-142.171,212.77-143.021z"/>
				<path class="st1" d="M22.341-57.879c1.348-0.953,2.551-0.967,3.924,0.041C24.869-56.948,23.665-56.852,22.341-57.879z"/>
				<path class="st1" d="M69.246-57.842c-1.438,0.925-2.599,0.891-3.849,0.155C66.912-58.851,66.993-58.855,69.246-57.842z"/>
				<path class="st1" d="M100.106-57.857c-1.372,0.926-2.577,0.987-3.926-0.003C97.53-58.849,98.735-58.826,100.106-57.857z"/>
				<path class="st1" d="M143.093-57.905c-1.469,1.082-2.654,0.878-4.116,0.109C140.475-58.891,141.663-58.762,143.093-57.905z"/>
				<path class="st1" d="M174.02-57.99c-1.421,1.226-2.619,0.91-4.112,0.282C171.361-58.982,172.561-58.664,174.02-57.99z"/>
				<path class="st1" d="M212.774-57.832c1.551-0.927,2.735-1.068,4.058,0.013C215.529-56.886,214.367-56.98,212.774-57.832z"/>
				<path class="st1" d="M247.951-57.871c-1.571,0.919-2.732,0.955-4.093,0.076C245.188-58.903,246.37-58.737,247.951-57.871z"/>
				<path class="st1" d="M286.663-57.777c1.488-1.13,2.682-0.972,4.106-0.146C289.323-56.801,288.132-57.045,286.663-57.777z"/>
				<path class="st1" d="M247.918-143.008c-1.585,0.921-2.743,0.811-4.159,0.099C245.199-144.054,246.387-143.936,247.918-143.008z"
					/>
				<path class="st1" d="M290.702-143.011c-1.368,0.951-2.566,0.932-3.936-0.034C288.153-143.975,289.351-144.026,290.702-143.011z"
					/>
				<path class="st1" d="M286.769-270.758c1.46-0.998,2.573-0.908,4.034-0.051C289.392-269.83,288.273-269.812,286.769-270.758z"/>
				<path class="st1" d="M247.676-270.725c-1.338,0.918-2.449,0.906-3.583,0.15C245.447-271.81,245.541-271.816,247.676-270.725z"/>
				<path class="st1" d="M212.893-270.806c1.524-0.868,2.644-0.934,3.981,0.041C215.515-269.799,214.395-269.822,212.893-270.806z"
					/>
				<path class="st1" d="M169.936-270.734c1.437-1.01,2.551-0.942,4.005-0.073C172.571-269.835,171.455-269.811,169.936-270.734z"/>
				<path class="st1" d="M142.982-270.707c-1.342,0.889-2.45,0.9-3.578,0.124C140.724-271.799,140.893-271.811,142.982-270.707z"/>
				<path class="st1" d="M99.944-270.69c-1.248,0.862-2.367,0.888-3.58,0.102C97.898-271.825,97.934-271.826,99.944-270.69z"/>
				<path class="st1" d="M69.079-270.683c-1.241,0.874-2.361,0.862-3.57,0.082C67.034-271.818,67.133-271.821,69.079-270.683z"/>
				<path class="st1" d="M22.241-270.761c1.471-0.967,2.586-0.926,4.006-0.036C24.857-269.825,23.739-269.81,22.241-270.761z"/>
			</g>
			<g>
				<path class="st1" d="M2.515-112.988c-0.275-1.243-0.826-2.069-2.152-2.567c0.029,1.632,0.489,2.723,2.152,3.526V-112.988z"/>
				<path class="st1" d="M2.515-46.277c-1.582,0.709-2.145,1.775-2.13,3.692c1.314-0.79,2.006-1.62,2.13-2.867V-46.277z"/>
				<path class="st1" d="M2.515-258.997c-1.854,0.894-2.032,1.247-1.881,3.301c1.087-0.545,1.635-1.337,1.881-2.399V-258.997z"/>
				<path class="st1" d="M2.515-88.596c-1.787,0.71-1.979,1.059-1.951,3.218c1.176-0.494,1.72-1.321,1.951-2.411V-88.596z"/>
				<path class="st1" d="M2.515-131.37c-2.037,1.316-2.15,1.581-1.756,3.388c0.993-0.562,1.529-1.345,1.756-2.504V-131.37z"/>
				<path class="st1" d="M2.515-216.445c-1.912,1.018-2.06,1.297-1.855,3.428c1.021-0.701,1.688-1.481,1.855-2.598V-216.445z"/>
				<path class="st1" d="M0.46-170.502c-0.16-1.684,0.436-2.738,2.014-3.565C2.631-172.273,2.025-171.226,0.46-170.502z"/>
				<path class="st1" d="M2.515-198.33c-0.3-1.052-0.761-1.896-1.967-2.329c0.014,2.174,0.188,2.512,1.967,3.155V-198.33z"/>
				<path class="st1" d="M2.515-283.333c-0.274-1.206-0.799-2.026-2.089-2.539c-0.11,1.586,0.43,2.589,2.089,3.589V-283.333z"/>
				<path class="st1" d="M2.515-27.819c-0.27-1.245-0.812-2.069-2.103-2.554c-0.053,1.625,0.442,2.693,2.103,3.515V-27.819z"/>
				<path class="st1" d="M2.515-3.576c-1.933,1.11-2.092,1.456-1.8,3.346c1.029-0.525,1.544-1.321,1.8-2.461V-3.576z"/>
				<path class="st1" d="M2.515-155.508c-0.164-1.21-0.726-2.038-2.068-2.555c-0.068,1.66,0.438,2.719,2.068,3.377V-155.508z"/>
				<path class="st1" d="M2.515-70.414c-0.255-1.176-0.751-2.01-2.091-2.509c-0.072,1.622,0.473,2.646,2.091,3.485V-70.414z"/>
				<path class="st1" d="M2.374-240.052c-1.393-0.546-2.062-1.497-1.929-3.143C2.098-242.629,2.495-241.497,2.374-240.052z"/>
			</g>
		</g>
	</pattern>
</defs>
<rect class="st2" width="1357" height="904"/>
</svg>