<!-- Generator: Adobe Illustrator 21.0.2, SVG Export Plug-In  -->
<svg version="1.1"
	 xmlns="http://www.w3.org/2000/svg" xmlns:xlink="http://www.w3.org/1999/xlink" xmlns:a="http://ns.adobe.com/AdobeSVGViewerExtensions/3.0/"
	 x="0px" y="0px" width="262.689px" height="45.908px" viewBox="0 0 262.689 45.908"
	 style="enable-background:new 0 0 262.689 45.908;" xml:space="preserve">
<defs>
</defs>
<g>
	<path d="M16.392,15.977l0.118-0.059l1.716-2.13l0.089-0.207l0.651-0.71l0.029-0.029l0.267-0.474l0.177-0.088l0.918-1.213
		l1.153-1.598c0,0,0.03-0.059,0.06-0.089l0.207-0.384l0.147-0.415l0.355-0.414l0.443-0.799l0.119-0.207l0.266-0.533l0.118-0.266
		l0.385-0.562l0.178-0.414L23.995,5c0.178-0.384,0.325-0.71,0.444-1.065l0.059-0.237l0.06-0.059
		c0.059-0.177,0.089-0.385,0.118-0.533l-0.147-0.207V2.633l-0.03-0.118l-0.059-0.326l-0.03-0.326
		C23.906,1.539,22.9,1.45,22.427,1.627l-1.064,0.414l-0.326,0.148h-0.059l-1.036,0.444l-0.029,0.03l-0.325,0.148l-0.118,0.088
		l-0.326,0.148l-0.236,0.059c-0.532,0.237-1.035,0.503-1.538,0.77h-0.03c-0.089,0.059-0.177,0.118-0.266,0.148l-0.651,0.503
		l-0.207,0.178l-0.267,0.029l-0.414,0.148l-0.089,0.03L15.268,5.03l-0.06,0.059l-1.509,1.154l-0.089,0.03l-0.355,0.266v0.06h-0.029
		l-1.124,0.799l-0.118,0.088l-0.089,0.03l-0.474,0.207l-0.296,0.237v0.059L10.8,8.284l-0.237,0.089l-0.71,0.562H9.705L9.113,9.498
		L8.462,9.882l-1.035,0.799L7.22,10.947l-0.267,0.207l-0.118,0.118l-0.532,0.415v0.059l-0.089,0.266l-0.178,0.059L5.74,12.249
		l-0.296,0.148H5.415l-0.148,0.118l-0.118,0.059l-0.147,0.06L3.61,13.669l-0.03,0.237l-0.059,0.178L3.137,14.35H2.752l-0.267,0.178
		l-0.029,0.118l-0.089,0.03L2.22,15.089l-0.06,0.237c0.296-0.03,0.444,0.444,0.118,0.68l-0.296,0.148l-0.059,0.059l-0.03,0.089
		L1.598,16.45l-0.473,0.355l-0.296,0.178l-0.237-0.089l-0.059-0.089c-0.06,0-0.148,0-0.207-0.029C0.089,16.657,0,16.509,0,16.302
		c0.06-0.296,0.355-0.71,0.77-1.213l0.267-0.296l0.029-0.059v-0.059l0.148-0.089l0.088-0.089L1.243,14.35h0.059l0.237-0.148h0.029
		v-0.059h0.089l0.178-0.237l0.029-0.029l0.089-0.178l0.178-0.118l0.089-0.178l0.266-0.266l0.296-0.089L2.87,12.93l0.178-0.089
		l0.207-0.089l0.06-0.03l0.147-0.088l0.118-0.119l0.06-0.029l0.267-0.237l0.118-0.118l0.118-0.089l0.147-0.148l0.089-0.059
		l0.06-0.178l0.06-0.059l0.207,0.029l1.183-0.858V10.74l0.326-0.267l0.147-0.088l0.089-0.03c0.562-0.444,1.065-0.77,1.361-1.006
		l1.213-0.829l0.06-0.059l0.207-0.148l0.207-0.207l0.177-0.119L9.764,7.84l0.06-0.088l0.474-0.178l0.414-0.237l0.443-0.236
		l0.562-0.355c0.178-0.118,0.385-0.207,0.592-0.325l0.029-0.089l0.207-0.177l0.06-0.06l0.325-0.088l0.089-0.089l0.178-0.089
		l0.178-0.059l0.68-0.444l0.148-0.178l0.118-0.059l0.178-0.148l0.059-0.059l0.089-0.177l0.06-0.06l0.236,0.03l0.237-0.059h0.029
		l0.443-0.267l0.119-0.088l0.207-0.237l0.118,0.029l0.089,0.03c0.266-0.118,0.562-0.296,0.857-0.444l0.06-0.118l0.118-0.059
		l0.207-0.03l0.148-0.118l0.029,0.029l0.089-0.059l0.029-0.03l0.148-0.059c0.71-0.355,1.479-0.71,2.219-1.036l0.178-0.148
		l0.354-0.088c0.03,0,0.06,0,0.089-0.03l0.207-0.089l0.947-0.444l0.474-0.059h0.088c0.06,0,0.089,0,0.148-0.029
		c0.562-0.148,2.515-0.562,3.018,0.266c0.148,0.237,0.207,0.533,0.178,0.858l0.089,0.237v0.148l-0.089,0.325l-0.207,0.385
		l-0.089,0.474l-0.089,0.207l-0.147,0.266l-0.119,0.178v0.177L24.883,5.03l-0.029,0.118l-0.118,0.178l-0.533,0.917v0.119l0.03,0.089
		l-0.178,0.059l-0.326,0.503L23.699,7.13L23.61,7.219h-0.029l-0.296,0.533c-0.799,1.361-1.716,2.544-2.663,3.787l-0.029,0.088h-0.06
		l-0.177,0.267l-0.444,0.592v0.029l-0.325,0.355l-1.124,1.539l-0.267,0.296l-0.917,1.272l-0.888,1.006l-0.267,0.355l-0.65,0.917
		l-0.267,0.237l-0.828,1.036l-0.089,0.296h-0.178l-0.443,0.562l-0.06,0.119l-0.029-0.03l-0.148,0.148l-0.089,0.266l-0.354,0.533
		v0.089l-0.237,0.059l-0.503,0.71l-0.266,0.562l-0.119,0.178l-0.236,0.178l-0.118,0.266l-0.562,0.769L10.8,24.586l-0.296,0.355
		l-0.207,0.296l0.385-0.355h0.029c0.385-0.443,0.799-0.917,1.272-1.39v-0.03l0.207-0.326l0.325-0.296l0.236-0.414l0.148-0.148
		l0.178-0.237l0.296-0.207l0.325-0.325l0.592-0.444l0.029-0.03l0.118-0.059c0.03-0.059,0.089-0.118,0.148-0.148l0.118-0.296h0.029
		l0.06-0.059h0.147l0.326-0.355l0.059-0.059l0.06-0.089l0.089-0.03c0.71-0.71,1.42-1.361,2.159-2.042l0.267-0.414l0.267-0.178v0.06
		l1.124-1.006l0.029-0.029l0.296-0.266h0.03l0.384-0.326l0.119-0.178l0.65-0.473l0.77-0.592l0.059-0.059l0.385-0.355l0.178-0.089
		c0.178-0.178,0.414-0.296,0.621-0.444v-0.03l0.06-0.029l0.147-0.089l0.03-0.118l0.207-0.119l0.178-0.148l0.71-0.532l0.118-0.178
		h0.178v0.03l0.473-0.326l0.326-0.296l0.089-0.148l0.207-0.118l0.088-0.148l0.208-0.178l0.088-0.059l0.829-0.296l0.621-0.355
		l0.207-0.177l0.118-0.089l0.651-0.326l0.207-0.089h0.029c0.118-0.059,0.237-0.148,0.355-0.236l0.118-0.119l0.443-0.236l0.119-0.119
		h0.118l0.443-0.237l0.118-0.088l0.207-0.148l0.444-0.089l0.029,0.03c0.533-0.178,1.036-0.267,1.479-0.178
		c0.207,0.059,0.325,0.118,0.385,0.296c0.029,0.177,0.029,0.355,0,0.503h0.029l0.118,0.118l0.06,0.119l0.029,0.148h-0.029
		L33.02,9.734l0.029-0.029l0.029,0.059l-0.029,0.118l-0.029,0.208l-0.089,0.207l-0.029,0.029v0.03l-0.06,0.059l-0.029,0.089
		l0.059,0.059h-0.059l-0.119,0.118h-0.029l-0.059,0.03l-0.06,0.089h-0.089l-0.06,0.029l-0.177,0.178l-0.03,0.178l-0.088,0.147
		l-0.237,0.178l-0.325,0.474v0.059h-0.029l-0.03,0.029l-0.029,0.089l-0.06,0.148l-0.207,0.296l-0.147,0.444l-0.148,0.177
		l-0.089,0.06l-0.147,0.177l-0.118,0.178l-0.118,0.148l-0.207,0.207l-0.03,0.059l-0.029,0.089l-0.029,0.03h-0.06l-0.325,0.414
		l-0.06,0.118l-0.207,0.237l-0.118,0.177l-0.385,0.444l-0.06,0.119l-0.296,0.355l-1.302,1.805l-0.088,0.207l-0.03,0.03v0.029
		l-0.059,0.06l-0.03,0.088l0.06,0.06h-0.06l-0.118,0.118v0.059l-0.147,0.089l-0.06,0.089l-0.06,0.029l-0.147,0.148
		c0,0-0.029,0.03-0.029,0.059l-0.03,0.148l-0.088,0.148l-0.148,0.119l-0.118,0.089l-0.414,0.562l-0.03,0.089l-0.029-0.03
		l-0.118,0.148l-0.06,0.296l-0.325,0.562v0.119l-0.147,0.059l-0.444,0.828l-0.236,0.562l-0.118,0.236l-0.148,0.208l-0.118,0.296
		l-0.799,1.095l-0.118,0.384l-0.296,0.415l-0.178,0.384l-0.503,1.332l0.147,0.03l0.03-0.06l0.236-0.236l0.267-0.385l0.207-0.148
		l0.266-0.178l0.148-0.148l0.147-0.088l-0.088-0.06l0.029-0.088l0.089-0.059h0.029l0.029,0.029l-0.059,0.089l0.059-0.059
		l0.178-0.089l0.06-0.089h0.089l0.414-0.325l0.089-0.119l0.236-0.177l0.178-0.178l0.474-0.355l0.059-0.089l1.065-0.828l0.147-0.148
		l0.148-0.089l0.029-0.059l0.296-0.208l0.236-0.236l0.355-0.267l0.178-0.059l0.118-0.059l0.178-0.178l0.059,0.03l0.089-0.148
		l0.178-0.118l0.06-0.119l0.177-0.088l0.415-0.296l0.118-0.119l0.177-0.118l0.03-0.059l0.178-0.148l0.029-0.06h0.029l0.029-0.029
		h-0.177l0.059-0.207l0.207-0.089h0.089l0.06,0.03h0.089l0.059-0.06l0.089-0.059l0.03-0.089l0.147-0.088l0.029-0.03h0.03
		l1.538-1.391l0.06-0.089l0.089-0.088l0.118-0.178l0.089-0.089l0.029-0.177l0.059-0.06l0.208-0.029l0.207-0.118l0.118-0.06
		l0.147-0.118l0.06-0.059l0.532-0.444l1.509-1.243l0.178-0.237l0.385-0.207l0.029-0.089l0.474-0.444l0.178-0.029l0.118-0.089
		l0.06-0.148l0.029-0.03h0.029l1.835-1.539l0.354-0.177l0.089-0.207l0.355-0.207l1.538-1.213l0.178-0.355h0.296l1.035-0.858
		l0.03-0.03l0.532-0.473l0.089-0.119l1.242-0.976l0.148-0.148l0.207-0.118l0.029-0.089l0.296-0.267l0.118-0.029l0.06-0.119
		c0.828-0.562,0.828-0.562,1.656-1.331l0.237-0.119l0.739-0.621l0.118-0.207h0.119l0.177-0.059l0.415-0.296l0.029-0.119l0.147-0.207
		l0.089-0.03l0.326-0.118l0.088-0.118l0.178-0.059l0.06-0.03l0.739-0.503l0.148-0.237l0.118-0.089l0.147-0.118l0.119-0.089
		l0.029-0.177l0.059-0.03h0.237l0.207-0.089l0.503-0.148l0.414-0.059c0.414-0.118,1.095-0.266,1.598,0.178l0.089-0.03l0.089,0.059
		l0.059,0.089l0.03-0.03l0.029,0.03l-0.029,0.03v0.059l0.029,0.089l0.06,0.148v0.147c0.029,0.089,0.059,0.208,0.059,0.326
		l0.148,0.326v0.236l-0.03,0.089l-0.147,0.414l-0.029,0.03L54.056,5.71l0.029,0.059l0.029,0.148h-0.029l-0.029,0.237l0.029-0.03
		l0.029,0.059l-0.029,0.119l-0.029,0.207l-0.089,0.207l-0.029,0.029v0.03l-0.06,0.059l-0.029,0.089l0.059,0.059h-0.059L53.73,7.101
		H53.7L53.642,7.13c-0.178,0.533-0.385,1.036-0.592,1.509l-0.089,0.444l-0.148,0.651l-0.503,1.095l-0.207,0.296l-0.474,1.036
		l-0.207,0.296l-0.177,0.296l-0.562,1.095l-0.178,0.355l-0.029,0.03c-0.532,1.095-1.124,2.219-1.716,3.313l-0.888,1.687
		l-0.089,0.148h-0.06l-0.178,0.385v0.325l-0.147,0.089l-0.178,0.059l-0.325,0.562L46.6,21.451l-0.118,0.088l-0.178,0.326
		l-0.147,0.325l-0.178,0.208h0.207l0.029,0.236l-0.118,0.148h-0.089l-0.06-0.059v-0.148l-0.059,0.118l-0.267,0.178l0.089,0.178
		l-0.06,0.059h-0.118l-0.473,0.74l-0.03,0.177l-0.296,0.474l-0.147,0.296l-0.503,0.799l-0.03,0.207l-1.183,1.834l-0.089,0.296
		l-0.178,0.266v0.089l-0.325,0.503l-0.148,0.089l-0.029,0.177l-0.474,0.74l-0.118,0.089l-0.148,0.177l-0.118,0.03l-0.029,0.237
		l-0.148,0.177h-0.088L40.89,30.83l-0.148,0.237l-0.059,0.177l-0.178,0.266l-0.267,0.267l-0.236,0.325l-0.533,0.977v0.148h-0.088
		v0.089h-0.03l-0.178,0.384l-0.147,0.296h-0.029c-0.622,1.065-1.125,2.071-1.628,3.195v0.148l-0.089,0.208v0.059l-0.118,0.355
		l-0.089,0.089v0.088l-0.236,0.592l-0.089,0.06l-0.029,0.088l-0.029,0.03c-0.03,0.029-0.03,0.059-0.03,0.089v0.088l-0.089,0.178
		c-0.029,0.03-0.059,0.089-0.059,0.118v0.06l-0.089,0.295l-0.089,0.208l-0.089,0.059L36.008,40.8
		c-0.296,0.769-0.681,1.657-0.829,2.544v0.414l0.03,0.267l0.029,0.088l0.029,0.148l0.03,0.03h0.029l0.029,0.03l-0.029,0.029
		l0.207,0.207l0.178,0.267l0.029,0.118l0.029,0.207c0.119-0.059,0.207-0.207,0.267-0.385c0.296-0.384,0.946-0.177,0.681,0.267
		c-0.592,1.095-2.456,1.391-2.396-0.444c0.059-2.456,1.184-4.705,2.13-6.834c0.355-0.917,0.947-1.864,1.479-2.781l0.06-0.148
		l0.118-0.237l0.236-0.355v-0.03l0.474-1.094l0.059-0.119l0.77-1.154c0.296-0.562,0.621-1.125,0.947-1.657l0.059-0.296l0.267-0.267
		l0.828-1.479l0.118-0.207l0.06-0.178l0.148-0.178l0.769-1.242l0.06-0.089l0.029-0.089l0.237-0.355l0.532-0.888l0.059-0.148
		l0.06-0.089l0.207-0.355h0.029l0.237-0.473l0.147-0.355l1.539-2.456l0.414-0.651l0.059-0.148l0.03-0.059l0.325-0.414h0.029
		l1.154-2.012l0.06-0.118l0.414-0.947l0.118-0.059l0.118-0.296l-0.029-0.03l0.059-0.059l0.474-0.977l0.118-0.088l0.06-0.089
		l0.207-0.326c0-0.029,0.029-0.059,0.06-0.118c0,0,0-0.03,0.029-0.059l0.029-0.148l0.385-1.036l0.06-0.296l0.147-0.71l0.414-0.562
		l0.533-1.302l0.473-1.242l0.207-0.326l0.119-0.414l0.059-0.119l-0.029-0.088l0.118-0.148l0.355-0.74l0.266-0.71l0.503-0.68
		l0.119-0.503V5.385l0.059-0.177l-0.059-0.06h-0.06L53.257,5.06h0.059l-0.177-0.444L52.99,4.142V3.935l0.029-0.148l-0.354,0.178
		h-0.296l-0.267-0.03v0.03h-0.029l-0.029-0.03h-0.03l-0.177,0.059l-0.415,0.207L51.333,4.29l-0.295,0.178l-0.089,0.029l-1.184,0.77
		l-0.326,0.237L49.085,5.74l-0.592,0.355l-0.355,0.267l-1.745,1.183l-0.385,0.237L45.919,7.87l-0.178,0.148l-0.118,0.03
		c-0.592,0.414-1.065,0.769-1.36,1.006l-0.444,0.355l-0.06,0.059l-0.473,0.385l-0.089,0.059l-0.148,0.118H43.02v0.03H42.99
		l-0.03,0.03l-0.266,0.207l-0.03,0.029l-0.739,0.592l-0.147,0.148L41.6,11.272l-0.355,0.237l-0.503,0.385l-0.118,0.148l-1.627,1.391
		l-0.562,0.532l-0.147,0.119l-0.296,0.148l-1.421,1.243v0.059l-0.147,0.118l-0.118,0.089l-0.148,0.118h-0.029
		c0,0.03,0,0.03-0.029,0.03l-0.06,0.089l-0.147,0.148l-0.208,0.177h-0.059l-0.118,0.089l-0.06,0.178l-0.06,0.088l-0.059,0.06
		l-0.118,0.059l-0.06,0.059H35.12l-0.03,0.059l-0.207,0.148l-0.147,0.118l-0.651,0.592l-0.236,0.208L33.7,18.196l-0.415,0.237
		l-0.089,0.089l-2.604,2.337l-0.059,0.118l-0.148,0.059v0.089l-0.177,0.148l-0.178,0.089l-0.74,0.651v0.059h-0.089l-0.029,0.03
		v0.029h-0.029l-0.621,0.562l-0.03,0.06l-0.207,0.207l-0.059,0.089l-0.237,0.266l-0.296,0.118l-0.592,0.533
		c-0.118,0.118-0.325,0.237-0.562,0.385l-0.178,0.414l-0.089,0.148l-0.325,0.385l-0.474,0.177l-0.236-0.059l-0.178,0.089
		l-0.474,0.681l-0.592,0.384l-0.503,0.444l-0.118,0.207l-0.148,0.178v0.118h0.06v0.148h-0.147l-0.651,0.415l-0.355,0.443
		l-0.147,0.208l-0.532,0.592l-0.74,0.295l-0.354,0.06l-0.355-0.208v-0.236l-0.06,0.207v-0.503l0.06-0.355h-0.06v-0.208l0.119,0.089
		l0.089-0.236l0.207-0.237l0.177-0.562l0.533-0.799c0.266-0.562,0.562-1.094,0.857-1.568l0.415-0.681
		c0.059-0.118,0.147-0.236,0.236-0.355l0.029-0.177l0.562-0.858l0.503-0.887l0.207-0.237l0.089-0.266l0.562-0.74l0.325-0.503
		l0.178-0.296L25.09,20c0.237-0.355,0.444-0.68,0.71-1.035l0.414-0.681l0.178-0.178l0.414-0.562c0.06-0.089,0.148-0.177,0.207-0.296
		l0.148-0.237v-0.088l0.029-0.03l0.03-0.059l0.118-0.118l0.236-0.267l0.148-0.148l1.035-1.479l0.06-0.089l0.088-0.089l0.858-1.213
		l0.207-0.267v-0.029L30.12,12.9l0.029-0.03l0.029-0.088l0.089-0.148l0.089-0.119l0.325-0.414l0.118-0.266l0.474-0.799l0.207-0.415
		l0.03-0.236l0.118-0.178V9.882l0.059-0.355c-0.059-0.177-0.266-0.266-0.621-0.207c-0.503,0.118-0.946,0.266-1.391,0.503
		l-0.089,0.059h-0.059l-1.302,0.74c-0.03,0-0.03,0.03-0.03,0.03l-0.207,0.148l-0.207,0.177l-0.267,0.178l-0.118,0.059l-0.266,0.03
		l-0.296,0.236v0.03h-0.06l-0.029-0.03c-0.414,0.237-0.799,0.503-1.154,0.74c-0.118,0.089-0.236,0.148-0.325,0.237l-0.06,0.03
		l-0.177,0.118l-0.06,0.03c-0.739,0.444-1.391,0.799-2.101,1.361c-0.207,0.148-0.414,0.296-0.592,0.473l-0.178,0.208l-0.207,0.148
		L21.688,15l-0.267,0.178l-0.059,0.148l-0.089,0.029h-0.089l-1.095,0.977l-0.503,0.592l-0.207,0.207l-0.621,0.503l-0.355,0.326
		l-0.562,0.473l-1.805,1.805v0.03l-0.029,0.029l-1.184,1.243l-0.296,0.267c-0.089,0.148-0.207,0.236-0.296,0.325l-0.059,0.089
		l-0.296,0.296l-0.622,0.651l-0.118,0.207l-0.385,0.296l-0.147,0.207l-0.267,0.296l-1.006,1.036l-0.621,0.74l-0.355,0.503
		l-0.147,0.177l-0.06,0.385l-0.147,0.267L9.675,27.9l-0.562,0.473H8.788c-0.474,0.503-0.947,0.888-1.391,0.829L7.16,29.321
		l-0.118-0.148v-0.296c-0.089-0.326-0.06-0.267,0.089-0.415v-0.029l0.06-0.237l0.236-0.355l0.147-0.474l0.296-0.384l0.178-0.444
		l0.06-0.178l0.207-0.266l0.207-0.237l0.147-0.207l0.089-0.148l0.562-0.592v-0.03l0.178-0.207l0.089-0.355v-0.059l0.088-0.03
		l0.208-0.029l0.325-0.562l0.059-0.06l0.119-0.029l0.029,0.089l0.147-0.208l0.089-0.296l0.237-0.236l0.118-0.178h0.089v-0.089
		l0.296-0.325l1.42-1.834l0.089-0.148l0.178-0.178l0.414-0.503v-0.029l0.059-0.148l0.355-0.326l0.06-0.089v-0.059l1.686-2.042
		L16.392,15.977z"/>
	<path d="M60.23,22.723l0.029-0.059l0.06-0.089l0.532-0.651l0.118-0.237l0.089-0.088l0.029-0.06l0.089-0.059l0.355-0.385
		l0.118-0.148v-0.059l0.029,0.03l0.089-0.296l-0.029-0.03l-0.147-0.029h-0.267l-0.355,0.089l-0.857,0.325l-0.207,0.059l-0.148,0.03
		l-0.858,0.533h-0.029l-0.236,0.148l-0.207,0.088l-0.207,0.119l-0.681,0.325l-0.681,0.385l-0.267,0.118l-0.443,0.237l-0.148,0.059
		l-0.354,0.207l-0.178,0.06l-0.532,0.325l-0.178,0.118l-0.178,0.148l-0.267,0.089l-0.266,0.119l-0.71,0.384l-0.06,0.059
		l-0.296,0.178h-0.059v0.03h-0.267l-0.355,0.148h-0.236c-0.089,0.059-0.207,0.088-0.296,0.118l-0.118,0.089l-0.592,0.207
		l-0.118,0.03l-0.444,0.177l-0.059,0.03l-0.089,0.029H50.26l-0.178-0.029h-0.029c-0.474,0.059-0.858-0.03-0.977-0.355
		c-0.118-0.385,0-0.829,0.207-1.302l0.118-0.355l0.089-0.029l0.029-0.119l0.119-0.177l0.059-0.119l0.06-0.029v0.029l0.059-0.148
		l0.207-0.296l0.326-0.236l0.059-0.059l0.237-0.385l0.118-0.148l0.236-0.178l0.355-0.296l1.331-1.183v-0.03h0.029l0.385-0.325
		l0.089-0.089l0.503-0.415l0.237-0.148l0.769-0.562l0.03-0.029l0.354-0.385l0.148-0.148l0.118-0.207l0.059-0.03l0.208,0.03
		l0.088-0.059l0.208-0.06l0.118-0.029l0.147-0.03l0.118-0.089v-0.059l0.237-0.089l0.946-0.473l0.178-0.148l0.118-0.059l0.237-0.059
		l0.059,0.029l0.06-0.029l0.266-0.089h0.089l0.148-0.089l0.207-0.03l0.178-0.059l0.207-0.059l0.118-0.03l0.296,0.089l0.178-0.029
		h0.177l0.119,0.029h0.059v0.03h0.118l0.089,0.059l0.03,0.059l0.118,0.03l0.059,0.148v0.266l-0.088,0.059
		c-0.03,0.089-0.119,0.148-0.326,0.355c-0.089,0.06-0.178,0.03-0.207,0l-0.325,0.089l-0.207,0.03h-0.533l-0.473-0.059v0.029h-0.118
		v-0.029h-0.06l-0.207,0.029h-0.207l-0.414,0.178l-0.474,0.207l-0.681,0.296l-0.474,0.207c-0.177,0.089-0.325,0.207-0.503,0.326
		c-0.029,0.029-0.029,0.029-0.029,0l-0.267,0.207l-0.029,0.029l-0.06,0.03L53.573,20l-0.118,0.119l-0.267,0.296l-0.207,0.207
		l-0.207,0.118l-0.267,0.148l-0.089,0.089l-0.266,0.296l-0.06,0.059l-0.059,0.089l-0.355,0.444l-0.089,0.059l-0.059,0.059
		l-0.089,0.059l-0.06,0.119l-0.089,0.118h-0.059l-0.06,0.148l-0.118,0.148l-0.06,0.118l-0.147,0.148l-0.148,0.178l-0.296,0.355
		v0.059l0.03,0.178l-0.03,0.059v0.059l-0.059,0.059l-0.118,0.089l-0.089,0.119l-0.148,0.177l-0.118,0.178v0.059l-0.029,0.059v0.178
		l0.059,0.088l0.089,0.148l0.089,0.06l0.621-0.237l0.267-0.059l0.414-0.148h0.029l0.148-0.03c0.385-0.148,0.77-0.325,1.153-0.503
		l0.148-0.089l0.207-0.118l0.147-0.118h0.237c0.325-0.148,0.681-0.296,1.006-0.474l0.147-0.118l0.208-0.089v-0.03l0.059-0.029
		l0.089-0.089l0.118-0.03l0.444-0.207l0.236-0.118l0.207-0.119l0.799-0.414l0.207-0.148l0.829-0.385l0.177-0.059l0.533-0.266
		l0.266-0.207l0.533-0.267l0.147-0.118l0.237-0.148l0.147-0.118l0.355-0.237l0.384-0.237l0.918-0.207h0.354l0.267,0.059l0.207,0.119
		l0.118,0.088c0.118,0.03,0.178,0.089,0.236,0.207v0.03l0.06,0.03v0.118l-0.029,0.089h0.059l-0.029,0.059l-0.029-0.03l-0.06,0.06
		l-0.059,0.088l-0.06,0.119l-0.178,0.148c-0.029,0.059-0.089,0.118-0.147,0.177l-0.207,0.326l-0.178,0.148l-0.089,0.029
		l-0.355,0.415l-0.059,0.059v0.029l-0.06,0.03l-0.178,0.237l-0.059,0.089l-0.06,0.118l-0.236,0.325
		c-0.06,0.06-0.089,0.148-0.118,0.208l-0.089,0.236l-0.029,0.03c-0.06,0.118-0.089,0.237-0.06,0.296c0,0.089-0.029,0.03,0.089,0.059
		c0.029,0,0.059,0.03,0.089,0.03l0.147-0.03h0.207l0.06-0.029h0.207l0.147-0.03l0.06,0.03c0.207-0.03,0.385-0.089,0.651-0.148
		l0.236-0.06l0.207-0.088h0.178l1.035-0.296l0.089-0.06l0.325-0.088v0.029l0.385-0.118l0.237-0.118l0.118-0.03l0.118-0.089
		L66,22.161v-0.059l0.089,0.059l0.266-0.089l0.089-0.089l1.42-0.414h0.148l0.739-0.237c0.03,0,0.06,0,0.089,0.03h0.06l0.029,0.207
		l-0.118,0.089h-0.236l-0.503,0.118l-0.355,0.178h-0.118l-0.474,0.118l-0.236,0.089l-0.681,0.325l-0.503,0.207l-0.562,0.178
		l-0.65,0.237l-0.119,0.059l-0.296,0.118l-0.147,0.089l-0.236,0.089h-0.03l-0.207,0.089l-0.236,0.148l-0.089,0.029l-0.06,0.059
		l-0.769,0.267v0.059l-0.03-0.03l-0.236,0.089l-0.029,0.059l-0.503,0.178l-0.444,0.148l-0.147,0.118l-0.03,0.03l-0.029-0.059
		l-0.089,0.029l-0.059,0.059l-0.06-0.029l-0.029,0.029l-0.207,0.06h-0.326l-0.059-0.03h-0.207l-0.148-0.059l-0.118-0.059
		l-0.089-0.119l0.029-0.148l-0.029-0.118c-0.029-0.118-0.029-0.207,0.029-0.385l0.089-0.207l0.03-0.118l0.207-0.267l0.089-0.148
		l0.236-0.296L60.23,22.723z"/>
	<path d="M78.808,23.137v0.208l-0.118,0.177l-0.029,0.03l-0.06,0.207l0.03,0.059l-0.089,0.148c-0.03,0.118-0.03,0.237-0.03,0.355
		l0.03,0.178l0.089,0.118l0.118,0.148l0.147,0.089l0.148,0.059c0.118,0,0.207-0.03,0.325-0.059l0.236-0.089l0.06-0.059h0.089
		l1.065-0.562l0.118-0.03l0.147-0.059l1.065-0.71c0.029,0,0.06-0.03,0.089-0.03l0.592-0.414l0.089-0.119h0.118l0.178-0.148
		l0.354-0.177l0.444-0.326l0.089-0.089l0.295-0.177l0.03-0.03l0.474-0.414c0.029-0.03,0.059-0.03,0.088-0.03l0.06-0.059l0.118-0.059
		l0.118,0.148v0.118l-0.088,0.06l-0.267,0.148l-0.414,0.266l-0.119,0.118l-0.354,0.267c-0.296,0.266-0.681,0.562-1.065,0.828
		l-0.266,0.237h-0.089l-0.148,0.118l-0.089,0.119l-0.059,0.029l-0.089,0.148l-0.178,0.119l-0.118,0.059l-0.178,0.148l-0.089,0.089
		l-0.296,0.177l-0.118,0.118l-0.178,0.06l-0.236,0.059l-0.06,0.059l-0.296,0.148l-0.473,0.355l-0.089,0.059l-0.178,0.148
		l-0.089,0.06h-0.06l-0.088,0.059l-0.237,0.118l-0.207,0.059l-0.296,0.03c-0.178,0.059-0.296,0.118-0.385,0.118
		s-0.178,0-0.236-0.029l-0.178,0.029L77.832,25.8l-0.06-0.089c0-0.03-0.029-0.03-0.029-0.03l-0.178-0.236v0.029l-0.118-0.177
		l0.029-0.562l0.029-0.532l0.03-0.207l-0.03-0.237l0.03-0.059l0.177-0.089l0.06-0.118l0.118-0.148l0.029-0.119l0.178-0.207
		l0.06-0.118l0.059-0.089l0.06-0.355l0.207-0.385c0.118-0.444,0.355-0.947,0.503-1.391l0.118-0.473
		c0.207-0.355,0.355-0.622,0.326-1.036l0.029-0.059l0.029-0.208l-0.147-0.147c-0.207,0-0.474,0.088-0.799,0.236l-0.444,0.237
		l-0.207,0.059l-0.325,0.178l-0.236,0.177l-0.06,0.06l-0.236,0.118L76.825,20l-0.562,0.267l-0.148,0.059
		c-0.147,0.059-0.266,0.148-0.354,0.207l-0.089,0.089l-1.568,0.858l-0.147,0.207h-0.148l-0.089,0.148l-0.118,0.119l-0.207,0.236
		l-0.296,0.06l-0.474,0.443l-0.946,0.799l-0.77,0.651l-0.71,0.503l-0.147,0.088l-0.208,0.119l-0.177,0.177v0.089l-0.178-0.059
		l-0.474,0.237l-0.325,0.207l-0.296,0.059l-0.532,0.03l-0.119,0.118h-0.207l-0.147-0.148l-0.06-0.266l0.06-0.385l0.147-0.444
		l0.06-0.207l0.236-0.414l0.148-0.267l0.178-0.444l0.029-0.059l0.089-0.148l0.089-0.237l0.029-0.295l0.089-0.355l0.266-0.384
		l0.119-0.444l0.089-0.207l0.147-0.237l0.207-0.296l0.118-0.178l0.118-0.207l0.474-0.592l0.237-0.473l0.029-0.119l0.029-0.029
		l0.029-0.089l0.089-0.029l0.355-0.474l0.06-0.089l0.059-0.118h0.029l0.415-0.651l0.088-0.178l0.148-0.177l0.207-0.296l0.118-0.296
		l0.118-0.178l0.326-0.325c0.147-0.237,0.296-0.474,0.473-0.71l0.503-0.887l0.208-0.148c0.532-0.77,1.095-1.539,1.656-2.308
		l0.089-0.118l0.06-0.118l0.118-0.267l0.236-0.207l0.178-0.296l0.118-0.207l0.029-0.207l0.089-0.059l0.267-0.237L76.53,10
		l0.118-0.207l0.236-0.533l0.148-0.266l0.177-0.237l0.207-0.237l0.267-0.533l0.029-0.118l0.06-0.148l0.089-0.089V7.544l0.147-0.266
		l0.03-0.029h0.029l0.089-0.148l0.089-0.119l0.059-0.029l0.03-0.06l0.207-0.295l0.207-0.267l0.118-0.177l0.06-0.03l-0.03,0.059
		l0.03-0.029v-0.03l0.088-0.207l0.03-0.119l0.207-0.177l0.089-0.178l0.089-0.118l0.059-0.089l0.355-0.444l0.147-0.266l0.118-0.266
		l0.06-0.119l0.06-0.177l0.089-0.119l-0.03-0.177l0.03-0.089l0.236-0.059l0.354-0.296l0.148-0.237l0.414-0.355l0.178-0.237
		l0.118-0.177V2.101l0.118-0.089l0.03,0.178l0.236-0.266l0.236-0.119l0.237,0.237l0.089,0.385L82.27,3.521l-0.71,0.947l-0.267,0.296
		l-0.65,0.621l-0.325,0.237l-1.243,1.775l0.029,0.029l-0.147,0.237l-0.207,0.355l-0.148,0.266l-0.177,0.178l-0.267,0.237
		l-1.154,1.568v0.119l-0.266,0.414l-0.119,0.207l-0.147,0.118l-0.178,0.237l-0.267,0.414l-0.71,0.829l-0.029,0.207l-0.443,0.444
		l-0.267,0.355l-0.06,0.178l-0.414,0.562l-0.296,0.503l-0.236,0.207l-1.361,2.012c-0.266,0.414-0.532,0.828-0.828,1.243
		l-0.029,0.118l-0.06,0.059l-0.089,0.119c-0.296,0.443-0.592,0.887-0.858,1.361l-0.029,0.059l-0.059,0.03l-0.267,0.473v0.237
		l-0.296,0.592l-0.178,0.532l-0.354,0.799l-0.207,0.533l-0.06,0.296l-0.207,0.414l-0.06,0.415l0.118,0.177l0.119,0.059h0.147
		l0.385-0.207l0.178-0.177l0.059-0.03l0.089-0.118l0.207-0.089l0.119-0.148l0.177-0.148l0.118-0.118l0.326-0.178l0.118-0.059
		l0.236-0.178l0.918-0.562l0.236-0.207l0.118-0.089l0.178-0.177l0.118-0.06l0.385-0.207l0.977-0.71l0.059-0.089l0.237-0.237
		l0.473-0.236l0.355-0.237l0.089-0.03c0.325-0.236,0.65-0.443,0.977-0.651l0.385-0.384l0.236-0.148l0.089-0.119l0.147-0.029
		l0.089-0.089l0.237-0.178l0.266-0.059l0.681-0.177h0.118c0.503-0.178,1.006-0.178,1.568,0.059c0.06,0.029,0.118,0.059,0.118,0.118
		l0.148,0.089l0.236,0.148l0.06,0.177l-0.03,0.237l-0.177,0.385l-0.03,0.03c-0.236,0.443-0.414,0.917-0.592,1.361
		c-0.089,0.325-0.266,0.621-0.414,0.947v0.266l-0.267,0.385L78.808,23.137z"/>
	<path d="M98.155,24.794l-0.06-0.208c-0.029-0.029-0.06-0.059-0.06-0.088c-0.089-0.119-0.089-0.296-0.059-0.503v-0.089l0.059-0.296
		l0.178-0.444l0.148-0.296l0.147-0.178l0.267-0.295l0.296-0.444l0.236-0.296l0.06-0.089l0.029-0.118l0.267-0.355l0.089-0.177
		l0.059-0.148v-0.118l-0.089,0.059h-0.059l-0.237,0.118l-0.118,0.03l-0.71,0.414l-0.236,0.207l-0.207,0.207l-0.208,0.06
		l-0.207,0.088l-0.592,0.326l-0.118,0.177l-0.354,0.237l-0.178,0.089l-0.532,0.355l-0.592,0.444l-0.089,0.118l-0.118,0.148
		l-0.178,0.059l-0.06,0.03c-0.118,0.089-0.236,0.148-0.325,0.237l-0.148,0.089l-0.207,0.118l-0.296,0.237l-0.177,0.088
		c-0.444,0.296-0.829,0.474-1.036,0.474h-0.029v0.03l-0.148,0.029l-0.118-0.089l-0.118-0.118l-0.178-0.326
		c-0.089-0.147-0.089-0.414,0.03-0.769l0.088-0.621l0.03-0.178l0.147-0.296l0.089-0.059l0.267-0.533l0.089-0.118l0.473-0.592
		l0.178-0.296l0.06-0.059l0.029-0.089l0.296-0.325l0.089-0.208l0.118-0.148l0.621-1.006l0.592-0.888l0.414-0.503l0.562-0.71h-0.443
		l-0.562-0.089l-0.118,0.03l-0.06-0.03c0,0.03-0.029,0.03-0.029,0.03l-0.503,0.266l-0.355,0.296l-1.006,0.503l-0.266,0.207
		l-1.036,0.71l-0.621,0.296l-0.089,0.029l-0.207,0.178l-0.029,0.029l-0.118,0.06l-0.888,0.621l-0.385,0.266l-0.267,0.296
		l-0.592,0.533l-0.443,0.296c-0.089,0.089-0.178,0.148-0.267,0.207l-0.207,0.355l-0.089,0.089l-0.236,0.266l-0.237,0.089
		l-0.089,0.148h-0.059l-0.06,0.059h-0.089l-0.118,0.148l-0.059,0.03l-0.799,0.71l-0.03,0.089l-0.147,0.118l-0.118,0.089l-0.06,0.03
		l-0.385,0.325l-0.178,0.178h-0.029l-0.325,0.296v0.088h-0.06l-0.059,0.03l-0.296,0.326l-0.385,0.295l-0.148,0.178l-0.029,0.059
		l-0.296,0.296l-0.207,0.237l-0.148,0.266l-0.088,0.148l-0.148,0.059l-0.089,0.03l-0.029,0.03l-0.029,0.088l-0.03,0.06l-0.147,0.088
		l-0.03,0.06v0.059l-0.059,0.089v0.088l-0.118,0.119v0.029l-0.06-0.029l-0.089,0.029l-0.059,0.059h-0.03l-0.029,0.03l-0.178,0.118
		l-0.354,0.089h-0.06V27.93l-0.207,0.059h-0.147l-0.148-0.03l-0.06-0.118l-0.177,0.089l-0.06-0.03l-0.118-0.178l-0.089-0.118
		l0.029-0.237l0.089-0.266l0.089-0.089l-0.029-0.029l0.029-0.119l0.148-0.118l0.118-0.148l0.325-0.562l0.621-0.651l0.03-0.03
		l0.029-0.118l0.089-0.03l0.325-0.503l0.207-0.237l0.178-0.266l0.059-0.119l0.089-0.118l0.207-0.296V23.61l0.148-0.089l0.089-0.148
		l0.178-0.266l0.532-0.74l0.178-0.207l0.118-0.207l0.562-0.71l0.147-0.236l0.532-0.681l0.355-0.503l0.089-0.148l0.089-0.296
		l0.059-0.178l0.148-0.118l0.147-0.059l0.06-0.178l0.059-0.059v-0.089l-0.029-0.059l0.06-0.089v-0.118l0.089-0.148h-0.03l0.03-0.03
		l0.029,0.03l0.089-0.059l0.029-0.089h0.06v-0.03l0.178-0.147l0.088-0.03l0.237-0.444l0.207-0.207l0.118-0.237l-0.06-0.03
		l0.148-0.207l0.06-0.088l0.059-0.119v-0.029l-0.029-0.03v-0.03h0.029l0.029-0.266l0.06-0.296l0.06-0.089l0.177-0.296l0.296-0.177
		l0.119,0.059v-0.118l0.088-0.06h0.089l0.06-0.088l0.147-0.03l0.326-0.03h0.177l0.148,0.06l0.089,0.088v0.178l-0.148,0.237v0.148
		l-0.059,0.148l-0.237,0.621l-0.473,0.326l-0.326,0.236l-0.029,0.03l-0.325,0.533v0.059l-0.118,0.178l-0.03,0.207l-0.089,0.207
		l-0.059,0.118L87.8,18.581l-0.03,0.03l-0.059,0.029l-0.03,0.059h-0.059l-0.029,0.119l-0.119,0.118l-0.177,0.148l-0.237,0.355
		l-0.178,0.237l-0.118,0.266l-0.089,0.089l-0.325,0.237l-0.354,0.444l-0.208,0.118l-0.325,0.414v0.06l-0.207,0.207l-0.267,0.384
		L84.9,22.161l-0.119,0.177l-0.207,0.267l-0.029,0.088l-0.236,0.178l-0.267,0.326l-0.355,0.503l-0.325,0.473l-0.296,0.385
		l-0.532,0.769l-0.207,0.533l-0.06,0.118l0.029-0.029h0.119l0.088-0.059h0.089l0.06-0.03l0.06-0.059l0.177-0.089l0.03-0.148
		l0.147-0.177l0.148-0.089l0.296-0.119l0.266-0.177l0.296-0.267l0.06-0.059l0.059-0.029l0.178-0.148l0.355-0.355l0.681-0.592
		l0.236-0.148l0.621-0.474l0.178-0.207l0.06-0.059l0.177-0.089l0.415-0.296l0.207-0.296l0.118-0.029l0.414-0.296l0.267-0.267
		l0.147-0.088l0.029-0.06l0.562-0.532l0.207-0.119l0.325-0.296l0.089-0.118l0.178-0.118l0.267-0.237l0.236-0.148l0.296-0.326
		l0.77-0.591l0.236-0.208l0.178-0.207l0.532-0.237l0.385-0.236l0.118-0.178l0.06,0.03l0.118-0.089l0.118-0.03l0.207-0.177
		l0.06-0.059l0.207-0.089l0.267-0.178l0.354-0.148l0.444-0.266l0.059-0.118l0.444-0.237l0.857-0.178l0.651-0.266l0.296-0.089
		l0.178-0.059l0.089-0.059l0.059-0.03h0.06l-0.06,0.059l0.267,0.03l0.118,0.03l0.178,0.296l-0.06,0.295l-0.089,0.119
		c-0.177,0.355-0.532,0.74-0.739,1.036c-0.06,0.088-0.118,0.118-0.148,0.177L96.409,17.9l-0.178,0.296l-0.474,0.474l-0.325,0.384
		l-0.059,0.089l-0.237,0.267l-0.799,1.302l-0.385,0.621l-0.296,0.71h-0.029v0.03l-0.325,0.592l-0.118,0.414l-0.089,0.119
		l-0.06,0.059l-0.089,0.207l-0.029,0.059l0.029,0.207l0.06,0.237l0.029,0.148l0.06,0.118l0.029,0.089l0.029,0.03l0.444-0.178
		l0.118-0.029c0.178-0.119,0.355-0.267,0.562-0.444l0.147-0.148l0.148-0.059c0.236-0.178,0.443-0.385,0.68-0.592l0.355-0.267
		l0.178-0.148l0.71-0.503l1.272-0.947l0.118-0.177l0.118-0.089l0.207-0.089h0.118c0.06-0.059,0.119-0.089,0.178-0.118l0.089-0.089
		l0.029-0.059v-0.03l0.06-0.059l0.029-0.089v-0.029l0.148-0.089l-0.03-0.03h0.03l0.059,0.03l0.089-0.03l0.06-0.059h0.059
		l0.237-0.089h0.207l0.147-0.059l0.089,0.03l-0.029,0.029l0.207-0.029l0.029-0.03l0.148,0.03l0.147,0.059l0.089,0.089v0.148
		l-0.029,0.029h0.029l-0.059,0.059l-0.178,0.503v0.089l-0.148,0.355l-0.266,0.355l-0.178,0.443l-0.089,0.178l-0.178,0.237
		L98.954,22.9l-0.119,0.207l-0.177,0.296l-0.119,0.237l-0.088,0.295l0.059,0.326l0.207,0.178c0.237,0.118,0.621,0.177,1.036,0.118
		l0.177-0.03v0.03c0.03,0,0.06-0.03,0.089-0.03l0.03-0.029l0.088-0.059l0.355-0.03l0.296-0.118l0.178-0.089l0.147,0.059l0.089-0.059
		l0.029-0.03l0.178-0.029l0.621-0.326l0.385-0.237l0.178-0.029l0.178-0.148h0.089l0.414-0.237l0.178-0.03l0.177-0.088l0.385-0.178
		l0.385-0.207l0.828-0.414l0.089-0.06l1.065-0.532l0.118-0.089l0.385-0.148l0.148-0.089l0.384-0.237l0.208-0.148l0.118-0.029
		l0.089,0.148l-0.03,0.118l-0.147,0.059l-0.06,0.03l-0.147,0.089l-0.06,0.089l-0.059,0.059l-0.178,0.029l-0.888,0.562l-0.236,0.177
		h-0.089l-0.355,0.178l-0.267,0.177l-0.147,0.059l-0.06,0.06l-0.089,0.029l-0.503,0.267l-0.177,0.088l-0.148,0.089l-0.178,0.119
		l-0.118,0.059l-0.118,0.089l-0.267,0.148l-0.059,0.029l-0.148,0.059l-0.118,0.089l-0.267,0.118l-0.414,0.148l-0.532,0.237
		l-0.237,0.148l-0.118-0.029l-0.296,0.118c-0.089,0.029-0.177,0.089-0.296,0.118l-0.059,0.03l-0.148,0.029l-0.354,0.089v0.03h-0.06
		l-0.178,0.089l-0.177,0.029H99.9c-0.207,0.059-0.385,0.089-0.592,0.089h-0.296c-0.118,0-0.236-0.03-0.354-0.059h-0.089
		L98.155,24.794z"/>
	<path d="M114.601,20.592l-0.118,0.237c-0.029,0.059,0,0.148-0.029,0.237l-0.178,0.296l-0.207,0.296l-0.267,0.177l-0.296,0.296
		l-0.118,0.148l-0.147,0.148l-0.237,0.178l-0.059,0.029c-0.503,0.444-1.125,0.858-1.746,1.243v0.059h-0.089l-0.325,0.208v0.029
		l-0.06,0.059h-0.118c-0.029,0.03-0.029,0.03-0.059,0.03v0.089h-0.118l-0.237,0.177h-0.029l-0.148,0.148l-0.207,0.059l-0.118,0.148
		l-0.207,0.148l-0.118,0.03l-0.325,0.03l-0.119,0.059l-0.177,0.029h-0.06c-0.474,0.178-0.888,0.355-1.302,0.474l-0.118,0.089
		l-0.089,0.029l-0.118,0.148l-0.089,0.03l-0.207-0.059h-0.207l-0.562-0.03l-0.532-0.059v-0.03c-0.03,0-0.089,0.03-0.119,0.03
		c-0.177-0.03-0.296-0.059-0.443-0.119c-0.118-0.088-0.739-0.384-0.77-0.591v-0.267l-0.089,0.03l-0.029-0.178l0.207-0.532
		l0.207-0.503l0.118-0.178l0.355-0.355l0.207-0.148l0.06-0.089l0.503-0.355l0.443-0.444l0.089-0.148l0.118-0.118l0.651-0.503
		l0.178-0.148l0.147-0.03l0.06-0.059l0.236-0.148l0.06-0.089l0.029,0.059l0.71-0.532l0.148-0.148l0.088-0.03L108.891,20l0.207-0.236
		l0.267-0.237l0.414-0.148l0.385-0.326l0.236-0.118l0.267-0.148c0.296-0.177,0.562-0.385,0.828-0.533l-0.414-0.059
		c-0.207,0.03-0.385,0.059-0.562,0.059l-0.088,0.03l-0.03,0.03l-0.089-0.03h-0.354c-0.267,0.03-0.592,0.089-0.917,0.089h-0.03
		l-0.681,0.029l-0.354-0.088l-0.178-0.119l-0.089-0.148l0.03-0.207l0.236-0.355l0.236-0.089l0.296-0.059l0.296-0.03l0.237,0.089
		l0.443,0.119c0.443,0,0.917,0.029,1.42,0.118l0.326-0.059l0.473,0.029l0.562-0.088l0.089,0.029l0.503-0.059
		c0.089-0.03,0.178-0.089,0.267-0.148l0.266-0.178l0.237-0.118l0.088-0.03l0.148-0.088l0.236-0.03l0.267-0.029
		c0.207-0.03,0.414-0.06,0.621-0.03l0.207-0.03l0.089,0.089c0.118,0.03,0.207,0.089,0.325,0.178l0.829-0.089l0.029-0.03l0.355-0.088
		l0.443-0.03l0.474-0.148l0.178-0.03l0.296-0.029h0.592l0.236-0.03l0.354,0.03h0.03c0.118,0,0.266,0,0.385-0.03
		c0.147,0,0.325-0.029,0.503-0.029l0.118-0.03l0.059-0.03h0.06l0.06,0.06h0.177l0.178-0.06h0.207l0.267,0.03h0.06l0.207-0.03
		l0.177,0.089h0.089l0.118-0.029l0.237,0.029l0.118,0.03c0.355,0.059,0.651,0.118,0.828,0.177l0.119,0.089h0.118l0.089,0.118
		c0.177,0.089,0.325,0.208,0.503,0.326h0.059l0.089,0.089l0.148,0.059l0.089,0.178l0.118,0.177v0.089l-0.178,0.148l-0.089,0.207
		l-0.267,0.474l-0.118,0.177v0.03c-0.029,0.029-0.059,0.059-0.059,0.088l-0.119,0.178l-0.177,0.059v-0.237l0.059-0.088v-0.06
		c0.03-0.118,0.118-0.266,0.178-0.384l0.06-0.148l0.207-0.533c0-0.029-0.03-0.059-0.03-0.118l-0.089-0.148l-0.295-0.148
		l-0.237-0.178l-0.443-0.118c-0.651-0.148-1.479-0.148-1.953-0.148h-0.443l-0.355,0.029c-0.325,0-0.474,0.06-0.77,0.089
		c-1.302,0.089-2.219,0.207-3.077,0.326l-0.059,0.029l-0.267,0.06l-0.147,0.088l-0.474-0.029c-0.474,0.059-0.947,0.148-1.479,0.207
		l-0.236,0.089h-0.237l-0.532,0.059l-0.147,0.089c0.296,0.088,0.562,0.207,0.769,0.296h0.06l0.089,0.088l0.059,0.03l0.119,0.089
		l0.236,0.148l0.354,0.384l0.089,0.208l0.148,0.355l-0.029,0.532C114.689,20.296,114.66,20.444,114.601,20.592z M113.891,20.385
		v-0.177l0.118-0.267l0.03-0.414v-0.03l-0.148-0.296l-0.178-0.177l-0.207-0.148l-0.236-0.148l-0.207-0.089l-0.267-0.089
		l-0.236-0.148l-0.178-0.059c-0.029,0-0.059-0.029-0.059-0.029c-0.385,0.236-0.74,0.532-1.272,0.887l-0.267,0.208l-0.207,0.177
		l-1.065,0.622l-0.296,0.207l-0.207,0.118l-0.592,0.385l-0.029,0.029l-0.147,0.119l-0.444,0.237l-0.354,0.236l-0.326,0.208
		l-0.147,0.118l-0.414,0.296l-0.03,0.029l-0.325,0.385l-0.267,0.355l-0.147,0.207c-0.029,0-0.029,0.03-0.06,0.03
		c-0.207,0.237-0.385,0.503-0.473,0.74v0.059l-0.03,0.118l-0.059,0.148v0.178l-0.03,0.059l-0.029,0.089
		c0.029,0.237,0.089,0.444,0.236,0.562h0.06l0.178,0.119c0.059,0,0.118,0.029,0.178,0.029c0.976,0.059,1.183-0.029,2.159-0.355
		c0.414-0.118,0.858-0.296,1.272-0.473l0.029-0.06h0.089l0.355-0.177l0.236-0.237l0.503-0.266l0.118-0.03h0.06l0.917-0.621
		l0.089-0.089l0.06-0.03c0.236-0.177,0.473-0.384,0.71-0.592l0.089-0.118l0.059-0.089l0.178-0.148l0.178-0.207l0.089-0.148
		l0.118-0.029l0.06-0.119l0.088-0.089l0.06-0.088h0.06C113.565,20.977,113.772,20.681,113.891,20.385z M115.045,17.16
		c-0.207-0.118-0.592,0.03-0.888,0.148L115.045,17.16z"/>
	<path d="M131.522,24.35c0.029-0.119,0.029-0.237,0.118-0.355v-0.06l0.029-0.088l0.148-0.267l0.029-0.118l0.089-0.118
		c0-0.03,0.06-0.089,0.06-0.119l0.029-0.059c0.178-0.355,0.385-0.681,0.562-1.036l0.06-0.148l0.089-0.118l0.147-0.266l0.03-0.089
		l0.147-0.267l0.029-0.177l0.119-0.178v-0.236l-0.06-0.089l-0.06-0.148l-0.118,0.089h-0.059l-0.385,0.148l-0.621,0.207l-0.089,0.059
		l-0.207,0.059l-0.296,0.148l-0.74,0.385l-0.532,0.325l-0.178,0.089l-1.745,1.006l-0.148,0.148h-0.059l-0.089,0.119l-0.858,0.473
		l-0.325,0.118l-0.06,0.06l-1.153,0.651l-0.06,0.059l-0.06,0.029l-0.118,0.148l-0.089,0.03v0.03l-0.266,0.118l-0.089,0.089h-0.089
		l-0.148,0.118l-0.059,0.03l-0.029,0.029l-0.06,0.03l-0.089,0.03l-0.118,0.059l-0.178,0.177l-0.118,0.03l-0.207,0.059l-0.178,0.118
		l-0.089,0.089l-0.236,0.119l-0.444,0.059l-0.207,0.089v0.029l-0.089,0.059l-0.029-0.029h-0.029l-0.178,0.059h-0.089l-0.029,0.059
		l-0.03,0.03l-0.029-0.03l0.029-0.029h-0.118l-0.828-0.089v-0.03H120.9l-0.178-0.089l-0.296-0.177c-0.059,0-0.088-0.03-0.147-0.03
		v-0.029l-0.029,0.029l-0.089-0.148c0-0.148,0-0.266,0.029-0.384V25.06l0.089-0.533l0.06-0.236l0.118-0.148l0.089-0.237l0.029-0.089
		l0.147-0.177l0.06-0.119l0.207-0.237l0.355-0.621l0.089-0.237l0.177-0.237l0.148-0.207l0.118-0.296l0.178-0.266l0.118-0.148
		l0.178-0.148l0.029-0.059l0.06-0.059l0.147-0.208V20.74h0.029l0.148-0.236l0.414-0.444l0.118-0.207l0.06-0.089l0.029-0.059
		l0.06-0.296v-0.326l0.059-0.207l-0.059-0.178v-0.118l0.089-0.178l0.177-0.148l0.326-0.414l0.266-0.177h0.207l0.148,0.118v0.03
		c0,0,0,0.029,0.029,0.029c0.089,0.119,0.089,0.266,0.089,0.414l0.029,0.03l0.06,0.503l-0.089,0.355l-0.147,0.237l-0.296,0.326
		l-0.237,0.532l-0.207,0.178l-0.089,0.089l-0.178,0.177l-0.177,0.207l-0.118,0.089l-0.03,0.059l-0.118,0.148l-0.178,0.148
		l-0.029,0.089h-0.029l-0.06,0.03l-0.621,0.799l-0.06,0.118l-0.089,0.148l-0.118,0.118c-0.147,0.207-0.296,0.415-0.414,0.622
		l-0.296,0.414c-0.06,0.118-0.118,0.207-0.178,0.296l-0.118,0.207l-0.029,0.207l-0.06,0.296l-0.147,0.237l-0.03,0.178l-0.029,0.029
		c0,0.089,0,0.178,0.029,0.237c0.148,0.237,0.918,0.059,1.657-0.207l0.178-0.148l0.296-0.03l0.443-0.177l0.237-0.06l0.236-0.118
		c0.414-0.177,0.799-0.355,1.213-0.562l0.178-0.148l0.207-0.089l0.267-0.118l0.177-0.089l0.237-0.237l0.739-0.296
		c0.03-0.029,0.06-0.059,0.089-0.059l0.06-0.089l0.207-0.059l0.65-0.385l0.03-0.029l0.118-0.148l0.118-0.03l0.06-0.089l0.147-0.088
		l0.089-0.089l0.414-0.119l0.888-0.532l0.267-0.207l0.385-0.208l0.354-0.355l0.207-0.118l0.267-0.148l0.354-0.148l0.148-0.089
		l0.236-0.148l0.71-0.266l0.119-0.059l0.266-0.148l0.178-0.178l0.029-0.059l0.06-0.03l0.118,0.06
		c0.148-0.089,0.325-0.178,0.503-0.237l0.03-0.03l0.266-0.118l0.089,0.029c0.089,0.03,0.148,0.119,0.178,0.178l0.059-0.03
		l0.178,0.06l0.148,0.088v0.119l-0.06,0.089h0.06v0.059l-0.06-0.03v0.059l-0.059,0.06l-0.089,0.177L134.362,20l-0.147,0.237v0.178
		l-0.267,0.355l-0.059,0.148l-0.089,0.148l-0.148,0.207l-0.059,0.089l-0.119,0.296l-0.118,0.266l-0.178,0.207l-0.029,0.119
		l-0.236,0.355l-0.03,0.118l-0.118,0.266l-0.029,0.178l-0.148,0.266l-0.088,0.089c-0.148,0.385-0.208,0.681-0.06,0.799
		c0.147,0.148,0.325,0.237,0.592,0.266l0.296,0.03h0.236l0.178,0.03h0.207c0.325,0,0.651-0.06,1.035-0.119l0.03-0.029h0.178
		l0.414-0.119l0.147,0.03l0.651-0.089l0.029-0.029h0.029l0.178-0.06l0.385-0.029l0.296-0.03h0.029
		c0.03-0.029,0.06-0.029,0.089-0.029h0.029l0.178-0.03l0.148,0.059l0.059,0.089l-0.118,0.089l-0.118,0.029l-0.089,0.03l-0.532,0.03
		l-0.119,0.088l-0.088,0.059l-0.06-0.059l-0.385,0.089l-1.006,0.326l-0.267,0.029l-0.177,0.03l-0.385,0.118l-0.267,0.03
		l-0.207,0.029h-0.06c-0.029,0.03-0.059,0.03-0.088,0.03h-0.06l-0.355,0.059l-0.443,0.089h-0.236
		c-0.355,0.03-0.651,0.089-0.858,0.059l-0.06,0.03l-0.059-0.03c-0.06,0-0.089-0.029-0.118-0.029h-0.089l-0.089-0.119l-0.03-0.089
		v-0.059l-0.029-0.029v-0.03c-0.059-0.089-0.059-0.266-0.029-0.414l0.029-0.207L131.522,24.35z"/>
	<path d="M152.674,26.303l-0.266,0.089l-0.178,0.207l-0.089,0.118l-0.296,0.089l-0.474,0.207l-0.385,0.207l-0.178,0.03l-0.088,0.03
		l-0.089,0.088v0.06l-0.03-0.03v-0.03h-0.118l-0.354,0.178l-0.267,0.029c-0.06,0-0.089,0.03-0.148,0.03l-0.207,0.03l-0.532-0.03
		l-0.267-0.296l-0.029-0.059l-0.207-0.296l-0.236-0.444l0.029-0.148l-0.148-0.296l0.089-0.769c-0.029-0.326,0.089-0.533,0.119-0.888
		v-0.118l0.059-0.178l-0.029-0.03v-0.562l0.178-0.533l0.029-0.207l0.06-0.236l0.029-0.089l0.059-0.089l0.03-0.059
		c0-0.03,0.029-0.03,0.029-0.03l-0.029-0.177l0.029-0.119l0.118-0.177l0.237-0.622l0.029-0.148l0.029-0.118l0.06-0.119l0.029,0.03
		l0.148-0.296l0.029-0.089v-0.029l0.029-0.148l0.06-0.119l0.059-0.059l0.03-0.059l-0.06-0.059l0.089-0.148v-0.089l0.118-0.296
		l-0.118-0.385l-0.029-0.118l-0.119-0.296l-0.088-0.118c-0.03,0-0.06-0.03-0.06-0.059l-0.148-0.237l-0.591,0.651l-0.444,0.592
		l-0.681,0.503l-0.474,0.414l-0.266,0.267l-0.06,0.088l-0.059,0.03l-0.858,0.858l-0.089,0.03l-0.296,0.296l-0.147,0.118
		c-0.237,0.178-0.444,0.385-0.651,0.562l-0.236,0.355l-0.207,0.267l-0.385,0.237l-0.325,0.355l-0.178,0.118l-0.237,0.178
		l-0.325,0.177l-0.147,0.119l-0.207,0.147l-0.267,0.148l-0.858,0.562l-0.029,0.059l-0.029,0.089h-0.089l-0.237,0.118l-0.059-0.029
		c-0.828,0.503-1.687,0.858-2.456,0.858c-0.178,0-0.739-0.296-0.77-0.296c-0.029-0.089-0.059-0.119-0.059-0.178h-0.029l-0.207-0.355
		l-0.03-0.533l0.06-0.384l0.118-0.296l0.207-0.326l0.029-0.177l0.178-0.207l0.325-0.681V22.9l0.119-0.208l0.562-0.532l0.178-0.178
		l0.029-0.325l0.06-0.089l0.147-0.118l1.302-1.154h0.03c0.354-0.355,0.739-0.71,1.095-1.006l0.029-0.029l0.267-0.237l0.177-0.089
		l0.415-0.296l0.147-0.148l0.178-0.118l0.267-0.148l0.325-0.148l0.325-0.296l0.06-0.03h0.059c0.326-0.177,0.681-0.355,1.065-0.503
		l0.089-0.089l0.089-0.059h0.118l0.325-0.118l0.325-0.237l0.119-0.029h0.207c0.178-0.06,0.354-0.119,0.532-0.208
		c0.385-0.118,0.828-0.059,1.272,0.03h0.207l0.207,0.089h0.207c0.06,0,0.089,0.029,0.118,0.089l0.267,0.621l0.118-0.148l0.029-0.207
		l0.267-0.059l0.681-0.651l0.147-0.237l0.208-0.089l0.71-0.681l0.384-0.503l0.504-0.503l0.503-0.562l0.621-0.651l0.799-0.917v-0.03
		h0.029l0.503-0.592l0.355-0.473l0.236-0.326l0.148-0.118l0.088-0.207l0.326-0.355V9.941l0.207-0.119l0.089-0.207l0.296-0.325
		l0.621-0.74l0.118-0.148l0.029-0.059h0.03l0.592-0.77l0.118-0.177l0.118-0.119L158,7.16l0.207-0.267V6.834l0.118-0.059l0.059-0.148
		l0.178-0.237l0.503-0.68l0.207-0.237l0.119-0.178l0.503-0.651l0.147-0.207l0.532-0.651l0.355-0.355l0.147-0.178V3.195l0.444-0.592
		l0.089-0.266l0.089-0.178l0.354-0.177l0.089-0.148l0.06-0.059V1.627l0.059-0.089V1.479l0.089-0.148v-0.03l0.06,0.03l0.118-0.119
		h0.06V1.184l0.177-0.148l0.207-0.059l0.119-0.059l0.059,0.029l0.207-0.059l0.03-0.03h0.147l0.089,0.03l0.236,0.03l0.148,0.266
		l0.089,0.177l-0.355,0.622l-0.385,0.473h0.03l0.207,0.089l0.059,0.207l-0.236,0.237l-0.325,0.385L162.94,3.61l-0.089,0.029
		l-0.059,0.089l-0.118-0.03l-0.415,0.119l-0.384,0.118h-0.06l-0.385,0.474l-0.236,0.236l-0.178,0.296l-0.355,0.119l-0.473,0.503
		l-0.237,0.325l-0.089,0.059l-0.177,0.237l-0.237,0.207l-0.739,1.006l-0.414,0.591l-0.444,0.533l-0.029,0.089l-0.296,0.562
		l-0.148,0.148l-0.118,0.207l-0.207,0.326l-0.029-0.03l-0.207,0.326l-0.148,0.355l-0.059,0.118l-0.089,0.089l-0.74,0.977v0.059
		h-0.029l-0.236,0.296v0.089l-1.036,1.361l-0.118,0.118l-0.562,0.77v0.029h-0.029c-0.799,1.125-1.42,2.071-1.716,2.515v0.029
		l-0.06,0.059l-0.089,0.119l-0.088,0.148v0.029l-0.06,0.03c-0.414,0.651-0.799,1.302-1.154,2.012l-0.029,0.03
		c-0.029,0.059-0.059,0.089-0.059,0.118h0.029v0.06l-0.06,0.088l0.03,0.119l-0.06,0.296l0.06,0.059l-0.089,0.059l0.029,0.03
		l-0.089,0.059v0.148l-0.147,0.414H150.1l-0.029,0.059l-0.178,0.237l-0.029-0.03h-0.118l-0.089,0.148l-0.267,0.71h-0.029
		l-0.089,0.236l-0.06,0.474l-0.177,0.444l-0.089,0.562l-0.118,0.562l-0.119,0.237l-0.059,0.148c0,0.118-0.029,0.237,0,0.326
		c-0.06,0.917,0.207,1.42,0.621,1.657l0.236,0.059l0.03,0.03c0.118,0.029,0.236,0.059,0.354,0.059l0.207-0.089l0.415-0.089
		l0.059-0.059l0.325-0.177l0.178-0.03h0.296h0.118c0.651-0.266,1.302-0.651,1.864-1.006l0.385-0.267l0.207-0.118l0.06-0.03
		l0.029-0.059l0.059-0.059l0.208-0.148l0.295-0.148l0.355-0.207l0.77-0.621l0.325-0.148l0.474-0.385l0.147-0.119l0.444-0.325
		l0.147-0.059l0.148-0.119l0.385-0.266v-0.03l0.088-0.059l0.415-0.414l0.296-0.118l0.266-0.148l0.03-0.03l0.769-0.622l0.06-0.059
		l0.354-0.236l0.06-0.089l0.029-0.03h0.089l0.06-0.059l0.059-0.118l0.089-0.06h0.089l0.029-0.029h0.178l0.118,0.207l-0.088,0.118
		l-0.148,0.03c-0.029,0-0.029,0.03-0.029,0.03h-0.03l-2.041,1.627l-0.089,0.148l-0.089,0.059l-0.147,0.089l-0.118,0.059
		c-0.504,0.385-1.007,0.74-1.51,1.095l-0.473,0.326l-0.03,0.059l-0.147,0.059l-0.178,0.207l-0.178,0.06l-1.716,1.154l-0.147,0.148
		l-0.385,0.266l-0.03,0.03h-0.059l-0.178,0.118l-0.029,0.089l-0.089,0.029l0.118-0.029v0.089l-0.118,0.118h-0.118l0.029-0.148
		l-0.029,0.03L152.674,26.303z M140.07,21.658l-0.296,0.325l-0.267,0.237l-0.147,0.385l-0.237,0.207l-0.178,0.296l-0.088,0.414
		l0.029,0.355l-0.06,0.089v0.118l-0.207,0.326l-0.059,0.355l-0.03,0.474l0.03,0.355l0.029,0.088l0.059,0.06l0.178,0.029h0.148
		l0.147-0.059c0.089-0.059,0.207-0.089,0.296-0.118l0.237-0.237l0.266-0.178l0.207-0.118l0.385-0.118l0.355-0.178
		c0.029,0,0.059-0.03,0.089-0.059c0.473-0.296,0.917-0.592,1.302-0.888l0.029-0.059l0.355-0.237
		c0.088-0.059,0.177-0.118,0.266-0.207l0.237-0.207l0.118-0.178l0.443-0.414l0.207-0.178l0.089-0.148l0.118-0.029l0.444-0.237
		c0.65-0.592,1.36-1.302,2.278-2.16l0.621-0.562l0.029-0.088l0.474-0.503l0.267-0.296v0.059l0.207-0.119l0.178-0.325l0.207-0.296
		l-0.178-0.385l-0.267-0.266l-0.118-0.059l-0.06-0.059c-0.68-0.148-1.627,0.118-2.366,0.443l-0.533,0.296l-0.236,0.089l-0.207,0.059
		c-0.06,0.03-0.148,0.089-0.178,0.089c-0.77,0.414-1.302,0.533-2.692,1.716l-0.385,0.414l-0.267,0.385l-0.295,0.266v0.059
		l-0.03,0.089l-0.266,0.177l-0.208,0.208l-0.236,0.266l-0.118,0.118h-0.029v0.089L140.07,21.658z M149.538,18.255l0.029,0.03
		l0.06,0.089l0.147,0.148l0.06,0.148l0.177,0.029l0.06,0.089v0.03l0.236-0.237v-0.059h0.03l0.029-0.089h0.029v0.059h0.03
		l0.177-0.325l0.03-0.06l0.059-0.147l0.089-0.119l0.029-0.296l0.089-0.059l0.089-0.148l0.178-0.089l0.089-0.177l0.029-0.03
		l0.325-0.533V16.48l0.148-0.237l0.236-0.355l0.089-0.089c0.503-0.74,1.006-1.479,1.539-2.189c-0.651,0.651-1.539,1.568-2.367,2.456
		l-0.414,0.532l-0.207,0.178h-0.06l-1.124,1.243C149.449,18.107,149.479,18.196,149.538,18.255z"/>
	<path d="M220.156,1.45l0.681,0.119c0.325,0.059,0.681,0.118,1.006,0.207l0.178-0.03l0.207,0.059l0.059,0.089
		c0.681,0.207,1.361,0.503,2.013,0.77h0.236l0.118,0.029l0.207,0.03l0.118,0.029l0.178-0.059h0.06l0.147,0.207l0.178,0.119
		l0.267,0.207c0.029,0.029,0.059,0.029,0.089,0.029c0.059,0.03,0.088,0.089,0.088,0.119l0.415,0.325l0.029,0.207l-0.236-0.029
		l-0.237-0.207l-0.385-0.207l-2.899-1.006h-0.178l-0.236-0.148c-0.118-0.059-0.267-0.088-0.385-0.118h-0.059l-0.03-0.03
		c-0.059,0-0.089-0.029-0.147-0.029h-0.029l-0.178-0.03h-0.089l-0.06-0.059l-0.532-0.148c-0.681-0.118-1.391-0.266-2.13-0.385
		l-0.178,0.03h-0.267l-0.118,0.03l-0.118-0.03l-0.444-0.178c-0.532-0.088-1.095-0.148-1.627-0.207l-0.029,0.089l-0.089-0.059
		l-0.03-0.03l-1.981-0.177l-0.651,0.088h-0.147l-1.065-0.118h-0.178V0.917h-0.325l-0.503-0.03h-0.06l-0.089-0.03l-0.621-0.059
		c-0.207,0-0.414-0.029-0.621-0.029h-0.118c-0.119,0-0.237-0.03-0.326-0.03h-0.65l-0.029,0.059l-0.326-0.029l-0.059-0.03
		c-0.207,0-0.414-0.03-0.622-0.03l-0.029,0.03l-0.118-0.089l-0.148,0.03l-0.088,0.089l-0.089,0.059l-0.06,0.029h-0.06l-0.177-0.029
		h-0.326l-0.236-0.03l-0.296-0.089l-0.236,0.06h0.029l-0.029,0.118l-0.296,0.059l-0.474,0.03l-0.325-0.03l-0.237-0.089l-0.296-0.088
		h-0.799l-0.236-0.03l-0.207-0.03h-2.189l-0.503,0.03h-0.236l-0.296,0.059h-0.533l-0.266-0.059l-0.267,0.03l-0.178,0.059
		l-0.296-0.089c-0.178,0-0.385,0.03-0.562,0.03l-0.118,0.029l-0.296,0.059l-0.207-0.029l-0.147,0.059h-0.296l-0.148,0.059
		l-0.207-0.089h-0.147l-0.799,0.06c-0.118,0.029-0.207,0.029-0.326,0.029l-0.296,0.059l-0.503,0.089h-0.473l-1.095,0.148
		l-0.355,0.148l-0.532,0.059l-0.118-0.029h-0.178c-0.118,0.029-0.237,0.059-0.355,0.059l-0.089,0.059l-0.325,0.03l-0.385,0.118
		l-0.592,0.03l-0.443,0.088l-0.029,0.03l-0.089,0.059l-0.858,0.089h0.029l-0.354,0.059l-0.71,0.178l-0.503,0.029h-0.089
		l-0.533,0.089l-0.029,0.03l-0.562,0.088l-0.088,0.03v-0.03c-0.03,0-0.06,0.03-0.06,0.03l-0.118,0.03l-0.267,0.029v0.03h-0.059
		l-0.385,0.089l-0.207,0.059l-0.089,0.029h-0.118l-0.089,0.03l-0.415,0.059l-0.088,0.059l-0.208,0.03l-0.207,0.059l-0.532,0.059
		l-0.474,0.237l-0.236,0.059l-0.148,0.03l-0.059-0.03h-0.06l-0.267,0.03l-0.236-0.089l-1.45,0.326
		c-0.562,0.236-1.183,0.414-1.745,0.562l-0.06,0.059l-0.118,0.148h-0.089l-0.059,0.03l-0.326,0.059l-0.68,0.118l-0.385,0.059
		l-0.917,0.267c-0.651,0.236-1.095,0.503-1.687,0.769c-0.562,0.355-1.095,0.592-1.687,0.917h-0.03
		c-0.354,0.088-0.71,0.591-1.035,0.71c-0.118,0.059-0.207,0-0.267-0.059l-0.089,0.177l-0.059,0.355l-0.06,0.089l-0.178,0.03
		l-0.118,0.118l-0.325,0.059l-0.089,0.059l-0.059,0.06l-0.918,0.769l-0.443-0.237V8.639l-0.06-0.207l0.03-0.148
		c-0.03-0.029-0.03-0.118,0.029-0.207V7.959l0.029-0.296h0.029l0.296-0.296h-0.088V7.249l0.207-0.208l0.266-0.355l0.267-0.236h0.089
		l0.029-0.06l0.178-0.088l0.178-0.119l-0.03-0.118l0.089,0.059l0.326-0.237l0.059,0.059l0.178,0.03l0.147-0.148l0.178,0.089
		l0.089,0.059l0.207-0.148l0.267-0.03l0.178-0.088l0.147-0.207l0.236-0.237l0.355-0.119l0.651-0.059
		c0.118-0.059,0.236-0.118,0.354-0.148l0.296-0.148l0.474-0.148l0.621-0.207l0.296-0.177h0.236l0.74-0.237l0.236-0.178l0.267-0.059
		l0.029,0.059l0.178-0.089l0.267-0.177l0.385-0.148h0.059V3.373h0.178l0.147-0.089V3.225h0.06v0.029l0.325-0.059l0.06,0.03h0.118
		l0.178-0.059l0.089,0.059h0.177l0.178-0.03h0.148l0.325-0.118l0.089-0.059l0.296-0.089l0.325-0.059l0.503-0.03
		c0.888-0.177,1.657-0.296,2.278-0.444l0.414-0.089l0.207-0.059l1.568-0.296l0.414-0.029l0.089-0.03l1.539-0.325l0.443-0.03
		l0.355-0.059v0.029l0.178-0.059l0.739-0.089l0.799-0.236l0.355-0.06l0.503-0.059l0.621-0.029l0.385-0.059l0.354-0.089l1.332-0.03
		h0.118c0.178,0,0.385-0.029,0.562-0.059l0.415-0.148l0.029-0.118l0.178,0.029l0.236,0.148c0.118,0,0.207,0,0.325-0.029l0.148-0.03
		l0.474-0.089l0.147-0.029h0.267l0.089,0.059l1.863-0.148l0.089-0.03l0.414-0.059l0.178-0.03l0.444,0.06
		c0.088,0,0.147-0.03,0.236-0.03h0.06l2.277-0.089l0.119-0.029h0.207l0.354-0.06h0.178L202.227,0h0.148l0.354,0.118h0.355
		l0.118,0.03h0.946l0.03-0.03l0.296-0.029l0.414-0.03l0.296-0.029l0.473,0.118h1.332l0.089-0.03l0.029-0.059l0.029,0.03v0.029h0.148
		v0.03l1.302,0.059l0.207-0.089l0.355-0.059l0.443,0.089l0.474-0.089h0.207l0.296,0.059l0.354,0.06l0.207,0.029h0.237l0.592,0.178
		c0.236,0,0.473,0.029,0.71,0.059l0.089-0.03l0.059-0.059l0.089,0.089l1.302,0.118l1.509,0.178l0.178-0.03l0.237,0.06l0.147,0.029
		l0.474,0.089h0.266l0.03,0.03l0.207,0.029l0.414,0.03h0.148l0.118,0.118l0.828,0.148l0.207-0.03l0.236,0.06l0.385,0.088l0.503,0.03
		L220.156,1.45z M180.864,24.439l-0.029,0.088l-0.207,0.267l-0.059,0.118l-0.089,0.237l-0.089,0.148l-0.385,0.71l-0.296,0.621
		l-0.325,0.444l-0.119,0.06l-0.296,0.532l0.03,0.03h-0.03c-0.118,0.207-0.207,0.414-0.325,0.621l-0.029,0.148l-0.532,1.184
		l0.029,0.03l-0.06,0.029l-0.207,0.355l0.029,0.119l-0.799,1.687l-0.118,0.088l-0.059,0.06c-0.089,0.177-0.148,0.355-0.178,0.532
		c-0.029,0.03-0.089,0.089-0.118,0.089l-0.03,0.178l-0.059,0.148l-0.029,0.029l-0.208-0.148l0.03-0.118l0.178-0.207h-0.03
		l0.355-1.125l0.443-1.006h-0.029l0.029-0.119v-0.029l0.089-0.296c0.089-0.118,0.207-0.148,0.267-0.089
		c0.503-1.213,1.006-2.485,1.627-3.639l0.414-0.947l0.148-0.148c0.118-0.266,0.266-0.533,0.474-0.769l0.266-0.562l0.237-0.295
		l0.059-0.326l0.681-1.006l0.089-0.296l0.385-0.592l0.267-0.414l0.532-0.385l0.681-0.977l-0.06-0.059l0.118-0.118l0.208-0.178
		l0.059-0.118l0.355-0.503l0.118-0.326l0.621-0.888l0.207-0.325l0.681-1.036l0.443-0.533l0.119-0.236l0.059-0.06l0.296-0.473v-0.03
		l0.029-0.029l0.237-0.355l0.089-0.474l0.118-0.177l0.207-0.178l0.236-0.089l0.06-0.236l0.06-0.089V12.87l-0.03-0.088l0.118-0.119
		l0.03-0.148l0.118-0.148l-0.06-0.059h0.089l0.207-0.207l0.03,0.059v-0.029l0.236-0.237l0.178-0.296l1.006-1.302l0.354-0.917
		l0.267-0.651l0.267-0.621l0.325-0.355l0.148-0.06l0.147-0.177l0.503-0.651l0.74-0.326l0.147,0.178l0.06,0.118l0.088-0.029
		l0.178-0.119h0.089v0.03l0.267-0.03l0.029-0.029l0.148-0.03h0.207l0.147,0.118l0.06,0.208l-0.148,0.236l-0.266,0.385l-0.119,0.237
		l-0.059,0.029l-0.029,0.089L193.055,7.9h-0.178l-0.236,0.088l-0.267,0.03l-0.118,0.059l-0.325,0.592l-0.296,0.385l-0.06,0.089
		h-0.029l-0.858,1.243l-0.207,0.118l-0.562,0.769l-0.03,0.178l-0.029,0.503l-0.178,0.237l-0.236,0.444l-0.118,0.059l-0.119,0.118
		h-0.088l-0.089,0.059l-0.178,0.06l-0.118,0.148l-0.089,0.207l-0.385,0.503l-0.178,0.473l-0.178,0.148l-0.147,0.207l-0.148,0.178
		l-0.088,0.089l-0.533,0.71l-0.029,0.089l-0.089,0.177l-0.118,0.178l-0.06,0.118l-0.118,0.059l-0.089,0.119h-0.029l-0.888,1.213
		l-0.089,0.267l-0.118,0.236l-0.178,0.267l-0.207,0.325l-0.236,0.266l-0.089-0.029l-0.326,0.829L184.061,20l-0.178-0.059
		l-0.592,0.917h0.029l-0.118,0.118l-0.029,0.237l-0.06,0.029l-0.118,0.178l-0.089,0.089l-0.118,0.148l-0.118,0.177l-0.178,0.237
		l-0.178,0.266l-0.178,0.089l-0.591,0.947v0.03l-0.148,0.266l-0.029,0.03L180.864,24.439z"/>
	<path d="M202.755,22.723l0.029-0.059l0.06-0.089l0.532-0.651l0.119-0.237l0.088-0.088l0.03-0.06l0.089-0.059l0.354-0.385
		l0.118-0.148v-0.059l0.03,0.03l0.089-0.296l-0.03-0.03l-0.147-0.029h-0.267l-0.354,0.089l-0.858,0.325l-0.207,0.059l-0.148,0.03
		l-0.857,0.533h-0.03l-0.236,0.148l-0.207,0.088l-0.207,0.119l-0.681,0.325l-0.681,0.385l-0.266,0.118l-0.444,0.237l-0.147,0.059
		l-0.355,0.207l-0.178,0.06l-0.532,0.325l-0.178,0.118l-0.178,0.148l-0.266,0.089l-0.267,0.119l-0.71,0.384l-0.06,0.059
		l-0.296,0.178h-0.059v0.03h-0.267l-0.354,0.148h-0.237c-0.089,0.059-0.207,0.088-0.296,0.118l-0.118,0.089l-0.592,0.207
		l-0.118,0.03l-0.444,0.177l-0.059,0.03l-0.089,0.029h-0.089l-0.178-0.029h-0.029c-0.474,0.059-0.858-0.03-0.977-0.355
		c-0.118-0.385,0-0.829,0.207-1.302l0.118-0.355l0.089-0.029l0.03-0.119l0.118-0.177l0.059-0.119l0.06-0.029v0.029l0.06-0.148
		l0.207-0.296l0.325-0.236l0.06-0.059l0.236-0.385l0.118-0.148l0.236-0.178l0.355-0.296l1.331-1.183v-0.03h0.03l0.385-0.325
		l0.088-0.089l0.503-0.415l0.237-0.148l0.77-0.562l0.029-0.029l0.354-0.385l0.148-0.148l0.118-0.207l0.06-0.03l0.207,0.03
		l0.089-0.059l0.207-0.06l0.118-0.029l0.147-0.03l0.119-0.089v-0.059l0.236-0.089l0.946-0.473l0.178-0.148l0.118-0.059l0.237-0.059
		l0.059,0.029l0.06-0.029l0.267-0.089h0.089l0.147-0.089l0.207-0.03l0.178-0.059l0.207-0.059l0.118-0.03l0.296,0.089l0.178-0.029
		h0.178l0.118,0.029h0.059v0.03h0.119l0.089,0.059l0.029,0.059l0.118,0.03l0.06,0.148v0.266l-0.089,0.059
		c-0.03,0.089-0.118,0.148-0.326,0.355c-0.088,0.06-0.177,0.03-0.207,0l-0.325,0.089l-0.207,0.03h-0.532l-0.474-0.059v0.029h-0.118
		v-0.029h-0.06l-0.207,0.029h-0.207l-0.414,0.178l-0.474,0.207l-0.681,0.296l-0.473,0.207c-0.178,0.089-0.326,0.207-0.503,0.326
		c-0.03,0.029-0.03,0.029-0.03,0l-0.266,0.207l-0.03,0.029l-0.059,0.03L196.098,20l-0.118,0.119l-0.267,0.296l-0.207,0.207
		l-0.207,0.118l-0.266,0.148l-0.089,0.089l-0.267,0.296l-0.06,0.059l-0.059,0.089l-0.355,0.444l-0.089,0.059l-0.059,0.059
		l-0.089,0.059l-0.06,0.119l-0.089,0.118h-0.059l-0.06,0.148l-0.118,0.148l-0.06,0.118l-0.147,0.148l-0.147,0.178l-0.296,0.355
		v0.059l0.029,0.178l-0.029,0.059v0.059l-0.06,0.059l-0.118,0.089l-0.089,0.119l-0.148,0.177l-0.118,0.178v0.059l-0.029,0.059v0.178
		l0.059,0.088l0.089,0.148l0.089,0.06l0.622-0.237l0.266-0.059l0.414-0.148h0.03l0.147-0.03c0.385-0.148,0.77-0.325,1.154-0.503
		l0.147-0.089l0.207-0.118l0.148-0.118h0.236c0.325-0.148,0.681-0.296,1.006-0.474l0.148-0.118l0.207-0.089v-0.03l0.059-0.029
		l0.089-0.089l0.118-0.03l0.444-0.207l0.236-0.118l0.207-0.119l0.799-0.414l0.207-0.148l0.829-0.385l0.178-0.059l0.532-0.266
		l0.267-0.207l0.532-0.267l0.147-0.118l0.237-0.148l0.147-0.118l0.355-0.237l0.385-0.237l0.917-0.207h0.354l0.267,0.059l0.207,0.119
		l0.118,0.088c0.119,0.03,0.178,0.089,0.237,0.207v0.03l0.059,0.03v0.118l-0.029,0.089h0.06l-0.03,0.059l-0.029-0.03l-0.06,0.06
		l-0.059,0.088l-0.06,0.119l-0.178,0.148c-0.029,0.059-0.088,0.118-0.147,0.177l-0.207,0.326l-0.178,0.148l-0.089,0.029
		l-0.354,0.415l-0.06,0.059v0.029l-0.06,0.03l-0.177,0.237l-0.06,0.089l-0.059,0.118l-0.237,0.325
		c-0.059,0.06-0.089,0.148-0.118,0.208l-0.089,0.236l-0.029,0.03c-0.06,0.118-0.089,0.237-0.06,0.296
		c0,0.089-0.029,0.03,0.089,0.059c0.029,0,0.06,0.03,0.089,0.03l0.147-0.03h0.208l0.059-0.029h0.207l0.148-0.03l0.059,0.03
		c0.207-0.03,0.385-0.089,0.651-0.148l0.236-0.06l0.207-0.088h0.178l1.035-0.296l0.089-0.06l0.326-0.088v0.029l0.384-0.118
		l0.237-0.118l0.118-0.03l0.118-0.089l0.977-0.266v-0.059l0.089,0.059l0.267-0.089l0.088-0.089l1.421-0.414h0.147l0.74-0.237
		c0.029,0,0.059,0,0.088,0.03h0.06l0.029,0.207l-0.118,0.089h-0.236l-0.503,0.118l-0.355,0.178h-0.118l-0.474,0.118l-0.236,0.089
		l-0.681,0.325l-0.503,0.207l-0.562,0.178l-0.65,0.237l-0.118,0.059l-0.296,0.118l-0.148,0.089l-0.236,0.089h-0.029l-0.208,0.089
		l-0.236,0.148l-0.089,0.029l-0.059,0.059l-0.77,0.267v0.059l-0.029-0.03l-0.237,0.089l-0.029,0.059l-0.503,0.178l-0.444,0.148
		l-0.147,0.118l-0.029,0.03l-0.03-0.059l-0.089,0.029l-0.059,0.059l-0.06-0.029l-0.029,0.029l-0.207,0.06h-0.325l-0.06-0.03h-0.207
		l-0.148-0.059l-0.118-0.059l-0.089-0.119l0.03-0.148l-0.03-0.118c-0.029-0.118-0.029-0.207,0.03-0.385l0.089-0.207l0.029-0.118
		l0.207-0.267l0.089-0.148l0.236-0.296L202.755,22.723z"/>
	<path d="M221.333,23.137v0.208l-0.118,0.177l-0.029,0.03l-0.06,0.207l0.029,0.059l-0.089,0.148
		c-0.029,0.118-0.029,0.237-0.029,0.355l0.029,0.178l0.089,0.118l0.119,0.148l0.147,0.089l0.148,0.059
		c0.118,0,0.207-0.03,0.325-0.059l0.236-0.089l0.06-0.059h0.089l1.064-0.562l0.118-0.03l0.148-0.059l1.065-0.71
		c0.029,0,0.059-0.03,0.089-0.03l0.592-0.414l0.088-0.119h0.119l0.177-0.148l0.355-0.177l0.443-0.326l0.089-0.089l0.296-0.177
		l0.03-0.03l0.473-0.414c0.03-0.03,0.06-0.03,0.089-0.03l0.06-0.059l0.118-0.059l0.118,0.148v0.118l-0.089,0.06l-0.266,0.148
		l-0.415,0.266l-0.118,0.118l-0.354,0.267c-0.296,0.266-0.681,0.562-1.065,0.828l-0.267,0.237h-0.089l-0.147,0.118l-0.089,0.119
		l-0.06,0.029l-0.088,0.148l-0.178,0.119l-0.118,0.059l-0.178,0.148l-0.089,0.089l-0.296,0.177l-0.118,0.118l-0.178,0.06
		l-0.236,0.059l-0.06,0.059l-0.296,0.148l-0.474,0.355l-0.089,0.059l-0.177,0.148l-0.089,0.06h-0.06l-0.089,0.059l-0.236,0.118
		L221.6,25.77l-0.296,0.03c-0.178,0.059-0.296,0.118-0.385,0.118s-0.178,0-0.236-0.029l-0.178,0.029l-0.148-0.118l-0.059-0.089
		c0-0.03-0.03-0.03-0.03-0.03l-0.177-0.236v0.029l-0.119-0.177l0.03-0.562l0.029-0.532l0.029-0.207l-0.029-0.237l0.029-0.059
		l0.178-0.089l0.06-0.118l0.118-0.148l0.029-0.119l0.178-0.207l0.06-0.118l0.059-0.089l0.06-0.355l0.207-0.385
		c0.118-0.444,0.354-0.947,0.503-1.391l0.118-0.473c0.207-0.355,0.355-0.622,0.325-1.036l0.03-0.059l0.029-0.208l-0.148-0.147
		c-0.207,0-0.473,0.088-0.799,0.236l-0.443,0.237l-0.207,0.059l-0.325,0.178l-0.237,0.177l-0.059,0.06l-0.237,0.118L219.351,20
		l-0.562,0.267l-0.148,0.059c-0.147,0.059-0.267,0.148-0.354,0.207l-0.089,0.089l-1.568,0.858l-0.148,0.207h-0.147l-0.089,0.148
		l-0.118,0.119l-0.207,0.236l-0.296,0.06l-0.474,0.443l-0.946,0.799l-0.77,0.651l-0.71,0.503l-0.148,0.088l-0.207,0.119
		l-0.178,0.177v0.089l-0.177-0.059l-0.474,0.237l-0.325,0.207l-0.296,0.059l-0.533,0.03l-0.118,0.118h-0.207l-0.147-0.148
		l-0.06-0.266l0.06-0.385l0.147-0.444l0.06-0.207l0.236-0.414l0.147-0.267l0.178-0.444l0.03-0.059l0.088-0.148l0.089-0.237
		l0.03-0.295l0.089-0.355l0.266-0.384l0.118-0.444l0.089-0.207l0.148-0.237l0.207-0.296l0.118-0.178l0.118-0.207l0.474-0.592
		l0.236-0.473l0.03-0.119l0.029-0.029l0.029-0.089l0.089-0.029l0.355-0.474l0.059-0.089l0.06-0.118h0.029l0.414-0.651l0.089-0.178
		l0.148-0.177l0.207-0.296l0.118-0.296l0.118-0.178l0.325-0.325c0.148-0.237,0.296-0.474,0.474-0.71l0.503-0.887l0.207-0.148
		c0.533-0.77,1.095-1.539,1.657-2.308l0.089-0.118l0.059-0.118l0.119-0.267l0.236-0.207l0.178-0.296l0.118-0.207l0.029-0.207
		l0.089-0.059l0.267-0.237L219.055,10l0.118-0.207l0.237-0.533l0.147-0.266l0.178-0.237l0.207-0.237l0.267-0.533l0.029-0.118
		l0.06-0.148l0.089-0.089V7.544l0.147-0.266l0.029-0.029h0.03l0.089-0.148l0.088-0.119l0.06-0.029l0.029-0.06l0.207-0.295
		l0.208-0.267l0.118-0.177l0.059-0.03l-0.029,0.059l0.029-0.029v-0.03l0.089-0.207l0.03-0.119l0.207-0.177l0.088-0.178l0.089-0.118
		l0.06-0.089l0.355-0.444l0.147-0.266l0.118-0.266l0.06-0.119l0.059-0.177l0.089-0.119l-0.029-0.177l0.029-0.089l0.237-0.059
		l0.354-0.296l0.148-0.237l0.414-0.355l0.178-0.237l0.118-0.177V2.101l0.118-0.089l0.029,0.178l0.237-0.266l0.236-0.119l0.236,0.237
		l0.089,0.385l-0.443,1.095l-0.71,0.947l-0.267,0.296l-0.65,0.621l-0.326,0.237L221.6,7.397l0.029,0.029l-0.147,0.237l-0.207,0.355
		l-0.148,0.266l-0.178,0.178l-0.266,0.237l-1.154,1.568v0.119l-0.267,0.414l-0.118,0.207l-0.147,0.118l-0.178,0.237l-0.267,0.414
		l-0.71,0.829l-0.029,0.207l-0.444,0.444l-0.266,0.355l-0.06,0.178l-0.414,0.562l-0.296,0.503l-0.236,0.207l-1.361,2.012
		c-0.267,0.414-0.532,0.828-0.828,1.243l-0.03,0.118l-0.059,0.059l-0.089,0.119c-0.296,0.443-0.592,0.887-0.858,1.361l-0.029,0.059
		l-0.06,0.03l-0.266,0.473v0.237l-0.296,0.592l-0.178,0.532l-0.355,0.799l-0.207,0.533l-0.059,0.296l-0.207,0.414l-0.06,0.415
		l0.118,0.177l0.118,0.059h0.148l0.385-0.207l0.177-0.177l0.06-0.03l0.089-0.118l0.207-0.089l0.118-0.148l0.178-0.148l0.118-0.118
		l0.325-0.178l0.119-0.059l0.236-0.178l0.917-0.562l0.237-0.207l0.118-0.089l0.178-0.177l0.118-0.06l0.385-0.207l0.976-0.71
		l0.06-0.089l0.236-0.237l0.474-0.236l0.355-0.237l0.089-0.03c0.325-0.236,0.65-0.443,0.976-0.651l0.385-0.384l0.237-0.148
		l0.089-0.119l0.147-0.029l0.089-0.089l0.236-0.178l0.267-0.059l0.681-0.177h0.118c0.503-0.178,1.006-0.178,1.568,0.059
		c0.059,0.029,0.118,0.059,0.118,0.118l0.147,0.089l0.237,0.148l0.059,0.177l-0.029,0.237l-0.178,0.385l-0.029,0.03
		c-0.236,0.443-0.414,0.917-0.592,1.361c-0.089,0.325-0.267,0.621-0.414,0.947v0.266l-0.267,0.385L221.333,23.137z"/>
	<path d="M236.271,22.723l0.029-0.059l0.06-0.089l0.532-0.651l0.119-0.237l0.088-0.088l0.03-0.06l0.089-0.059l0.354-0.385
		l0.118-0.148v-0.059l0.03,0.03l0.089-0.296l-0.03-0.03l-0.147-0.029h-0.267l-0.354,0.089l-0.858,0.325l-0.207,0.059l-0.148,0.03
		l-0.857,0.533h-0.03l-0.236,0.148l-0.207,0.088l-0.207,0.119l-0.681,0.325l-0.681,0.385l-0.266,0.118l-0.444,0.237l-0.147,0.059
		l-0.355,0.207l-0.178,0.06l-0.532,0.325l-0.178,0.118l-0.178,0.148l-0.266,0.089l-0.267,0.119l-0.71,0.384l-0.06,0.059
		l-0.296,0.178h-0.059v0.03h-0.267l-0.354,0.148h-0.237c-0.089,0.059-0.207,0.088-0.296,0.118l-0.118,0.089l-0.592,0.207
		l-0.118,0.03l-0.444,0.177l-0.059,0.03l-0.089,0.029h-0.089l-0.178-0.029h-0.029c-0.474,0.059-0.858-0.03-0.977-0.355
		c-0.118-0.385,0-0.829,0.207-1.302l0.118-0.355l0.089-0.029l0.03-0.119l0.118-0.177l0.059-0.119l0.06-0.029v0.029l0.06-0.148
		l0.207-0.296l0.325-0.236l0.06-0.059l0.236-0.385l0.118-0.148l0.236-0.178l0.355-0.296l1.331-1.183v-0.03h0.03l0.385-0.325
		l0.088-0.089l0.503-0.415l0.237-0.148l0.77-0.562l0.029-0.029l0.354-0.385l0.148-0.148l0.118-0.207l0.06-0.03l0.207,0.03
		l0.089-0.059l0.207-0.06l0.118-0.029l0.147-0.03l0.119-0.089v-0.059l0.236-0.089l0.946-0.473l0.178-0.148l0.118-0.059l0.237-0.059
		l0.059,0.029l0.06-0.029l0.267-0.089h0.089l0.147-0.089l0.207-0.03l0.178-0.059l0.207-0.059l0.118-0.03l0.296,0.089l0.178-0.029
		h0.178l0.118,0.029h0.06v0.03h0.118l0.089,0.059l0.029,0.059l0.118,0.03l0.06,0.148v0.266l-0.089,0.059
		c-0.03,0.089-0.118,0.148-0.325,0.355c-0.089,0.06-0.178,0.03-0.208,0l-0.325,0.089l-0.207,0.03h-0.532l-0.474-0.059v0.029h-0.118
		v-0.029h-0.06l-0.207,0.029h-0.207l-0.414,0.178l-0.474,0.207l-0.681,0.296l-0.473,0.207c-0.178,0.089-0.326,0.207-0.503,0.326
		c-0.03,0.029-0.03,0.029-0.03,0l-0.266,0.207l-0.03,0.029l-0.059,0.03L229.614,20l-0.118,0.119l-0.267,0.296l-0.207,0.207
		l-0.207,0.118l-0.266,0.148l-0.089,0.089l-0.267,0.296l-0.06,0.059l-0.059,0.089l-0.355,0.444l-0.089,0.059l-0.059,0.059
		l-0.089,0.059l-0.06,0.119l-0.089,0.118h-0.059l-0.06,0.148l-0.118,0.148l-0.06,0.118l-0.147,0.148l-0.148,0.178l-0.295,0.355
		v0.059l0.029,0.178l-0.029,0.059v0.059l-0.06,0.059l-0.118,0.089l-0.089,0.119l-0.148,0.177l-0.118,0.178v0.059l-0.029,0.059v0.178
		l0.059,0.088l0.089,0.148l0.089,0.06l0.621-0.237l0.267-0.059l0.414-0.148h0.03l0.147-0.03c0.385-0.148,0.77-0.325,1.154-0.503
		l0.147-0.089l0.207-0.118l0.148-0.118h0.236c0.325-0.148,0.681-0.296,1.006-0.474l0.148-0.118l0.207-0.089v-0.03l0.059-0.029
		l0.089-0.089l0.118-0.03l0.444-0.207l0.236-0.118l0.207-0.119l0.799-0.414l0.207-0.148l0.829-0.385l0.178-0.059l0.532-0.266
		l0.267-0.207l0.532-0.267l0.147-0.118l0.237-0.148l0.147-0.118l0.355-0.237l0.385-0.237l0.917-0.207h0.354l0.267,0.059l0.207,0.119
		l0.118,0.088c0.119,0.03,0.178,0.089,0.237,0.207v0.03l0.059,0.03v0.118l-0.029,0.089h0.06l-0.03,0.059l-0.029-0.03l-0.06,0.06
		l-0.059,0.088l-0.06,0.119l-0.178,0.148c-0.029,0.059-0.088,0.118-0.147,0.177l-0.207,0.326l-0.178,0.148l-0.089,0.029
		l-0.354,0.415l-0.06,0.059v0.029l-0.06,0.03l-0.177,0.237l-0.06,0.089l-0.059,0.118l-0.237,0.325
		c-0.059,0.06-0.089,0.148-0.118,0.208l-0.089,0.236l-0.029,0.03c-0.06,0.118-0.089,0.237-0.06,0.296
		c0,0.089-0.029,0.03,0.089,0.059c0.029,0,0.06,0.03,0.089,0.03l0.147-0.03h0.208l0.059-0.029h0.207l0.148-0.03l0.059,0.03
		c0.207-0.03,0.385-0.089,0.651-0.148l0.236-0.06l0.207-0.088h0.178l1.035-0.296l0.089-0.06l0.326-0.088v0.029l0.384-0.118
		l0.237-0.118l0.118-0.03l0.118-0.089l0.977-0.266v-0.059l0.089,0.059l0.267-0.089l0.088-0.089l1.421-0.414h0.147l0.74-0.237
		c0.029,0,0.059,0,0.088,0.03h0.06l0.029,0.207l-0.118,0.089h-0.236l-0.503,0.118l-0.355,0.178h-0.118l-0.474,0.118l-0.236,0.089
		l-0.681,0.325l-0.503,0.207l-0.562,0.178l-0.65,0.237l-0.118,0.059l-0.296,0.118l-0.148,0.089l-0.236,0.089h-0.029l-0.208,0.089
		l-0.236,0.148l-0.089,0.029l-0.059,0.059l-0.77,0.267v0.059l-0.029-0.03l-0.237,0.089l-0.029,0.059l-0.503,0.178l-0.444,0.148
		l-0.147,0.118l-0.029,0.03l-0.03-0.059l-0.089,0.029l-0.059,0.059l-0.06-0.029l-0.029,0.029l-0.207,0.06h-0.325l-0.06-0.03h-0.207
		l-0.148-0.059l-0.118-0.059l-0.089-0.119l0.03-0.148l-0.03-0.118c-0.029-0.118-0.029-0.207,0.03-0.385l0.089-0.207l0.029-0.118
		l0.207-0.267l0.089-0.148l0.236-0.296L236.271,22.723z"/>
	<path d="M244.346,22.19l0.089-0.148l0.029-0.029l0.178-0.296l0.207-0.355l0.325-0.474l0.089-0.177l0.621-0.858l0.148-0.237
		l0.089-0.119l0.354-0.621l0.296-0.474l0.267-0.443l0.118-0.355v-0.177h-0.06v-0.059l0.06-0.06l-0.06-0.473l0.06-0.562l0.06-0.178
		l0.236-0.681l0.532-0.355L248.311,15l0.295,0.178l0.06,0.177v0.237l0.118-0.059l-0.059,0.089h-0.06l-0.06,0.059l-0.059,0.177
		c0,0.03,0.029,0.06,0.029,0.089c-0.059,0.355-0.266,0.71-0.443,1.036l-0.148,0.799l-0.236,0.325l-0.178,0.119l-0.296,0.414
		l-0.178,0.355l-0.147,0.267l-0.118,0.296l-0.237,0.177l-0.059,0.119l-0.06,0.177v0.059l-0.118,0.059l-0.621,0.858l-0.06,0.236
		l-0.354,0.444l-0.178,0.415l-0.621,0.976l-0.119,0.237l-0.325,0.473v0.03l-0.06,0.148l-0.059,0.03l-0.089,0.177l-0.118,0.267
		c0.147-0.119,0.207-0.237,0.325-0.355l0.089-0.118l0.029-0.03l0.089-0.177l0.178-0.118l0.089-0.089l0.178-0.207l0.177-0.119
		l0.267-0.266l0.148-0.089c0.384-0.355,0.769-0.74,1.183-1.095l0.148-0.177l0.059-0.089l0.267-0.178l0.178-0.148l0.474-0.325
		l0.089-0.089l0.68-0.444l0.148-0.059c0.267-0.119,0.503-0.267,0.739-0.385c0.178-0.089,0.622-0.266,0.977-0.237v-0.029l0.562,0.029
		l0.207,0.237l0.296,0.266l0.089,0.474v0.207l-0.03,0.296l-0.059,0.355l-0.029,0.207v0.237l-0.178,0.74v0.059l0.207,0.266
		l0.089,0.355l0.059,0.059l-0.059,0.059l-0.06,0.207v0.237l0.118,0.207l0.118,0.118l0.237,0.208c0.414,0.029,0.917-0.03,1.449-0.119
		l0.592-0.237l0.178-0.029l0.385-0.148l0.178-0.03l0.562-0.207l0.415-0.237l0.266-0.029l0.267-0.089l0.503-0.178
		c0.354-0.148,0.71-0.325,1.065-0.503l0.296-0.207l0.147-0.029l0.71-0.355l0.207-0.148l0.237-0.207l0.266-0.177l0.829-0.355
		l1.006-0.592l0.118-0.119l0.414-0.236h0.089v-0.06h0.089l0.267-0.177l0.059-0.059h0.178l0.089,0.118v0.118l-0.089,0.06
		l-0.148,0.059c-0.473,0.296-0.946,0.621-1.449,0.917l-0.237,0.237l-0.207,0.059l-0.207,0.119h-0.059l-0.355,0.236l-0.059,0.059
		l-0.119,0.03c-0.029,0-0.059,0.03-0.088,0.059l-0.06,0.059l-0.148,0.06h-0.029c-0.296,0.177-0.621,0.355-0.946,0.503l-0.474,0.266
		l-1.243,0.622l-0.118,0.029l-0.029,0.03l-0.385,0.325l-0.325,0.178l-0.414,0.059l-0.444,0.237l-0.207,0.089l-0.267,0.059
		l-0.354,0.059l-0.207,0.029l-0.118,0.06l-0.119,0.029l-0.088,0.03c-0.237,0.059-0.474,0.089-0.711,0.118l-0.384,0.03l-0.148,0.089
		l-0.118,0.029l-0.236-0.059l-0.178,0.059l-0.237-0.029h-0.059c-0.355,0.029-0.651-0.267-0.977-0.415
		c-0.178-0.088-0.325-0.207-0.385-0.384l-0.029-0.119c-0.029-0.148-0.029-0.296-0.029-0.473v-0.296l0.118-0.355l0.147-0.533h-0.029
		l0.059-0.059l0.296-1.065h-0.029l-0.059-0.059l0.118-0.207c0.059-0.444-0.03-0.799-0.414-0.888
		c-0.178-0.029-0.237-0.118-0.474-0.029l-0.296,0.148l-0.237,0.177c-0.029,0-0.029,0.03-0.059,0.03l-0.621,0.414l-0.06,0.089
		l-0.089,0.059l-0.474,0.474l-0.236,0.118l-0.06,0.178l-0.917,0.68l-0.118,0.03l-0.236,0.148l-0.118,0.029l-0.119,0.237
		l-0.236,0.178l-0.089,0.059l-0.236,0.148l-0.207,0.177l-0.119,0.089l-0.118,0.237l-0.296,0.237l-0.266,0.207
		c-0.444,0.444-0.858,0.888-1.332,1.332l-0.118,0.177l-0.029-0.03l-0.267,0.237c-0.029,0-0.029,0-0.06,0.03l-0.029,0.059
		l-0.089,0.03l0.03,0.059v0.059l-0.089-0.089l-0.089,0.119l-0.148,0.029l-0.236-0.089l-0.118-0.266v-0.592l0.207-0.503l0.147-0.178
		l0.296-0.295l0.355-0.178v-0.089h0.029l0.06,0.03v-0.119l0.089-0.059l0.118-0.236l0.147-0.385l0.148-0.178l0.059-0.148l0.444-0.651
		L244.346,22.19z"/>
</g>
</svg>