<!-- Generator: Adobe Illustrator 21.0.2, SVG Export Plug-In  -->
<svg version="1.1"
	 xmlns="http://www.w3.org/2000/svg" xmlns:xlink="http://www.w3.org/1999/xlink" xmlns:a="http://ns.adobe.com/AdobeSVGViewerExtensions/3.0/"
	 x="0px" y="0px" width="408.785px" height="408.788px" viewBox="0 0 408.785 408.788"
	 style="enable-background:new 0 0 408.785 408.788;" xml:space="preserve">
<style type="text/css">
	.st0{fill:#B2B2B2;}
</style>
<defs>
</defs>
<path class="st0" d="M353.699,0H55.085C24.663,0,0,24.662,0,55.085v298.616c0,30.423,24.662,55.085,55.085,55.085H202.36
	l0.251-146.078H164.66c-4.932,0-8.935-3.988-8.954-8.92l-0.182-47.087c-0.019-4.959,3.996-8.989,8.955-8.989h37.882v-45.498
	c0-52.8,32.247-81.55,79.348-81.55h38.65c4.945,0,8.955,4.009,8.955,8.955v39.704c0,4.944-4.007,8.952-8.95,8.955l-23.719,0.011
	c-25.615,0-30.575,12.172-30.575,30.035v39.389h56.285c5.363,0,9.524,4.683,8.892,10.009l-5.581,47.087
	c-0.534,4.506-4.355,7.901-8.892,7.901h-50.453l-0.251,146.078h87.631c30.422,0,55.084-24.662,55.084-55.084V55.085
	C408.784,24.662,384.122,0,353.699,0z"/>
</svg>