<svg xmlns="http://www.w3.org/2000/svg" viewBox="0 0 821.85 365.6"><defs><style>.cls-1{fill:#666;}.cls-2{fill:#a5a7aa;}.cls-3,.cls-4,.cls-5,.cls-6{fill:none;stroke:#a5a7aa;stroke-linecap:round;stroke-linejoin:round;}.cls-3,.cls-6{stroke-width:0.81px;}.cls-3{stroke-dasharray:0 1.63;}.cls-4{stroke-width:0.86px;stroke-dasharray:0 1.73;}.cls-5{stroke-width:0.91px;stroke-dasharray:0 1.82;}.cls-7{fill:#006e96;}</style></defs><title>Sinjaba Personality_1</title><g id="Layer_2" data-name="Layer 2"><g id="Layer_1-2" data-name="Layer 1"><path class="cls-1" d="M655.54,59.39a7.07,7.07,0,0,1-2.9.52c-3.1,0-5.43-2-5.43-5.56A5.47,5.47,0,0,1,653,48.58a5.9,5.9,0,0,1,2.6.49l-.34,1.16a5.16,5.16,0,0,0-2.21-.46c-2.58,0-4.29,1.65-4.29,4.53,0,2.69,1.55,4.42,4.22,4.42a5.62,5.62,0,0,0,2.31-.46Z"/><path class="cls-1" d="M664.22,55.74a3.85,3.85,0,0,1-3.92,4.19,3.75,3.75,0,0,1-3.78-4.06,3.85,3.85,0,0,1,3.91-4.19A3.74,3.74,0,0,1,664.22,55.74Zm-6.25.08c0,1.73,1,3,2.39,3s2.4-1.29,2.4-3.06c0-1.34-.67-3-2.37-3S658,54.32,658,55.82Z"/><path class="cls-1" d="M666,54.32c0-.93,0-1.73-.06-2.46h1.25l0,1.55h.07a2.36,2.36,0,0,1,2.18-1.73,1.7,1.7,0,0,1,.41,0v1.35a2.38,2.38,0,0,0-.49,0,2,2,0,0,0-1.92,1.84,3.45,3.45,0,0,0-.07.67v4.21H666Z"/><path class="cls-1" d="M671.43,54.43c0-1,0-1.82-.07-2.57h1.29l.06,1.35h0a3.09,3.09,0,0,1,2.8-1.53c1.91,0,3.34,1.61,3.34,4,0,2.83-1.73,4.24-3.59,4.24a2.76,2.76,0,0,1-2.42-1.24h0V63h-1.41Zm1.41,2.11a3.41,3.41,0,0,0,.07.58,2.2,2.2,0,0,0,2.15,1.68c1.52,0,2.4-1.24,2.4-3,0-1.58-.84-2.93-2.35-2.93a2.5,2.5,0,0,0-2.27,2.36Z"/><path class="cls-1" d="M687.84,55.74a3.85,3.85,0,0,1-3.93,4.19,3.75,3.75,0,0,1-3.78-4.06A3.85,3.85,0,0,1,684,51.68,3.74,3.74,0,0,1,687.84,55.74Zm-6.26.08c0,1.73,1,3,2.39,3s2.4-1.29,2.4-3.06c0-1.34-.67-3-2.36-3S681.58,54.32,681.58,55.82Z"/><path class="cls-1" d="M689.64,54.32c0-.93,0-1.73-.06-2.46h1.25l0,1.55H691a2.37,2.37,0,0,1,2.18-1.73,1.7,1.7,0,0,1,.41,0v1.35a2.31,2.31,0,0,0-.49,0,2,2,0,0,0-1.92,1.84,4.45,4.45,0,0,0-.07.67v4.21h-1.42Z"/><path class="cls-1" d="M699.26,59.75l-.11-1h0a2.94,2.94,0,0,1-2.41,1.18,2.26,2.26,0,0,1-2.42-2.27c0-1.91,1.7-2.95,4.75-2.93v-.17a1.63,1.63,0,0,0-1.8-1.82,3.9,3.9,0,0,0-2.05.59l-.33-.95a4.93,4.93,0,0,1,2.59-.7c2.42,0,3,1.65,3,3.23v3a12,12,0,0,0,.13,1.89Zm-.21-4c-1.57,0-3.34.25-3.34,1.78a1.27,1.27,0,0,0,1.35,1.37A2,2,0,0,0,699,57.55a1.48,1.48,0,0,0,.08-.46Z"/><path class="cls-1" d="M704.41,49.59v2.27h2.05V53h-2.05v4.26c0,1,.28,1.53,1.07,1.53a3.17,3.17,0,0,0,.84-.1l.06,1.07a3.39,3.39,0,0,1-1.27.2,2,2,0,0,1-1.55-.6,2.94,2.94,0,0,1-.55-2.06V53h-1.23V51.86H703V50Z"/><path class="cls-1" d="M708.78,56.06a2.53,2.53,0,0,0,2.7,2.74,5.09,5.09,0,0,0,2.18-.41l.25,1a6.37,6.37,0,0,1-2.62.49,3.67,3.67,0,0,1-3.88-4c0-2.38,1.4-4.25,3.7-4.25,2.57,0,3.25,2.27,3.25,3.72,0,.29,0,.52,0,.66Zm4.2-1a2,2,0,0,0-2-2.33,2.38,2.38,0,0,0-2.2,2.33Z"/><path class="cls-1" d="M715,61.75a22.34,22.34,0,0,0,1-3.89l1.6-.17a19.11,19.11,0,0,1-1.55,4Z"/><path class="cls-1" d="M722.77,54.43c0-1,0-1.82-.06-2.57H724l.06,1.35h0a3.11,3.11,0,0,1,2.81-1.53c1.9,0,3.34,1.61,3.34,4,0,2.83-1.73,4.24-3.59,4.24a2.79,2.79,0,0,1-2.43-1.24h0V63h-1.42Zm1.42,2.11a2.63,2.63,0,0,0,.07.58,2.2,2.2,0,0,0,2.15,1.68c1.51,0,2.39-1.24,2.39-3,0-1.58-.83-2.93-2.34-2.93a2.5,2.5,0,0,0-2.27,2.36Z"/><path class="cls-1" d="M732.05,54.32c0-.93,0-1.73-.07-2.46h1.26l0,1.55h.07a2.37,2.37,0,0,1,2.18-1.73,1.64,1.64,0,0,1,.41,0v1.35a2.31,2.31,0,0,0-.49,0,2,2,0,0,0-1.92,1.84,4.45,4.45,0,0,0-.07.67v4.21h-1.41Z"/><path class="cls-1" d="M744.35,55.74a3.85,3.85,0,0,1-3.93,4.19,3.76,3.76,0,0,1-3.78-4.06,3.85,3.85,0,0,1,3.91-4.19A3.74,3.74,0,0,1,744.35,55.74Zm-6.26.08c0,1.73,1,3,2.4,3s2.39-1.29,2.39-3.06c0-1.34-.67-3-2.36-3S738.09,54.32,738.09,55.82Z"/><path class="cls-1" d="M746.3,59.75V53h-1.1V51.86h1.1v-.38a3.72,3.72,0,0,1,.92-2.75,2.74,2.74,0,0,1,1.92-.73,3.14,3.14,0,0,1,1.22.23l-.19,1.1a2.33,2.33,0,0,0-.92-.18c-1.22,0-1.53,1.08-1.53,2.29v.42h1.91V53h-1.91v6.8Z"/><path class="cls-1" d="M751.5,56.06a2.53,2.53,0,0,0,2.71,2.74,5.13,5.13,0,0,0,2.18-.41l.25,1a6.39,6.39,0,0,1-2.63.49,3.67,3.67,0,0,1-3.88-4c0-2.38,1.41-4.25,3.7-4.25,2.58,0,3.26,2.27,3.26,3.72a4.54,4.54,0,0,1-.05.66Zm4.21-1a2,2,0,0,0-2-2.33,2.37,2.37,0,0,0-2.2,2.33Z"/><path class="cls-1" d="M758.67,58.28a3.77,3.77,0,0,0,1.89.57c1.05,0,1.54-.52,1.54-1.17s-.41-1.06-1.47-1.45c-1.42-.51-2.09-1.29-2.09-2.24a2.43,2.43,0,0,1,2.72-2.31,3.94,3.94,0,0,1,1.94.49l-.35,1a3.14,3.14,0,0,0-1.62-.45c-.85,0-1.32.48-1.32,1.07s.47,1,1.5,1.34c1.37.52,2.07,1.2,2.07,2.38,0,1.38-1.07,2.36-3,2.36a4.5,4.5,0,0,1-2.22-.54Z"/><path class="cls-1" d="M765.13,58.28a3.71,3.71,0,0,0,1.89.57c1,0,1.53-.52,1.53-1.17s-.41-1.06-1.47-1.45C765.66,55.72,765,54.94,765,54a2.43,2.43,0,0,1,2.72-2.31,3.94,3.94,0,0,1,1.94.49l-.36,1a3.13,3.13,0,0,0-1.61-.45c-.85,0-1.33.48-1.33,1.07s.48,1,1.5,1.34c1.37.52,2.07,1.2,2.07,2.38,0,1.38-1.07,2.36-2.95,2.36a4.43,4.43,0,0,1-2.21-.54Z"/><path class="cls-1" d="M773.37,49.64a.89.89,0,0,1-1.77,0,.87.87,0,0,1,.89-.89A.85.85,0,0,1,773.37,49.64Zm-1.6,10.11V51.86h1.44v7.89Z"/><path class="cls-1" d="M782.73,55.74a3.86,3.86,0,0,1-3.93,4.19A3.75,3.75,0,0,1,775,55.87a3.85,3.85,0,0,1,3.91-4.19A3.74,3.74,0,0,1,782.73,55.74Zm-6.26.08c0,1.73,1,3,2.39,3s2.4-1.29,2.4-3.06c0-1.34-.67-3-2.36-3S776.47,54.32,776.47,55.82Z"/><path class="cls-1" d="M784.53,54c0-.81,0-1.48-.06-2.13h1.27l.08,1.3h0a2.92,2.92,0,0,1,2.61-1.48c1.09,0,2.79.65,2.79,3.36v4.71h-1.44V55.2c0-1.27-.47-2.33-1.82-2.33a2,2,0,0,0-1.92,1.47,1.91,1.91,0,0,0-.1.66v4.75h-1.44Z"/><path class="cls-1" d="M798,59.75l-.12-1h-.05a2.93,2.93,0,0,1-2.41,1.18A2.25,2.25,0,0,1,793,57.66c0-1.91,1.69-2.95,4.74-2.93v-.17a1.62,1.62,0,0,0-1.79-1.82,4,4,0,0,0-2.06.59l-.32-.95a4.93,4.93,0,0,1,2.59-.7c2.41,0,3,1.65,3,3.23v3a10.93,10.93,0,0,0,.13,1.89Zm-.22-4c-1.56,0-3.34.25-3.34,1.78a1.27,1.27,0,0,0,1.36,1.37,2,2,0,0,0,1.9-1.32,1.48,1.48,0,0,0,.08-.46Z"/><path class="cls-1" d="M801.43,48.18h1.44V59.75h-1.44Z"/><path class="cls-1" d="M655.54,108.25a7.07,7.07,0,0,1-2.9.52c-3.1,0-5.43-2-5.43-5.56A5.47,5.47,0,0,1,653,97.44a5.9,5.9,0,0,1,2.6.49l-.34,1.16a5.16,5.16,0,0,0-2.21-.46c-2.58,0-4.29,1.65-4.29,4.53,0,2.69,1.55,4.42,4.22,4.42a5.62,5.62,0,0,0,2.31-.46Z"/><path class="cls-1" d="M661.52,108.61l-.12-1h0a2.91,2.91,0,0,1-2.41,1.18,2.25,2.25,0,0,1-2.41-2.27c0-1.91,1.7-3,4.74-2.93v-.17a1.62,1.62,0,0,0-1.79-1.82,3.9,3.9,0,0,0-2.05.59l-.33-1a4.93,4.93,0,0,1,2.59-.7c2.41,0,3,1.65,3,3.23v3a10.93,10.93,0,0,0,.13,1.89Zm-.21-4c-1.57,0-3.34.25-3.34,1.78a1.27,1.27,0,0,0,1.35,1.37,2,2,0,0,0,1.91-1.32,1.85,1.85,0,0,0,.08-.46Z"/><path class="cls-1" d="M665,103.18c0-.93,0-1.73-.07-2.46h1.25l0,1.55h.07a2.37,2.37,0,0,1,2.18-1.73,1.64,1.64,0,0,1,.41,0v1.35a2.31,2.31,0,0,0-.49,0,2,2,0,0,0-1.92,1.84,4.45,4.45,0,0,0-.07.67v4.21H665Z"/><path class="cls-1" d="M671,104.92a2.53,2.53,0,0,0,2.71,2.74,5.16,5.16,0,0,0,2.18-.41l.24,1a6.33,6.33,0,0,1-2.62.49,3.67,3.67,0,0,1-3.88-4c0-2.38,1.4-4.25,3.7-4.25,2.58,0,3.26,2.26,3.26,3.72a4.54,4.54,0,0,1,0,.66Zm4.2-1a2,2,0,0,0-2-2.33,2.37,2.37,0,0,0-2.2,2.33Z"/><path class="cls-1" d="M678.48,108.61v-6.8h-1.11v-1.09h1.11v-.38a3.72,3.72,0,0,1,.92-2.75,2.72,2.72,0,0,1,1.92-.73,3.46,3.46,0,0,1,1.22.22l-.19,1.11a2.33,2.33,0,0,0-.92-.18c-1.22,0-1.53,1.08-1.53,2.29v.42h1.91v1.09H679.9v6.8Z"/><path class="cls-1" d="M689.69,106.46c0,.81,0,1.53.07,2.15h-1.27l-.08-1.29h0a3,3,0,0,1-2.6,1.47c-1.24,0-2.73-.69-2.73-3.46v-4.61h1.44v4.37c0,1.5.46,2.51,1.76,2.51a2.07,2.07,0,0,0,1.89-1.31,2.11,2.11,0,0,0,.13-.73v-4.84h1.43Z"/><path class="cls-1" d="M692.07,97h1.44v11.57h-1.44Z"/><path class="cls-1" d="M701.1,98.45v2.27h2v1.09h-2v4.25c0,1,.28,1.54,1.08,1.54a3.15,3.15,0,0,0,.83-.1l.06,1.07a3.35,3.35,0,0,1-1.27.2,2,2,0,0,1-1.55-.6,3,3,0,0,1-.55-2.06v-4.3h-1.22v-1.09h1.22V98.83Z"/><path class="cls-1" d="M704.77,97h1.43V102h0a2.63,2.63,0,0,1,1-1,2.89,2.89,0,0,1,1.47-.41c1.06,0,2.75.65,2.75,3.37v4.7h-1.43v-4.53c0-1.28-.48-2.35-1.83-2.35a2.05,2.05,0,0,0-1.92,1.43,1.8,1.8,0,0,0-.1.69v4.76h-1.43Z"/><path class="cls-1" d="M715.41,98.5a.89.89,0,0,1-1.78,0,.88.88,0,0,1,.9-.89A.85.85,0,0,1,715.41,98.5Zm-1.6,10.11v-7.89h1.43v7.89Z"/><path class="cls-1" d="M717.62,102.85c0-.81,0-1.48-.06-2.13h1.27l.08,1.3h0a2.92,2.92,0,0,1,2.61-1.48c1.09,0,2.79.65,2.79,3.36v4.71H722.9v-4.55c0-1.27-.47-2.33-1.82-2.33a2,2,0,0,0-1.92,1.47,1.91,1.91,0,0,0-.1.66v4.75h-1.44Z"/><path class="cls-1" d="M728.09,104.34h0c.19-.28.47-.62.7-.9l2.31-2.72h1.73L729.81,104l3.47,4.65h-1.74l-2.72-3.78-.73.81v3h-1.42V97h1.42Z"/><path class="cls-1" d="M736.19,98.5a.89.89,0,0,1-1.78,0,.87.87,0,0,1,.89-.89A.86.86,0,0,1,736.19,98.5Zm-1.6,10.11v-7.89H736v7.89Z"/><path class="cls-1" d="M738.4,102.85c0-.81,0-1.48-.06-2.13h1.27l.08,1.3h0a2.89,2.89,0,0,1,2.61-1.48c1.09,0,2.78.65,2.78,3.36v4.71h-1.43v-4.55c0-1.27-.47-2.33-1.82-2.33a2,2,0,0,0-1.93,1.47,2.19,2.19,0,0,0-.09.66v4.75H738.4Z"/><path class="cls-1" d="M754.24,100.72c0,.57-.06,1.2-.06,2.17v4.58c0,1.8-.36,2.91-1.13,3.6a4.21,4.21,0,0,1-2.87.94,5.11,5.11,0,0,1-2.62-.65l.36-1.09a4.48,4.48,0,0,0,2.31.62c1.47,0,2.54-.77,2.54-2.76v-.88h0a2.81,2.81,0,0,1-2.51,1.32c-2,0-3.36-1.66-3.36-3.84,0-2.67,1.75-4.19,3.56-4.19a2.62,2.62,0,0,1,2.46,1.37h0l.07-1.19Zm-1.48,3.11a2.23,2.23,0,0,0-.08-.65,2.08,2.08,0,0,0-2-1.52c-1.37,0-2.34,1.16-2.34,3,0,1.54.78,2.83,2.33,2.83a2.08,2.08,0,0,0,2-1.46,2.33,2.33,0,0,0,.12-.77Z"/><path class="cls-1" d="M755.38,110.61a23.27,23.27,0,0,0,1-3.89l1.6-.17a20.3,20.3,0,0,1-1.55,4Z"/><path class="cls-1" d="M763.14,103.29c0-1,0-1.82-.07-2.57h1.29l.07,1.35h0a3.09,3.09,0,0,1,2.8-1.53c1.91,0,3.34,1.61,3.34,4,0,2.83-1.73,4.24-3.58,4.24a2.76,2.76,0,0,1-2.43-1.24h0v4.28h-1.42Zm1.42,2.11a3.44,3.44,0,0,0,.06.58,2.2,2.2,0,0,0,2.15,1.68c1.52,0,2.4-1.24,2.4-3,0-1.58-.83-2.93-2.35-2.93a2.29,2.29,0,0,0-2.17,1.78,2.26,2.26,0,0,0-.09.58Z"/><path class="cls-1" d="M772.41,97h1.43v11.57h-1.43Z"/><path class="cls-1" d="M780.62,108.61l-.11-1h0a2.94,2.94,0,0,1-2.41,1.18,2.25,2.25,0,0,1-2.41-2.27c0-1.91,1.69-3,4.74-2.93v-.17a1.62,1.62,0,0,0-1.79-1.82,3.94,3.94,0,0,0-2.06.59l-.32-1a4.9,4.9,0,0,1,2.59-.7c2.41,0,3,1.65,3,3.23v3a10.93,10.93,0,0,0,.13,1.89Zm-.21-4c-1.56,0-3.34.25-3.34,1.78a1.27,1.27,0,0,0,1.35,1.37,2,2,0,0,0,1.91-1.32,1.48,1.48,0,0,0,.08-.46Z"/><path class="cls-1" d="M784.11,102.85c0-.81,0-1.48-.07-2.13h1.28l.08,1.3h0a2.89,2.89,0,0,1,2.61-1.48c1.09,0,2.78.65,2.78,3.36v4.71h-1.43v-4.55c0-1.27-.47-2.33-1.83-2.33a2,2,0,0,0-1.92,1.47,2.18,2.18,0,0,0-.1.66v4.75h-1.43Z"/><path class="cls-1" d="M793.15,102.85c0-.81,0-1.48-.06-2.13h1.27l.08,1.3h0a2.91,2.91,0,0,1,2.61-1.48c1.09,0,2.79.65,2.79,3.36v4.71h-1.44v-4.55c0-1.27-.47-2.33-1.82-2.33a2,2,0,0,0-1.92,1.47,1.91,1.91,0,0,0-.1.66v4.75h-1.44Z"/><path class="cls-1" d="M803.79,98.5a.84.84,0,0,1-.91.88.85.85,0,0,1-.86-.88.87.87,0,0,1,.9-.89A.85.85,0,0,1,803.79,98.5Zm-1.59,10.11v-7.89h1.43v7.89Z"/><path class="cls-1" d="M806,102.85c0-.81,0-1.48-.06-2.13h1.27l.08,1.3h0a2.89,2.89,0,0,1,2.61-1.48c1.09,0,2.79.65,2.79,3.36v4.71h-1.44v-4.55c0-1.27-.47-2.33-1.82-2.33a2,2,0,0,0-1.93,1.47,2.18,2.18,0,0,0-.1.66v4.75H806Z"/><path class="cls-1" d="M821.85,100.72c0,.57-.07,1.2-.07,2.17v4.58c0,1.8-.35,2.91-1.12,3.6a4.2,4.2,0,0,1-2.87.94,5.11,5.11,0,0,1-2.62-.65l.36-1.09a4.48,4.48,0,0,0,2.31.62c1.47,0,2.54-.77,2.54-2.76v-.88h0a2.81,2.81,0,0,1-2.51,1.32c-2,0-3.36-1.66-3.36-3.84,0-2.67,1.75-4.19,3.56-4.19a2.62,2.62,0,0,1,2.46,1.37h0l.07-1.19Zm-1.48,3.11a2.23,2.23,0,0,0-.08-.65,2.09,2.09,0,0,0-2-1.52c-1.37,0-2.34,1.16-2.34,3,0,1.54.78,2.83,2.33,2.83a2.08,2.08,0,0,0,2-1.46,2.33,2.33,0,0,0,.12-.77Z"/><path class="cls-1" d="M655.54,157.11a7.07,7.07,0,0,1-2.9.52c-3.1,0-5.43-2-5.43-5.56A5.47,5.47,0,0,1,653,146.3a5.9,5.9,0,0,1,2.6.49l-.34,1.16a5.16,5.16,0,0,0-2.21-.46c-2.58,0-4.29,1.65-4.29,4.53,0,2.69,1.55,4.42,4.22,4.42a5.62,5.62,0,0,0,2.31-.46Z"/><path class="cls-1" d="M657.27,145.9h1.43v11.57h-1.43Z"/><path class="cls-1" d="M665.48,157.47l-.12-1h-.05a2.93,2.93,0,0,1-2.41,1.18,2.25,2.25,0,0,1-2.41-2.27c0-1.91,1.7-2.95,4.74-2.93v-.17a1.62,1.62,0,0,0-1.79-1.82,3.9,3.9,0,0,0-2.05.59l-.33-1a4.93,4.93,0,0,1,2.59-.7c2.41,0,3,1.65,3,3.23v3a10.93,10.93,0,0,0,.13,1.89Zm-.21-4c-1.57,0-3.34.25-3.34,1.78a1.26,1.26,0,0,0,1.35,1.37,2,2,0,0,0,1.91-1.32,1.85,1.85,0,0,0,.08-.46Z"/><path class="cls-1" d="M668.77,156a3.71,3.71,0,0,0,1.89.57c1,0,1.53-.52,1.53-1.17s-.41-1.06-1.46-1.45c-1.42-.51-2.09-1.29-2.09-2.24a2.43,2.43,0,0,1,2.72-2.31,3.94,3.94,0,0,1,1.94.49l-.36,1a3.13,3.13,0,0,0-1.61-.45c-.85,0-1.32.48-1.32,1.07s.47.95,1.5,1.34c1.37.52,2.07,1.2,2.07,2.38,0,1.38-1.08,2.36-3,2.36a4.44,4.44,0,0,1-2.22-.54Z"/><path class="cls-1" d="M675.22,156a3.77,3.77,0,0,0,1.89.57c1,0,1.54-.52,1.54-1.17s-.41-1.06-1.47-1.45c-1.42-.51-2.09-1.29-2.09-2.24a2.43,2.43,0,0,1,2.72-2.31,3.94,3.94,0,0,1,1.94.49l-.36,1a3.06,3.06,0,0,0-1.61-.45c-.85,0-1.32.48-1.32,1.07s.47.95,1.5,1.34c1.37.52,2.07,1.2,2.07,2.38,0,1.38-1.08,2.36-2.95,2.36a4.5,4.5,0,0,1-2.22-.54Z"/><path class="cls-1" d="M683.47,147.36a.89.89,0,0,1-1.78,0,.88.88,0,0,1,.9-.89A.85.85,0,0,1,683.47,147.36Zm-1.6,10.11v-7.89h1.44v7.89Z"/><path class="cls-1" d="M691.31,157.17a5.25,5.25,0,0,1-2.27.46,3.75,3.75,0,0,1-3.93-4,4,4,0,0,1,4.24-4.18,4.9,4.9,0,0,1,2,.4l-.33,1.11a3.38,3.38,0,0,0-1.66-.37,3,3,0,0,0-.05,5.93,4,4,0,0,0,1.76-.39Z"/><path class="cls-1" d="M700.81,157.47l-.12-1h-.05a2.93,2.93,0,0,1-2.41,1.18,2.25,2.25,0,0,1-2.41-2.27c0-1.91,1.7-2.95,4.74-2.93v-.17a1.62,1.62,0,0,0-1.79-1.82,3.9,3.9,0,0,0-2,.59l-.33-1a4.93,4.93,0,0,1,2.59-.7c2.41,0,3,1.65,3,3.23v3a10.93,10.93,0,0,0,.13,1.89Zm-.21-4c-1.57,0-3.35.25-3.35,1.78a1.27,1.27,0,0,0,1.36,1.37,2,2,0,0,0,1.9-1.32,1.5,1.5,0,0,0,.09-.46Z"/><path class="cls-1" d="M704.29,151.71c0-.81,0-1.48-.06-2.13h1.27l.08,1.3h0a2.92,2.92,0,0,1,2.61-1.48c1.09,0,2.79.65,2.79,3.36v4.71h-1.44v-4.55c0-1.27-.47-2.33-1.82-2.33a2,2,0,0,0-1.92,1.47,1.91,1.91,0,0,0-.1.66v4.75h-1.44Z"/><path class="cls-1" d="M720.15,145.9v9.53c0,.7,0,1.5.07,2h-1.29l-.07-1.37h0a2.92,2.92,0,0,1-2.69,1.55c-1.91,0-3.37-1.62-3.37-4,0-2.63,1.61-4.24,3.53-4.24a2.63,2.63,0,0,1,2.38,1.21h0V145.9Zm-1.43,6.89a2.46,2.46,0,0,0-.07-.6,2.1,2.1,0,0,0-2.07-1.67c-1.48,0-2.36,1.31-2.36,3s.78,2.92,2.33,2.92a2.16,2.16,0,0,0,2.1-1.71,2.45,2.45,0,0,0,.07-.62Z"/><path class="cls-1" d="M727.71,147.31v2.27h2v1.09h-2v4.25c0,1,.28,1.54,1.08,1.54a3.15,3.15,0,0,0,.83-.1l.06,1.07a3.32,3.32,0,0,1-1.27.2,2,2,0,0,1-1.55-.6,3,3,0,0,1-.55-2.06v-4.3h-1.22v-1.09h1.22v-1.89Z"/><path class="cls-1" d="M731.38,152c0-.93,0-1.73-.07-2.46h1.26l0,1.55h.06a2.37,2.37,0,0,1,2.18-1.73,1.64,1.64,0,0,1,.41,0v1.35a2.24,2.24,0,0,0-.49-.05,2,2,0,0,0-1.92,1.84,4.51,4.51,0,0,0-.06.67v4.21h-1.42Z"/><path class="cls-1" d="M741,157.47l-.11-1h0a2.94,2.94,0,0,1-2.41,1.18,2.25,2.25,0,0,1-2.41-2.27c0-1.91,1.69-2.95,4.74-2.93v-.17a1.63,1.63,0,0,0-1.8-1.82,3.93,3.93,0,0,0-2.05.59l-.32-1a4.9,4.9,0,0,1,2.59-.7c2.41,0,3,1.65,3,3.23v3a10.93,10.93,0,0,0,.13,1.89Zm-.21-4c-1.56,0-3.34.25-3.34,1.78a1.27,1.27,0,0,0,1.35,1.37,2,2,0,0,0,1.91-1.32,1.48,1.48,0,0,0,.08-.46Z"/><path class="cls-1" d="M751.29,145.9v9.53c0,.7,0,1.5.07,2h-1.29L750,156.1h0a2.92,2.92,0,0,1-2.69,1.55c-1.9,0-3.37-1.62-3.37-4,0-2.63,1.61-4.24,3.53-4.24a2.62,2.62,0,0,1,2.38,1.21h0V145.9Zm-1.43,6.89a2.46,2.46,0,0,0-.07-.6,2.1,2.1,0,0,0-2.07-1.67c-1.48,0-2.36,1.31-2.36,3s.78,2.92,2.33,2.92a2.16,2.16,0,0,0,2.1-1.71,2.45,2.45,0,0,0,.07-.62Z"/><path class="cls-1" d="M755.27,147.36a.89.89,0,0,1-1.78,0,.88.88,0,0,1,.9-.89A.85.85,0,0,1,755.27,147.36Zm-1.6,10.11v-7.89h1.43v7.89Z"/><path class="cls-1" d="M759.21,147.31v2.27h2v1.09h-2v4.25c0,1,.28,1.54,1.08,1.54a3.15,3.15,0,0,0,.83-.1l.06,1.07a3.32,3.32,0,0,1-1.27.2,2,2,0,0,1-1.55-.6,3,3,0,0,1-.55-2.06v-4.3h-1.22v-1.09h1.22v-1.89Z"/><path class="cls-1" d="M764.47,147.36a.84.84,0,0,1-.91.88.85.85,0,0,1-.86-.88.87.87,0,0,1,.89-.89A.85.85,0,0,1,764.47,147.36Zm-1.59,10.11v-7.89h1.43v7.89Z"/><path class="cls-1" d="M773.83,153.46a3.86,3.86,0,0,1-3.93,4.19,3.76,3.76,0,0,1-3.78-4.06A3.85,3.85,0,0,1,770,149.4,3.74,3.74,0,0,1,773.83,153.46Zm-6.26.08c0,1.73,1,3,2.4,3s2.39-1.29,2.39-3.06c0-1.34-.67-3-2.36-3S767.57,152,767.57,153.54Z"/><path class="cls-1" d="M775.64,151.71c0-.81,0-1.48-.07-2.13h1.27l.08,1.3h0a2.89,2.89,0,0,1,2.6-1.48c1.1,0,2.79.65,2.79,3.36v4.71h-1.43v-4.55c0-1.27-.48-2.33-1.83-2.33a2,2,0,0,0-1.92,1.47,1.91,1.91,0,0,0-.1.66v4.75h-1.43Z"/><path class="cls-1" d="M789.05,157.47l-.12-1h0a2.93,2.93,0,0,1-2.41,1.18,2.25,2.25,0,0,1-2.41-2.27c0-1.91,1.7-2.95,4.74-2.93v-.17a1.62,1.62,0,0,0-1.79-1.82,3.9,3.9,0,0,0-2,.59l-.33-1a4.93,4.93,0,0,1,2.59-.7c2.41,0,3,1.65,3,3.23v3a10.93,10.93,0,0,0,.13,1.89Zm-.21-4c-1.57,0-3.34.25-3.34,1.78a1.26,1.26,0,0,0,1.35,1.37,2,2,0,0,0,1.9-1.32,1.5,1.5,0,0,0,.09-.46Z"/><path class="cls-1" d="M792.53,145.9H794v11.57h-1.44Z"/><path class="cls-1" d="M653.55,201.18h-4.27v4H654v1.19h-6.18v-11h5.93v1.19h-4.51V200h4.27Z"/><path class="cls-1" d="M655.64,204.86a3.71,3.71,0,0,0,1.89.57c1,0,1.53-.52,1.53-1.17s-.41-1.06-1.47-1.45c-1.42-.51-2.08-1.29-2.08-2.24a2.43,2.43,0,0,1,2.72-2.31,4,4,0,0,1,1.94.49l-.36,1a3.13,3.13,0,0,0-1.62-.46c-.84,0-1.32.49-1.32,1.08s.48,1,1.5,1.34c1.37.52,2.07,1.2,2.07,2.38,0,1.38-1.07,2.36-3,2.36a4.43,4.43,0,0,1-2.21-.54Z"/><path class="cls-1" d="M664,196.17v2.27h2v1.09h-2v4.25c0,1,.28,1.54,1.08,1.54a3.15,3.15,0,0,0,.83-.1l.06,1.07a3.32,3.32,0,0,1-1.27.2,2,2,0,0,1-1.55-.6,3,3,0,0,1-.55-2.06v-4.3h-1.22v-1.09h1.22v-1.89Z"/><path class="cls-1" d="M672.05,206.33l-.12-1h0a2.93,2.93,0,0,1-2.41,1.18,2.25,2.25,0,0,1-2.41-2.27c0-1.91,1.69-3,4.74-2.93v-.17a1.62,1.62,0,0,0-1.79-1.82,3.94,3.94,0,0,0-2.06.59l-.32-.95a4.93,4.93,0,0,1,2.59-.7c2.41,0,3,1.65,3,3.23v2.95a10.93,10.93,0,0,0,.13,1.89Zm-.22-4c-1.56,0-3.34.25-3.34,1.78a1.27,1.27,0,0,0,1.36,1.37,2,2,0,0,0,1.9-1.32,1.48,1.48,0,0,0,.08-.46Z"/><path class="cls-1" d="M675.47,206.33c0-.54.06-1.34.06-2v-9.53H677v5h0a3,3,0,0,1,2.69-1.45c2,0,3.34,1.63,3.33,4,0,2.82-1.78,4.23-3.54,4.23a2.81,2.81,0,0,1-2.64-1.49h-.05l-.06,1.31Zm1.48-3.16a2.32,2.32,0,0,0,.07.52,2.2,2.2,0,0,0,2.15,1.67c1.5,0,2.39-1.22,2.39-3,0-1.58-.81-2.93-2.34-2.93a2.3,2.3,0,0,0-2.19,1.76,3,3,0,0,0-.08.59Z"/><path class="cls-1" d="M684.8,194.76h1.44v11.57H684.8Z"/><path class="cls-1" d="M690.25,196.22a.89.89,0,0,1-1.78,0,.88.88,0,0,1,.9-.89A.85.85,0,0,1,690.25,196.22Zm-1.6,10.11v-7.89h1.43v7.89Z"/><path class="cls-1" d="M692.27,204.86a3.71,3.71,0,0,0,1.89.57c1,0,1.53-.52,1.53-1.17s-.41-1.06-1.47-1.45c-1.41-.51-2.08-1.29-2.08-2.24a2.43,2.43,0,0,1,2.72-2.31,3.94,3.94,0,0,1,1.94.49l-.36,1a3.12,3.12,0,0,0-1.61-.46c-.85,0-1.32.49-1.32,1.08s.47,1,1.5,1.34c1.36.52,2.07,1.2,2.07,2.38,0,1.38-1.08,2.36-3,2.36a4.44,4.44,0,0,1-2.22-.54Z"/><path class="cls-1" d="M698.92,194.76h1.43v4.92h0a2.63,2.63,0,0,1,1-1,2.89,2.89,0,0,1,1.47-.41c1.06,0,2.75.65,2.75,3.37v4.7H704.2V201.8c0-1.28-.48-2.35-1.83-2.35a2.05,2.05,0,0,0-1.92,1.43,1.8,1.8,0,0,0-.1.69v4.76h-1.43Z"/><path class="cls-1" d="M708.76,202.64a2.53,2.53,0,0,0,2.7,2.74,5.18,5.18,0,0,0,2.19-.41l.24,1a6.33,6.33,0,0,1-2.62.49,3.67,3.67,0,0,1-3.88-4c0-2.38,1.4-4.25,3.7-4.25,2.57,0,3.26,2.26,3.26,3.71a4.58,4.58,0,0,1-.05.67Zm4.2-1a2,2,0,0,0-2-2.33,2.38,2.38,0,0,0-2.21,2.33Z"/><path class="cls-1" d="M722.94,194.76v9.53c0,.7,0,1.5.06,2h-1.29l-.06-1.37h0a2.92,2.92,0,0,1-2.69,1.55c-1.91,0-3.38-1.62-3.38-4,0-2.63,1.62-4.24,3.54-4.24a2.63,2.63,0,0,1,2.38,1.21h0v-4.71Zm-1.44,6.89a2.45,2.45,0,0,0-.06-.6,2.11,2.11,0,0,0-2.07-1.67c-1.49,0-2.36,1.31-2.36,3.05s.78,2.92,2.33,2.92a2.16,2.16,0,0,0,2.1-1.71,2.46,2.46,0,0,0,.06-.62Z"/><path class="cls-1" d="M647.67,253.46a5,5,0,0,0,2.54.71c1.45,0,2.3-.76,2.3-1.87s-.59-1.61-2.07-2.18c-1.79-.64-2.9-1.57-2.9-3.12,0-1.71,1.41-3,3.55-3a5,5,0,0,1,2.43.54l-.39,1.16a4.36,4.36,0,0,0-2.09-.52c-1.5,0-2.07.89-2.07,1.64,0,1,.67,1.53,2.18,2.12,1.86.72,2.81,1.61,2.81,3.23s-1.26,3.16-3.85,3.16a5.68,5.68,0,0,1-2.8-.7Z"/><path class="cls-1" d="M656.74,251.5a2.54,2.54,0,0,0,2.71,2.74,5.09,5.09,0,0,0,2.18-.41l.25,1a6.39,6.39,0,0,1-2.63.49,3.67,3.67,0,0,1-3.88-4c0-2.38,1.41-4.25,3.7-4.25,2.58,0,3.26,2.26,3.26,3.71a4.58,4.58,0,0,1-.05.67Zm4.21-1a2,2,0,0,0-2-2.33,2.37,2.37,0,0,0-2.2,2.33Z"/><path class="cls-1" d="M664.11,249.76c0-.93,0-1.73-.07-2.46h1.26l.05,1.55h.06a2.38,2.38,0,0,1,2.19-1.73,1.25,1.25,0,0,1,.4,0v1.35a2.21,2.21,0,0,0-.48-.05,2,2,0,0,0-1.93,1.84,4.51,4.51,0,0,0-.06.67v4.21h-1.42Z"/><path class="cls-1" d="M671.1,245.08a.84.84,0,0,1-.91.88.85.85,0,0,1-.87-.88.88.88,0,0,1,.9-.89A.85.85,0,0,1,671.1,245.08Zm-1.6,10.11V247.3h1.44v7.89Z"/><path class="cls-1" d="M680.45,251.18a3.86,3.86,0,0,1-3.92,4.19,3.75,3.75,0,0,1-3.78-4.06,3.85,3.85,0,0,1,3.91-4.19A3.73,3.73,0,0,1,680.45,251.18Zm-6.25.08c0,1.73,1,3,2.39,3s2.4-1.29,2.4-3.06c0-1.34-.67-3-2.37-3S674.2,249.76,674.2,251.26Z"/><path class="cls-1" d="M688.86,253c0,.82,0,1.54.07,2.16h-1.27l-.08-1.29h0a3,3,0,0,1-2.6,1.47c-1.24,0-2.73-.69-2.73-3.46V247.3h1.44v4.37c0,1.5.45,2.5,1.76,2.5a2.06,2.06,0,0,0,1.89-1.3,2.11,2.11,0,0,0,.13-.73V247.3h1.43Z"/><path class="cls-1" d="M691.05,253.72a3.71,3.71,0,0,0,1.89.57c1,0,1.53-.52,1.53-1.17s-.41-1.06-1.47-1.45c-1.42-.51-2.08-1.29-2.08-2.24a2.43,2.43,0,0,1,2.72-2.31,3.94,3.94,0,0,1,1.94.49l-.36,1a3.13,3.13,0,0,0-1.62-.46c-.84,0-1.32.49-1.32,1.08s.48.94,1.5,1.34c1.37.52,2.07,1.2,2.07,2.38,0,1.38-1.07,2.36-3,2.36a4.43,4.43,0,0,1-2.21-.54Z"/><path class="cls-1" d="M18.87,48.89a16.87,16.87,0,0,1,2.72-.21,4.55,4.55,0,0,1,3.08.91,3,3,0,0,1,1,2.3,3.24,3.24,0,0,1-.84,2.35,4.56,4.56,0,0,1-3.36,1.2,5,5,0,0,1-1.14-.09v4.4H18.87Zm1.42,5.3a4.84,4.84,0,0,0,1.17.11c1.71,0,2.76-.83,2.76-2.34s-1-2.15-2.6-2.15a5.7,5.7,0,0,0-1.33.11Z"/><path class="cls-1" d="M27.88,56.06a2.53,2.53,0,0,0,2.71,2.74,5.16,5.16,0,0,0,2.18-.41l.25,1a6.39,6.39,0,0,1-2.63.49,3.67,3.67,0,0,1-3.88-4c0-2.38,1.4-4.25,3.7-4.25,2.58,0,3.26,2.27,3.26,3.72a4.54,4.54,0,0,1,0,.66Zm4.21-1a2,2,0,0,0-2-2.33A2.37,2.37,0,0,0,27.9,55Z"/><path class="cls-1" d="M35.25,54.32c0-.93,0-1.73-.07-2.46h1.26l.05,1.55h.06a2.37,2.37,0,0,1,2.18-1.73,1.64,1.64,0,0,1,.41,0v1.35a2.24,2.24,0,0,0-.49,0,2,2,0,0,0-1.92,1.84,4.51,4.51,0,0,0-.06.67v4.21H35.25Z"/><path class="cls-1" d="M40.38,58.28a3.71,3.71,0,0,0,1.89.57c1,0,1.53-.52,1.53-1.17s-.4-1.06-1.46-1.45c-1.42-.51-2.09-1.29-2.09-2.24A2.43,2.43,0,0,1,43,51.68a3.94,3.94,0,0,1,1.94.49l-.36,1a3.13,3.13,0,0,0-1.61-.45c-.85,0-1.32.48-1.32,1.07s.47,1,1.5,1.34c1.37.52,2.07,1.2,2.07,2.38,0,1.38-1.08,2.36-2.95,2.36A4.5,4.5,0,0,1,40,59.37Z"/><path class="cls-1" d="M54.17,55.74a3.85,3.85,0,0,1-3.93,4.19,3.75,3.75,0,0,1-3.78-4.06,3.85,3.85,0,0,1,3.91-4.19A3.74,3.74,0,0,1,54.17,55.74Zm-6.26.08c0,1.73,1,3,2.4,3s2.39-1.29,2.39-3.06c0-1.34-.67-3-2.36-3S47.91,54.32,47.91,55.82Z"/><path class="cls-1" d="M56,54c0-.81,0-1.48-.07-2.13h1.27l.08,1.3h0a2.89,2.89,0,0,1,2.6-1.48c1.1,0,2.79.65,2.79,3.36v4.71H61.26V55.2c0-1.27-.48-2.33-1.83-2.33a2,2,0,0,0-1.92,1.47,1.91,1.91,0,0,0-.1.66v4.75H56Z"/><path class="cls-1" d="M69.39,59.75l-.12-1h0a2.93,2.93,0,0,1-2.41,1.18,2.25,2.25,0,0,1-2.41-2.27c0-1.91,1.7-2.95,4.74-2.93v-.17a1.62,1.62,0,0,0-1.79-1.82,3.9,3.9,0,0,0-2,.59L65,52.38a4.93,4.93,0,0,1,2.59-.7c2.41,0,3,1.65,3,3.23v3a10.93,10.93,0,0,0,.13,1.89Zm-.21-4c-1.57,0-3.35.25-3.35,1.78a1.27,1.27,0,0,0,1.36,1.37,2,2,0,0,0,1.9-1.32,1.5,1.5,0,0,0,.09-.46Z"/><path class="cls-1" d="M72.81,59.75c0-.54.06-1.34.06-2V48.18h1.42v5h0A3,3,0,0,1,77,51.68c2,0,3.34,1.63,3.33,4,0,2.81-1.78,4.22-3.54,4.22a2.81,2.81,0,0,1-2.64-1.49h0l-.06,1.31Zm1.48-3.16a2.32,2.32,0,0,0,.07.52,2.21,2.21,0,0,0,2.15,1.68c1.5,0,2.39-1.23,2.39-3,0-1.58-.81-2.93-2.34-2.93a2.3,2.3,0,0,0-2.19,1.76,3,3,0,0,0-.08.59Z"/><path class="cls-1" d="M82.15,48.18h1.43V59.75H82.15Z"/><path class="cls-1" d="M86.79,56.06A2.53,2.53,0,0,0,89.5,58.8a5.16,5.16,0,0,0,2.18-.41l.24,1a6.29,6.29,0,0,1-2.62.49,3.67,3.67,0,0,1-3.88-4c0-2.38,1.4-4.25,3.7-4.25,2.58,0,3.26,2.27,3.26,3.72a4.54,4.54,0,0,1,0,.66ZM91,55a2,2,0,0,0-2-2.33A2.37,2.37,0,0,0,86.81,55Z"/><path class="cls-1" d="M102,59.75l-.12-1h0a2.91,2.91,0,0,1-2.41,1.18A2.25,2.25,0,0,1,97,57.66c0-1.91,1.7-2.95,4.74-2.93v-.17a1.62,1.62,0,0,0-1.79-1.82,3.9,3.9,0,0,0-2,.59l-.33-.95a4.93,4.93,0,0,1,2.59-.7c2.41,0,3,1.65,3,3.23v3a10.93,10.93,0,0,0,.13,1.89Zm-.21-4c-1.57,0-3.34.25-3.34,1.78a1.26,1.26,0,0,0,1.35,1.37,2,2,0,0,0,1.91-1.32,1.85,1.85,0,0,0,.08-.46Z"/><path class="cls-1" d="M105.47,54c0-.81,0-1.48-.07-2.13h1.27l.08,1.3h0a2.89,2.89,0,0,1,2.6-1.48c1.09,0,2.79.65,2.79,3.36v4.71h-1.43V55.2c0-1.27-.48-2.33-1.83-2.33A2,2,0,0,0,107,54.34a1.91,1.91,0,0,0-.1.66v4.75h-1.43Z"/><path class="cls-1" d="M121.32,48.18v9.53c0,.7,0,1.5.07,2H120.1L120,58.38h0a2.92,2.92,0,0,1-2.69,1.55c-1.9,0-3.37-1.62-3.37-4,0-2.63,1.61-4.24,3.54-4.24a2.61,2.61,0,0,1,2.37,1.21h0V48.18Zm-1.43,6.89a2.46,2.46,0,0,0-.07-.6,2.1,2.1,0,0,0-2.07-1.67c-1.48,0-2.36,1.31-2.36,3.05s.78,2.92,2.33,2.92a2.16,2.16,0,0,0,2.1-1.71,2.45,2.45,0,0,0,.07-.62Z"/><path class="cls-1" d="M127.3,59.75V53h-1.11V51.86h1.11v-.38a3.76,3.76,0,0,1,.91-2.75,2.76,2.76,0,0,1,1.93-.73,3.22,3.22,0,0,1,1.22.23l-.2,1.1a2.23,2.23,0,0,0-.91-.18c-1.22,0-1.53,1.08-1.53,2.29v.42h1.91V53h-1.91v6.8Z"/><path class="cls-1" d="M131.91,54.32c0-.93,0-1.73-.06-2.46h1.25l.05,1.55h.07a2.37,2.37,0,0,1,2.18-1.73,1.7,1.7,0,0,1,.41,0v1.35a2.38,2.38,0,0,0-.49,0,2,2,0,0,0-1.92,1.84,3.45,3.45,0,0,0-.07.67v4.21h-1.42Z"/><path class="cls-1" d="M138.9,49.64a.84.84,0,0,1-.91.88.85.85,0,0,1-.86-.88.87.87,0,0,1,.89-.89A.85.85,0,0,1,138.9,49.64Zm-1.59,10.11V51.86h1.43v7.89Z"/><path class="cls-1" d="M141.92,56.06a2.53,2.53,0,0,0,2.7,2.74,5.18,5.18,0,0,0,2.19-.41l.24,1a6.33,6.33,0,0,1-2.62.49,3.67,3.67,0,0,1-3.88-4c0-2.38,1.4-4.25,3.7-4.25,2.57,0,3.26,2.27,3.26,3.72a4.54,4.54,0,0,1,0,.66Zm4.2-1a2,2,0,0,0-2-2.33,2.38,2.38,0,0,0-2.2,2.33Z"/><path class="cls-1" d="M149.28,54c0-.81,0-1.48-.06-2.13h1.27l.08,1.3h0a2.92,2.92,0,0,1,2.61-1.48c1.09,0,2.79.65,2.79,3.36v4.71h-1.44V55.2c0-1.27-.47-2.33-1.82-2.33a2,2,0,0,0-1.92,1.47,1.91,1.91,0,0,0-.1.66v4.75h-1.44Z"/><path class="cls-1" d="M165.14,48.18v9.53c0,.7,0,1.5.07,2h-1.29l-.07-1.37h0a2.92,2.92,0,0,1-2.69,1.55c-1.91,0-3.37-1.62-3.37-4,0-2.63,1.61-4.24,3.53-4.24a2.63,2.63,0,0,1,2.38,1.21h0V48.18Zm-1.43,6.89a2.46,2.46,0,0,0-.07-.6,2.1,2.1,0,0,0-2.07-1.67c-1.48,0-2.36,1.31-2.36,3.05s.78,2.92,2.33,2.92a2.16,2.16,0,0,0,2.1-1.71,2.45,2.45,0,0,0,.07-.62Z"/><path class="cls-1" d="M167.52,48.18H169V59.75h-1.43Z"/><path class="cls-1" d="M171.89,51.86l1.72,4.66c.18.52.38,1.14.51,1.61h0c.15-.47.31-1.07.51-1.64l1.56-4.63h1.52l-2.15,5.62c-1,2.71-1.73,4.09-2.71,4.94a3.92,3.92,0,0,1-1.76.93l-.36-1.21a3.75,3.75,0,0,0,1.26-.7,4.25,4.25,0,0,0,1.2-1.6.92.92,0,0,0,.12-.34,1.47,1.47,0,0,0-.1-.37l-2.92-7.27Z"/><path class="cls-1" d="M.36,106.88a5,5,0,0,0,2.54.72c1.45,0,2.3-.77,2.3-1.88s-.59-1.61-2.07-2.18c-1.79-.64-2.9-1.57-2.9-3.11,0-1.72,1.42-3,3.55-3A5,5,0,0,1,6.21,98l-.39,1.16a4.33,4.33,0,0,0-2.09-.52c-1.5,0-2.07.89-2.07,1.64,0,1,.67,1.53,2.19,2.12,1.85.72,2.8,1.61,2.8,3.23s-1.26,3.16-3.85,3.16a5.68,5.68,0,0,1-2.8-.7Z"/><path class="cls-1" d="M8.54,103.29c0-1,0-1.82-.07-2.57H9.76l.07,1.35h0a3.1,3.1,0,0,1,2.8-1.53c1.91,0,3.34,1.61,3.34,4,0,2.83-1.73,4.24-3.58,4.24A2.76,2.76,0,0,1,10,107.55h0v4.28H8.54ZM10,105.4A3.44,3.44,0,0,0,10,106a2.21,2.21,0,0,0,2.15,1.68c1.52,0,2.4-1.24,2.4-3,0-1.58-.83-2.93-2.35-2.93a2.29,2.29,0,0,0-2.17,1.78A2.8,2.8,0,0,0,10,104Z"/><path class="cls-1" d="M25,104.6A3.86,3.86,0,0,1,21,108.79a3.76,3.76,0,0,1-3.78-4.06,3.85,3.85,0,0,1,3.91-4.19A3.74,3.74,0,0,1,25,104.6Zm-6.26.08c0,1.73,1,3,2.4,3s2.39-1.29,2.39-3.06c0-1.34-.67-3-2.36-3S18.69,103.18,18.69,104.68Z"/><path class="cls-1" d="M26.76,102.85c0-.81,0-1.48-.07-2.13H28L28,102h0a2.89,2.89,0,0,1,2.6-1.48c1.1,0,2.79.65,2.79,3.36v4.71H32v-4.55c0-1.27-.48-2.33-1.83-2.33a2,2,0,0,0-1.92,1.47,1.91,1.91,0,0,0-.1.66v4.75H26.76Z"/><path class="cls-1" d="M37.46,98.45v2.27h2.06v1.09H37.46v4.25c0,1,.28,1.54,1.08,1.54a3.15,3.15,0,0,0,.83-.1l.07,1.07a3.41,3.41,0,0,1-1.28.2,2,2,0,0,1-1.54-.6,2.94,2.94,0,0,1-.56-2.06v-4.3H34.84v-1.09h1.22V98.83Z"/><path class="cls-1" d="M45.5,108.61l-.12-1h-.05a2.93,2.93,0,0,1-2.41,1.18,2.25,2.25,0,0,1-2.41-2.27c0-1.91,1.7-3,4.74-2.93v-.17a1.62,1.62,0,0,0-1.79-1.82,3.9,3.9,0,0,0-2.05.59l-.33-1a4.93,4.93,0,0,1,2.59-.7c2.41,0,3,1.65,3,3.23v3a10.93,10.93,0,0,0,.13,1.89Zm-.21-4c-1.57,0-3.35.25-3.35,1.78a1.27,1.27,0,0,0,1.36,1.37,2,2,0,0,0,1.9-1.32,1.5,1.5,0,0,0,.09-.46Z"/><path class="cls-1" d="M49,102.85c0-.81,0-1.48-.06-2.13h1.27l.08,1.3h0a2.92,2.92,0,0,1,2.61-1.48c1.09,0,2.79.65,2.79,3.36v4.71H54.26v-4.55c0-1.27-.47-2.33-1.82-2.33a2,2,0,0,0-1.92,1.47,1.91,1.91,0,0,0-.1.66v4.75H49Z"/><path class="cls-1" d="M58.83,104.92a2.53,2.53,0,0,0,2.7,2.74,5.18,5.18,0,0,0,2.19-.41l.24,1a6.33,6.33,0,0,1-2.62.49,3.67,3.67,0,0,1-3.88-4c0-2.38,1.4-4.25,3.7-4.25,2.57,0,3.26,2.26,3.26,3.72,0,.29,0,.52,0,.66Zm4.2-1a2,2,0,0,0-2-2.33,2.38,2.38,0,0,0-2.2,2.33Z"/><path class="cls-1" d="M73.33,104.6a3.86,3.86,0,0,1-3.93,4.19,3.76,3.76,0,0,1-3.78-4.06,3.85,3.85,0,0,1,3.91-4.19A3.74,3.74,0,0,1,73.33,104.6Zm-6.26.08c0,1.73,1,3,2.4,3s2.39-1.29,2.39-3.06c0-1.34-.66-3-2.36-3S67.07,103.18,67.07,104.68Z"/><path class="cls-1" d="M81.74,106.46c0,.81,0,1.53.06,2.15H80.53l-.08-1.29h0a3,3,0,0,1-2.61,1.47c-1.24,0-2.72-.69-2.72-3.46v-4.61h1.43v4.37c0,1.5.46,2.51,1.76,2.51a2.06,2.06,0,0,0,1.89-1.31,1.9,1.9,0,0,0,.14-.73v-4.84h1.43Z"/><path class="cls-1" d="M83.92,107.14a3.77,3.77,0,0,0,1.89.57c1,0,1.53-.52,1.53-1.17s-.4-1.06-1.46-1.45c-1.42-.51-2.09-1.29-2.09-2.24a2.43,2.43,0,0,1,2.72-2.31,3.94,3.94,0,0,1,1.94.49l-.36,1a3.13,3.13,0,0,0-1.61-.45c-.85,0-1.32.48-1.32,1.07s.47,1,1.5,1.34c1.37.52,2.07,1.2,2.07,2.38,0,1.38-1.08,2.36-3,2.36a4.5,4.5,0,0,1-2.22-.54Z"/><path class="cls-1" d="M89.46,110.61a23.27,23.27,0,0,0,1-3.89l1.6-.17a19.69,19.69,0,0,1-1.55,4Z"/><path class="cls-1" d="M97.22,97h1.43V102h0a2.54,2.54,0,0,1,1-1,2.92,2.92,0,0,1,1.47-.41c1.06,0,2.75.65,2.75,3.37v4.7H102.5v-4.53c0-1.28-.47-2.35-1.83-2.35a2.06,2.06,0,0,0-1.92,1.43,1.8,1.8,0,0,0-.1.69v4.76H97.22Z"/><path class="cls-1" d="M107.86,98.5a.84.84,0,0,1-.91.88.85.85,0,0,1-.87-.88.88.88,0,0,1,.9-.89A.85.85,0,0,1,107.86,98.5Zm-1.6,10.11v-7.89h1.44v7.89Z"/><path class="cls-1" d="M116.87,100.72c0,.57-.06,1.2-.06,2.17v4.58c0,1.8-.36,2.91-1.13,3.6a4.2,4.2,0,0,1-2.87.94,5.14,5.14,0,0,1-2.62-.65l.36-1.09a4.51,4.51,0,0,0,2.31.62c1.47,0,2.55-.77,2.55-2.76v-.88h0a2.79,2.79,0,0,1-2.51,1.32c-2,0-3.35-1.66-3.35-3.84,0-2.67,1.74-4.19,3.55-4.19a2.62,2.62,0,0,1,2.46,1.37h0l.07-1.19Zm-1.48,3.11a2.23,2.23,0,0,0-.08-.65,2.07,2.07,0,0,0-2-1.52c-1.37,0-2.34,1.16-2.34,3,0,1.54.78,2.83,2.33,2.83a2.1,2.1,0,0,0,2-1.46,2.61,2.61,0,0,0,.11-.77Z"/><path class="cls-1" d="M119.19,97h1.43V102h0a2.63,2.63,0,0,1,1-1,2.89,2.89,0,0,1,1.47-.41c1.06,0,2.75.65,2.75,3.37v4.7h-1.43v-4.53c0-1.28-.48-2.35-1.83-2.35a2.05,2.05,0,0,0-1.92,1.43,1.8,1.8,0,0,0-.1.69v4.76h-1.43Z"/><path class="cls-1" d="M132.48,104.92a2.53,2.53,0,0,0,2.71,2.74,5.13,5.13,0,0,0,2.18-.41l.25,1a6.39,6.39,0,0,1-2.63.49,3.67,3.67,0,0,1-3.88-4c0-2.38,1.41-4.25,3.7-4.25,2.58,0,3.26,2.26,3.26,3.72a4.54,4.54,0,0,1,0,.66Zm4.21-1a2,2,0,0,0-2-2.33,2.37,2.37,0,0,0-2.2,2.33Z"/><path class="cls-1" d="M139.85,102.85c0-.81,0-1.48-.07-2.13h1.27l.09,1.3h0a2.89,2.89,0,0,1,2.61-1.48c1.09,0,2.78.65,2.78,3.36v4.71h-1.43v-4.55c0-1.27-.47-2.33-1.83-2.33a2,2,0,0,0-1.92,1.47,2.18,2.18,0,0,0-.1.66v4.75h-1.43Z"/><path class="cls-1" d="M149.69,104.92a2.53,2.53,0,0,0,2.71,2.74,5.16,5.16,0,0,0,2.18-.41l.24,1a6.29,6.29,0,0,1-2.62.49,3.67,3.67,0,0,1-3.88-4c0-2.38,1.4-4.25,3.7-4.25,2.58,0,3.26,2.26,3.26,3.72a4.54,4.54,0,0,1-.05.66Zm4.21-1a2,2,0,0,0-2-2.33,2.37,2.37,0,0,0-2.2,2.33Z"/><path class="cls-1" d="M157.06,103.18c0-.93,0-1.73-.07-2.46h1.26l.05,1.55h.06a2.37,2.37,0,0,1,2.18-1.73,1.64,1.64,0,0,1,.41,0v1.35a2.24,2.24,0,0,0-.49,0,2,2,0,0,0-1.92,1.84,4.51,4.51,0,0,0-.06.67v4.21h-1.42Z"/><path class="cls-1" d="M169.05,100.72c0,.57-.06,1.2-.06,2.17v4.58c0,1.8-.36,2.91-1.13,3.6A4.2,4.2,0,0,1,165,112a5.11,5.11,0,0,1-2.62-.65l.36-1.09a4.48,4.48,0,0,0,2.31.62c1.47,0,2.54-.77,2.54-2.76v-.88h0a2.81,2.81,0,0,1-2.51,1.32c-1.95,0-3.35-1.66-3.35-3.84,0-2.67,1.74-4.19,3.55-4.19a2.62,2.62,0,0,1,2.46,1.37h0l.07-1.19Zm-1.48,3.11a2.23,2.23,0,0,0-.08-.65,2.08,2.08,0,0,0-2-1.52c-1.37,0-2.34,1.16-2.34,3,0,1.54.78,2.83,2.33,2.83a2.08,2.08,0,0,0,2-1.46,2.33,2.33,0,0,0,.12-.77Z"/><path class="cls-1" d="M171.89,100.72l1.72,4.66c.18.52.38,1.14.51,1.61h0c.15-.47.31-1.07.51-1.64l1.56-4.63h1.52l-2.15,5.62c-1,2.71-1.73,4.09-2.71,4.94a3.92,3.92,0,0,1-1.76.93l-.36-1.21a3.75,3.75,0,0,0,1.26-.7,4.25,4.25,0,0,0,1.2-1.6.92.92,0,0,0,.12-.34,1.47,1.47,0,0,0-.1-.37l-2.92-7.27Z"/><path class="cls-1" d="M49,152.64c-.08-1.53-.18-3.37-.16-4.74h0c-.37,1.29-.83,2.66-1.38,4.17l-1.94,5.33H44.34l-1.78-5.23c-.52-1.55-1-3-1.27-4.27h0c0,1.37-.11,3.21-.21,4.86l-.29,4.71H39.4l.77-11H42l1.87,5.32c.46,1.35.83,2.55,1.11,3.7h0c.28-1.11.67-2.32,1.16-3.7l1.95-5.32h1.81l.68,11H49.23Z"/><path class="cls-1" d="M60,153.46a3.86,3.86,0,0,1-3.92,4.19,3.75,3.75,0,0,1-3.78-4.06,3.85,3.85,0,0,1,3.91-4.19A3.74,3.74,0,0,1,60,153.46Zm-6.25.08c0,1.73,1,3,2.39,3s2.4-1.29,2.4-3.06c0-1.34-.67-3-2.37-3S53.73,152,53.73,153.54Z"/><path class="cls-1" d="M68.6,145.9v9.53c0,.7,0,1.5.07,2H67.38l-.06-1.37h0a2.91,2.91,0,0,1-2.68,1.55c-1.91,0-3.38-1.62-3.38-4,0-2.63,1.62-4.24,3.54-4.24a2.64,2.64,0,0,1,2.38,1.21h0V145.9Zm-1.43,6.89a3.05,3.05,0,0,0-.06-.6A2.12,2.12,0,0,0,65,150.52c-1.49,0-2.37,1.31-2.37,3s.79,2.92,2.33,2.92a2.18,2.18,0,0,0,2.11-1.71,3,3,0,0,0,.06-.62Z"/><path class="cls-1" d="M71.78,153.78a2.53,2.53,0,0,0,2.71,2.74,5.16,5.16,0,0,0,2.18-.41l.25,1a6.39,6.39,0,0,1-2.63.49,3.67,3.67,0,0,1-3.88-4c0-2.38,1.4-4.25,3.7-4.25,2.58,0,3.26,2.27,3.26,3.72a4.54,4.54,0,0,1-.05.66Zm4.21-1a2,2,0,0,0-2-2.33,2.37,2.37,0,0,0-2.2,2.33Z"/><path class="cls-1" d="M79.15,152c0-.93,0-1.73-.07-2.46h1.26l0,1.55h.06a2.37,2.37,0,0,1,2.19-1.73,1.62,1.62,0,0,1,.4,0v1.35a2.24,2.24,0,0,0-.49-.05,2,2,0,0,0-1.92,1.84,4.51,4.51,0,0,0-.06.67v4.21H79.15Z"/><path class="cls-1" d="M84.54,151.71c0-.81,0-1.48-.06-2.13h1.27l.08,1.3h0a2.91,2.91,0,0,1,2.61-1.48c1.09,0,2.79.65,2.79,3.36v4.71H89.82v-4.55c0-1.27-.47-2.33-1.82-2.33a2,2,0,0,0-1.93,1.47,2.19,2.19,0,0,0-.09.66v4.75H84.54Z"/><path class="cls-1" d="M104.18,153.46a3.86,3.86,0,0,1-3.93,4.19,3.76,3.76,0,0,1-3.78-4.06,3.85,3.85,0,0,1,3.91-4.19A3.74,3.74,0,0,1,104.18,153.46Zm-6.26.08c0,1.73,1,3,2.4,3s2.39-1.29,2.39-3.06c0-1.34-.67-3-2.36-3S97.92,152,97.92,153.54Z"/><path class="cls-1" d="M106,152c0-.93,0-1.73-.07-2.46h1.26l0,1.55h.06a2.37,2.37,0,0,1,2.18-1.73,1.64,1.64,0,0,1,.41,0v1.35a2.31,2.31,0,0,0-.49-.05,2,2,0,0,0-1.92,1.84,4.45,4.45,0,0,0-.07.67v4.21H106Z"/><path class="cls-1" d="M114.77,145.9h1.43v4.92h0a2.54,2.54,0,0,1,1-1,2.92,2.92,0,0,1,1.47-.41c1.06,0,2.75.65,2.75,3.37v4.7h-1.43v-4.53c0-1.27-.47-2.35-1.83-2.35A2.06,2.06,0,0,0,116.3,152a1.8,1.8,0,0,0-.1.69v4.76h-1.43Z"/><path class="cls-1" d="M125.41,147.36a.84.84,0,0,1-.91.88.85.85,0,0,1-.87-.88.88.88,0,0,1,.9-.89A.85.85,0,0,1,125.41,147.36Zm-1.6,10.11v-7.89h1.44v7.89Z"/><path class="cls-1" d="M134.42,149.58c0,.57-.06,1.21-.06,2.17v4.58c0,1.8-.36,2.91-1.13,3.6a4.2,4.2,0,0,1-2.87.94,5.14,5.14,0,0,1-2.62-.65l.36-1.09a4.41,4.41,0,0,0,2.31.62c1.47,0,2.55-.77,2.55-2.76v-.88h0a2.79,2.79,0,0,1-2.51,1.32c-1.95,0-3.35-1.66-3.35-3.84,0-2.67,1.74-4.19,3.55-4.19a2.62,2.62,0,0,1,2.46,1.37h0l.07-1.19Zm-1.48,3.11a2.23,2.23,0,0,0-.08-.65,2.07,2.07,0,0,0-2-1.52c-1.37,0-2.34,1.16-2.34,3,0,1.54.78,2.83,2.33,2.83a2.1,2.1,0,0,0,2-1.46,2.61,2.61,0,0,0,.11-.77Z"/><path class="cls-1" d="M136.74,145.9h1.43v4.92h0a2.63,2.63,0,0,1,1-1,2.89,2.89,0,0,1,1.47-.41c1.06,0,2.75.65,2.75,3.37v4.7H142v-4.53c0-1.27-.48-2.35-1.83-2.35a2.05,2.05,0,0,0-1.92,1.43,1.8,1.8,0,0,0-.1.69v4.76h-1.43Z"/><path class="cls-1" d="M151,147.31v2.27H153v1.09H151v4.25c0,1,.28,1.54,1.08,1.54a3.15,3.15,0,0,0,.83-.1l.06,1.07a3.32,3.32,0,0,1-1.27.2,2,2,0,0,1-1.55-.6,3,3,0,0,1-.55-2.06v-4.3h-1.22v-1.09h1.22v-1.89Z"/><path class="cls-1" d="M155.33,153.78a2.53,2.53,0,0,0,2.7,2.74,5.18,5.18,0,0,0,2.19-.41l.24,1a6.33,6.33,0,0,1-2.62.49,3.67,3.67,0,0,1-3.88-4c0-2.38,1.4-4.25,3.7-4.25,2.57,0,3.26,2.27,3.26,3.72a4.54,4.54,0,0,1,0,.66Zm4.2-1a2,2,0,0,0-2-2.33,2.37,2.37,0,0,0-2.2,2.33Z"/><path class="cls-1" d="M168.32,157.17a5.25,5.25,0,0,1-2.27.46,3.75,3.75,0,0,1-3.93-4,4,4,0,0,1,4.24-4.18,4.9,4.9,0,0,1,2,.4l-.33,1.11a3.38,3.38,0,0,0-1.66-.37,3,3,0,0,0-.05,5.93,4,4,0,0,0,1.76-.39Z"/><path class="cls-1" d="M170,145.9h1.43v4.92h0a2.63,2.63,0,0,1,1-1,2.89,2.89,0,0,1,1.47-.41c1.06,0,2.75.65,2.75,3.37v4.7h-1.43v-4.53c0-1.27-.48-2.35-1.83-2.35a2.05,2.05,0,0,0-1.92,1.43,1.8,1.8,0,0,0-.1.69v4.76H170Z"/><path class="cls-1" d="M97.69,206a7,7,0,0,1-2.9.52c-3.09,0-5.43-2-5.43-5.56a5.47,5.47,0,0,1,5.74-5.77,6,6,0,0,1,2.61.49l-.34,1.16a5.21,5.21,0,0,0-2.22-.46c-2.57,0-4.29,1.65-4.29,4.53,0,2.69,1.55,4.42,4.22,4.42a5.63,5.63,0,0,0,2.32-.46Z"/><path class="cls-1" d="M105.82,204.17c0,.82,0,1.54.07,2.16h-1.27l-.08-1.29h0a3,3,0,0,1-2.6,1.47c-1.24,0-2.73-.69-2.73-3.46v-4.61h1.44v4.37c0,1.5.46,2.51,1.76,2.51a2.07,2.07,0,0,0,1.89-1.31,2.11,2.11,0,0,0,.13-.73v-4.84h1.43Z"/><path class="cls-1" d="M109.93,196.17v2.27h2v1.09h-2v4.25c0,1,.28,1.54,1.08,1.54a3.15,3.15,0,0,0,.83-.1l.06,1.07a3.32,3.32,0,0,1-1.27.2,2,2,0,0,1-1.55-.6,3,3,0,0,1-.55-2.06v-4.3h-1.22v-1.09h1.22v-1.89Z"/><path class="cls-1" d="M115.32,196.17v2.27h2.06v1.09h-2.06v4.25c0,1,.28,1.54,1.08,1.54a3.15,3.15,0,0,0,.83-.1l.07,1.07a3.41,3.41,0,0,1-1.28.2,2,2,0,0,1-1.54-.6,2.94,2.94,0,0,1-.56-2.06v-4.3H112.7v-1.09h1.22v-1.89Z"/><path class="cls-1" d="M120.59,196.22a.89.89,0,0,1-1.78,0,.88.88,0,0,1,.9-.89A.85.85,0,0,1,120.59,196.22ZM119,206.33v-7.89h1.43v7.89Z"/><path class="cls-1" d="M122.8,200.57c0-.81,0-1.48-.06-2.13H124l.08,1.3h0a2.91,2.91,0,0,1,2.61-1.48c1.09,0,2.79.65,2.79,3.36v4.71h-1.44v-4.55c0-1.27-.47-2.33-1.82-2.33a2,2,0,0,0-1.92,1.47,1.87,1.87,0,0,0-.1.66v4.75H122.8Z"/><path class="cls-1" d="M138.64,198.44c0,.57-.06,1.2-.06,2.17v4.58c0,1.8-.36,2.91-1.13,3.6a4.19,4.19,0,0,1-2.86.94,5.15,5.15,0,0,1-2.63-.65l.36-1.09a4.51,4.51,0,0,0,2.31.62c1.47,0,2.55-.77,2.55-2.76V205h0a2.79,2.79,0,0,1-2.51,1.32c-1.95,0-3.35-1.66-3.35-3.84,0-2.67,1.74-4.19,3.55-4.19a2.62,2.62,0,0,1,2.46,1.37h0l.07-1.19Zm-1.48,3.11a2.18,2.18,0,0,0-.08-.65,2.07,2.07,0,0,0-2-1.52c-1.36,0-2.34,1.16-2.34,3,0,1.54.78,2.83,2.33,2.83a2.1,2.1,0,0,0,2-1.46,2.61,2.61,0,0,0,.11-.77Z"/><path class="cls-1" d="M145.21,202.64a2.53,2.53,0,0,0,2.71,2.74,5.16,5.16,0,0,0,2.18-.41l.24,1a6.33,6.33,0,0,1-2.62.49,3.67,3.67,0,0,1-3.88-4c0-2.38,1.4-4.25,3.7-4.25,2.58,0,3.26,2.26,3.26,3.71a4.58,4.58,0,0,1-.05.67Zm4.2-1a2,2,0,0,0-2-2.33,2.37,2.37,0,0,0-2.2,2.33Z"/><path class="cls-1" d="M159.39,194.76v9.53c0,.7,0,1.5.06,2h-1.28L158.1,205h0a2.92,2.92,0,0,1-2.69,1.55c-1.91,0-3.37-1.62-3.37-4,0-2.63,1.61-4.24,3.53-4.24a2.63,2.63,0,0,1,2.38,1.21h0v-4.71ZM158,201.65a2.45,2.45,0,0,0-.06-.6,2.11,2.11,0,0,0-2.07-1.67c-1.48,0-2.36,1.31-2.36,3.05s.78,2.92,2.33,2.92a2.16,2.16,0,0,0,2.1-1.71A2.46,2.46,0,0,0,158,203Z"/><path class="cls-1" d="M168.56,198.44c0,.57-.06,1.2-.06,2.17v4.58c0,1.8-.36,2.91-1.13,3.6a4.2,4.2,0,0,1-2.87.94,5.14,5.14,0,0,1-2.62-.65l.36-1.09a4.51,4.51,0,0,0,2.31.62c1.47,0,2.55-.77,2.55-2.76V205h0a2.81,2.81,0,0,1-2.51,1.32c-2,0-3.35-1.66-3.35-3.84,0-2.67,1.74-4.19,3.55-4.19a2.62,2.62,0,0,1,2.46,1.37h0l.07-1.19Zm-1.48,3.11a2.18,2.18,0,0,0-.08-.65,2.07,2.07,0,0,0-2-1.52c-1.37,0-2.34,1.16-2.34,3,0,1.54.78,2.83,2.33,2.83a2.07,2.07,0,0,0,2-1.46,2.33,2.33,0,0,0,.12-.77Z"/><path class="cls-1" d="M171.67,202.64a2.54,2.54,0,0,0,2.71,2.74,5.09,5.09,0,0,0,2.18-.41l.25,1a6.39,6.39,0,0,1-2.63.49,3.66,3.66,0,0,1-3.87-4c0-2.38,1.4-4.25,3.69-4.25,2.58,0,3.26,2.26,3.26,3.71a4.58,4.58,0,0,1,0,.67Zm4.21-1a2,2,0,0,0-2-2.33,2.37,2.37,0,0,0-2.2,2.33Z"/><path class="cls-1" d="M153.7,244.2h5.92v1.19h-4.5V249h4.15v1.17h-4.15v5H153.7Z"/><path class="cls-1" d="M167.62,253c0,.82,0,1.54.06,2.16h-1.27l-.08-1.29h0a3,3,0,0,1-2.61,1.47c-1.24,0-2.72-.69-2.72-3.46V247.3h1.43v4.37c0,1.5.46,2.5,1.76,2.5a2.06,2.06,0,0,0,1.89-1.3,2.11,2.11,0,0,0,.13-.73V247.3h1.44Z"/><path class="cls-1" d="M170,249.43c0-.81,0-1.48-.07-2.13h1.27l.08,1.3h0a2.89,2.89,0,0,1,2.6-1.48c1.1,0,2.79.65,2.79,3.36v4.71h-1.43v-4.55c0-1.27-.48-2.33-1.83-2.33a2,2,0,0,0-1.92,1.47,1.87,1.87,0,0,0-.1.66v4.75H170Z"/><path class="cls-1" d="M73.82,300.59,72.68,304H71.21l3.73-11h1.71l3.75,11H78.89l-1.18-3.45Zm3.6-1.11-1.07-3.16c-.25-.72-.41-1.37-.58-2h0c-.16.65-.34,1.32-.55,2l-1.08,3.18Z"/><path class="cls-1" d="M87.39,303.75a5.16,5.16,0,0,1-2.26.46,3.75,3.75,0,0,1-3.93-4A4,4,0,0,1,85.44,296a4.87,4.87,0,0,1,2,.41l-.33,1.11a3.28,3.28,0,0,0-1.66-.37,3,3,0,0,0,0,5.93,4.09,4.09,0,0,0,1.76-.39Z"/><path class="cls-1" d="M94.6,303.75a5.25,5.25,0,0,1-2.27.46,3.75,3.75,0,0,1-3.93-4A4,4,0,0,1,92.64,296a4.87,4.87,0,0,1,2,.41l-.33,1.11a3.28,3.28,0,0,0-1.66-.37,3,3,0,0,0,0,5.93,4.06,4.06,0,0,0,1.76-.39Z"/><path class="cls-1" d="M97,300.36a2.53,2.53,0,0,0,2.7,2.74,5.09,5.09,0,0,0,2.18-.41l.25,1a6.37,6.37,0,0,1-2.62.49,3.67,3.67,0,0,1-3.88-4c0-2.38,1.4-4.25,3.7-4.25,2.57,0,3.26,2.26,3.26,3.71,0,.3,0,.52,0,.67Zm4.2-1a2,2,0,0,0-2-2.33,2.38,2.38,0,0,0-2.2,2.33Z"/><path class="cls-1" d="M104.15,302.58a3.71,3.71,0,0,0,1.89.57c1,0,1.53-.52,1.53-1.17s-.41-1.06-1.47-1.46c-1.42-.5-2.08-1.28-2.08-2.23a2.43,2.43,0,0,1,2.72-2.31,3.94,3.94,0,0,1,1.94.49l-.36,1a3,3,0,0,0-1.62-.46c-.84,0-1.32.49-1.32,1.08s.48.94,1.5,1.34c1.37.52,2.07,1.2,2.07,2.37,0,1.39-1.07,2.37-3,2.37a4.43,4.43,0,0,1-2.21-.54Z"/><path class="cls-1" d="M110.6,302.58a3.71,3.71,0,0,0,1.89.57c1,0,1.53-.52,1.53-1.17s-.41-1.06-1.47-1.46c-1.41-.5-2.08-1.28-2.08-2.23a2.43,2.43,0,0,1,2.72-2.31,3.94,3.94,0,0,1,1.94.49l-.36,1a3,3,0,0,0-1.61-.46c-.85,0-1.32.49-1.32,1.08s.47.94,1.5,1.34c1.37.52,2.07,1.2,2.07,2.37,0,1.39-1.08,2.37-3,2.37a4.44,4.44,0,0,1-2.22-.54Z"/><path class="cls-1" d="M118.84,293.94a.84.84,0,0,1-.91.88.85.85,0,0,1-.86-.88.88.88,0,0,1,.89-.9A.86.86,0,0,1,118.84,293.94ZM117.25,304v-7.88h1.43V304Z"/><path class="cls-1" d="M121,304c0-.53.06-1.33.06-2v-9.54h1.42v5h0A3,3,0,0,1,125.2,296c2,0,3.34,1.63,3.32,4,0,2.82-1.77,4.22-3.53,4.22a2.82,2.82,0,0,1-2.64-1.48h0l-.07,1.3Zm1.48-3.16a3.07,3.07,0,0,0,.06.53,2.21,2.21,0,0,0,2.15,1.67c1.5,0,2.4-1.22,2.4-3,0-1.58-.81-2.93-2.35-2.93a2.29,2.29,0,0,0-2.18,1.76,3,3,0,0,0-.08.59Z"/><path class="cls-1" d="M130.33,292.47h1.44V304h-1.44Z"/><path class="cls-1" d="M135,300.36a2.53,2.53,0,0,0,2.7,2.74,5.18,5.18,0,0,0,2.19-.41l.24,1a6.37,6.37,0,0,1-2.62.49,3.67,3.67,0,0,1-3.88-4c0-2.38,1.4-4.25,3.7-4.25,2.57,0,3.26,2.26,3.26,3.71,0,.3,0,.52,0,.67Zm4.2-1a2,2,0,0,0-2-2.33,2.38,2.38,0,0,0-2.2,2.33Z"/><path class="cls-1" d="M147.52,293.89v2.27h2.06v1.09h-2.06v4.25c0,1,.28,1.53,1.08,1.53a3.18,3.18,0,0,0,.83-.09l.07,1.07a3.39,3.39,0,0,1-1.27.2,2,2,0,0,1-1.55-.61,2.89,2.89,0,0,1-.56-2.05v-4.3H144.9v-1.09h1.22v-1.89Z"/><path class="cls-1" d="M158.23,300a3.85,3.85,0,0,1-3.93,4.18,3.75,3.75,0,0,1-3.78-4.05,3.85,3.85,0,0,1,3.91-4.19A3.73,3.73,0,0,1,158.23,300Zm-6.26.08c0,1.72,1,3,2.4,3s2.39-1.29,2.39-3.07c0-1.33-.66-3-2.36-3S152,298.62,152,300.12Z"/><path class="cls-1" d="M167.86,304l-.11-1h-.05a2.94,2.94,0,0,1-2.41,1.17,2.25,2.25,0,0,1-2.42-2.26c0-1.91,1.7-2.95,4.75-2.93v-.17a1.63,1.63,0,0,0-1.8-1.82,4,4,0,0,0-2,.58l-.32-.94A4.81,4.81,0,0,1,166,296c2.41,0,3,1.64,3,3.23v2.94a10.72,10.72,0,0,0,.14,1.89Zm-.21-4c-1.56,0-3.34.24-3.34,1.78a1.27,1.27,0,0,0,1.35,1.37,2,2,0,0,0,1.91-1.33,1.38,1.38,0,0,0,.08-.45Z"/><path class="cls-1" d="M171.35,292.47h1.43V304h-1.43Z"/><path class="cls-1" d="M175.19,292.47h1.44V304h-1.44Z"/><path class="cls-1" d="M649.28,293.06v6.5c0,2.46,1.09,3.51,2.56,3.51,1.63,0,2.67-1.08,2.67-3.51v-6.5H656v6.41c0,3.37-1.78,4.75-4.16,4.75s-3.94-1.28-3.94-4.69v-6.47Z"/><path class="cls-1" d="M658.36,298.73c0-1,0-1.82-.07-2.57h1.29l.06,1.35h0a3.09,3.09,0,0,1,2.8-1.53c1.91,0,3.34,1.61,3.34,4,0,2.83-1.73,4.23-3.58,4.23a2.76,2.76,0,0,1-2.43-1.23h0v4.28h-1.41Zm1.41,2.1a3.41,3.41,0,0,0,.07.59A2.2,2.2,0,0,0,662,303.1c1.52,0,2.4-1.24,2.4-3.05,0-1.58-.83-2.93-2.35-2.93a2.29,2.29,0,0,0-2.17,1.78,2.2,2.2,0,0,0-.1.58Z"/><path class="cls-1" d="M667.43,302.58a3.77,3.77,0,0,0,1.89.57c1,0,1.54-.52,1.54-1.17s-.41-1.06-1.47-1.46c-1.42-.5-2.09-1.28-2.09-2.23A2.43,2.43,0,0,1,670,296a3.94,3.94,0,0,1,1.94.49l-.36,1a3,3,0,0,0-1.61-.46c-.85,0-1.32.49-1.32,1.08s.47.94,1.5,1.34c1.37.52,2.07,1.2,2.07,2.37,0,1.39-1.07,2.37-3,2.37a4.43,4.43,0,0,1-2.21-.54Z"/><path class="cls-1" d="M679.7,303.75a5.16,5.16,0,0,1-2.26.46,3.75,3.75,0,0,1-3.93-4,4,4,0,0,1,4.24-4.19,4.87,4.87,0,0,1,2,.41l-.33,1.11a3.28,3.28,0,0,0-1.66-.37,3,3,0,0,0,0,5.93,4.06,4.06,0,0,0,1.76-.39Z"/><path class="cls-1" d="M685.75,304l-.11-1h0a2.94,2.94,0,0,1-2.41,1.17,2.25,2.25,0,0,1-2.42-2.26c0-1.91,1.7-2.95,4.75-2.93v-.17a1.63,1.63,0,0,0-1.8-1.82,4,4,0,0,0-2.05.58l-.33-.94a4.88,4.88,0,0,1,2.6-.7c2.41,0,3,1.64,3,3.23v2.94a11.85,11.85,0,0,0,.13,1.89Zm-.21-4c-1.57,0-3.34.24-3.34,1.78a1.27,1.27,0,0,0,1.35,1.37,2,2,0,0,0,1.91-1.33,1.38,1.38,0,0,0,.08-.45Z"/><path class="cls-1" d="M689.24,292.47h1.43V304h-1.43Z"/><path class="cls-1" d="M693.88,300.36a2.53,2.53,0,0,0,2.71,2.74,5.16,5.16,0,0,0,2.18-.41l.25,1a6.39,6.39,0,0,1-2.63.49,3.67,3.67,0,0,1-3.88-4c0-2.38,1.4-4.25,3.7-4.25,2.58,0,3.26,2.26,3.26,3.71a4.71,4.71,0,0,1-.05.67Zm4.21-1a2,2,0,0,0-2-2.33,2.38,2.38,0,0,0-2.2,2.33Z"/><path class="cls-2" d="M224.5,61v.81H213V61Z"/><path class="cls-2" d="M236.05,61v.81H224.5V61Z"/><path class="cls-2" d="M247.59,61v.81H236.05V61Z"/><path class="cls-2" d="M259.13,61v.81H247.59V61Z"/><path class="cls-2" d="M270.68,61v.81H259.13V61Z"/><path class="cls-2" d="M282.22,61v.81H270.67V61Z"/><path class="cls-2" d="M293.76,61v.81H282.22V61Z"/><path class="cls-2" d="M305.3,61v.81H293.76V61Z"/><path class="cls-2" d="M316.85,61v.81H305.3V61Z"/><path class="cls-2" d="M328.39,61v.81H316.85V61Z"/><path class="cls-2" d="M339.93,61v.81H328.39V61Z"/><path class="cls-2" d="M351.48,61v.81H339.93V61Z"/><path class="cls-2" d="M363,61v.81H351.48V61Z"/><path class="cls-2" d="M374.56,61v.81H363V61Z"/><path class="cls-2" d="M386.1,61v.81H374.56V61Z"/><path class="cls-2" d="M397.65,61v.81H386.1V61Z"/><path class="cls-2" d="M409.19,61v.81H397.65V61Z"/><path class="cls-2" d="M420.73,61v.81H409.19V61Z"/><path class="cls-2" d="M432.28,61v.81H420.73V61Z"/><path class="cls-2" d="M443.82,61v.81H432.28V61Z"/><path class="cls-2" d="M455.36,61v.81H443.82V61Z"/><path class="cls-2" d="M466.9,61v.81H455.36V61Z"/><path class="cls-2" d="M478.45,61v.81H466.9V61Z"/><path class="cls-2" d="M490,61v.81H478.45V61Z"/><path class="cls-2" d="M501.53,61v.81H490V61Z"/><path class="cls-2" d="M513.08,61v.81H501.53V61Z"/><path class="cls-2" d="M524.62,61v.81H513.08V61Z"/><path class="cls-2" d="M536.16,61v.81H524.62V61Z"/><path class="cls-2" d="M547.71,61v.81H536.16V61Z"/><path class="cls-2" d="M559.25,61v.81H547.71V61Z"/><path class="cls-2" d="M570.79,61v.81H559.25V61Z"/><path class="cls-2" d="M582.33,61v.81H570.79V61Z"/><path class="cls-2" d="M593.88,61v.81H582.33V61Z"/><path class="cls-2" d="M605.42,61v.81H593.88V61Z"/><path class="cls-2" d="M617,61v.81H605.42V61Z"/><path class="cls-2" d="M224.75,109.83v.81H213v-.81Z"/><path class="cls-2" d="M236.55,109.83v.81h-11.8v-.81Z"/><path class="cls-2" d="M248.34,109.83v.81H236.55v-.81Z"/><path class="cls-2" d="M260.14,109.83v.81h-11.8v-.81Z"/><path class="cls-2" d="M271.93,109.83v.81h-11.8v-.81Z"/><path class="cls-2" d="M283.72,109.83v.81H271.93v-.81Z"/><path class="cls-2" d="M295.52,109.83v.81h-11.8v-.81Z"/><path class="cls-2" d="M307.31,109.83v.81H295.52v-.81Z"/><path class="cls-2" d="M319.1,109.83v.81H307.31v-.81Z"/><path class="cls-2" d="M330.9,109.83v.81H319.1v-.81Z"/><path class="cls-2" d="M342.69,109.83v.81H330.9v-.81Z"/><path class="cls-2" d="M354.49,109.83v.81h-11.8v-.81Z"/><path class="cls-2" d="M366.28,109.83v.81H354.49v-.81Z"/><path class="cls-2" d="M378.07,109.83v.81H366.28v-.81Z"/><path class="cls-2" d="M389.87,109.83v.81h-11.8v-.81Z"/><path class="cls-2" d="M401.66,109.83v.81H389.87v-.81Z"/><path class="cls-2" d="M413.46,109.83v.81h-11.8v-.81Z"/><path class="cls-2" d="M425.25,109.83v.81h-11.8v-.81Z"/><path class="cls-2" d="M437,109.83v.81H425.25v-.81Z"/><path class="cls-2" d="M448.84,109.83v.81H437v-.81Z"/><path class="cls-2" d="M460.63,109.83v.81H448.84v-.81Z"/><path class="cls-2" d="M472.43,109.83v.81h-11.8v-.81Z"/><path class="cls-2" d="M484.22,109.83v.81h-11.8v-.81Z"/><path class="cls-2" d="M496,109.83v.81H484.22v-.81Z"/><path class="cls-2" d="M507.81,109.83v.81H496v-.81Z"/><path class="cls-2" d="M519.6,109.83v.81H507.81v-.81Z"/><path class="cls-2" d="M531.39,109.83v.81H519.6v-.81Z"/><path class="cls-2" d="M543.19,109.83v.81h-11.8v-.81Z"/><path class="cls-2" d="M555,109.83v.81H543.19v-.81Z"/><path class="cls-2" d="M566.78,109.83v.81H555v-.81Z"/><path class="cls-2" d="M578.57,109.83v.81h-11.8v-.81Z"/><path class="cls-2" d="M590.36,109.83v.81H578.57v-.81Z"/><path class="cls-2" d="M602.16,109.83v.81h-11.8v-.81Z"/><path class="cls-2" d="M614,109.83v.81H602.16v-.81Z"/><path class="cls-2" d="M224.5,158.69v.81H213v-.81Z"/><path class="cls-2" d="M236.05,158.69v.81H224.5v-.81Z"/><path class="cls-2" d="M247.59,158.69v.81H236.05v-.81Z"/><path class="cls-2" d="M259.13,158.69v.81H247.59v-.81Z"/><path class="cls-2" d="M270.68,158.69v.81H259.13v-.81Z"/><path class="cls-2" d="M282.22,158.69v.81H270.67v-.81Z"/><path class="cls-2" d="M293.76,158.69v.81H282.22v-.81Z"/><path class="cls-2" d="M305.3,158.69v.81H293.76v-.81Z"/><path class="cls-2" d="M316.85,158.69v.81H305.3v-.81Z"/><path class="cls-2" d="M328.39,158.69v.81H316.85v-.81Z"/><path class="cls-2" d="M339.93,158.69v.81H328.39v-.81Z"/><path class="cls-2" d="M351.48,158.69v.81H339.93v-.81Z"/><path class="cls-2" d="M363,158.69v.81H351.48v-.81Z"/><path class="cls-2" d="M374.56,158.69v.81H363v-.81Z"/><path class="cls-2" d="M386.1,158.69v.81H374.56v-.81Z"/><path class="cls-2" d="M397.65,158.69v.81H386.1v-.81Z"/><path class="cls-2" d="M409.19,158.69v.81H397.65v-.81Z"/><path class="cls-2" d="M420.73,158.69v.81H409.19v-.81Z"/><path class="cls-2" d="M432.28,158.69v.81H420.73v-.81Z"/><path class="cls-2" d="M443.82,158.69v.81H432.28v-.81Z"/><path class="cls-2" d="M455.36,158.69v.81H443.82v-.81Z"/><path class="cls-2" d="M466.9,158.69v.81H455.36v-.81Z"/><path class="cls-2" d="M478.45,158.69v.81H466.9v-.81Z"/><path class="cls-2" d="M490,158.69v.81H478.45v-.81Z"/><path class="cls-2" d="M501.53,158.69v.81H490v-.81Z"/><path class="cls-2" d="M513.08,158.69v.81H501.53v-.81Z"/><path class="cls-2" d="M524.62,158.69v.81H513.08v-.81Z"/><path class="cls-2" d="M536.16,158.69v.81H524.62v-.81Z"/><path class="cls-2" d="M547.71,158.69v.81H536.16v-.81Z"/><path class="cls-2" d="M559.25,158.69v.81H547.71v-.81Z"/><path class="cls-2" d="M570.79,158.69v.81H559.25v-.81Z"/><path class="cls-2" d="M582.33,158.69v.81H570.79v-.81Z"/><path class="cls-2" d="M593.88,158.69v.81H582.33v-.81Z"/><path class="cls-2" d="M605.42,158.69v.81H593.88v-.81Z"/><path class="cls-2" d="M617,158.69v.81H605.42v-.81Z"/><path class="cls-2" d="M224.5,207.55v.81H213v-.81Z"/><path class="cls-2" d="M236.05,207.55v.81H224.5v-.81Z"/><path class="cls-2" d="M247.59,207.55v.81H236.05v-.81Z"/><path class="cls-2" d="M259.13,207.55v.81H247.59v-.81Z"/><path class="cls-2" d="M270.68,207.55v.81H259.13v-.81Z"/><path class="cls-2" d="M282.22,207.55v.81H270.67v-.81Z"/><path class="cls-2" d="M293.76,207.55v.81H282.22v-.81Z"/><path class="cls-2" d="M305.3,207.55v.81H293.76v-.81Z"/><path class="cls-2" d="M316.85,207.55v.81H305.3v-.81Z"/><path class="cls-2" d="M328.39,207.55v.81H316.85v-.81Z"/><path class="cls-2" d="M339.93,207.55v.81H328.39v-.81Z"/><path class="cls-2" d="M351.48,207.55v.81H339.93v-.81Z"/><path class="cls-2" d="M363,207.55v.81H351.48v-.81Z"/><path class="cls-2" d="M374.56,207.55v.81H363v-.81Z"/><path class="cls-2" d="M386.1,207.55v.81H374.56v-.81Z"/><path class="cls-2" d="M397.65,207.55v.81H386.1v-.81Z"/><path class="cls-2" d="M409.19,207.55v.81H397.65v-.81Z"/><path class="cls-2" d="M420.73,207.55v.81H409.19v-.81Z"/><path class="cls-2" d="M432.28,207.55v.81H420.73v-.81Z"/><path class="cls-2" d="M443.82,207.55v.81H432.28v-.81Z"/><path class="cls-2" d="M455.36,207.55v.81H443.82v-.81Z"/><path class="cls-2" d="M466.9,207.55v.81H455.36v-.81Z"/><path class="cls-2" d="M478.45,207.55v.81H466.9v-.81Z"/><path class="cls-2" d="M490,207.55v.81H478.45v-.81Z"/><path class="cls-2" d="M501.53,207.55v.81H490v-.81Z"/><path class="cls-2" d="M513.08,207.55v.81H501.53v-.81Z"/><path class="cls-2" d="M524.62,207.55v.81H513.08v-.81Z"/><path class="cls-2" d="M536.16,207.55v.81H524.62v-.81Z"/><path class="cls-2" d="M547.71,207.55v.81H536.16v-.81Z"/><path class="cls-2" d="M559.25,207.55v.81H547.71v-.81Z"/><path class="cls-2" d="M570.79,207.55v.81H559.25v-.81Z"/><path class="cls-2" d="M582.33,207.55v.81H570.79v-.81Z"/><path class="cls-2" d="M593.88,207.55v.81H582.33v-.81Z"/><path class="cls-2" d="M605.42,207.55v.81H593.88v-.81Z"/><path class="cls-2" d="M617,207.55v.81H605.42v-.81Z"/><path class="cls-2" d="M224.5,256.41v.81H213v-.81Z"/><path class="cls-2" d="M236.05,256.41v.81H224.5v-.81Z"/><path class="cls-2" d="M247.59,256.41v.81H236.05v-.81Z"/><path class="cls-2" d="M259.13,256.41v.81H247.59v-.81Z"/><path class="cls-2" d="M270.68,256.41v.81H259.13v-.81Z"/><path class="cls-2" d="M282.22,256.41v.81H270.67v-.81Z"/><path class="cls-2" d="M293.76,256.41v.81H282.22v-.81Z"/><path class="cls-2" d="M305.3,256.41v.81H293.76v-.81Z"/><path class="cls-2" d="M316.85,256.41v.81H305.3v-.81Z"/><path class="cls-2" d="M328.39,256.41v.81H316.85v-.81Z"/><path class="cls-2" d="M339.93,256.41v.81H328.39v-.81Z"/><path class="cls-2" d="M351.48,256.41v.81H339.93v-.81Z"/><path class="cls-2" d="M363,256.41v.81H351.48v-.81Z"/><path class="cls-2" d="M374.56,256.41v.81H363v-.81Z"/><path class="cls-2" d="M386.1,256.41v.81H374.56v-.81Z"/><path class="cls-2" d="M397.65,256.41v.81H386.1v-.81Z"/><path class="cls-2" d="M409.19,256.41v.81H397.65v-.81Z"/><path class="cls-2" d="M420.73,256.41v.81H409.19v-.81Z"/><path class="cls-2" d="M432.28,256.41v.81H420.73v-.81Z"/><path class="cls-2" d="M443.82,256.41v.81H432.28v-.81Z"/><path class="cls-2" d="M455.36,256.41v.81H443.82v-.81Z"/><path class="cls-2" d="M466.9,256.41v.81H455.36v-.81Z"/><path class="cls-2" d="M478.45,256.41v.81H466.9v-.81Z"/><path class="cls-2" d="M490,256.41v.81H478.45v-.81Z"/><path class="cls-2" d="M501.53,256.41v.81H490v-.81Z"/><path class="cls-2" d="M513.08,256.41v.81H501.53v-.81Z"/><path class="cls-2" d="M524.62,256.41v.81H513.08v-.81Z"/><path class="cls-2" d="M536.16,256.41v.81H524.62v-.81Z"/><path class="cls-2" d="M547.71,256.41v.81H536.16v-.81Z"/><path class="cls-2" d="M559.25,256.41v.81H547.71v-.81Z"/><path class="cls-2" d="M570.79,256.41v.81H559.25v-.81Z"/><path class="cls-2" d="M582.33,256.41v.81H570.79v-.81Z"/><path class="cls-2" d="M593.88,256.41v.81H582.33v-.81Z"/><path class="cls-2" d="M605.42,256.41v.81H593.88v-.81Z"/><path class="cls-2" d="M617,256.41v.81H605.42v-.81Z"/><path class="cls-2" d="M224.5,305.27v.81H213v-.81Z"/><path class="cls-2" d="M236.05,305.27v.81H224.5v-.81Z"/><path class="cls-2" d="M247.59,305.27v.81H236.05v-.81Z"/><path class="cls-2" d="M259.13,305.27v.81H247.59v-.81Z"/><path class="cls-2" d="M270.68,305.27v.81H259.13v-.81Z"/><path class="cls-2" d="M282.22,305.27v.81H270.67v-.81Z"/><path class="cls-2" d="M293.76,305.27v.81H282.22v-.81Z"/><path class="cls-2" d="M305.3,305.27v.81H293.76v-.81Z"/><path class="cls-2" d="M316.85,305.27v.81H305.3v-.81Z"/><path class="cls-2" d="M328.39,305.27v.81H316.85v-.81Z"/><path class="cls-2" d="M339.93,305.27v.81H328.39v-.81Z"/><path class="cls-2" d="M351.48,305.27v.81H339.93v-.81Z"/><path class="cls-2" d="M363,305.27v.81H351.48v-.81Z"/><path class="cls-2" d="M374.56,305.27v.81H363v-.81Z"/><path class="cls-2" d="M386.1,305.27v.81H374.56v-.81Z"/><path class="cls-2" d="M397.65,305.27v.81H386.1v-.81Z"/><path class="cls-2" d="M409.19,305.27v.81H397.65v-.81Z"/><path class="cls-2" d="M420.73,305.27v.81H409.19v-.81Z"/><path class="cls-2" d="M432.28,305.27v.81H420.73v-.81Z"/><path class="cls-2" d="M443.82,305.27v.81H432.28v-.81Z"/><path class="cls-2" d="M455.36,305.27v.81H443.82v-.81Z"/><path class="cls-2" d="M466.9,305.27v.81H455.36v-.81Z"/><path class="cls-2" d="M478.45,305.27v.81H466.9v-.81Z"/><path class="cls-2" d="M490,305.27v.81H478.45v-.81Z"/><path class="cls-2" d="M501.53,305.27v.81H490v-.81Z"/><path class="cls-2" d="M513.08,305.27v.81H501.53v-.81Z"/><path class="cls-2" d="M524.62,305.27v.81H513.08v-.81Z"/><path class="cls-2" d="M536.16,305.27v.81H524.62v-.81Z"/><path class="cls-2" d="M547.71,305.27v.81H536.16v-.81Z"/><path class="cls-2" d="M559.25,305.27v.81H547.71v-.81Z"/><path class="cls-2" d="M570.79,305.27v.81H559.25v-.81Z"/><path class="cls-2" d="M582.33,305.27v.81H570.79v-.81Z"/><path class="cls-2" d="M593.88,305.27v.81H582.33v-.81Z"/><path class="cls-2" d="M605.42,305.27v.81H593.88v-.81Z"/><path class="cls-2" d="M617,305.27v.81H605.42v-.81Z"/><line class="cls-3" x1="423.71" y1="36.27" x2="423.71" y2="329.33"/><line class="cls-4" x1="358.52" y1="18.67" x2="358.52" y2="346.93"/><line class="cls-5" x1="293.34" y1="0.45" x2="293.34" y2="365.15"/><line class="cls-5" x1="554.07" y1="0.45" x2="554.07" y2="365.15"/><line class="cls-4" x1="488.89" y1="18.67" x2="488.89" y2="346.93"/><path class="cls-6" d="M379.21,330.14h0m0-295.5h0"/><circle class="cls-7" cx="488.29" cy="59.41" r="9.11"/><circle class="cls-7" cx="554.07" cy="108.29" r="9.11"/><circle class="cls-7" cx="358.4" cy="157.18" r="9.11"/><circle class="cls-7" cx="488.89" cy="206.07" r="9.11"/><circle class="cls-7" cx="554.07" cy="254.96" r="9.11"/><circle class="cls-7" cx="488.29" cy="303.84" r="9.11"/></g></g></svg>